G04*
G04 #@! TF.GenerationSoftware,Altium Limited,Altium Designer,25.0.2 (28)*
G04*
G04 Layer_Color=255*
%FSLAX44Y44*%
%MOMM*%
G71*
G04*
G04 #@! TF.SameCoordinates,AC037715-0773-48B7-9E6E-B3265F142276*
G04*
G04*
G04 #@! TF.FilePolarity,Positive*
G04*
G01*
G75*
%ADD32R,1.2500X2.8500*%
%ADD33R,5.5500X6.5000*%
%ADD37O,3.6000X1.2000*%
%ADD38O,3.0000X1.2000*%
%ADD41O,0.6000X2.0000*%
%ADD42R,1.8300X0.6800*%
%ADD43R,2.1000X1.2700*%
%ADD46O,0.6000X2.4000*%
%ADD47O,0.3000X1.6000*%
G04:AMPARAMS|DCode=48|XSize=0.3mm|YSize=1mm|CornerRadius=0.075mm|HoleSize=0mm|Usage=FLASHONLY|Rotation=90.000|XOffset=0mm|YOffset=0mm|HoleType=Round|Shape=RoundedRectangle|*
%AMROUNDEDRECTD48*
21,1,0.3000,0.8500,0,0,90.0*
21,1,0.1500,1.0000,0,0,90.0*
1,1,0.1500,0.4250,0.0750*
1,1,0.1500,0.4250,-0.0750*
1,1,0.1500,-0.4250,-0.0750*
1,1,0.1500,-0.4250,0.0750*
%
%ADD48ROUNDEDRECTD48*%
G04:AMPARAMS|DCode=49|XSize=0.5mm|YSize=1mm|CornerRadius=0.125mm|HoleSize=0mm|Usage=FLASHONLY|Rotation=90.000|XOffset=0mm|YOffset=0mm|HoleType=Round|Shape=RoundedRectangle|*
%AMROUNDEDRECTD49*
21,1,0.5000,0.7500,0,0,90.0*
21,1,0.2500,1.0000,0,0,90.0*
1,1,0.2500,0.3750,0.1250*
1,1,0.2500,0.3750,-0.1250*
1,1,0.2500,-0.3750,-0.1250*
1,1,0.2500,-0.3750,0.1250*
%
%ADD49ROUNDEDRECTD49*%
G04:AMPARAMS|DCode=50|XSize=1.2mm|YSize=1.4mm|CornerRadius=0.3mm|HoleSize=0mm|Usage=FLASHONLY|Rotation=0.000|XOffset=0mm|YOffset=0mm|HoleType=Round|Shape=RoundedRectangle|*
%AMROUNDEDRECTD50*
21,1,1.2000,0.8000,0,0,0.0*
21,1,0.6000,1.4000,0,0,0.0*
1,1,0.6000,0.3000,-0.4000*
1,1,0.6000,-0.3000,-0.4000*
1,1,0.6000,-0.3000,0.4000*
1,1,0.6000,0.3000,0.4000*
%
%ADD50ROUNDEDRECTD50*%
%ADD51O,1.4000X0.8000*%
%ADD54O,1.6000X0.3000*%
G04:AMPARAMS|DCode=55|XSize=1.9554mm|YSize=0.4208mm|CornerRadius=0.2104mm|HoleSize=0mm|Usage=FLASHONLY|Rotation=0.000|XOffset=0mm|YOffset=0mm|HoleType=Round|Shape=RoundedRectangle|*
%AMROUNDEDRECTD55*
21,1,1.9554,0.0000,0,0,0.0*
21,1,1.5347,0.4208,0,0,0.0*
1,1,0.4208,0.7673,0.0000*
1,1,0.4208,-0.7673,0.0000*
1,1,0.4208,-0.7673,0.0000*
1,1,0.4208,0.7673,0.0000*
%
%ADD55ROUNDEDRECTD55*%
%ADD56R,1.9554X0.4208*%
G04:AMPARAMS|DCode=57|XSize=1.55mm|YSize=0.6mm|CornerRadius=0.051mm|HoleSize=0mm|Usage=FLASHONLY|Rotation=90.000|XOffset=0mm|YOffset=0mm|HoleType=Round|Shape=RoundedRectangle|*
%AMROUNDEDRECTD57*
21,1,1.5500,0.4980,0,0,90.0*
21,1,1.4480,0.6000,0,0,90.0*
1,1,0.1020,0.2490,0.7240*
1,1,0.1020,0.2490,-0.7240*
1,1,0.1020,-0.2490,-0.7240*
1,1,0.1020,-0.2490,0.7240*
%
%ADD57ROUNDEDRECTD57*%
%ADD61O,1.2000X3.0000*%
%ADD75C,5.3100*%
%ADD92R,1.8500X1.8500*%
%ADD93C,1.8500*%
G04:AMPARAMS|DCode=108|XSize=1mm|YSize=1.6mm|CornerRadius=0.25mm|HoleSize=0mm|Usage=FLASHONLY|Rotation=270.000|XOffset=0mm|YOffset=0mm|HoleType=Round|Shape=RoundedRectangle|*
%AMROUNDEDRECTD108*
21,1,1.0000,1.1000,0,0,270.0*
21,1,0.5000,1.6000,0,0,270.0*
1,1,0.5000,-0.5500,-0.2500*
1,1,0.5000,-0.5500,0.2500*
1,1,0.5000,0.5500,0.2500*
1,1,0.5000,0.5500,-0.2500*
%
%ADD108ROUNDEDRECTD108*%
%ADD109R,1.6000X1.0000*%
%ADD110R,2.2000X2.2000*%
G04:AMPARAMS|DCode=111|XSize=2.2mm|YSize=2.2mm|CornerRadius=0.55mm|HoleSize=0mm|Usage=FLASHONLY|Rotation=270.000|XOffset=0mm|YOffset=0mm|HoleType=Round|Shape=RoundedRectangle|*
%AMROUNDEDRECTD111*
21,1,2.2000,1.1000,0,0,270.0*
21,1,1.1000,2.2000,0,0,270.0*
1,1,1.1000,-0.5500,-0.5500*
1,1,1.1000,-0.5500,0.5500*
1,1,1.1000,0.5500,0.5500*
1,1,1.1000,0.5500,-0.5500*
%
%ADD111ROUNDEDRECTD111*%
G04:AMPARAMS|DCode=112|XSize=1.6mm|YSize=1.6mm|CornerRadius=0.4mm|HoleSize=0mm|Usage=FLASHONLY|Rotation=180.000|XOffset=0mm|YOffset=0mm|HoleType=Round|Shape=RoundedRectangle|*
%AMROUNDEDRECTD112*
21,1,1.6000,0.8000,0,0,180.0*
21,1,0.8000,1.6000,0,0,180.0*
1,1,0.8000,-0.4000,0.4000*
1,1,0.8000,0.4000,0.4000*
1,1,0.8000,0.4000,-0.4000*
1,1,0.8000,-0.4000,-0.4000*
%
%ADD112ROUNDEDRECTD112*%
%ADD113R,2.0000X4.0000*%
%ADD114R,11.0000X9.0000*%
%ADD115R,7.0000X6.0000*%
G04:AMPARAMS|DCode=116|XSize=1mm|YSize=1.2mm|CornerRadius=0.25mm|HoleSize=0mm|Usage=FLASHONLY|Rotation=90.000|XOffset=0mm|YOffset=0mm|HoleType=Round|Shape=RoundedRectangle|*
%AMROUNDEDRECTD116*
21,1,1.0000,0.7000,0,0,90.0*
21,1,0.5000,1.2000,0,0,90.0*
1,1,0.5000,0.3500,0.2500*
1,1,0.5000,0.3500,-0.2500*
1,1,0.5000,-0.3500,-0.2500*
1,1,0.5000,-0.3500,0.2500*
%
%ADD116ROUNDEDRECTD116*%
G04:AMPARAMS|DCode=117|XSize=1mm|YSize=1.2mm|CornerRadius=0.25mm|HoleSize=0mm|Usage=FLASHONLY|Rotation=180.000|XOffset=0mm|YOffset=0mm|HoleType=Round|Shape=RoundedRectangle|*
%AMROUNDEDRECTD117*
21,1,1.0000,0.7000,0,0,180.0*
21,1,0.5000,1.2000,0,0,180.0*
1,1,0.5000,-0.2500,0.3500*
1,1,0.5000,0.2500,0.3500*
1,1,0.5000,0.2500,-0.3500*
1,1,0.5000,-0.2500,-0.3500*
%
%ADD117ROUNDEDRECTD117*%
%ADD118R,1.6000X1.6000*%
G04:AMPARAMS|DCode=119|XSize=1.6mm|YSize=1.6mm|CornerRadius=0.4mm|HoleSize=0mm|Usage=FLASHONLY|Rotation=90.000|XOffset=0mm|YOffset=0mm|HoleType=Round|Shape=RoundedRectangle|*
%AMROUNDEDRECTD119*
21,1,1.6000,0.8000,0,0,90.0*
21,1,0.8000,1.6000,0,0,90.0*
1,1,0.8000,0.4000,0.4000*
1,1,0.8000,0.4000,-0.4000*
1,1,0.8000,-0.4000,-0.4000*
1,1,0.8000,-0.4000,0.4000*
%
%ADD119ROUNDEDRECTD119*%
G04:AMPARAMS|DCode=120|XSize=1mm|YSize=1.6mm|CornerRadius=0.25mm|HoleSize=0mm|Usage=FLASHONLY|Rotation=180.000|XOffset=0mm|YOffset=0mm|HoleType=Round|Shape=RoundedRectangle|*
%AMROUNDEDRECTD120*
21,1,1.0000,1.1000,0,0,180.0*
21,1,0.5000,1.6000,0,0,180.0*
1,1,0.5000,-0.2500,0.5500*
1,1,0.5000,0.2500,0.5500*
1,1,0.5000,0.2500,-0.5500*
1,1,0.5000,-0.2500,-0.5500*
%
%ADD120ROUNDEDRECTD120*%
%ADD121R,1.0000X1.6000*%
%ADD122R,4.0000X2.0000*%
G04:AMPARAMS|DCode=123|XSize=0.7mm|YSize=1.2mm|CornerRadius=0.175mm|HoleSize=0mm|Usage=FLASHONLY|Rotation=0.000|XOffset=0mm|YOffset=0mm|HoleType=Round|Shape=RoundedRectangle|*
%AMROUNDEDRECTD123*
21,1,0.7000,0.8500,0,0,0.0*
21,1,0.3500,1.2000,0,0,0.0*
1,1,0.3500,0.1750,-0.4250*
1,1,0.3500,-0.1750,-0.4250*
1,1,0.3500,-0.1750,0.4250*
1,1,0.3500,0.1750,0.4250*
%
%ADD123ROUNDEDRECTD123*%
G04:AMPARAMS|DCode=124|XSize=0.7mm|YSize=1.2mm|CornerRadius=0.175mm|HoleSize=0mm|Usage=FLASHONLY|Rotation=90.000|XOffset=0mm|YOffset=0mm|HoleType=Round|Shape=RoundedRectangle|*
%AMROUNDEDRECTD124*
21,1,0.7000,0.8500,0,0,90.0*
21,1,0.3500,1.2000,0,0,90.0*
1,1,0.3500,0.4250,0.1750*
1,1,0.3500,0.4250,-0.1750*
1,1,0.3500,-0.4250,-0.1750*
1,1,0.3500,-0.4250,0.1750*
%
%ADD124ROUNDEDRECTD124*%
%ADD125R,6.0000X7.0000*%
%ADD138C,3.0000*%
%ADD139O,2.1590X2.0320*%
%ADD140C,0.7000*%
%ADD141O,2.0000X1.0000*%
%ADD142O,2.4000X1.0000*%
%ADD143O,4.0000X2.4000*%
%ADD144O,2.4000X3.6000*%
%ADD145O,2.0000X1.6000*%
%ADD146R,2.0000X1.6000*%
%ADD147C,2.0000*%
G04:AMPARAMS|DCode=148|XSize=2mm|YSize=2mm|CornerRadius=0mm|HoleSize=0mm|Usage=FLASHONLY|Rotation=90.000|XOffset=0mm|YOffset=0mm|HoleType=Round|Shape=Octagon|*
%AMOCTAGOND148*
4,1,8,0.5000,1.0000,-0.5000,1.0000,-1.0000,0.5000,-1.0000,-0.5000,-0.5000,-1.0000,0.5000,-1.0000,1.0000,-0.5000,1.0000,0.5000,0.5000,1.0000,0.0*
%
%ADD148OCTAGOND148*%

%ADD149O,1.6000X2.0000*%
D32*
X227140Y1010625D02*
D03*
X272860D02*
D03*
X307140D02*
D03*
X352860D02*
D03*
X112860Y1014323D02*
D03*
X67140D02*
D03*
X147140Y1010625D02*
D03*
X192860D02*
D03*
D33*
X250000Y1074625D02*
D03*
X330000D02*
D03*
X90000Y1078323D02*
D03*
X170000Y1074625D02*
D03*
D37*
X361572Y581450D02*
D03*
Y606850D02*
D03*
Y632250D02*
D03*
X361172Y695750D02*
D03*
Y721150D02*
D03*
Y746550D02*
D03*
D38*
X577270Y516750D02*
D03*
Y562750D02*
D03*
X576000Y370700D02*
D03*
Y416700D02*
D03*
D41*
X304800Y893850D02*
D03*
X292100D02*
D03*
X279400D02*
D03*
X266700D02*
D03*
X304800Y837850D02*
D03*
X292100D02*
D03*
X279400D02*
D03*
X266700D02*
D03*
X133350D02*
D03*
X146050D02*
D03*
X158750D02*
D03*
X171450D02*
D03*
X133350Y893850D02*
D03*
X146050D02*
D03*
X158750D02*
D03*
X171450D02*
D03*
X749300Y848300D02*
D03*
X762000D02*
D03*
X774700D02*
D03*
X787400D02*
D03*
X749300Y904300D02*
D03*
X762000D02*
D03*
X774700D02*
D03*
X787400D02*
D03*
X876667Y848300D02*
D03*
X889367D02*
D03*
X902067D02*
D03*
X914767D02*
D03*
X876667Y904300D02*
D03*
X889367D02*
D03*
X902067D02*
D03*
X914767D02*
D03*
X419100Y893850D02*
D03*
X406400D02*
D03*
X393700D02*
D03*
X381000D02*
D03*
X419100Y837850D02*
D03*
X406400D02*
D03*
X393700D02*
D03*
X381000D02*
D03*
X527524D02*
D03*
X540224D02*
D03*
X552924D02*
D03*
X565624D02*
D03*
X527524Y893850D02*
D03*
X540224D02*
D03*
X552924D02*
D03*
X565624D02*
D03*
D42*
X1428750Y984250D02*
D03*
Y996950D02*
D03*
Y1009650D02*
D03*
Y1022350D02*
D03*
Y1035050D02*
D03*
Y1047750D02*
D03*
Y1060450D02*
D03*
Y1073150D02*
D03*
Y1085850D02*
D03*
Y1098550D02*
D03*
X1566050D02*
D03*
Y1085850D02*
D03*
Y1073150D02*
D03*
Y1060450D02*
D03*
Y1047750D02*
D03*
Y1035050D02*
D03*
Y1022350D02*
D03*
Y1009650D02*
D03*
Y996950D02*
D03*
Y984250D02*
D03*
X1333500D02*
D03*
Y996950D02*
D03*
Y1009650D02*
D03*
Y1022350D02*
D03*
Y1035050D02*
D03*
Y1047750D02*
D03*
Y1060450D02*
D03*
Y1073150D02*
D03*
Y1085850D02*
D03*
Y1098550D02*
D03*
X1196200D02*
D03*
Y1085850D02*
D03*
Y1073150D02*
D03*
Y1060450D02*
D03*
Y1047750D02*
D03*
Y1035050D02*
D03*
Y1022350D02*
D03*
Y1009650D02*
D03*
Y996950D02*
D03*
Y984250D02*
D03*
D43*
X151622Y531171D02*
D03*
Y491572D02*
D03*
X201520Y531171D02*
D03*
Y491572D02*
D03*
D46*
X1104900Y1090948D02*
D03*
X1054100Y994949D02*
D03*
X1104900D02*
D03*
X1041400Y1090948D02*
D03*
X1130300Y994949D02*
D03*
X1054100Y1090948D02*
D03*
X1117600D02*
D03*
X1066800D02*
D03*
X1079500D02*
D03*
X1092200Y994949D02*
D03*
X1066800D02*
D03*
X1041400D02*
D03*
X1092200Y1090948D02*
D03*
X1079500Y994949D02*
D03*
X1117600D02*
D03*
X1130300Y1090948D02*
D03*
D47*
X1055000Y596000D02*
D03*
X1060000D02*
D03*
X1040000D02*
D03*
X1045000D02*
D03*
X1050000D02*
D03*
X1065000D02*
D03*
X1070000D02*
D03*
X1075000D02*
D03*
X1080000D02*
D03*
X1085000D02*
D03*
X1090000D02*
D03*
X1095000D02*
D03*
X1100000D02*
D03*
X1105000D02*
D03*
X1110000D02*
D03*
X1115000D02*
D03*
Y480000D02*
D03*
X1110000D02*
D03*
X1105000D02*
D03*
X1100000D02*
D03*
X1095000D02*
D03*
X1090000D02*
D03*
X1085000D02*
D03*
X1080000D02*
D03*
X1075000D02*
D03*
X1070000D02*
D03*
X1065000D02*
D03*
X1060000D02*
D03*
X1055000D02*
D03*
X1050000D02*
D03*
X1045000D02*
D03*
X1040000D02*
D03*
D48*
X1560000Y705000D02*
D03*
Y710000D02*
D03*
Y715000D02*
D03*
Y740000D02*
D03*
Y735000D02*
D03*
Y730000D02*
D03*
Y720000D02*
D03*
Y725000D02*
D03*
D49*
Y746000D02*
D03*
Y699000D02*
D03*
Y753500D02*
D03*
Y691500D02*
D03*
D50*
X1026098Y446000D02*
D03*
Y424000D02*
D03*
X1006098D02*
D03*
Y446000D02*
D03*
D51*
X820900Y558750D02*
D03*
X880900D02*
D03*
X820900Y520750D02*
D03*
X880900D02*
D03*
X820900Y476200D02*
D03*
X880900D02*
D03*
X820900Y438200D02*
D03*
X880900D02*
D03*
D54*
X1019500Y500500D02*
D03*
Y505500D02*
D03*
Y510500D02*
D03*
Y515500D02*
D03*
Y520500D02*
D03*
Y525500D02*
D03*
Y530500D02*
D03*
Y535500D02*
D03*
Y540500D02*
D03*
Y545500D02*
D03*
Y550500D02*
D03*
Y555500D02*
D03*
Y560500D02*
D03*
Y565500D02*
D03*
Y570500D02*
D03*
Y575500D02*
D03*
X1135500D02*
D03*
Y570500D02*
D03*
Y565500D02*
D03*
Y560500D02*
D03*
Y555500D02*
D03*
Y550500D02*
D03*
Y545500D02*
D03*
Y540500D02*
D03*
Y535500D02*
D03*
Y530500D02*
D03*
Y525500D02*
D03*
Y520500D02*
D03*
Y515500D02*
D03*
Y510500D02*
D03*
Y505500D02*
D03*
Y500500D02*
D03*
D55*
X835204Y286200D02*
D03*
Y279700D02*
D03*
Y273200D02*
D03*
Y266700D02*
D03*
Y260200D02*
D03*
Y253700D02*
D03*
Y247200D02*
D03*
X777696D02*
D03*
Y253700D02*
D03*
Y260200D02*
D03*
Y266700D02*
D03*
Y273200D02*
D03*
Y279700D02*
D03*
X156295Y214443D02*
D03*
Y220943D02*
D03*
Y227443D02*
D03*
Y233943D02*
D03*
Y240443D02*
D03*
Y246943D02*
D03*
Y253443D02*
D03*
X213803D02*
D03*
Y246943D02*
D03*
Y240443D02*
D03*
Y233943D02*
D03*
Y227443D02*
D03*
Y220943D02*
D03*
X1476554Y286200D02*
D03*
Y279700D02*
D03*
Y273200D02*
D03*
Y266700D02*
D03*
Y260200D02*
D03*
Y253700D02*
D03*
Y247200D02*
D03*
X1419046D02*
D03*
Y253700D02*
D03*
Y260200D02*
D03*
Y266700D02*
D03*
Y273200D02*
D03*
Y279700D02*
D03*
X1101546Y279700D02*
D03*
Y273200D02*
D03*
Y266700D02*
D03*
Y260200D02*
D03*
Y253700D02*
D03*
Y247200D02*
D03*
X1159054D02*
D03*
Y253700D02*
D03*
Y260200D02*
D03*
Y266700D02*
D03*
Y273200D02*
D03*
Y279700D02*
D03*
Y286200D02*
D03*
D56*
X777696D02*
D03*
X213803Y214443D02*
D03*
X1419046Y286200D02*
D03*
X1101546D02*
D03*
D57*
X539750Y242900D02*
D03*
X552450D02*
D03*
X565150D02*
D03*
X577850D02*
D03*
Y188900D02*
D03*
X565150D02*
D03*
X552450D02*
D03*
X539750D02*
D03*
D61*
X740550Y977900D02*
D03*
X694550D02*
D03*
X969150D02*
D03*
X923150D02*
D03*
X618350D02*
D03*
X664350D02*
D03*
X892950D02*
D03*
X846950D02*
D03*
X770750D02*
D03*
X816750D02*
D03*
X588150D02*
D03*
X542150D02*
D03*
X511950D02*
D03*
X465950D02*
D03*
X436890D02*
D03*
X390890D02*
D03*
D75*
X1497400Y1041400D02*
D03*
X1264850D02*
D03*
D92*
X457200Y84800D02*
D03*
X869950D02*
D03*
D93*
X495300D02*
D03*
X533400D02*
D03*
X571500D02*
D03*
X609600D02*
D03*
X647700D02*
D03*
X685800D02*
D03*
X723900D02*
D03*
X762000D02*
D03*
X800100D02*
D03*
X908050D02*
D03*
X946150D02*
D03*
X984250D02*
D03*
X1022350D02*
D03*
X1060450D02*
D03*
X1098550D02*
D03*
X1136650D02*
D03*
X1174750D02*
D03*
X1212850D02*
D03*
D108*
X139700Y921700D02*
D03*
X215900D02*
D03*
X63500D02*
D03*
X762000Y125700D02*
D03*
X1295400Y443200D02*
D03*
X647700Y949700D02*
D03*
X571500D02*
D03*
X495300D02*
D03*
X419100D02*
D03*
X292100Y921700D02*
D03*
D109*
X139700Y949700D02*
D03*
X215900D02*
D03*
X63500D02*
D03*
X762000Y153700D02*
D03*
X1295400Y471200D02*
D03*
X647700Y921700D02*
D03*
X571500D02*
D03*
X495300D02*
D03*
X419100D02*
D03*
X292100Y949700D02*
D03*
D110*
X1596000Y795000D02*
D03*
X645750Y1107150D02*
D03*
X569550D02*
D03*
Y1164300D02*
D03*
X645750D02*
D03*
X723800Y1109097D02*
D03*
X952400Y1108998D02*
D03*
X800000Y1109097D02*
D03*
X876200D02*
D03*
D111*
X1554000Y795000D02*
D03*
X687750Y1107150D02*
D03*
X611550D02*
D03*
Y1164300D02*
D03*
X687750D02*
D03*
X765800Y1109097D02*
D03*
X994400Y1108998D02*
D03*
X842000Y1109097D02*
D03*
X918200D02*
D03*
D112*
X608300Y450850D02*
D03*
X636300D02*
D03*
X608300Y596900D02*
D03*
X636300D02*
D03*
X247922Y530650D02*
D03*
X487650Y622300D02*
D03*
X515650D02*
D03*
X637570Y512668D02*
D03*
X609570D02*
D03*
X637570Y539750D02*
D03*
X609570D02*
D03*
X637570Y566833D02*
D03*
X609570D02*
D03*
X636300Y361950D02*
D03*
X608300D02*
D03*
X636300Y420783D02*
D03*
X608300D02*
D03*
X636300Y393700D02*
D03*
X608300D02*
D03*
X1194850Y736600D02*
D03*
X437799Y288600D02*
D03*
Y161450D02*
D03*
X430500Y622300D02*
D03*
X458500D02*
D03*
D113*
X565150Y746850D02*
D03*
Y662850D02*
D03*
X451485Y745580D02*
D03*
Y661580D02*
D03*
D114*
X259572Y606850D02*
D03*
X259172Y721150D02*
D03*
D115*
X509270Y539750D02*
D03*
X508000Y393700D02*
D03*
D116*
X590550Y129700D02*
D03*
Y149700D02*
D03*
X603384Y225900D02*
D03*
Y205900D02*
D03*
X533400Y149700D02*
D03*
Y129700D02*
D03*
X1268316Y447200D02*
D03*
Y467200D02*
D03*
X730250Y129700D02*
D03*
Y149700D02*
D03*
X767450Y218200D02*
D03*
Y198200D02*
D03*
X985000Y425000D02*
D03*
Y445000D02*
D03*
X1120000Y420000D02*
D03*
Y440000D02*
D03*
X901700Y803750D02*
D03*
Y783750D02*
D03*
X927100Y803750D02*
D03*
Y783750D02*
D03*
X876300Y803750D02*
D03*
Y783750D02*
D03*
X730250Y682150D02*
D03*
Y702150D02*
D03*
X704850Y682150D02*
D03*
Y702150D02*
D03*
X781050D02*
D03*
Y682150D02*
D03*
X755650D02*
D03*
Y702150D02*
D03*
X930000Y555000D02*
D03*
Y535000D02*
D03*
X905000Y555000D02*
D03*
Y535000D02*
D03*
X933450Y447200D02*
D03*
Y467200D02*
D03*
X795020Y520860D02*
D03*
Y540860D02*
D03*
X908050Y467200D02*
D03*
Y447200D02*
D03*
X952500Y783750D02*
D03*
Y803750D02*
D03*
X857250Y702150D02*
D03*
Y682150D02*
D03*
X882650Y702150D02*
D03*
Y682150D02*
D03*
X806450D02*
D03*
Y702150D02*
D03*
X831850Y682150D02*
D03*
Y702150D02*
D03*
X1095000Y450000D02*
D03*
Y430000D02*
D03*
X1158599Y498950D02*
D03*
Y478950D02*
D03*
X1136650Y143350D02*
D03*
Y123350D02*
D03*
X1060450Y143350D02*
D03*
Y123350D02*
D03*
X819450Y218200D02*
D03*
Y198200D02*
D03*
X793450Y218200D02*
D03*
Y198200D02*
D03*
X845450Y218200D02*
D03*
Y198200D02*
D03*
X1411053Y201450D02*
D03*
Y221450D02*
D03*
X1434135Y201450D02*
D03*
Y221450D02*
D03*
X1457218Y201450D02*
D03*
Y221450D02*
D03*
X1480300Y201450D02*
D03*
Y221450D02*
D03*
X565150Y136050D02*
D03*
Y156050D02*
D03*
X1104900Y962500D02*
D03*
Y942500D02*
D03*
X1130300Y962500D02*
D03*
Y942500D02*
D03*
X1079500Y962500D02*
D03*
Y942500D02*
D03*
X1155700Y962500D02*
D03*
Y942500D02*
D03*
X1054100Y962500D02*
D03*
Y942500D02*
D03*
X1028700Y962500D02*
D03*
Y942500D02*
D03*
X1003300Y962500D02*
D03*
Y942500D02*
D03*
X317500Y945700D02*
D03*
Y925700D02*
D03*
X342900Y925700D02*
D03*
Y945700D02*
D03*
X850900Y945700D02*
D03*
Y925700D02*
D03*
X774700Y945700D02*
D03*
Y925700D02*
D03*
X800100Y945700D02*
D03*
Y925700D02*
D03*
X876300Y945700D02*
D03*
Y925700D02*
D03*
X952500Y925700D02*
D03*
Y945700D02*
D03*
X723900Y925700D02*
D03*
Y945700D02*
D03*
X698500Y925700D02*
D03*
Y945700D02*
D03*
X927100Y945700D02*
D03*
Y925700D02*
D03*
X190500Y925700D02*
D03*
Y945700D02*
D03*
X114300D02*
D03*
Y925700D02*
D03*
X165100Y925700D02*
D03*
Y945700D02*
D03*
X88900Y925700D02*
D03*
Y945700D02*
D03*
X368300Y925700D02*
D03*
Y945700D02*
D03*
X444500Y925700D02*
D03*
Y945700D02*
D03*
X266700Y945700D02*
D03*
Y925700D02*
D03*
X596900Y925700D02*
D03*
Y945700D02*
D03*
X546100Y925700D02*
D03*
Y945700D02*
D03*
X520700Y925700D02*
D03*
Y945700D02*
D03*
X469900Y925700D02*
D03*
Y945700D02*
D03*
X393700Y925700D02*
D03*
Y945700D02*
D03*
X241300Y925700D02*
D03*
Y945700D02*
D03*
X622300Y925700D02*
D03*
Y945700D02*
D03*
X1212850Y143350D02*
D03*
Y123350D02*
D03*
X1174750Y143350D02*
D03*
Y123350D02*
D03*
X1098550Y143350D02*
D03*
Y123350D02*
D03*
X1022350Y143350D02*
D03*
Y123350D02*
D03*
X1094550Y202357D02*
D03*
Y222357D02*
D03*
X1117633Y202357D02*
D03*
Y222357D02*
D03*
X1163798Y202357D02*
D03*
Y222357D02*
D03*
X1140715Y202357D02*
D03*
Y222357D02*
D03*
X908050Y143350D02*
D03*
Y123350D02*
D03*
X984250Y143350D02*
D03*
Y123350D02*
D03*
X946150Y143350D02*
D03*
Y123350D02*
D03*
X869950Y143350D02*
D03*
Y123350D02*
D03*
D117*
X342809Y530650D02*
D03*
X322809D02*
D03*
X1372950Y914400D02*
D03*
X1392950D02*
D03*
X1497500Y716917D02*
D03*
X1517500D02*
D03*
X1497500Y693835D02*
D03*
X1517500D02*
D03*
X1517500Y740000D02*
D03*
X1497500D02*
D03*
X1250000Y550000D02*
D03*
X1270000D02*
D03*
X1005000Y400000D02*
D03*
X1025000D02*
D03*
X995000Y500000D02*
D03*
X975000D02*
D03*
X891700Y406400D02*
D03*
X911700D02*
D03*
X1165700Y736600D02*
D03*
X1145700D02*
D03*
X1191100Y711200D02*
D03*
X1171100D02*
D03*
X1235550D02*
D03*
X1215550D02*
D03*
X1525000Y170000D02*
D03*
X1505000D02*
D03*
X1506050Y240700D02*
D03*
X1526050D02*
D03*
X1160000Y565000D02*
D03*
X1180000D02*
D03*
X1030000Y619099D02*
D03*
X1010000D02*
D03*
X1160000Y589326D02*
D03*
X1180000D02*
D03*
X995000Y475000D02*
D03*
X975000D02*
D03*
X1570000Y170000D02*
D03*
X1550000D02*
D03*
X724950Y292700D02*
D03*
X744950D02*
D03*
X724950Y241520D02*
D03*
X744950D02*
D03*
X724950Y266700D02*
D03*
X744950D02*
D03*
X913450Y240700D02*
D03*
X933450D02*
D03*
X887950Y241553D02*
D03*
X867950D02*
D03*
X887950Y266700D02*
D03*
X867950D02*
D03*
X887950Y292700D02*
D03*
X867950D02*
D03*
X913450Y266700D02*
D03*
X933450D02*
D03*
X913450Y292700D02*
D03*
X933450D02*
D03*
X699450Y240700D02*
D03*
X679450D02*
D03*
Y292700D02*
D03*
X699450D02*
D03*
Y214700D02*
D03*
X679450D02*
D03*
X699450Y266700D02*
D03*
X679450D02*
D03*
X562450Y266733D02*
D03*
X542450D02*
D03*
X248000Y207943D02*
D03*
X268000D02*
D03*
X248000Y233943D02*
D03*
X268000D02*
D03*
X235000Y149443D02*
D03*
X255000D02*
D03*
X268000Y181943D02*
D03*
X248000D02*
D03*
X196000Y181943D02*
D03*
X216000D02*
D03*
X248000Y259944D02*
D03*
X268000D02*
D03*
X235000Y313360D02*
D03*
X255000D02*
D03*
X216000Y285944D02*
D03*
X196000D02*
D03*
X248000Y285943D02*
D03*
X268000D02*
D03*
X150500Y181943D02*
D03*
X170500D02*
D03*
Y285943D02*
D03*
X150500D02*
D03*
X105000Y246943D02*
D03*
X125000D02*
D03*
Y194943D02*
D03*
X105000D02*
D03*
Y168943D02*
D03*
X125000D02*
D03*
Y142943D02*
D03*
X105000D02*
D03*
Y220943D02*
D03*
X125000D02*
D03*
Y324943D02*
D03*
X105000D02*
D03*
Y298943D02*
D03*
X125000D02*
D03*
Y272943D02*
D03*
X105000D02*
D03*
X353700Y314000D02*
D03*
X373699D02*
D03*
X373700Y339400D02*
D03*
X353700D02*
D03*
X418150D02*
D03*
X398150D02*
D03*
X353700Y263200D02*
D03*
X373699D02*
D03*
X353700Y237800D02*
D03*
X373700D02*
D03*
X398150Y314000D02*
D03*
X418149D02*
D03*
X373699Y288600D02*
D03*
X353700D02*
D03*
Y136050D02*
D03*
X373699D02*
D03*
Y110650D02*
D03*
X353700D02*
D03*
X1548300Y240700D02*
D03*
X1568300D02*
D03*
X1526050Y266700D02*
D03*
X1506050D02*
D03*
X1526050Y292700D02*
D03*
X1506050D02*
D03*
X1340800Y240700D02*
D03*
X1320800D02*
D03*
X1366300D02*
D03*
X1386300D02*
D03*
X1340800Y292700D02*
D03*
X1320800D02*
D03*
X1366300D02*
D03*
X1386300D02*
D03*
Y266700D02*
D03*
X1366300D02*
D03*
X1548300D02*
D03*
X1568300D02*
D03*
X1340800Y214700D02*
D03*
X1320800D02*
D03*
X1340800Y266700D02*
D03*
X1320800D02*
D03*
X1548300Y292700D02*
D03*
X1568300D02*
D03*
X339250Y903950D02*
D03*
X359250D02*
D03*
X460850Y903950D02*
D03*
X440850D02*
D03*
X613250Y903950D02*
D03*
X593250D02*
D03*
X488156Y903222D02*
D03*
X508156D02*
D03*
X398150Y186850D02*
D03*
X418150D02*
D03*
X1372950Y889000D02*
D03*
X1392950D02*
D03*
X373700Y161450D02*
D03*
X353700D02*
D03*
X418150Y212250D02*
D03*
X398150D02*
D03*
X373700D02*
D03*
X353700D02*
D03*
Y186850D02*
D03*
X373700D02*
D03*
X1003300Y214700D02*
D03*
X1023300D02*
D03*
X1003300Y240700D02*
D03*
X1023300D02*
D03*
X1068800D02*
D03*
X1048800D02*
D03*
Y266700D02*
D03*
X1068800D02*
D03*
X1003300D02*
D03*
X1023300D02*
D03*
X1068800Y292700D02*
D03*
X1048800D02*
D03*
X1003300D02*
D03*
X1023300D02*
D03*
X1257300Y240700D02*
D03*
X1237300D02*
D03*
X1191800D02*
D03*
X1211800D02*
D03*
X1191800Y266700D02*
D03*
X1211800D02*
D03*
X1257300D02*
D03*
X1237300D02*
D03*
X1191800Y292700D02*
D03*
X1211800D02*
D03*
X1257300D02*
D03*
X1237300D02*
D03*
D118*
X283922Y530650D02*
D03*
X1230850Y736600D02*
D03*
X401800Y288600D02*
D03*
Y161450D02*
D03*
D119*
X1241232Y443200D02*
D03*
Y471200D02*
D03*
X107950Y879850D02*
D03*
Y851850D02*
D03*
X1168400Y1017300D02*
D03*
Y989300D02*
D03*
X1397000Y1093500D02*
D03*
Y1065500D02*
D03*
X939800Y862300D02*
D03*
Y890300D02*
D03*
X812800Y862300D02*
D03*
Y890300D02*
D03*
X635000Y153700D02*
D03*
Y125700D02*
D03*
X1214149Y471200D02*
D03*
Y443200D02*
D03*
X1187067Y471200D02*
D03*
Y443200D02*
D03*
X501650Y879850D02*
D03*
Y851850D02*
D03*
X355600Y851850D02*
D03*
Y879850D02*
D03*
X241300Y879850D02*
D03*
Y851850D02*
D03*
X698500Y125700D02*
D03*
Y153700D02*
D03*
X666750D02*
D03*
Y125700D02*
D03*
X1600200Y1065500D02*
D03*
Y1093500D02*
D03*
X1366182Y1065500D02*
D03*
Y1093500D02*
D03*
X1600200Y989300D02*
D03*
Y1017300D02*
D03*
X1397000Y989300D02*
D03*
Y1017300D02*
D03*
X1366183Y989300D02*
D03*
Y1017300D02*
D03*
X1168400Y1065500D02*
D03*
Y1093500D02*
D03*
D120*
X836900Y406400D02*
D03*
D121*
X864900D02*
D03*
D122*
X1456600Y895350D02*
D03*
X1540600D02*
D03*
X1305650D02*
D03*
X1221650D02*
D03*
D123*
X255000Y123443D02*
D03*
X235000D02*
D03*
X245000Y97443D02*
D03*
D124*
X232000Y354443D02*
D03*
Y334443D02*
D03*
X258000Y344443D02*
D03*
X401500Y260499D02*
D03*
Y240499D02*
D03*
X427500Y250499D02*
D03*
Y123350D02*
D03*
X401500Y113350D02*
D03*
Y133350D02*
D03*
D125*
X717550Y1045900D02*
D03*
X946150D02*
D03*
X641350D02*
D03*
X869950D02*
D03*
X793750D02*
D03*
X565150D02*
D03*
X488950D02*
D03*
X413890D02*
D03*
D138*
X1498700Y1157500D02*
D03*
X1447900D02*
D03*
X1397100D02*
D03*
X1346300D02*
D03*
X1124100D02*
D03*
X1022500D02*
D03*
X971700D02*
D03*
X920900D02*
D03*
X870100D02*
D03*
X819300D02*
D03*
X768500D02*
D03*
X1073300D02*
D03*
X1225700D02*
D03*
X1174900D02*
D03*
X454900D02*
D03*
X150100D02*
D03*
X200900D02*
D03*
X251700D02*
D03*
X302500D02*
D03*
X353300D02*
D03*
X404100D02*
D03*
X505700D02*
D03*
X101600Y762000D02*
D03*
Y711200D02*
D03*
Y660400D02*
D03*
Y609600D02*
D03*
Y558800D02*
D03*
Y508000D02*
D03*
D139*
X164322Y556050D02*
D03*
Y613200D02*
D03*
Y714800D02*
D03*
Y771950D02*
D03*
D140*
X1571200Y692600D02*
D03*
Y752400D02*
D03*
D141*
X1564000Y765500D02*
D03*
Y679500D02*
D03*
D142*
X1603000Y765500D02*
D03*
Y679500D02*
D03*
D143*
X1564200Y643720D02*
D03*
Y523320D02*
D03*
D144*
X1496400Y583520D02*
D03*
X1608300D02*
D03*
D145*
X1568700Y571021D02*
D03*
Y596020D02*
D03*
X1536700Y571021D02*
D03*
X186500Y98443D02*
D03*
X181883Y310025D02*
D03*
X305082Y365026D02*
D03*
X303500Y98443D02*
D03*
D146*
X1536700Y596020D02*
D03*
D147*
X970200Y692500D02*
D03*
X944800D02*
D03*
X995600D02*
D03*
D148*
X919400D02*
D03*
D149*
X211500Y148443D02*
D03*
X161500D02*
D03*
X156883Y360026D02*
D03*
X206882D02*
D03*
X330083Y315026D02*
D03*
X280083D02*
D03*
X278500Y148443D02*
D03*
X328500D02*
D03*
M02*
