G04*
G04 #@! TF.GenerationSoftware,Altium Limited,Altium Designer,25.0.2 (28)*
G04*
G04 Layer_Color=0*
%FSLAX44Y44*%
%MOMM*%
G71*
G04*
G04 #@! TF.SameCoordinates,AC037715-0773-48B7-9E6E-B3265F142276*
G04*
G04*
G04 #@! TF.FilePolarity,Positive*
G04*
G01*
G75*
%ADD17C,0.1000*%
D17*
X245000Y1060000D02*
X255000D01*
X250000Y1055000D02*
Y1065000D01*
X325000Y1060000D02*
X335000D01*
X330000Y1055000D02*
Y1065000D01*
X623650Y50800D02*
X633650D01*
X628650Y45800D02*
Y55800D01*
X90000Y1058698D02*
Y1068698D01*
X85000Y1063698D02*
X95000D01*
X1497400Y1036400D02*
Y1046400D01*
X1492400Y1041400D02*
X1502400D01*
X146622Y511372D02*
X156622D01*
X151622Y506372D02*
Y516372D01*
X196520Y511372D02*
X206520D01*
X201520Y506372D02*
Y516372D01*
X1259850Y1041400D02*
X1269850D01*
X1264850Y1036400D02*
Y1046400D01*
X165000Y1060000D02*
X175000D01*
X170000Y1055000D02*
Y1065000D01*
X806450Y261700D02*
Y271700D01*
X801450Y266700D02*
X811450D01*
X553800Y215900D02*
X563800D01*
X558800Y210900D02*
Y220900D01*
X185049Y228943D02*
Y238943D01*
X180049Y233943D02*
X190049D01*
X1447800Y261700D02*
Y271700D01*
X1442800Y266700D02*
X1452800D01*
X1036400Y50800D02*
X1046400D01*
X1041400Y45800D02*
Y55800D01*
X1125300Y266700D02*
X1135300D01*
X1130300Y261700D02*
Y271700D01*
M02*
