G04*
G04 #@! TF.GenerationSoftware,Altium Limited,Altium Designer,25.0.2 (28)*
G04*
G04 Layer_Color=16711935*
%FSLAX44Y44*%
%MOMM*%
G71*
G04*
G04 #@! TF.SameCoordinates,AC037715-0773-48B7-9E6E-B3265F142276*
G04*
G04*
G04 #@! TF.FilePolarity,Positive*
G04*
G01*
G75*
%ADD17C,0.1000*%
%ADD18C,0.1524*%
D17*
X275250Y855850D02*
G03*
X275250Y855850I-5000J0D01*
G01*
X1055350Y1014948D02*
G03*
X1055350Y1014948I-5000J0D01*
G01*
X1011098Y446000D02*
G03*
X1011098Y446000I-3000J0D01*
G01*
X141900Y855850D02*
G03*
X141900Y855850I-5000J0D01*
G01*
X1041500Y497000D02*
G03*
X1041500Y497000I-5000J0D01*
G01*
X757850Y866300D02*
G03*
X757850Y866300I-5000J0D01*
G01*
X885217D02*
G03*
X885217Y866300I-5000J0D01*
G01*
X389550Y855850D02*
G03*
X389550Y855850I-5000J0D01*
G01*
X536074D02*
G03*
X536074Y855850I-5000J0D01*
G01*
X535460Y343605D02*
Y447605D01*
X441960Y343605D02*
Y447605D01*
X535460D01*
X441960Y343605D02*
X535460D01*
X638300Y442850D02*
Y458850D01*
X606300Y442850D02*
Y458850D01*
Y442850D02*
X638300D01*
X606300Y458850D02*
X638300D01*
X584050Y129700D02*
Y149700D01*
X597050D01*
Y129700D02*
Y149700D01*
X584050Y129700D02*
X597050D01*
X609884Y205900D02*
Y225900D01*
X596884Y205900D02*
X609884D01*
X596884D02*
Y225900D01*
X609884D01*
X539900Y129700D02*
Y149700D01*
X526900Y129700D02*
X539900D01*
X526900D02*
Y149700D01*
X539900D01*
X1261816Y447200D02*
Y467200D01*
X1274816D01*
Y447200D02*
Y467200D01*
X1261816Y447200D02*
X1274816D01*
X322809Y524150D02*
X342809D01*
X322809D02*
Y537150D01*
X342809D01*
Y524150D02*
Y537150D01*
X723750Y129700D02*
Y149700D01*
X736750D01*
Y129700D02*
Y149700D01*
X723750Y129700D02*
X736750D01*
X638300Y588900D02*
Y604900D01*
X606300Y588900D02*
Y604900D01*
Y588900D02*
X638300D01*
X606300Y604900D02*
X638300D01*
X310750Y846350D02*
Y885350D01*
X260750Y846350D02*
Y885350D01*
X310750D01*
X260750Y846350D02*
X310750D01*
X773950Y198200D02*
Y218200D01*
X760950Y198200D02*
X773950D01*
X760950D02*
Y218200D01*
X773950D01*
X1135850Y1005448D02*
Y1080448D01*
X1035850Y1005448D02*
Y1080448D01*
X1135850D01*
X1035850Y1005448D02*
X1135850D01*
X1392950Y907900D02*
Y920900D01*
X1372950D02*
X1392950D01*
X1372950Y907900D02*
Y920900D01*
Y907900D02*
X1392950D01*
X1497500Y723418D02*
X1517500D01*
Y710417D02*
Y723418D01*
X1497500Y710417D02*
X1517500D01*
X1497500D02*
Y723418D01*
Y700335D02*
X1517500D01*
Y687335D02*
Y700335D01*
X1497500Y687335D02*
X1517500D01*
X1497500D02*
Y700335D01*
Y733500D02*
Y746500D01*
Y733500D02*
X1517500D01*
Y746500D01*
X1497500D02*
X1517500D01*
X1628000Y762500D02*
Y782500D01*
X1492500Y640820D02*
X1612900D01*
X1492500Y526221D02*
X1612900D01*
X1492500D02*
Y640820D01*
X1612900Y526221D02*
Y640820D01*
X1250000Y543500D02*
X1270000D01*
X1250000D02*
Y556500D01*
X1270000D01*
Y543500D02*
Y556500D01*
X1233232Y441200D02*
X1249232D01*
X1233232Y473200D02*
X1249232D01*
X1233232Y441200D02*
Y473200D01*
X1249232Y441200D02*
Y473200D01*
X1003099Y419000D02*
X1029099D01*
X1003099Y451000D02*
X1029099D01*
Y419000D02*
Y451000D01*
X1003099Y419000D02*
Y451000D01*
X1005000Y393500D02*
Y406500D01*
Y393500D02*
X1025000D01*
Y406500D01*
X1005000D02*
X1025000D01*
X978500Y425000D02*
X991500D01*
Y445000D01*
X978500D02*
X991500D01*
X978500Y425000D02*
Y445000D01*
X1113500Y420000D02*
X1126500D01*
Y440000D01*
X1113500D02*
X1126500D01*
X1113500Y420000D02*
Y440000D01*
X908200Y783750D02*
Y803750D01*
X895200Y783750D02*
X908200D01*
X895200D02*
Y803750D01*
X908200D01*
X933600Y783750D02*
Y803750D01*
X920600Y783750D02*
X933600D01*
X920600D02*
Y803750D01*
X933600D01*
X882800Y783750D02*
Y803750D01*
X869800Y783750D02*
X882800D01*
X869800D02*
Y803750D01*
X882800D01*
X723750Y702150D02*
X736750D01*
X723750Y682150D02*
Y702150D01*
Y682150D02*
X736750D01*
Y702150D01*
X698350D02*
X711350D01*
X698350Y682150D02*
Y702150D01*
Y682150D02*
X711350D01*
Y702150D01*
X787550Y682150D02*
Y702150D01*
X774550Y682150D02*
X787550D01*
X774550D02*
Y702150D01*
X787550D01*
X749150D02*
X762150D01*
X749150Y682150D02*
Y702150D01*
Y682150D02*
X762150D01*
Y702150D01*
X923500Y535000D02*
X936500D01*
Y555000D01*
X923500D02*
X936500D01*
X923500Y535000D02*
Y555000D01*
X898500Y535000D02*
X911500D01*
Y555000D01*
X898500D02*
X911500D01*
X898500Y535000D02*
Y555000D01*
X926950Y447200D02*
Y467200D01*
X939950D01*
Y447200D02*
Y467200D01*
X926950Y447200D02*
X939950D01*
X788520Y540860D02*
X801520D01*
X788520Y520860D02*
Y540860D01*
Y520860D02*
X801520D01*
Y540860D01*
X901550Y447200D02*
Y467200D01*
X914550D01*
Y447200D02*
Y467200D01*
X901550Y447200D02*
X914550D01*
X485650Y630300D02*
X517650D01*
X485650Y614300D02*
X517650D01*
X485650D02*
Y630300D01*
X517650Y614300D02*
Y630300D01*
X607570Y520667D02*
X639570D01*
X607570Y504668D02*
X639570D01*
X607570D02*
Y520667D01*
X639570Y504668D02*
Y520667D01*
X607570Y547750D02*
X639570D01*
X607570Y531750D02*
X639570D01*
X607570D02*
Y547750D01*
X639570Y531750D02*
Y547750D01*
X607570Y574832D02*
X639570D01*
X607570Y558833D02*
X639570D01*
X607570D02*
Y574832D01*
X639570Y558833D02*
Y574832D01*
X606300Y369950D02*
X638300D01*
X606300Y353950D02*
X638300D01*
X606300D02*
Y369950D01*
X638300Y353950D02*
Y369950D01*
X606300Y428783D02*
X638300D01*
X606300Y412783D02*
X638300D01*
X606300D02*
Y428783D01*
X638300Y412783D02*
Y428783D01*
X606300Y401700D02*
X638300D01*
X606300Y385700D02*
X638300D01*
X606300D02*
Y401700D01*
X638300Y385700D02*
Y401700D01*
X99950Y849850D02*
X115950D01*
X99950Y881850D02*
X115950D01*
X99950Y849850D02*
Y881850D01*
X115950Y849850D02*
Y881850D01*
X127400Y846350D02*
X177400D01*
X127400Y885350D02*
X177400D01*
X127400Y846350D02*
Y885350D01*
X177400Y846350D02*
Y885350D01*
X975000Y506500D02*
X995000D01*
Y493500D02*
Y506500D01*
X975000Y493500D02*
X995000D01*
X975000D02*
Y506500D01*
X946000Y803750D02*
X959000D01*
X946000Y783750D02*
Y803750D01*
Y783750D02*
X959000D01*
Y803750D01*
X863750Y682150D02*
Y702150D01*
X850750Y682150D02*
X863750D01*
X850750D02*
Y702150D01*
X863750D01*
X889150Y682150D02*
Y702150D01*
X876150Y682150D02*
X889150D01*
X876150D02*
Y702150D01*
X889150D01*
X799950D02*
X812950D01*
X799950Y682150D02*
Y702150D01*
Y682150D02*
X812950D01*
Y702150D01*
X825350D02*
X838350D01*
X825350Y682150D02*
Y702150D01*
Y682150D02*
X838350D01*
Y702150D01*
X891700Y412900D02*
X911700D01*
Y399900D02*
Y412900D01*
X891700Y399900D02*
X911700D01*
X891700D02*
Y412900D01*
X1145700Y730100D02*
X1165700D01*
X1145700D02*
Y743100D01*
X1165700D01*
Y730100D02*
Y743100D01*
X1171100Y704700D02*
X1191100D01*
X1171100D02*
Y717700D01*
X1191100D01*
Y704700D02*
Y717700D01*
X1215550Y704700D02*
X1235550D01*
X1215550D02*
Y717700D01*
X1235550D01*
Y704700D02*
Y717700D01*
X1505000Y163500D02*
Y176500D01*
Y163500D02*
X1525000D01*
Y176500D01*
X1505000D02*
X1525000D01*
X1526050Y234200D02*
Y247200D01*
X1506050D02*
X1526050D01*
X1506050Y234200D02*
Y247200D01*
Y234200D02*
X1526050D01*
X1127500Y488000D02*
Y588000D01*
X1027500Y488000D02*
Y588000D01*
X1127500D01*
X1027500Y488000D02*
X1127500D01*
X1088500Y430000D02*
Y450000D01*
X1101500D01*
Y430000D02*
Y450000D01*
X1088500Y430000D02*
X1101500D01*
X1152099Y478950D02*
Y498950D01*
X1165099D01*
Y478950D02*
Y498950D01*
X1152099Y478950D02*
X1165099D01*
X1160000Y558500D02*
X1180000D01*
X1160000D02*
Y571500D01*
X1180000D01*
Y558500D02*
Y571500D01*
X1010000Y625599D02*
X1030000D01*
Y612598D02*
Y625599D01*
X1010000Y612598D02*
X1030000D01*
X1010000D02*
Y625599D01*
X1160000Y582825D02*
X1180000D01*
X1160000D02*
Y595826D01*
X1180000D01*
Y582825D02*
Y595826D01*
X975000Y481500D02*
X995000D01*
Y468500D02*
Y481500D01*
X975000Y468500D02*
X995000D01*
X975000D02*
Y481500D01*
X1550000Y163500D02*
Y176500D01*
Y163500D02*
X1570000D01*
Y176500D01*
X1550000D02*
X1570000D01*
X1130150Y123350D02*
X1143150D01*
Y143350D01*
X1130150D02*
X1143150D01*
X1130150Y123350D02*
Y143350D01*
X1053950Y123350D02*
X1066950D01*
Y143350D01*
X1053950D02*
X1066950D01*
X1053950Y123350D02*
Y143350D01*
X724950Y299200D02*
X744950D01*
Y286200D02*
Y299200D01*
X724950Y286200D02*
X744950D01*
X724950D02*
Y299200D01*
Y248019D02*
X744950D01*
Y235020D02*
Y248019D01*
X724950Y235020D02*
X744950D01*
X724950D02*
Y248019D01*
Y260200D02*
Y273200D01*
Y260200D02*
X744950D01*
Y273200D01*
X724950D02*
X744950D01*
X913450Y247200D02*
X933450D01*
Y234200D02*
Y247200D01*
X913450Y234200D02*
X933450D01*
X913450D02*
Y247200D01*
X867950Y235053D02*
X887950D01*
X867950D02*
Y248052D01*
X887950D01*
Y235053D02*
Y248052D01*
X867950Y260200D02*
X887950D01*
X867950D02*
Y273200D01*
X887950D01*
Y260200D02*
Y273200D01*
X867950Y286200D02*
X887950D01*
X867950D02*
Y299200D01*
X887950D01*
Y286200D02*
Y299200D01*
X913450Y260200D02*
X933450D01*
X913450D02*
Y273200D01*
X933450D01*
Y260200D02*
Y273200D01*
X913450Y286200D02*
X933450D01*
X913450D02*
Y299200D01*
X933450D01*
Y286200D02*
Y299200D01*
X679450Y234200D02*
X699450D01*
X679450D02*
Y247200D01*
X699450D01*
Y234200D02*
Y247200D01*
Y286200D02*
Y299200D01*
X679450D02*
X699450D01*
X679450Y286200D02*
Y299200D01*
Y286200D02*
X699450D01*
X679450Y221200D02*
X699450D01*
Y208200D02*
Y221200D01*
X679450Y208200D02*
X699450D01*
X679450D02*
Y221200D01*
Y273200D02*
X699450D01*
Y260200D02*
Y273200D01*
X679450Y260200D02*
X699450D01*
X679450D02*
Y273200D01*
X825950Y198200D02*
Y218200D01*
X812950Y198200D02*
X825950D01*
X812950D02*
Y218200D01*
X825950D01*
X799950Y198200D02*
Y218200D01*
X786950Y198200D02*
X799950D01*
X786950D02*
Y218200D01*
X799950D01*
X851950Y198200D02*
Y218200D01*
X838950Y198200D02*
X851950D01*
X838950D02*
Y218200D01*
X851950D01*
X1404552Y221450D02*
X1417553D01*
X1404552Y201450D02*
Y221450D01*
Y201450D02*
X1417553D01*
Y221450D01*
X1427635D02*
X1440635D01*
X1427635Y201450D02*
Y221450D01*
Y201450D02*
X1440635D01*
Y221450D01*
X1450717D02*
X1463718D01*
X1450717Y201450D02*
Y221450D01*
Y201450D02*
X1463718D01*
Y221450D01*
X1473801D02*
X1486800D01*
X1473801Y201450D02*
Y221450D01*
Y201450D02*
X1486800D01*
Y221450D01*
X558650Y156050D02*
X571650D01*
X558650Y136050D02*
Y156050D01*
Y136050D02*
X571650D01*
Y156050D01*
X562450Y260233D02*
Y273232D01*
X542450D02*
X562450D01*
X542450Y260233D02*
Y273232D01*
Y260233D02*
X562450D01*
X268000Y201443D02*
Y214444D01*
X248000D02*
X268000D01*
X248000Y201443D02*
Y214444D01*
Y201443D02*
X268000D01*
X248000Y227443D02*
X268000D01*
X248000D02*
Y240443D01*
X268000D01*
Y227443D02*
Y240443D01*
X255000Y142943D02*
Y155943D01*
X235000D02*
X255000D01*
X235000Y142943D02*
Y155943D01*
Y142943D02*
X255000D01*
X230000Y103443D02*
Y117443D01*
X260000Y103443D02*
Y117443D01*
X230000Y103443D02*
X260000D01*
X230000Y117443D02*
X260000D01*
X248000Y175443D02*
X268000D01*
X248000D02*
Y188443D01*
X268000D01*
Y175443D02*
Y188443D01*
X216000Y175443D02*
Y188444D01*
X196000D02*
X216000D01*
X196000Y175443D02*
Y188444D01*
Y175443D02*
X216000D01*
X268000Y253443D02*
Y266444D01*
X248000D02*
X268000D01*
X248000Y253443D02*
Y266444D01*
Y253443D02*
X268000D01*
X238000Y329443D02*
X252000D01*
X238000Y359443D02*
X252000D01*
Y329443D02*
Y359443D01*
X238000Y329443D02*
Y359443D01*
X255000Y306860D02*
Y319860D01*
X235000D02*
X255000D01*
X235000Y306860D02*
Y319860D01*
Y306860D02*
X255000D01*
X196000Y279443D02*
X216000D01*
X196000D02*
Y292443D01*
X216000D01*
Y279443D02*
Y292443D01*
X268000Y279443D02*
Y292443D01*
X248000D02*
X268000D01*
X248000Y279443D02*
Y292443D01*
Y279443D02*
X268000D01*
X170500Y175443D02*
Y188443D01*
X150500D02*
X170500D01*
X150500Y175443D02*
Y188443D01*
Y175443D02*
X170500D01*
X150500Y279443D02*
X170500D01*
X150500D02*
Y292443D01*
X170500D01*
Y279443D02*
Y292443D01*
X125000Y240443D02*
Y253443D01*
X105000D02*
X125000D01*
X105000Y240443D02*
Y253443D01*
Y240443D02*
X125000D01*
X105000Y188443D02*
X125000D01*
X105000D02*
Y201443D01*
X125000D01*
Y188443D02*
Y201443D01*
Y162443D02*
Y175443D01*
X105000D02*
X125000D01*
X105000Y162443D02*
Y175443D01*
Y162443D02*
X125000D01*
X105000Y136443D02*
X125000D01*
X105000D02*
Y149443D01*
X125000D01*
Y136443D02*
Y149443D01*
Y214443D02*
Y227443D01*
X105000D02*
X125000D01*
X105000Y214443D02*
Y227443D01*
Y214443D02*
X125000D01*
X105000Y318443D02*
X125000D01*
X105000D02*
Y331444D01*
X125000D01*
Y318443D02*
Y331444D01*
Y292443D02*
Y305443D01*
X105000D02*
X125000D01*
X105000Y292443D02*
Y305443D01*
Y292443D02*
X125000D01*
X105000Y266443D02*
X125000D01*
X105000D02*
Y279443D01*
X125000D01*
Y266443D02*
Y279443D01*
X373699Y307500D02*
Y320500D01*
X353700D02*
X373699D01*
X353700Y307500D02*
Y320500D01*
Y307500D02*
X373699D01*
X353700Y332900D02*
Y345900D01*
Y332900D02*
X373700D01*
Y345900D01*
X353700D02*
X373700D01*
X398150Y332900D02*
Y345900D01*
Y332900D02*
X418150D01*
Y345900D01*
X398150D02*
X418150D01*
X373699Y256700D02*
Y269700D01*
X353700D02*
X373699D01*
X353700Y256700D02*
Y269700D01*
Y256700D02*
X373699D01*
X353700Y244300D02*
X373700D01*
Y231300D02*
Y244300D01*
X353700Y231300D02*
X373700D01*
X353700D02*
Y244300D01*
X407500Y235500D02*
X421500D01*
X407500Y265500D02*
X421500D01*
Y235500D02*
Y265500D01*
X407500Y235500D02*
Y265500D01*
X398150Y307500D02*
X418149D01*
X398150D02*
Y320500D01*
X418149D01*
Y307500D02*
Y320500D01*
X373699Y282100D02*
Y295100D01*
X353700D02*
X373699D01*
X353700Y282100D02*
Y295100D01*
Y282100D02*
X373699D01*
Y129550D02*
Y142550D01*
X353700D02*
X373699D01*
X353700Y129550D02*
Y142550D01*
Y129550D02*
X373699D01*
X1160400Y987300D02*
X1176400D01*
X1160400Y1019300D02*
X1176400D01*
X1160400Y987300D02*
Y1019300D01*
X1176400Y987300D02*
Y1019300D01*
X1098400Y942500D02*
X1111400D01*
Y962500D01*
X1098400D02*
X1111400D01*
X1098400Y942500D02*
Y962500D01*
X1123800Y942500D02*
X1136800D01*
Y962500D01*
X1123800D02*
X1136800D01*
X1123800Y942500D02*
Y962500D01*
X1073000Y942500D02*
X1086000D01*
Y962500D01*
X1073000D02*
X1086000D01*
X1073000Y942500D02*
Y962500D01*
X1149200Y942500D02*
X1162200D01*
Y962500D01*
X1149200D02*
X1162200D01*
X1149200Y942500D02*
Y962500D01*
X1047600Y942500D02*
X1060600D01*
Y962500D01*
X1047600D02*
X1060600D01*
X1047600Y942500D02*
Y962500D01*
X1022200Y942500D02*
X1035200D01*
Y962500D01*
X1022200D02*
X1035200D01*
X1022200Y942500D02*
Y962500D01*
X996800Y942500D02*
X1009800D01*
Y962500D01*
X996800D02*
X1009800D01*
X996800Y942500D02*
Y962500D01*
X1389000Y1063500D02*
Y1095500D01*
X1405000Y1063500D02*
Y1095500D01*
X1389000Y1063500D02*
X1405000D01*
X1389000Y1095500D02*
X1405000D01*
X407500Y108350D02*
Y138350D01*
X421500Y108350D02*
Y138350D01*
X407500D02*
X421500D01*
X407500Y108350D02*
X421500D01*
X353700Y104150D02*
Y117150D01*
Y104150D02*
X373699D01*
Y117150D01*
X353700D02*
X373699D01*
X311000Y925700D02*
X324000D01*
Y945700D01*
X311000D02*
X324000D01*
X311000Y925700D02*
Y945700D01*
X336400Y945700D02*
X349400D01*
X336400Y925700D02*
Y945700D01*
Y925700D02*
X349400D01*
Y945700D01*
X1548300Y247200D02*
X1568300D01*
Y234200D02*
Y247200D01*
X1548300Y234200D02*
X1568300D01*
X1548300D02*
Y247200D01*
X1506050Y260200D02*
X1526050D01*
X1506050D02*
Y273200D01*
X1526050D01*
Y260200D02*
Y273200D01*
X1506050Y286200D02*
X1526050D01*
X1506050D02*
Y299200D01*
X1526050D01*
Y286200D02*
Y299200D01*
X1320800Y234200D02*
X1340800D01*
X1320800D02*
Y247200D01*
X1340800D01*
Y234200D02*
Y247200D01*
X1366300D02*
X1386300D01*
Y234200D02*
Y247200D01*
X1366300Y234200D02*
X1386300D01*
X1366300D02*
Y247200D01*
X1320800Y286200D02*
X1340800D01*
X1320800D02*
Y299200D01*
X1340800D01*
Y286200D02*
Y299200D01*
X1366300D02*
X1386300D01*
Y286200D02*
Y299200D01*
X1366300Y286200D02*
X1386300D01*
X1366300D02*
Y299200D01*
Y273200D02*
X1386300D01*
Y260200D02*
Y273200D01*
X1366300Y260200D02*
X1386300D01*
X1366300D02*
Y273200D01*
X1548300Y260200D02*
X1568300D01*
X1548300D02*
Y273200D01*
X1568300D01*
Y260200D02*
Y273200D01*
X1320800Y221200D02*
X1340800D01*
Y208200D02*
Y221200D01*
X1320800Y208200D02*
X1340800D01*
X1320800D02*
Y221200D01*
Y273200D02*
X1340800D01*
Y260200D02*
Y273200D01*
X1320800Y260200D02*
X1340800D01*
X1320800D02*
Y273200D01*
X1548300Y286200D02*
X1568300D01*
X1548300D02*
Y299200D01*
X1568300D01*
Y286200D02*
Y299200D01*
X743350Y856800D02*
X793350D01*
X743350Y895800D02*
X793350D01*
X743350Y856800D02*
Y895800D01*
X793350Y856800D02*
Y895800D01*
X870717Y856800D02*
X920717D01*
X870717Y895800D02*
X920717D01*
X870717Y856800D02*
Y895800D01*
X920717Y856800D02*
Y895800D01*
X947800Y860300D02*
Y892300D01*
X931800Y860300D02*
Y892300D01*
X947800D01*
X931800Y860300D02*
X947800D01*
X820800D02*
Y892300D01*
X804800Y860300D02*
Y892300D01*
X820800D01*
X804800Y860300D02*
X820800D01*
X844400Y925700D02*
X857400D01*
Y945700D01*
X844400D02*
X857400D01*
X844400Y925700D02*
Y945700D01*
X781200Y925700D02*
Y945700D01*
X768200Y925700D02*
X781200D01*
X768200D02*
Y945700D01*
X781200D01*
X793600Y925700D02*
X806600D01*
Y945700D01*
X793600D02*
X806600D01*
X793600Y925700D02*
Y945700D01*
X882800Y925700D02*
Y945700D01*
X869800Y925700D02*
X882800D01*
X869800D02*
Y945700D01*
X882800D01*
X428500Y614300D02*
Y630300D01*
X460500Y614300D02*
Y630300D01*
X428500D02*
X460500D01*
X428500Y614300D02*
X460500D01*
X643000Y123700D02*
Y155700D01*
X627000Y123700D02*
Y155700D01*
X643000D01*
X627000Y123700D02*
X643000D01*
X1206150Y441200D02*
X1222149D01*
X1206150Y473200D02*
X1222149D01*
X1206150Y441200D02*
Y473200D01*
X1222149Y441200D02*
Y473200D01*
X1179067Y441200D02*
X1195067D01*
X1179067Y473200D02*
X1195067D01*
X1179067Y441200D02*
Y473200D01*
X1195067Y441200D02*
Y473200D01*
X946000Y925700D02*
Y945700D01*
X959000D01*
Y925700D02*
Y945700D01*
X946000Y925700D02*
X959000D01*
X717400Y945700D02*
X730400D01*
X717400Y925700D02*
Y945700D01*
Y925700D02*
X730400D01*
Y945700D01*
X692000Y925700D02*
Y945700D01*
X705000D01*
Y925700D02*
Y945700D01*
X692000Y925700D02*
X705000D01*
X933600Y925700D02*
Y945700D01*
X920600Y925700D02*
X933600D01*
X920600D02*
Y945700D01*
X933600D01*
X184000Y945700D02*
X197000D01*
X184000Y925700D02*
Y945700D01*
Y925700D02*
X197000D01*
Y945700D01*
X120800Y925700D02*
Y945700D01*
X107800Y925700D02*
X120800D01*
X107800D02*
Y945700D01*
X120800D01*
X158600Y925700D02*
Y945700D01*
X171600D01*
Y925700D02*
Y945700D01*
X158600Y925700D02*
X171600D01*
X82400Y925700D02*
Y945700D01*
X95400D01*
Y925700D02*
Y945700D01*
X82400Y925700D02*
X95400D01*
X339250Y910450D02*
X359250D01*
Y897450D02*
Y910450D01*
X339250Y897450D02*
X359250D01*
X339250D02*
Y910450D01*
X440850Y897450D02*
X460850D01*
X440850D02*
Y910450D01*
X460850D01*
Y897450D02*
Y910450D01*
X493650Y849850D02*
X509650D01*
X493650Y881850D02*
X509650D01*
X493650Y849850D02*
Y881850D01*
X509650Y849850D02*
Y881850D01*
X361800Y945700D02*
X374800D01*
X361800Y925700D02*
Y945700D01*
Y925700D02*
X374800D01*
Y945700D01*
X438000D02*
X451000D01*
X438000Y925700D02*
Y945700D01*
Y925700D02*
X451000D01*
Y945700D01*
X273200Y925700D02*
Y945700D01*
X260200Y925700D02*
X273200D01*
X260200D02*
Y945700D01*
X273200D01*
X425050Y846350D02*
Y885350D01*
X375050Y846350D02*
Y885350D01*
X425050D01*
X375050Y846350D02*
X425050D01*
X363600Y849850D02*
Y881850D01*
X347600Y849850D02*
Y881850D01*
X363600D01*
X347600Y849850D02*
X363600D01*
X233300Y849850D02*
X249300D01*
X233300Y881850D02*
X249300D01*
X233300Y849850D02*
Y881850D01*
X249300Y849850D02*
Y881850D01*
X521574Y846350D02*
X571574D01*
X521574Y885350D02*
X571574D01*
X521574Y846350D02*
Y885350D01*
X571574Y846350D02*
Y885350D01*
X590400Y945700D02*
X603400D01*
X590400Y925700D02*
Y945700D01*
Y925700D02*
X603400D01*
Y945700D01*
X539600Y925700D02*
Y945700D01*
X552600D01*
Y925700D02*
Y945700D01*
X539600Y925700D02*
X552600D01*
X514200Y945700D02*
X527200D01*
X514200Y925700D02*
Y945700D01*
Y925700D02*
X527200D01*
Y945700D01*
X463400Y925700D02*
Y945700D01*
X476400D01*
Y925700D02*
Y945700D01*
X463400Y925700D02*
X476400D01*
X387200D02*
Y945700D01*
X400200D01*
Y925700D02*
Y945700D01*
X387200Y925700D02*
X400200D01*
X234800Y925700D02*
Y945700D01*
X247800D01*
Y925700D02*
Y945700D01*
X234800Y925700D02*
X247800D01*
X593250Y897450D02*
X613250D01*
X593250D02*
Y910450D01*
X613250D01*
Y897450D02*
Y910450D01*
X488156Y909722D02*
X508156D01*
Y896722D02*
Y909722D01*
X488156Y896722D02*
X508156D01*
X488156D02*
Y909722D01*
X615800Y925700D02*
Y945700D01*
X628800D01*
Y925700D02*
Y945700D01*
X615800Y925700D02*
X628800D01*
X706500Y123700D02*
Y155700D01*
X690500Y123700D02*
Y155700D01*
X706500D01*
X690500Y123700D02*
X706500D01*
X658750D02*
Y155700D01*
X674750Y123700D02*
Y155700D01*
X658750Y123700D02*
X674750D01*
X658750Y155700D02*
X674750D01*
X1592200Y1095500D02*
X1608200D01*
X1592200Y1063500D02*
X1608200D01*
Y1095500D01*
X1592200Y1063500D02*
Y1095500D01*
X1358182D02*
X1374182D01*
X1358182Y1063500D02*
X1374182D01*
Y1095500D01*
X1358182Y1063500D02*
Y1095500D01*
X398150Y180350D02*
X418150D01*
X398150D02*
Y193350D01*
X418150D01*
Y180350D02*
Y193350D01*
X1608200Y987300D02*
Y1019300D01*
X1592200Y987300D02*
Y1019300D01*
X1608200D01*
X1592200Y987300D02*
X1608200D01*
X1405000D02*
Y1019300D01*
X1389000Y987300D02*
Y1019300D01*
X1405000D01*
X1389000Y987300D02*
X1405000D01*
X1374183D02*
Y1019300D01*
X1358182Y987300D02*
Y1019300D01*
X1374183D01*
X1358182Y987300D02*
X1374183D01*
X1160400Y1095500D02*
X1176400D01*
X1160400Y1063500D02*
X1176400D01*
Y1095500D01*
X1160400Y1063500D02*
Y1095500D01*
X1206350Y123350D02*
X1219350D01*
Y143350D01*
X1206350D02*
X1219350D01*
X1206350Y123350D02*
Y143350D01*
X1168250Y123350D02*
X1181250D01*
Y143350D01*
X1168250D02*
X1181250D01*
X1168250Y123350D02*
Y143350D01*
X1092050Y123350D02*
X1105050D01*
Y143350D01*
X1092050D02*
X1105050D01*
X1092050Y123350D02*
Y143350D01*
X1015850Y123350D02*
X1028850D01*
Y143350D01*
X1015850D02*
X1028850D01*
X1015850Y123350D02*
Y143350D01*
X1392950Y882500D02*
Y895500D01*
X1372950D02*
X1392950D01*
X1372950Y882500D02*
Y895500D01*
Y882500D02*
X1392950D01*
X373700Y154950D02*
Y167950D01*
X353700D02*
X373700D01*
X353700Y154950D02*
Y167950D01*
Y154950D02*
X373700D01*
X398150Y205750D02*
Y218750D01*
Y205750D02*
X418150D01*
Y218750D01*
X398150D02*
X418150D01*
X353700Y205750D02*
Y218750D01*
Y205750D02*
X373700D01*
Y218750D01*
X353700D02*
X373700D01*
Y180350D02*
Y193350D01*
X353700D02*
X373700D01*
X353700Y180350D02*
Y193350D01*
Y180350D02*
X373700D01*
X1003300Y208200D02*
Y221200D01*
Y208200D02*
X1023300D01*
Y221200D01*
X1003300D02*
X1023300D01*
Y234200D02*
Y247200D01*
X1003300D02*
X1023300D01*
X1003300Y234200D02*
Y247200D01*
Y234200D02*
X1023300D01*
X1048800D02*
Y247200D01*
Y234200D02*
X1068800D01*
Y247200D01*
X1048800D02*
X1068800D01*
X1048800Y260200D02*
Y273200D01*
Y260200D02*
X1068800D01*
Y273200D01*
X1048800D02*
X1068800D01*
X1003300Y260200D02*
Y273200D01*
Y260200D02*
X1023300D01*
Y273200D01*
X1003300D02*
X1023300D01*
X1048800Y286200D02*
Y299200D01*
Y286200D02*
X1068800D01*
Y299200D01*
X1048800D02*
X1068800D01*
X1023300Y286200D02*
Y299200D01*
X1003300D02*
X1023300D01*
X1003300Y286200D02*
Y299200D01*
Y286200D02*
X1023300D01*
X1088050Y222357D02*
X1101050D01*
X1088050Y202357D02*
Y222357D01*
Y202357D02*
X1101050D01*
Y222357D01*
X1111133D02*
X1124133D01*
X1111133Y202357D02*
Y222357D01*
Y202357D02*
X1124133D01*
Y222357D01*
X1157298D02*
X1170298D01*
X1157298Y202357D02*
Y222357D01*
Y202357D02*
X1170298D01*
Y222357D01*
X1134215D02*
X1147215D01*
X1134215Y202357D02*
Y222357D01*
Y202357D02*
X1147215D01*
Y222357D01*
X1237300Y234200D02*
Y247200D01*
Y234200D02*
X1257300D01*
Y247200D01*
X1237300D02*
X1257300D01*
X1211800Y234200D02*
Y247200D01*
X1191800D02*
X1211800D01*
X1191800Y234200D02*
Y247200D01*
Y234200D02*
X1211800D01*
X1191800Y260200D02*
Y273200D01*
Y260200D02*
X1211800D01*
Y273200D01*
X1191800D02*
X1211800D01*
X1257300Y260200D02*
Y273200D01*
X1237300D02*
X1257300D01*
X1237300Y260200D02*
Y273200D01*
Y260200D02*
X1257300D01*
X1211800Y286200D02*
Y299200D01*
X1191800D02*
X1211800D01*
X1191800Y286200D02*
Y299200D01*
Y286200D02*
X1211800D01*
X1237300D02*
Y299200D01*
Y286200D02*
X1257300D01*
Y299200D01*
X1237300D02*
X1257300D01*
X901550Y123350D02*
X914550D01*
Y143350D01*
X901550D02*
X914550D01*
X901550Y123350D02*
Y143350D01*
X977750Y123350D02*
X990750D01*
Y143350D01*
X977750D02*
X990750D01*
X977750Y123350D02*
Y143350D01*
X939650Y123350D02*
X952650D01*
Y143350D01*
X939650D02*
X952650D01*
X939650Y123350D02*
Y143350D01*
X863450Y123350D02*
X876450D01*
Y143350D01*
X863450D02*
X876450D01*
X863450Y123350D02*
Y143350D01*
D18*
X1636837Y782500D02*
Y778147D01*
X1637321Y776695D01*
X1637805Y776212D01*
X1638772Y775728D01*
X1640223D01*
X1641190Y776212D01*
X1641674Y776695D01*
X1642158Y778147D01*
Y782500D01*
X1632000D01*
X1639739Y766199D02*
X1640707Y766683D01*
X1641674Y767650D01*
X1642158Y768618D01*
Y770552D01*
X1641674Y771520D01*
X1640707Y772487D01*
X1639739Y772971D01*
X1638288Y773455D01*
X1635870D01*
X1634418Y772971D01*
X1633451Y772487D01*
X1632484Y771520D01*
X1632000Y770552D01*
Y768618D01*
X1632484Y767650D01*
X1633451Y766683D01*
X1634418Y766199D01*
X1642158Y763345D02*
X1632000D01*
X1642158D02*
Y758992D01*
X1641674Y757541D01*
X1641190Y757057D01*
X1640223Y756573D01*
X1639256D01*
X1638288Y757057D01*
X1637805Y757541D01*
X1637321Y758992D01*
Y763345D02*
Y758992D01*
X1636837Y757541D01*
X1636353Y757057D01*
X1635386Y756573D01*
X1633935D01*
X1632967Y757057D01*
X1632484Y757541D01*
X1632000Y758992D01*
Y763345D01*
X1642158Y740031D02*
Y746319D01*
X1632000D01*
Y740031D01*
X1637321Y746319D02*
Y742449D01*
X1642158Y738338D02*
X1632000D01*
X1642158D02*
Y734952D01*
X1641674Y733501D01*
X1640707Y732533D01*
X1639739Y732049D01*
X1638288Y731566D01*
X1635870D01*
X1634418Y732049D01*
X1633451Y732533D01*
X1632484Y733501D01*
X1632000Y734952D01*
Y738338D01*
X1639739Y722037D02*
X1640707Y722520D01*
X1641674Y723488D01*
X1642158Y724455D01*
Y726390D01*
X1641674Y727357D01*
X1640707Y728325D01*
X1639739Y728809D01*
X1638288Y729292D01*
X1635870D01*
X1634418Y728809D01*
X1633451Y728325D01*
X1632484Y727357D01*
X1632000Y726390D01*
Y724455D01*
X1632484Y723488D01*
X1633451Y722520D01*
X1634418Y722037D01*
X1635870D01*
Y724455D02*
Y722037D01*
X1642158Y713427D02*
Y719715D01*
X1632000D01*
Y713427D01*
X1637321Y719715D02*
Y715845D01*
M02*
