G04*
G04 #@! TF.GenerationSoftware,Altium Limited,Altium Designer,25.0.2 (28)*
G04*
G04 Layer_Color=32768*
%FSLAX44Y44*%
%MOMM*%
G71*
G04*
G04 #@! TF.SameCoordinates,AC037715-0773-48B7-9E6E-B3265F142276*
G04*
G04*
G04 #@! TF.FilePolarity,Positive*
G04*
G01*
G75*
%ADD17C,0.1000*%
%ADD160C,0.0500*%
D17*
X501460Y395605D02*
X511460D01*
X506460Y390605D02*
Y400605D01*
X646300Y440850D02*
Y460850D01*
X598300Y440850D02*
Y460850D01*
Y440850D02*
X646300D01*
X598300Y460850D02*
X646300D01*
X617300Y450850D02*
X627300D01*
X622300Y445850D02*
Y455850D01*
X646300Y586900D02*
Y606900D01*
X598300Y586900D02*
Y606900D01*
Y586900D02*
X646300D01*
X598300Y606900D02*
X646300D01*
X617300Y596900D02*
X627300D01*
X622300Y591900D02*
Y601900D01*
X1241232Y452200D02*
Y462200D01*
X1236232Y457200D02*
X1246232D01*
X1251232Y433200D02*
Y481200D01*
X1231232Y433200D02*
Y481200D01*
X1251232D01*
X1231232Y433200D02*
X1251232D01*
X525650Y612300D02*
Y632300D01*
X477650Y612300D02*
Y632300D01*
Y612300D02*
X525650D01*
X477650Y632300D02*
X525650D01*
X501650Y617300D02*
Y627300D01*
X496650Y622300D02*
X506650D01*
X623570Y507668D02*
Y517668D01*
X618570Y512668D02*
X628570D01*
X599570Y522668D02*
X647570D01*
X599570Y502668D02*
X647570D01*
X599570D02*
Y522668D01*
X647570Y502668D02*
Y522668D01*
X623570Y534750D02*
Y544750D01*
X618570Y539750D02*
X628570D01*
X599570Y549750D02*
X647570D01*
X599570Y529750D02*
X647570D01*
X599570D02*
Y549750D01*
X647570Y529750D02*
Y549750D01*
X623570Y561833D02*
Y571833D01*
X618570Y566833D02*
X628570D01*
X599570Y576833D02*
X647570D01*
X599570Y556833D02*
X647570D01*
X599570D02*
Y576833D01*
X647570Y556833D02*
Y576833D01*
X622300Y356950D02*
Y366950D01*
X617300Y361950D02*
X627300D01*
X598300Y371950D02*
X646300D01*
X598300Y351950D02*
X646300D01*
X598300D02*
Y371950D01*
X646300Y351950D02*
Y371950D01*
X622300Y415783D02*
Y425783D01*
X617300Y420783D02*
X627300D01*
X598300Y430783D02*
X646300D01*
X598300Y410783D02*
X646300D01*
X598300D02*
Y430783D01*
X646300Y410783D02*
Y430783D01*
X622300Y388700D02*
Y398700D01*
X617300Y393700D02*
X627300D01*
X598300Y403700D02*
X646300D01*
X598300Y383700D02*
X646300D01*
X598300D02*
Y403700D01*
X646300Y383700D02*
Y403700D01*
X97950Y841850D02*
X117950D01*
X97950Y889850D02*
X117950D01*
X97950Y841850D02*
Y889850D01*
X117950Y841850D02*
Y889850D01*
X107950Y860850D02*
Y870850D01*
X102950Y865850D02*
X112950D01*
X1072500Y538000D02*
X1082500D01*
X1077500Y533000D02*
Y543000D01*
X1158400Y979300D02*
X1178400D01*
X1158400Y1027300D02*
X1178400D01*
X1158400Y979300D02*
Y1027300D01*
X1178400Y979300D02*
Y1027300D01*
X1168400Y998300D02*
Y1008300D01*
X1163400Y1003300D02*
X1173400D01*
X1392000Y1079500D02*
X1402000D01*
X1397000Y1074500D02*
Y1084500D01*
X1387000Y1055500D02*
Y1103500D01*
X1407000Y1055500D02*
Y1103500D01*
X1387000Y1055500D02*
X1407000D01*
X1387000Y1103500D02*
X1407000D01*
X934800Y876300D02*
X944800D01*
X939800Y871300D02*
Y881300D01*
X949800Y852300D02*
Y900300D01*
X929800Y852300D02*
Y900300D01*
X949800D01*
X929800Y852300D02*
X949800D01*
X807800Y876300D02*
X817800D01*
X812800Y871300D02*
Y881300D01*
X822800Y852300D02*
Y900300D01*
X802800Y852300D02*
Y900300D01*
X822800D01*
X802800Y852300D02*
X822800D01*
X421000Y610550D02*
Y634050D01*
X468000Y610550D02*
Y634050D01*
X421000D02*
X468000D01*
X421000Y610550D02*
X468000D01*
X439500Y622300D02*
X449500D01*
X444500Y617300D02*
Y627300D01*
X625000Y115700D02*
X645000D01*
X625000Y163700D02*
X645000D01*
X625000Y115700D02*
Y163700D01*
X645000Y115700D02*
Y163700D01*
X630000Y139700D02*
X640000D01*
X635000Y134700D02*
Y144700D01*
X1204149Y433200D02*
X1224149D01*
X1204149Y481200D02*
X1224149D01*
X1204149Y433200D02*
Y481200D01*
X1224149Y433200D02*
Y481200D01*
X1214149Y452200D02*
Y462200D01*
X1209150Y457200D02*
X1219150D01*
X1177067Y433200D02*
X1197067D01*
X1177067Y481200D02*
X1197067D01*
X1177067Y433200D02*
Y481200D01*
X1197067Y433200D02*
Y481200D01*
X1187067Y452200D02*
Y462200D01*
X1182067Y457200D02*
X1192067D01*
X491650Y841850D02*
X511650D01*
X491650Y889850D02*
X511650D01*
X491650Y841850D02*
Y889850D01*
X511650Y841850D02*
Y889850D01*
X501650Y860850D02*
Y870850D01*
X496650Y865850D02*
X506650D01*
X350600Y865850D02*
X360600D01*
X355600Y860850D02*
Y870850D01*
X365600Y841850D02*
Y889850D01*
X345600Y841850D02*
Y889850D01*
X365600D01*
X345600Y841850D02*
X365600D01*
X231300Y841850D02*
X251300D01*
X231300Y889850D02*
X251300D01*
X231300Y841850D02*
Y889850D01*
X251300Y841850D02*
Y889850D01*
X241300Y860850D02*
Y870850D01*
X236300Y865850D02*
X246300D01*
X693500Y139700D02*
X703500D01*
X698500Y134700D02*
Y144700D01*
X708500Y115700D02*
Y163700D01*
X688500Y115700D02*
Y163700D01*
X708500D01*
X688500Y115700D02*
X708500D01*
X661750Y139700D02*
X671750D01*
X666750Y134700D02*
Y144700D01*
X656750Y115700D02*
Y163700D01*
X676750Y115700D02*
Y163700D01*
X656750Y115700D02*
X676750D01*
X656750Y163700D02*
X676750D01*
X1590200Y1103500D02*
X1610200D01*
X1590200Y1055500D02*
X1610200D01*
Y1103500D01*
X1590200Y1055500D02*
Y1103500D01*
X1600200Y1074500D02*
Y1084500D01*
X1595200Y1079500D02*
X1605200D01*
X1356182Y1103500D02*
X1376182D01*
X1356182Y1055500D02*
X1376182D01*
Y1103500D01*
X1356182Y1055500D02*
Y1103500D01*
X1366182Y1074500D02*
Y1084500D01*
X1361182Y1079500D02*
X1371182D01*
X1595200Y1003300D02*
X1605200D01*
X1600200Y998300D02*
Y1008300D01*
X1610200Y979300D02*
Y1027300D01*
X1590200Y979300D02*
Y1027300D01*
X1610200D01*
X1590200Y979300D02*
X1610200D01*
X1392000Y1003300D02*
X1402000D01*
X1397000Y998300D02*
Y1008300D01*
X1407000Y979300D02*
Y1027300D01*
X1387000Y979300D02*
Y1027300D01*
X1407000D01*
X1387000Y979300D02*
X1407000D01*
X1361182Y1003300D02*
X1371182D01*
X1366183Y998300D02*
Y1008300D01*
X1376183Y979300D02*
Y1027300D01*
X1356182Y979300D02*
Y1027300D01*
X1376183D01*
X1356182Y979300D02*
X1376183D01*
X1158400Y1103500D02*
X1178400D01*
X1158400Y1055500D02*
X1178400D01*
Y1103500D01*
X1158400Y1055500D02*
Y1103500D01*
X1168400Y1074500D02*
Y1084500D01*
X1163400Y1079500D02*
X1173400D01*
D160*
X595460Y338355D02*
Y452855D01*
X417460Y338355D02*
Y452855D01*
X595460D01*
X417460Y338355D02*
X595460D01*
X1144500Y471000D02*
Y605000D01*
X1010500Y471000D02*
Y605000D01*
X1144500D01*
X1010500Y471000D02*
X1144500D01*
M02*
