G04*
G04 #@! TF.GenerationSoftware,Altium Limited,Altium Designer,25.0.2 (28)*
G04*
G04 Layer_Physical_Order=2*
G04 Layer_Color=16711680*
%FSLAX44Y44*%
%MOMM*%
G71*
G04*
G04 #@! TF.SameCoordinates,89448804-F20A-4376-BCDE-6976CDED9B52*
G04*
G04*
G04 #@! TF.FilePolarity,Positive*
G04*
G01*
G75*
%ADD13C,0.6000*%
%ADD14C,0.5000*%
%ADD15C,0.2540*%
%ADD17C,0.3000*%
%ADD112C,1.8500*%
%ADD113R,1.8500X1.8500*%
%ADD138C,0.4000*%
%ADD139C,1.0000*%
%ADD142C,0.8000*%
%ADD146C,4.0000*%
%ADD149C,3.0000*%
%ADD150O,2.1590X2.0320*%
%ADD151C,0.7000*%
%ADD152O,2.0000X1.0000*%
%ADD153O,2.4000X1.0000*%
%ADD154O,4.0000X2.4000*%
%ADD155O,2.4000X3.6000*%
%ADD156O,2.0000X1.6000*%
%ADD157R,2.0000X1.6000*%
%ADD158C,2.0000*%
G04:AMPARAMS|DCode=159|XSize=2mm|YSize=2mm|CornerRadius=0mm|HoleSize=0mm|Usage=FLASHONLY|Rotation=90.000|XOffset=0mm|YOffset=0mm|HoleType=Round|Shape=Octagon|*
%AMOCTAGOND159*
4,1,8,0.5000,1.0000,-0.5000,1.0000,-1.0000,0.5000,-1.0000,-0.5000,-0.5000,-1.0000,0.5000,-1.0000,1.0000,-0.5000,1.0000,0.5000,0.5000,1.0000,0.0*
%
%ADD159OCTAGOND159*%

%ADD160O,1.6000X2.0000*%
%ADD161C,0.6000*%
%ADD162C,5.0000*%
G36*
X1559452Y1218730D02*
X1556679Y1215568D01*
X1553627Y1211000D01*
X1551197Y1206073D01*
X1549431Y1200870D01*
X1548359Y1195482D01*
X1548000Y1190000D01*
X1548359Y1184518D01*
X1549431Y1179130D01*
X1551197Y1173927D01*
X1553627Y1169000D01*
X1556679Y1164432D01*
X1560302Y1160302D01*
X1564432Y1156679D01*
X1569000Y1153627D01*
X1573927Y1151197D01*
X1579130Y1149431D01*
X1584518Y1148359D01*
X1590000Y1148000D01*
X1595482Y1148359D01*
X1600870Y1149431D01*
X1606073Y1151197D01*
X1611000Y1153627D01*
X1615568Y1156679D01*
X1618730Y1159452D01*
X1620000Y1158877D01*
Y598157D01*
X1618730Y597726D01*
X1617764Y598985D01*
X1614992Y601112D01*
X1611764Y602449D01*
X1608300Y602905D01*
X1604836Y602449D01*
X1601608Y601112D01*
X1598836Y598985D01*
X1596709Y596213D01*
X1595372Y592985D01*
X1594916Y589520D01*
Y577520D01*
X1595372Y574056D01*
X1596709Y570828D01*
X1598836Y568056D01*
X1601608Y565929D01*
X1604836Y564592D01*
X1608300Y564136D01*
X1611764Y564592D01*
X1614992Y565929D01*
X1617764Y568056D01*
X1618730Y569315D01*
X1620000Y568884D01*
Y101123D01*
X1618730Y100548D01*
X1615568Y103321D01*
X1611000Y106373D01*
X1606073Y108803D01*
X1600870Y110569D01*
X1595482Y111641D01*
X1590000Y112000D01*
X1584518Y111641D01*
X1579130Y110569D01*
X1573927Y108803D01*
X1569000Y106373D01*
X1564432Y103321D01*
X1560302Y99698D01*
X1556679Y95568D01*
X1553627Y91000D01*
X1551197Y86073D01*
X1549431Y80870D01*
X1548359Y75482D01*
X1548000Y70000D01*
X1548359Y64518D01*
X1549431Y59130D01*
X1551197Y53927D01*
X1553627Y49000D01*
X1556679Y44432D01*
X1559452Y41270D01*
X1558877Y40000D01*
X101123D01*
X100548Y41270D01*
X103321Y44432D01*
X106373Y49000D01*
X108803Y53927D01*
X110569Y59130D01*
X111641Y64518D01*
X112000Y70000D01*
X111641Y75482D01*
X110569Y80870D01*
X108803Y86073D01*
X106373Y91000D01*
X103321Y95568D01*
X99698Y99698D01*
X95568Y103321D01*
X91000Y106373D01*
X86073Y108803D01*
X80870Y110569D01*
X75482Y111641D01*
X70000Y112000D01*
X64518Y111641D01*
X59130Y110569D01*
X53927Y108803D01*
X49000Y106373D01*
X44432Y103321D01*
X41270Y100548D01*
X40000Y101123D01*
Y1158877D01*
X41270Y1159452D01*
X44432Y1156679D01*
X49000Y1153627D01*
X53927Y1151197D01*
X59130Y1149431D01*
X64518Y1148359D01*
X70000Y1148000D01*
X75482Y1148359D01*
X80870Y1149431D01*
X86073Y1151197D01*
X91000Y1153627D01*
X95568Y1156679D01*
X99698Y1160302D01*
X103321Y1164432D01*
X106373Y1169000D01*
X108803Y1173927D01*
X110569Y1179130D01*
X111641Y1184518D01*
X112000Y1190000D01*
X111641Y1195482D01*
X110569Y1200870D01*
X108803Y1206073D01*
X106373Y1211000D01*
X103321Y1215568D01*
X100548Y1218730D01*
X101123Y1220000D01*
X1558877D01*
X1559452Y1218730D01*
D02*
G37*
%LPC*%
G36*
X1500302Y1173770D02*
X1497098D01*
X1493954Y1173145D01*
X1490993Y1171918D01*
X1488329Y1170138D01*
X1486062Y1167871D01*
X1484282Y1165207D01*
X1483055Y1162246D01*
X1482430Y1159102D01*
Y1155897D01*
X1483055Y1152754D01*
X1484282Y1149793D01*
X1486062Y1147128D01*
X1488329Y1144862D01*
X1490993Y1143082D01*
X1493954Y1141855D01*
X1497098Y1141230D01*
X1500302D01*
X1503446Y1141855D01*
X1506407Y1143082D01*
X1509072Y1144862D01*
X1511338Y1147128D01*
X1513118Y1149793D01*
X1514345Y1152754D01*
X1514970Y1155897D01*
Y1159102D01*
X1514345Y1162246D01*
X1513118Y1165207D01*
X1511338Y1167871D01*
X1509072Y1170138D01*
X1506407Y1171918D01*
X1503446Y1173145D01*
X1500302Y1173770D01*
D02*
G37*
G36*
X1449503D02*
X1446298D01*
X1443154Y1173145D01*
X1440193Y1171918D01*
X1437529Y1170138D01*
X1435262Y1167871D01*
X1433482Y1165207D01*
X1432255Y1162246D01*
X1431630Y1159102D01*
Y1155897D01*
X1432255Y1152754D01*
X1433482Y1149793D01*
X1435262Y1147128D01*
X1437529Y1144862D01*
X1440193Y1143082D01*
X1443154Y1141855D01*
X1446298Y1141230D01*
X1449503D01*
X1452646Y1141855D01*
X1455607Y1143082D01*
X1458272Y1144862D01*
X1460538Y1147128D01*
X1462318Y1149793D01*
X1463545Y1152754D01*
X1464170Y1155897D01*
Y1159102D01*
X1463545Y1162246D01*
X1462318Y1165207D01*
X1460538Y1167871D01*
X1458272Y1170138D01*
X1455607Y1171918D01*
X1452646Y1173145D01*
X1449503Y1173770D01*
D02*
G37*
G36*
X1398703D02*
X1395498D01*
X1392354Y1173145D01*
X1389393Y1171918D01*
X1386729Y1170138D01*
X1384462Y1167871D01*
X1382682Y1165207D01*
X1381455Y1162246D01*
X1380830Y1159102D01*
Y1155897D01*
X1381455Y1152754D01*
X1382682Y1149793D01*
X1384462Y1147128D01*
X1386729Y1144862D01*
X1389393Y1143082D01*
X1392354Y1141855D01*
X1395498Y1141230D01*
X1398703D01*
X1401846Y1141855D01*
X1404807Y1143082D01*
X1407472Y1144862D01*
X1409738Y1147128D01*
X1411518Y1149793D01*
X1412745Y1152754D01*
X1413370Y1155897D01*
Y1159102D01*
X1412745Y1162246D01*
X1411518Y1165207D01*
X1409738Y1167871D01*
X1407472Y1170138D01*
X1404807Y1171918D01*
X1401846Y1173145D01*
X1398703Y1173770D01*
D02*
G37*
G36*
X1347903D02*
X1344698D01*
X1341554Y1173145D01*
X1338593Y1171918D01*
X1335929Y1170138D01*
X1333662Y1167871D01*
X1331882Y1165207D01*
X1330655Y1162246D01*
X1330030Y1159102D01*
Y1155897D01*
X1330655Y1152754D01*
X1331882Y1149793D01*
X1333662Y1147128D01*
X1335929Y1144862D01*
X1338593Y1143082D01*
X1341554Y1141855D01*
X1344698Y1141230D01*
X1347903D01*
X1351046Y1141855D01*
X1354007Y1143082D01*
X1356672Y1144862D01*
X1358938Y1147128D01*
X1360718Y1149793D01*
X1361945Y1152754D01*
X1362570Y1155897D01*
Y1159102D01*
X1361945Y1162246D01*
X1360718Y1165207D01*
X1358938Y1167871D01*
X1356672Y1170138D01*
X1354007Y1171918D01*
X1351046Y1173145D01*
X1347903Y1173770D01*
D02*
G37*
G36*
X1227302D02*
X1224097D01*
X1220954Y1173145D01*
X1217993Y1171918D01*
X1215328Y1170138D01*
X1213062Y1167871D01*
X1211282Y1165207D01*
X1210055Y1162246D01*
X1209430Y1159102D01*
Y1155897D01*
X1210055Y1152754D01*
X1211282Y1149793D01*
X1213062Y1147128D01*
X1215328Y1144862D01*
X1217993Y1143082D01*
X1220954Y1141855D01*
X1224097Y1141230D01*
X1227302D01*
X1230446Y1141855D01*
X1233407Y1143082D01*
X1236071Y1144862D01*
X1238338Y1147128D01*
X1240118Y1149793D01*
X1241345Y1152754D01*
X1241970Y1155897D01*
Y1159102D01*
X1241345Y1162246D01*
X1240118Y1165207D01*
X1238338Y1167871D01*
X1236071Y1170138D01*
X1233407Y1171918D01*
X1230446Y1173145D01*
X1227302Y1173770D01*
D02*
G37*
G36*
X1176502D02*
X1173297D01*
X1170154Y1173145D01*
X1167193Y1171918D01*
X1164528Y1170138D01*
X1162262Y1167871D01*
X1160482Y1165207D01*
X1159255Y1162246D01*
X1158630Y1159102D01*
Y1155897D01*
X1159255Y1152754D01*
X1160482Y1149793D01*
X1162262Y1147128D01*
X1164528Y1144862D01*
X1167193Y1143082D01*
X1170154Y1141855D01*
X1173297Y1141230D01*
X1176502D01*
X1179646Y1141855D01*
X1182607Y1143082D01*
X1185271Y1144862D01*
X1187538Y1147128D01*
X1189318Y1149793D01*
X1190545Y1152754D01*
X1191170Y1155897D01*
Y1159102D01*
X1190545Y1162246D01*
X1189318Y1165207D01*
X1187538Y1167871D01*
X1185271Y1170138D01*
X1182607Y1171918D01*
X1179646Y1173145D01*
X1176502Y1173770D01*
D02*
G37*
G36*
X1125702D02*
X1122497D01*
X1119354Y1173145D01*
X1116393Y1171918D01*
X1113728Y1170138D01*
X1111462Y1167871D01*
X1109682Y1165207D01*
X1108455Y1162246D01*
X1107830Y1159102D01*
Y1155897D01*
X1108455Y1152754D01*
X1109682Y1149793D01*
X1111462Y1147128D01*
X1113728Y1144862D01*
X1116393Y1143082D01*
X1119354Y1141855D01*
X1122497Y1141230D01*
X1125702D01*
X1128846Y1141855D01*
X1131807Y1143082D01*
X1134471Y1144862D01*
X1136738Y1147128D01*
X1138518Y1149793D01*
X1139745Y1152754D01*
X1140370Y1155897D01*
Y1159102D01*
X1139745Y1162246D01*
X1138518Y1165207D01*
X1136738Y1167871D01*
X1134471Y1170138D01*
X1131807Y1171918D01*
X1128846Y1173145D01*
X1125702Y1173770D01*
D02*
G37*
G36*
X1074902D02*
X1071697D01*
X1068554Y1173145D01*
X1065593Y1171918D01*
X1062928Y1170138D01*
X1060662Y1167871D01*
X1058882Y1165207D01*
X1057655Y1162246D01*
X1057030Y1159102D01*
Y1155897D01*
X1057655Y1152754D01*
X1058882Y1149793D01*
X1060662Y1147128D01*
X1062928Y1144862D01*
X1065593Y1143082D01*
X1068554Y1141855D01*
X1071697Y1141230D01*
X1074902D01*
X1078046Y1141855D01*
X1081007Y1143082D01*
X1083671Y1144862D01*
X1085938Y1147128D01*
X1087718Y1149793D01*
X1088945Y1152754D01*
X1089570Y1155897D01*
Y1159102D01*
X1088945Y1162246D01*
X1087718Y1165207D01*
X1085938Y1167871D01*
X1083671Y1170138D01*
X1081007Y1171918D01*
X1078046Y1173145D01*
X1074902Y1173770D01*
D02*
G37*
G36*
X1024102D02*
X1020897D01*
X1017754Y1173145D01*
X1014793Y1171918D01*
X1012128Y1170138D01*
X1009862Y1167871D01*
X1008082Y1165207D01*
X1006855Y1162246D01*
X1006230Y1159102D01*
Y1155897D01*
X1006855Y1152754D01*
X1008082Y1149793D01*
X1009862Y1147128D01*
X1012128Y1144862D01*
X1014793Y1143082D01*
X1017754Y1141855D01*
X1020897Y1141230D01*
X1024102D01*
X1027246Y1141855D01*
X1030207Y1143082D01*
X1032871Y1144862D01*
X1035138Y1147128D01*
X1036918Y1149793D01*
X1038145Y1152754D01*
X1038770Y1155897D01*
Y1159102D01*
X1038145Y1162246D01*
X1036918Y1165207D01*
X1035138Y1167871D01*
X1032871Y1170138D01*
X1030207Y1171918D01*
X1027246Y1173145D01*
X1024102Y1173770D01*
D02*
G37*
G36*
X973302D02*
X970097D01*
X966954Y1173145D01*
X963993Y1171918D01*
X961328Y1170138D01*
X959062Y1167871D01*
X957282Y1165207D01*
X956055Y1162246D01*
X955430Y1159102D01*
Y1155897D01*
X956055Y1152754D01*
X957282Y1149793D01*
X959062Y1147128D01*
X961328Y1144862D01*
X963993Y1143082D01*
X966954Y1141855D01*
X970097Y1141230D01*
X973302D01*
X976446Y1141855D01*
X979407Y1143082D01*
X982071Y1144862D01*
X984338Y1147128D01*
X986118Y1149793D01*
X987345Y1152754D01*
X987970Y1155897D01*
Y1159102D01*
X987345Y1162246D01*
X986118Y1165207D01*
X984338Y1167871D01*
X982071Y1170138D01*
X979407Y1171918D01*
X976446Y1173145D01*
X973302Y1173770D01*
D02*
G37*
G36*
X922502D02*
X919297D01*
X916154Y1173145D01*
X913193Y1171918D01*
X910528Y1170138D01*
X908262Y1167871D01*
X906482Y1165207D01*
X905255Y1162246D01*
X904630Y1159102D01*
Y1155897D01*
X905255Y1152754D01*
X906482Y1149793D01*
X908262Y1147128D01*
X910528Y1144862D01*
X913193Y1143082D01*
X916154Y1141855D01*
X919297Y1141230D01*
X922502D01*
X925646Y1141855D01*
X928607Y1143082D01*
X931271Y1144862D01*
X933538Y1147128D01*
X935318Y1149793D01*
X936545Y1152754D01*
X937170Y1155897D01*
Y1159102D01*
X936545Y1162246D01*
X935318Y1165207D01*
X933538Y1167871D01*
X931271Y1170138D01*
X928607Y1171918D01*
X925646Y1173145D01*
X922502Y1173770D01*
D02*
G37*
G36*
X871702D02*
X868497D01*
X865354Y1173145D01*
X862393Y1171918D01*
X859728Y1170138D01*
X857462Y1167871D01*
X855682Y1165207D01*
X854455Y1162246D01*
X853830Y1159102D01*
Y1155897D01*
X854455Y1152754D01*
X855682Y1149793D01*
X857462Y1147128D01*
X859728Y1144862D01*
X862393Y1143082D01*
X865354Y1141855D01*
X868497Y1141230D01*
X871702D01*
X874846Y1141855D01*
X877807Y1143082D01*
X880471Y1144862D01*
X882738Y1147128D01*
X884518Y1149793D01*
X885745Y1152754D01*
X886370Y1155897D01*
Y1159102D01*
X885745Y1162246D01*
X884518Y1165207D01*
X882738Y1167871D01*
X880471Y1170138D01*
X877807Y1171918D01*
X874846Y1173145D01*
X871702Y1173770D01*
D02*
G37*
G36*
X820902D02*
X817697D01*
X814554Y1173145D01*
X811593Y1171918D01*
X808928Y1170138D01*
X806662Y1167871D01*
X804882Y1165207D01*
X803655Y1162246D01*
X803030Y1159102D01*
Y1155897D01*
X803655Y1152754D01*
X804882Y1149793D01*
X806662Y1147128D01*
X808928Y1144862D01*
X811593Y1143082D01*
X814554Y1141855D01*
X817697Y1141230D01*
X820902D01*
X824046Y1141855D01*
X827007Y1143082D01*
X829671Y1144862D01*
X831938Y1147128D01*
X833718Y1149793D01*
X834945Y1152754D01*
X835570Y1155897D01*
Y1159102D01*
X834945Y1162246D01*
X833718Y1165207D01*
X831938Y1167871D01*
X829671Y1170138D01*
X827007Y1171918D01*
X824046Y1173145D01*
X820902Y1173770D01*
D02*
G37*
G36*
X770102D02*
X766897D01*
X763754Y1173145D01*
X760793Y1171918D01*
X758128Y1170138D01*
X755862Y1167871D01*
X754082Y1165207D01*
X752855Y1162246D01*
X752230Y1159102D01*
Y1155897D01*
X752855Y1152754D01*
X754082Y1149793D01*
X755862Y1147128D01*
X758128Y1144862D01*
X760793Y1143082D01*
X763754Y1141855D01*
X766897Y1141230D01*
X770102D01*
X773246Y1141855D01*
X776207Y1143082D01*
X778871Y1144862D01*
X781138Y1147128D01*
X782918Y1149793D01*
X784145Y1152754D01*
X784770Y1155897D01*
Y1159102D01*
X784145Y1162246D01*
X782918Y1165207D01*
X781138Y1167871D01*
X778871Y1170138D01*
X776207Y1171918D01*
X773246Y1173145D01*
X770102Y1173770D01*
D02*
G37*
G36*
X507303D02*
X504098D01*
X500955Y1173145D01*
X497994Y1171918D01*
X495329Y1170138D01*
X493063Y1167871D01*
X491282Y1165207D01*
X490056Y1162246D01*
X489430Y1159102D01*
Y1155897D01*
X490056Y1152754D01*
X491282Y1149793D01*
X493063Y1147128D01*
X495329Y1144862D01*
X497994Y1143082D01*
X500955Y1141855D01*
X504098Y1141230D01*
X507303D01*
X510446Y1141855D01*
X513407Y1143082D01*
X516072Y1144862D01*
X518338Y1147128D01*
X520119Y1149793D01*
X521345Y1152754D01*
X521970Y1155897D01*
Y1159102D01*
X521345Y1162246D01*
X520119Y1165207D01*
X518338Y1167871D01*
X516072Y1170138D01*
X513407Y1171918D01*
X510446Y1173145D01*
X507303Y1173770D01*
D02*
G37*
G36*
X456503D02*
X453298D01*
X450154Y1173145D01*
X447193Y1171918D01*
X444529Y1170138D01*
X442263Y1167871D01*
X440482Y1165207D01*
X439255Y1162246D01*
X438630Y1159102D01*
Y1155897D01*
X439255Y1152754D01*
X440482Y1149793D01*
X442263Y1147128D01*
X444529Y1144862D01*
X447193Y1143082D01*
X450154Y1141855D01*
X453298Y1141230D01*
X456503D01*
X459646Y1141855D01*
X462607Y1143082D01*
X465272Y1144862D01*
X467538Y1147128D01*
X469319Y1149793D01*
X470545Y1152754D01*
X471170Y1155897D01*
Y1159102D01*
X470545Y1162246D01*
X469319Y1165207D01*
X467538Y1167871D01*
X465272Y1170138D01*
X462607Y1171918D01*
X459646Y1173145D01*
X456503Y1173770D01*
D02*
G37*
G36*
X405703D02*
X402498D01*
X399355Y1173145D01*
X396394Y1171918D01*
X393729Y1170138D01*
X391463Y1167871D01*
X389682Y1165207D01*
X388456Y1162246D01*
X387830Y1159102D01*
Y1155897D01*
X388456Y1152754D01*
X389682Y1149793D01*
X391463Y1147128D01*
X393729Y1144862D01*
X396394Y1143082D01*
X399355Y1141855D01*
X402498Y1141230D01*
X405703D01*
X408846Y1141855D01*
X411807Y1143082D01*
X414472Y1144862D01*
X416738Y1147128D01*
X418519Y1149793D01*
X419745Y1152754D01*
X420370Y1155897D01*
Y1159102D01*
X419745Y1162246D01*
X418519Y1165207D01*
X416738Y1167871D01*
X414472Y1170138D01*
X411807Y1171918D01*
X408846Y1173145D01*
X405703Y1173770D01*
D02*
G37*
G36*
X354903D02*
X351698D01*
X348554Y1173145D01*
X345593Y1171918D01*
X342929Y1170138D01*
X340663Y1167871D01*
X338882Y1165207D01*
X337655Y1162246D01*
X337030Y1159102D01*
Y1155897D01*
X337655Y1152754D01*
X338882Y1149793D01*
X340663Y1147128D01*
X342929Y1144862D01*
X345593Y1143082D01*
X348554Y1141855D01*
X351698Y1141230D01*
X354903D01*
X358046Y1141855D01*
X361007Y1143082D01*
X363672Y1144862D01*
X365938Y1147128D01*
X367719Y1149793D01*
X368945Y1152754D01*
X369570Y1155897D01*
Y1159102D01*
X368945Y1162246D01*
X367719Y1165207D01*
X365938Y1167871D01*
X363672Y1170138D01*
X361007Y1171918D01*
X358046Y1173145D01*
X354903Y1173770D01*
D02*
G37*
G36*
X304103D02*
X300898D01*
X297754Y1173145D01*
X294793Y1171918D01*
X292129Y1170138D01*
X289863Y1167871D01*
X288082Y1165207D01*
X286856Y1162246D01*
X286230Y1159102D01*
Y1155897D01*
X286856Y1152754D01*
X288082Y1149793D01*
X289863Y1147128D01*
X292129Y1144862D01*
X294793Y1143082D01*
X297754Y1141855D01*
X300898Y1141230D01*
X304103D01*
X307246Y1141855D01*
X310207Y1143082D01*
X312872Y1144862D01*
X315138Y1147128D01*
X316919Y1149793D01*
X318145Y1152754D01*
X318770Y1155897D01*
Y1159102D01*
X318145Y1162246D01*
X316919Y1165207D01*
X315138Y1167871D01*
X312872Y1170138D01*
X310207Y1171918D01*
X307246Y1173145D01*
X304103Y1173770D01*
D02*
G37*
G36*
X253303D02*
X250098D01*
X246954Y1173145D01*
X243993Y1171918D01*
X241329Y1170138D01*
X239063Y1167871D01*
X237282Y1165207D01*
X236056Y1162246D01*
X235430Y1159102D01*
Y1155897D01*
X236056Y1152754D01*
X237282Y1149793D01*
X239063Y1147128D01*
X241329Y1144862D01*
X243993Y1143082D01*
X246954Y1141855D01*
X250098Y1141230D01*
X253303D01*
X256446Y1141855D01*
X259407Y1143082D01*
X262072Y1144862D01*
X264338Y1147128D01*
X266119Y1149793D01*
X267345Y1152754D01*
X267970Y1155897D01*
Y1159102D01*
X267345Y1162246D01*
X266119Y1165207D01*
X264338Y1167871D01*
X262072Y1170138D01*
X259407Y1171918D01*
X256446Y1173145D01*
X253303Y1173770D01*
D02*
G37*
G36*
X202503D02*
X199298D01*
X196154Y1173145D01*
X193193Y1171918D01*
X190529Y1170138D01*
X188263Y1167871D01*
X186482Y1165207D01*
X185256Y1162246D01*
X184630Y1159102D01*
Y1155897D01*
X185256Y1152754D01*
X186482Y1149793D01*
X188263Y1147128D01*
X190529Y1144862D01*
X193193Y1143082D01*
X196154Y1141855D01*
X199298Y1141230D01*
X202503D01*
X205646Y1141855D01*
X208607Y1143082D01*
X211272Y1144862D01*
X213538Y1147128D01*
X215319Y1149793D01*
X216545Y1152754D01*
X217170Y1155897D01*
Y1159102D01*
X216545Y1162246D01*
X215319Y1165207D01*
X213538Y1167871D01*
X211272Y1170138D01*
X208607Y1171918D01*
X205646Y1173145D01*
X202503Y1173770D01*
D02*
G37*
G36*
X151703D02*
X148498D01*
X145354Y1173145D01*
X142394Y1171918D01*
X139729Y1170138D01*
X137463Y1167871D01*
X135682Y1165207D01*
X134455Y1162246D01*
X133830Y1159102D01*
Y1155897D01*
X134455Y1152754D01*
X135682Y1149793D01*
X137463Y1147128D01*
X139729Y1144862D01*
X142394Y1143082D01*
X145354Y1141855D01*
X148498Y1141230D01*
X151703D01*
X154846Y1141855D01*
X157807Y1143082D01*
X160472Y1144862D01*
X162738Y1147128D01*
X164519Y1149793D01*
X165745Y1152754D01*
X166370Y1155897D01*
Y1159102D01*
X165745Y1162246D01*
X164519Y1165207D01*
X162738Y1167871D01*
X160472Y1170138D01*
X157807Y1171918D01*
X154846Y1173145D01*
X151703Y1173770D01*
D02*
G37*
G36*
X511100Y1136351D02*
X506977Y1136027D01*
X502957Y1135061D01*
X499136Y1133479D01*
X495699Y1131373D01*
X441980D01*
X437810Y1130962D01*
X433801Y1129746D01*
X430106Y1127771D01*
X426867Y1125113D01*
X424209Y1121874D01*
X422234Y1118179D01*
X421018Y1114169D01*
X420607Y1110000D01*
X421018Y1105830D01*
X422234Y1101821D01*
X424209Y1098126D01*
X426867Y1094887D01*
X430106Y1092229D01*
X433801Y1090254D01*
X437810Y1089038D01*
X441980Y1088627D01*
X481649D01*
Y754112D01*
Y746850D01*
X481973Y742728D01*
X482938Y738707D01*
X484521Y734887D01*
X486681Y731361D01*
X489367Y728217D01*
X492511Y725531D01*
X496037Y723371D01*
X499857Y721788D01*
X503878Y720823D01*
X508000Y720499D01*
X512122Y720823D01*
X516143Y721788D01*
X519963Y723371D01*
X523489Y725531D01*
X526633Y728217D01*
X529319Y731361D01*
X531479Y734887D01*
X533061Y738707D01*
X534027Y742728D01*
X534351Y746850D01*
Y754112D01*
Y1088627D01*
X1123950D01*
X1125755Y1088805D01*
X1127760Y1088607D01*
X1137920D01*
X1142090Y1089018D01*
X1142810Y1089236D01*
X1143530Y1089018D01*
X1147700Y1088607D01*
X1381412D01*
X1385582Y1089018D01*
X1389591Y1090234D01*
X1393286Y1092209D01*
X1396525Y1094867D01*
X1399183Y1098106D01*
X1401158Y1101801D01*
X1402374Y1105810D01*
X1402785Y1109980D01*
X1402374Y1114150D01*
X1401158Y1118159D01*
X1399183Y1121854D01*
X1396525Y1125093D01*
X1393286Y1127751D01*
X1389591Y1129726D01*
X1385582Y1130942D01*
X1381412Y1131353D01*
X1147700D01*
X1143530Y1130942D01*
X1142810Y1130724D01*
X1142090Y1130942D01*
X1137920Y1131353D01*
X1127760D01*
X1125956Y1131175D01*
X1123950Y1131373D01*
X526500D01*
X523063Y1133479D01*
X519243Y1135061D01*
X515222Y1136027D01*
X511100Y1136351D01*
D02*
G37*
G36*
X1416945Y1077650D02*
X1415155D01*
X1413501Y1076965D01*
X1412510Y1075974D01*
X1210040D01*
X1209049Y1076965D01*
X1207395Y1077650D01*
X1205605D01*
X1203951Y1076965D01*
X1202685Y1075699D01*
X1202000Y1074045D01*
Y1072255D01*
X1202685Y1070601D01*
X1203951Y1069335D01*
X1205605Y1068650D01*
X1207395D01*
X1209049Y1069335D01*
X1210040Y1070326D01*
X1378822D01*
Y961140D01*
X1378401Y960965D01*
X1377135Y959699D01*
X1376450Y958045D01*
Y956255D01*
X1377135Y954601D01*
X1378401Y953335D01*
X1380055Y952650D01*
X1381845D01*
X1383499Y953335D01*
X1384765Y954601D01*
X1385450Y956255D01*
Y958045D01*
X1384765Y959699D01*
X1384002Y960462D01*
Y1070326D01*
X1412510D01*
X1413501Y1069335D01*
X1415155Y1068650D01*
X1416945D01*
X1418599Y1069335D01*
X1419865Y1070601D01*
X1420550Y1072255D01*
Y1074045D01*
X1419865Y1075699D01*
X1418599Y1076965D01*
X1416945Y1077650D01*
D02*
G37*
G36*
X1320390Y1041652D02*
X1305260D01*
X1303955Y1041393D01*
X1209000D01*
X1206554Y1040906D01*
X1204480Y1039520D01*
X1203094Y1037446D01*
X1202607Y1035000D01*
X1203094Y1032554D01*
X1204480Y1030480D01*
X1206554Y1029094D01*
X1209000Y1028607D01*
X1305000D01*
X1306305Y1028867D01*
X1319547D01*
X1320600Y1028657D01*
X1323046Y1029144D01*
X1325120Y1030530D01*
X1326506Y1032604D01*
X1326993Y1035050D01*
X1326506Y1037496D01*
X1325120Y1039570D01*
X1324911Y1039780D01*
X1322837Y1041166D01*
X1320390Y1041652D01*
D02*
G37*
G36*
X1551375Y1041443D02*
X1443050D01*
X1440604Y1040956D01*
X1438530Y1039570D01*
X1438480Y1039520D01*
X1437094Y1037446D01*
X1436607Y1035000D01*
X1437094Y1032554D01*
X1438480Y1030480D01*
X1440554Y1029094D01*
X1443000Y1028607D01*
X1443251Y1028657D01*
X1551375D01*
X1553822Y1029144D01*
X1555896Y1030530D01*
X1557281Y1032604D01*
X1557768Y1035050D01*
X1557281Y1037496D01*
X1555896Y1039570D01*
X1553822Y1040956D01*
X1551375Y1041443D01*
D02*
G37*
G36*
X1468795Y957000D02*
X1467005D01*
X1465351Y956315D01*
X1464360Y955324D01*
X1438040D01*
X1437049Y956315D01*
X1435395Y957000D01*
X1433605D01*
X1431951Y956315D01*
X1430685Y955049D01*
X1430000Y953395D01*
Y951605D01*
X1430685Y949951D01*
X1431951Y948685D01*
X1433605Y948000D01*
X1435395D01*
X1437049Y948685D01*
X1438040Y949676D01*
X1464360D01*
X1465351Y948685D01*
X1467005Y948000D01*
X1468795D01*
X1470449Y948685D01*
X1471715Y949951D01*
X1472400Y951605D01*
Y953395D01*
X1471715Y955049D01*
X1470449Y956315D01*
X1468795Y957000D01*
D02*
G37*
G36*
X541716Y888221D02*
X539926D01*
X538272Y887536D01*
X537006Y886270D01*
X536321Y884616D01*
Y882826D01*
X537006Y881172D01*
X538272Y879906D01*
X539856Y879250D01*
X548065Y871042D01*
X548065Y871042D01*
X549312Y870209D01*
X550783Y869916D01*
X558861D01*
X560445Y869260D01*
X562235D01*
X563889Y869945D01*
X565155Y871211D01*
X565840Y872865D01*
Y874655D01*
X565155Y876309D01*
X563889Y877575D01*
X562235Y878260D01*
X560445D01*
X558861Y877604D01*
X552375D01*
X545292Y884686D01*
X544636Y886270D01*
X543370Y887536D01*
X541716Y888221D01*
D02*
G37*
G36*
X1150245Y810950D02*
X1148455D01*
X1148102Y810804D01*
X1093448D01*
X1093095Y810950D01*
X1091305D01*
X1089651Y810265D01*
X1088385Y808999D01*
X1087700Y807345D01*
Y805555D01*
X1088385Y803901D01*
X1089651Y802635D01*
X1091305Y801950D01*
X1093095D01*
X1093448Y802096D01*
X1148102D01*
X1148455Y801950D01*
X1150245D01*
X1151899Y802635D01*
X1153165Y803901D01*
X1153850Y805555D01*
Y807345D01*
X1153165Y808999D01*
X1151899Y810265D01*
X1150245Y810950D01*
D02*
G37*
G36*
X1372495Y861750D02*
X1370705D01*
X1369051Y861065D01*
X1367785Y859799D01*
X1367100Y858145D01*
Y856355D01*
X1367785Y854701D01*
X1369010Y853476D01*
Y816504D01*
X1367785Y815279D01*
X1367100Y813625D01*
Y811835D01*
X1367785Y810181D01*
X1369051Y808915D01*
X1370705Y808230D01*
X1372495D01*
X1374149Y808915D01*
X1375415Y810181D01*
X1376100Y811835D01*
Y813625D01*
X1375415Y815279D01*
X1374190Y816504D01*
Y853476D01*
X1375415Y854701D01*
X1376100Y856355D01*
Y858145D01*
X1375415Y859799D01*
X1374149Y861065D01*
X1372495Y861750D01*
D02*
G37*
G36*
X1162945Y798250D02*
X1161155D01*
X1159501Y797565D01*
X1158510Y796574D01*
X1076690D01*
X1075699Y797565D01*
X1074045Y798250D01*
X1072255D01*
X1070601Y797565D01*
X1069335Y796299D01*
X1068650Y794645D01*
Y792855D01*
X1069335Y791201D01*
X1070601Y789935D01*
X1072255Y789250D01*
X1074045D01*
X1074142Y789290D01*
X1075040Y788392D01*
X1075000Y788295D01*
Y786505D01*
X1075685Y784851D01*
X1076951Y783585D01*
X1078605Y782900D01*
X1080395D01*
X1080492Y782940D01*
X1081390Y782042D01*
X1081350Y781945D01*
Y780155D01*
X1082035Y778501D01*
X1083301Y777235D01*
X1084955Y776550D01*
X1086745D01*
X1086842Y776590D01*
X1087740Y775692D01*
X1087700Y775595D01*
Y773805D01*
X1088385Y772151D01*
X1089651Y770885D01*
X1091305Y770200D01*
X1093095D01*
X1094749Y770885D01*
X1095740Y771876D01*
X1177560D01*
X1178551Y770885D01*
X1180205Y770200D01*
X1181995D01*
X1183649Y770885D01*
X1184915Y772151D01*
X1185600Y773805D01*
Y775595D01*
X1184915Y777249D01*
X1183649Y778515D01*
X1181995Y779200D01*
X1180205D01*
X1180108Y779160D01*
X1179210Y780058D01*
X1179250Y780155D01*
Y781945D01*
X1178565Y783599D01*
X1177299Y784865D01*
X1175645Y785550D01*
X1173855D01*
X1173758Y785510D01*
X1172860Y786408D01*
X1172900Y786505D01*
Y788295D01*
X1172215Y789949D01*
X1170949Y791215D01*
X1169295Y791900D01*
X1167505D01*
X1167408Y791860D01*
X1166510Y792758D01*
X1166550Y792855D01*
Y794645D01*
X1165865Y796299D01*
X1164599Y797565D01*
X1162945Y798250D01*
D02*
G37*
G36*
X1610000Y771893D02*
X1603635D01*
Y766135D01*
X1616267D01*
X1615906Y767946D01*
X1614521Y770021D01*
X1612446Y771406D01*
X1610000Y771893D01*
D02*
G37*
G36*
X1569000D02*
X1564635D01*
Y766135D01*
X1575266D01*
X1574906Y767946D01*
X1573520Y770021D01*
X1571446Y771406D01*
X1569000Y771893D01*
D02*
G37*
G36*
X1563365D02*
X1559000D01*
X1556553Y771406D01*
X1554480Y770021D01*
X1553094Y767946D01*
X1552733Y766135D01*
X1563365D01*
Y771893D01*
D02*
G37*
G36*
X1602365D02*
X1596000D01*
X1593554Y771406D01*
X1591480Y770021D01*
X1590094Y767946D01*
X1589734Y766135D01*
X1602365D01*
Y771893D01*
D02*
G37*
G36*
X615950Y843573D02*
X613894Y843164D01*
X612150Y842000D01*
X610986Y840256D01*
X610577Y838200D01*
Y768350D01*
X610986Y766294D01*
X612150Y764550D01*
X613894Y763386D01*
X615950Y762977D01*
X618006Y763386D01*
X619749Y764550D01*
X620914Y766294D01*
X621323Y768350D01*
Y838200D01*
X620914Y840256D01*
X619749Y842000D01*
X618006Y843164D01*
X615950Y843573D01*
D02*
G37*
G36*
X164957Y783479D02*
X163687D01*
X160703Y783086D01*
X157923Y781934D01*
X155535Y780102D01*
X153703Y777714D01*
X152551Y774934D01*
X152159Y771950D01*
X152551Y768966D01*
X153703Y766186D01*
X155535Y763798D01*
X157923Y761966D01*
X160703Y760814D01*
X163687Y760422D01*
X164957D01*
X167941Y760814D01*
X170722Y761966D01*
X173109Y763798D01*
X174941Y766186D01*
X176093Y768966D01*
X176486Y771950D01*
X176093Y774934D01*
X174941Y777714D01*
X173109Y780102D01*
X170722Y781934D01*
X167941Y783086D01*
X164957Y783479D01*
D02*
G37*
G36*
X1616267Y764865D02*
X1603635D01*
Y759107D01*
X1610000D01*
X1612446Y759594D01*
X1614521Y760980D01*
X1615906Y763054D01*
X1616267Y764865D01*
D02*
G37*
G36*
X1602365D02*
X1589734D01*
X1590094Y763054D01*
X1591480Y760980D01*
X1593554Y759594D01*
X1596000Y759107D01*
X1602365D01*
Y764865D01*
D02*
G37*
G36*
X1563365D02*
X1552733D01*
X1553094Y763054D01*
X1554480Y760980D01*
X1556553Y759594D01*
X1559000Y759107D01*
X1563365D01*
Y764865D01*
D02*
G37*
G36*
X1575266D02*
X1564635D01*
Y759107D01*
X1568396D01*
X1568648Y757837D01*
X1567801Y757486D01*
X1566113Y755798D01*
X1565200Y753593D01*
Y751206D01*
X1566113Y749001D01*
X1567801Y747313D01*
X1570006Y746400D01*
X1572393D01*
X1574599Y747313D01*
X1576286Y749001D01*
X1577200Y751206D01*
Y753593D01*
X1576286Y755798D01*
X1574599Y757486D01*
X1572393Y758400D01*
X1572392D01*
X1572243Y758609D01*
X1572556Y760335D01*
X1573520Y760980D01*
X1574906Y763054D01*
X1575266Y764865D01*
D02*
G37*
G36*
X103202Y778270D02*
X99998D01*
X96854Y777645D01*
X93893Y776418D01*
X91229Y774638D01*
X88962Y772372D01*
X87182Y769707D01*
X85955Y766746D01*
X85330Y763603D01*
Y760397D01*
X85955Y757254D01*
X87182Y754293D01*
X88962Y751628D01*
X91229Y749362D01*
X93893Y747582D01*
X96854Y746355D01*
X99998Y745730D01*
X103202D01*
X106346Y746355D01*
X109307Y747582D01*
X111972Y749362D01*
X114238Y751628D01*
X116018Y754293D01*
X117245Y757254D01*
X117870Y760397D01*
Y763603D01*
X117245Y766746D01*
X116018Y769707D01*
X114238Y772372D01*
X111972Y774638D01*
X109307Y776418D01*
X106346Y777645D01*
X103202Y778270D01*
D02*
G37*
G36*
X164957Y726329D02*
X163687D01*
X160703Y725936D01*
X157923Y724784D01*
X155535Y722952D01*
X153703Y720564D01*
X152551Y717784D01*
X152159Y714800D01*
X152551Y711816D01*
X153703Y709036D01*
X155535Y706648D01*
X157923Y704816D01*
X160703Y703664D01*
X163687Y703272D01*
X164957D01*
X167941Y703664D01*
X170722Y704816D01*
X173109Y706648D01*
X174941Y709036D01*
X176093Y711816D01*
X176486Y714800D01*
X176093Y717784D01*
X174941Y720564D01*
X173109Y722952D01*
X170722Y724784D01*
X167941Y725936D01*
X164957Y726329D01*
D02*
G37*
G36*
X103202Y727470D02*
X99998D01*
X96854Y726845D01*
X93893Y725618D01*
X91229Y723838D01*
X88962Y721572D01*
X87182Y718907D01*
X85955Y715946D01*
X85330Y712803D01*
Y709597D01*
X85955Y706454D01*
X87182Y703493D01*
X88962Y700828D01*
X91229Y698562D01*
X93893Y696782D01*
X96854Y695555D01*
X99998Y694930D01*
X103202D01*
X106346Y695555D01*
X109307Y696782D01*
X111972Y698562D01*
X114238Y700828D01*
X116018Y703493D01*
X117245Y706454D01*
X117870Y709597D01*
Y712803D01*
X117245Y715946D01*
X116018Y718907D01*
X114238Y721572D01*
X111972Y723838D01*
X109307Y725618D01*
X106346Y726845D01*
X103202Y727470D01*
D02*
G37*
G36*
X971684Y703770D02*
X970835D01*
Y693135D01*
X981470D01*
Y693984D01*
X980702Y696850D01*
X979218Y699420D01*
X977120Y701518D01*
X974550Y703002D01*
X971684Y703770D01*
D02*
G37*
G36*
X969565D02*
X968716D01*
X965850Y703002D01*
X963280Y701518D01*
X961182Y699420D01*
X959698Y696850D01*
X958930Y693984D01*
Y693135D01*
X969565D01*
Y703770D01*
D02*
G37*
G36*
X1121895Y690300D02*
X1120105D01*
X1118451Y689615D01*
X1117460Y688624D01*
X1076690D01*
X1075699Y689615D01*
X1074045Y690300D01*
X1072255D01*
X1070601Y689615D01*
X1069335Y688349D01*
X1068650Y686695D01*
Y684905D01*
X1069335Y683251D01*
X1070601Y681985D01*
X1072255Y681300D01*
X1074045D01*
X1075699Y681985D01*
X1076690Y682976D01*
X1117460D01*
X1118451Y681985D01*
X1120105Y681300D01*
X1121895D01*
X1123549Y681985D01*
X1124815Y683251D01*
X1125500Y684905D01*
Y686695D01*
X1124815Y688349D01*
X1123549Y689615D01*
X1121895Y690300D01*
D02*
G37*
G36*
X997084Y703770D02*
X994116D01*
X991250Y703002D01*
X988680Y701518D01*
X986582Y699420D01*
X985098Y696850D01*
X984330Y693984D01*
Y691016D01*
X985098Y688150D01*
X986582Y685580D01*
X988680Y683482D01*
X991250Y681998D01*
X994116Y681230D01*
X997084D01*
X999950Y681998D01*
X1002520Y683482D01*
X1004618Y685580D01*
X1006102Y688150D01*
X1006870Y691016D01*
Y693984D01*
X1006102Y696850D01*
X1004618Y699420D01*
X1002520Y701518D01*
X999950Y703002D01*
X997084Y703770D01*
D02*
G37*
G36*
X981470Y691865D02*
X970835D01*
Y681230D01*
X971684D01*
X974550Y681998D01*
X977120Y683482D01*
X979218Y685580D01*
X980702Y688150D01*
X981470Y691016D01*
Y691865D01*
D02*
G37*
G36*
X969565D02*
X958930D01*
Y691016D01*
X959698Y688150D01*
X961182Y685580D01*
X963280Y683482D01*
X965850Y681998D01*
X968716Y681230D01*
X969565D01*
Y691865D01*
D02*
G37*
G36*
X946284Y703770D02*
X943316D01*
X940450Y703002D01*
X937880Y701518D01*
X935782Y699420D01*
X934298Y696850D01*
X933530Y693984D01*
Y691016D01*
X934298Y688150D01*
X935782Y685580D01*
X937880Y683482D01*
X940450Y681998D01*
X943316Y681230D01*
X946284D01*
X949150Y681998D01*
X951720Y683482D01*
X953818Y685580D01*
X955302Y688150D01*
X956070Y691016D01*
Y693984D01*
X955302Y696850D01*
X953818Y699420D01*
X951720Y701518D01*
X949150Y703002D01*
X946284Y703770D01*
D02*
G37*
G36*
X1572393Y698600D02*
X1570006D01*
X1567801Y697687D01*
X1566113Y695999D01*
X1565200Y693794D01*
Y691407D01*
X1566113Y689201D01*
X1567801Y687514D01*
X1568648Y687163D01*
X1568396Y685893D01*
X1564635D01*
Y680135D01*
X1575266D01*
X1574906Y681946D01*
X1573520Y684020D01*
X1572556Y684665D01*
X1572243Y686391D01*
X1572392Y686600D01*
X1572393D01*
X1574599Y687514D01*
X1576286Y689201D01*
X1577200Y691407D01*
Y693794D01*
X1576286Y695999D01*
X1574599Y697687D01*
X1572393Y698600D01*
D02*
G37*
G36*
X1610000Y685893D02*
X1603635D01*
Y680135D01*
X1616267D01*
X1615906Y681946D01*
X1614521Y684020D01*
X1612446Y685406D01*
X1610000Y685893D01*
D02*
G37*
G36*
X1563365D02*
X1559000D01*
X1556553Y685406D01*
X1554480Y684020D01*
X1553094Y681946D01*
X1552733Y680135D01*
X1563365D01*
Y685893D01*
D02*
G37*
G36*
X1602365D02*
X1596000D01*
X1593554Y685406D01*
X1591480Y684020D01*
X1590094Y681946D01*
X1589734Y680135D01*
X1602365D01*
Y685893D01*
D02*
G37*
G36*
X1616267Y678865D02*
X1603635D01*
Y673107D01*
X1610000D01*
X1612446Y673594D01*
X1614521Y674979D01*
X1615906Y677053D01*
X1616267Y678865D01*
D02*
G37*
G36*
X1602365D02*
X1589734D01*
X1590094Y677053D01*
X1591480Y674979D01*
X1593554Y673594D01*
X1596000Y673107D01*
X1602365D01*
Y678865D01*
D02*
G37*
G36*
X1575266D02*
X1564635D01*
Y673107D01*
X1569000D01*
X1571446Y673594D01*
X1573520Y674979D01*
X1574906Y677053D01*
X1575266Y678865D01*
D02*
G37*
G36*
X1563365D02*
X1552733D01*
X1553094Y677053D01*
X1554480Y674979D01*
X1556553Y673594D01*
X1559000Y673107D01*
X1563365D01*
Y678865D01*
D02*
G37*
G36*
X103202Y676670D02*
X102235D01*
Y661035D01*
X117870D01*
Y662002D01*
X117245Y665146D01*
X116018Y668107D01*
X114238Y670771D01*
X111972Y673038D01*
X109307Y674818D01*
X106346Y676045D01*
X103202Y676670D01*
D02*
G37*
G36*
X100965D02*
X99998D01*
X96854Y676045D01*
X93893Y674818D01*
X91229Y673038D01*
X88962Y670771D01*
X87182Y668107D01*
X85955Y665146D01*
X85330Y662002D01*
Y661035D01*
X100965D01*
Y676670D01*
D02*
G37*
G36*
X925035Y703770D02*
X913765D01*
X908130Y698135D01*
Y686865D01*
X913765Y681230D01*
X925035D01*
X925855Y682050D01*
X949903Y658003D01*
X950819Y657391D01*
X951900Y657176D01*
X951900Y657176D01*
X993960D01*
X994951Y656185D01*
X996605Y655500D01*
X998395D01*
X1000049Y656185D01*
X1001315Y657451D01*
X1002000Y659105D01*
Y660895D01*
X1001315Y662549D01*
X1000049Y663815D01*
X998395Y664500D01*
X996605D01*
X994951Y663815D01*
X993960Y662824D01*
X953070D01*
X929850Y686045D01*
X930670Y686865D01*
Y698135D01*
X925035Y703770D01*
D02*
G37*
G36*
X117870Y659765D02*
X102235D01*
Y644130D01*
X103202D01*
X106346Y644755D01*
X109307Y645982D01*
X111972Y647762D01*
X114238Y650029D01*
X116018Y652693D01*
X117245Y655654D01*
X117870Y658798D01*
Y659765D01*
D02*
G37*
G36*
X100965D02*
X85330D01*
Y658798D01*
X85955Y655654D01*
X87182Y652693D01*
X88962Y650029D01*
X91229Y647762D01*
X93893Y645982D01*
X96854Y644755D01*
X99998Y644130D01*
X100965D01*
Y659765D01*
D02*
G37*
G36*
X1572200Y657105D02*
X1556200D01*
X1552736Y656649D01*
X1549508Y655312D01*
X1546736Y653185D01*
X1544609Y650413D01*
X1543272Y647185D01*
X1542816Y643720D01*
X1543272Y640256D01*
X1544609Y637028D01*
X1546736Y634256D01*
X1549508Y632129D01*
X1552736Y630792D01*
X1556200Y630336D01*
X1572200D01*
X1575664Y630792D01*
X1578892Y632129D01*
X1581664Y634256D01*
X1583791Y637028D01*
X1585128Y640256D01*
X1585585Y643720D01*
X1585128Y647185D01*
X1583791Y650413D01*
X1581664Y653185D01*
X1578892Y655312D01*
X1575664Y656649D01*
X1572200Y657105D01*
D02*
G37*
G36*
X1270895Y631875D02*
X1269105D01*
X1267451Y631190D01*
X1266185Y629924D01*
X1265975Y629416D01*
X1265946Y629410D01*
X1265029Y628798D01*
X1264816Y628584D01*
X1233594D01*
X1233594Y628584D01*
X1233016Y628469D01*
X1201524D01*
X1201311Y628683D01*
X1200394Y629295D01*
X1200365Y629301D01*
X1200155Y629809D01*
X1198889Y631075D01*
X1197235Y631760D01*
X1195445D01*
X1193791Y631075D01*
X1192525Y629809D01*
X1191840Y628155D01*
Y626365D01*
X1192525Y624711D01*
X1193726Y623510D01*
X1192525Y622309D01*
X1191840Y620655D01*
Y618865D01*
X1192525Y617211D01*
X1193791Y615945D01*
X1195244Y615343D01*
X1195407Y614627D01*
X1195371Y614021D01*
X1194874Y613815D01*
X1193608Y612549D01*
X1192923Y610895D01*
Y609105D01*
X1193608Y607451D01*
X1194874Y606185D01*
X1196528Y605500D01*
X1198318D01*
X1199972Y606185D01*
X1201197Y607410D01*
X1256226D01*
X1257451Y606185D01*
X1259105Y605500D01*
X1260895D01*
X1262549Y606185D01*
X1263815Y607451D01*
X1264500Y609105D01*
Y610895D01*
X1263815Y612549D01*
X1262549Y613815D01*
X1260895Y614500D01*
X1259105D01*
X1257451Y613815D01*
X1256226Y612590D01*
X1201197D01*
X1199972Y613815D01*
X1198518Y614417D01*
X1198356Y615133D01*
X1198392Y615739D01*
X1198889Y615945D01*
X1200155Y617211D01*
X1200365Y617719D01*
X1200394Y617725D01*
X1201311Y618337D01*
X1201524Y618551D01*
X1235247D01*
X1235247Y618551D01*
X1235826Y618666D01*
X1264816D01*
X1265029Y618452D01*
X1265029Y618452D01*
X1265946Y617840D01*
X1265975Y617834D01*
X1266185Y617326D01*
X1267451Y616060D01*
X1269105Y615375D01*
X1270895D01*
X1272549Y616060D01*
X1273815Y617326D01*
X1274500Y618980D01*
Y620770D01*
X1273815Y622424D01*
X1272614Y623625D01*
X1273815Y624826D01*
X1274500Y626480D01*
Y628270D01*
X1273815Y629924D01*
X1272549Y631190D01*
X1270895Y631875D01*
D02*
G37*
G36*
X103202Y625870D02*
X102235D01*
Y610235D01*
X117870D01*
Y611203D01*
X117245Y614346D01*
X116018Y617307D01*
X114238Y619972D01*
X111972Y622238D01*
X109307Y624018D01*
X106346Y625245D01*
X103202Y625870D01*
D02*
G37*
G36*
X100965D02*
X99998D01*
X96854Y625245D01*
X93893Y624018D01*
X91229Y622238D01*
X88962Y619972D01*
X87182Y617307D01*
X85955Y614346D01*
X85330Y611203D01*
Y610235D01*
X100965D01*
Y625870D01*
D02*
G37*
G36*
X164957Y624729D02*
X163687D01*
X160703Y624336D01*
X157923Y623184D01*
X155535Y621352D01*
X153703Y618965D01*
X152551Y616184D01*
X152159Y613200D01*
X152551Y610216D01*
X153703Y607436D01*
X155535Y605048D01*
X157923Y603216D01*
X160703Y602064D01*
X163687Y601672D01*
X164957D01*
X167941Y602064D01*
X170722Y603216D01*
X173109Y605048D01*
X174941Y607436D01*
X176093Y610216D01*
X176486Y613200D01*
X176093Y616184D01*
X174941Y618965D01*
X173109Y621352D01*
X170722Y623184D01*
X167941Y624336D01*
X164957Y624729D01*
D02*
G37*
G36*
X117870Y608965D02*
X102235D01*
Y593330D01*
X103202D01*
X106346Y593955D01*
X109307Y595182D01*
X111972Y596962D01*
X114238Y599229D01*
X116018Y601893D01*
X117245Y604854D01*
X117870Y607998D01*
Y608965D01*
D02*
G37*
G36*
X100965D02*
X85330D01*
Y607998D01*
X85955Y604854D01*
X87182Y601893D01*
X88962Y599229D01*
X91229Y596962D01*
X93893Y595182D01*
X96854Y593955D01*
X99998Y593330D01*
X100965D01*
Y608965D01*
D02*
G37*
G36*
X1547970Y605290D02*
X1525430D01*
Y586750D01*
X1547970D01*
Y605290D01*
D02*
G37*
G36*
X1570700Y605370D02*
X1566700D01*
X1564280Y605052D01*
X1562025Y604118D01*
X1560089Y602632D01*
X1558603Y600695D01*
X1557668Y598440D01*
X1557350Y596020D01*
X1557668Y593600D01*
X1558603Y591345D01*
X1560089Y589409D01*
X1562025Y587923D01*
X1564280Y586989D01*
X1566700Y586670D01*
X1570700D01*
X1573120Y586989D01*
X1575375Y587923D01*
X1577311Y589409D01*
X1578797Y591345D01*
X1579731Y593600D01*
X1580050Y596020D01*
X1579731Y598440D01*
X1578797Y600695D01*
X1577311Y602632D01*
X1575375Y604118D01*
X1573120Y605052D01*
X1570700Y605370D01*
D02*
G37*
G36*
X1496400Y602905D02*
X1492936Y602449D01*
X1489708Y601112D01*
X1486936Y598985D01*
X1484809Y596213D01*
X1483471Y592985D01*
X1483015Y589520D01*
Y577520D01*
X1483471Y574056D01*
X1484809Y570828D01*
X1486936Y568056D01*
X1489708Y565929D01*
X1492936Y564592D01*
X1496400Y564136D01*
X1499864Y564592D01*
X1503092Y565929D01*
X1505864Y568056D01*
X1507991Y570828D01*
X1509328Y574056D01*
X1509784Y577520D01*
Y589520D01*
X1509328Y592985D01*
X1507991Y596213D01*
X1505864Y598985D01*
X1503092Y601112D01*
X1499864Y602449D01*
X1496400Y602905D01*
D02*
G37*
G36*
X1570700Y580370D02*
X1566700D01*
X1564280Y580052D01*
X1562025Y579118D01*
X1560089Y577632D01*
X1558603Y575695D01*
X1557668Y573441D01*
X1557350Y571021D01*
X1557668Y568601D01*
X1558603Y566345D01*
X1560089Y564409D01*
X1562025Y562923D01*
X1564280Y561989D01*
X1566700Y561670D01*
X1570700D01*
X1573120Y561989D01*
X1575375Y562923D01*
X1577311Y564409D01*
X1578797Y566345D01*
X1579731Y568601D01*
X1580050Y571021D01*
X1579731Y573441D01*
X1578797Y575695D01*
X1577311Y577632D01*
X1575375Y579118D01*
X1573120Y580052D01*
X1570700Y580370D01*
D02*
G37*
G36*
X1538700D02*
X1534700D01*
X1532280Y580052D01*
X1530025Y579118D01*
X1528089Y577632D01*
X1526603Y575695D01*
X1525669Y573441D01*
X1525350Y571021D01*
X1525669Y568601D01*
X1526603Y566345D01*
X1528089Y564409D01*
X1530025Y562923D01*
X1532280Y561989D01*
X1534700Y561670D01*
X1538700D01*
X1541120Y561989D01*
X1543375Y562923D01*
X1545311Y564409D01*
X1546797Y566345D01*
X1547731Y568601D01*
X1548050Y571021D01*
X1547731Y573441D01*
X1546797Y575695D01*
X1545311Y577632D01*
X1543375Y579118D01*
X1541120Y580052D01*
X1538700Y580370D01*
D02*
G37*
G36*
X103202Y575070D02*
X102235D01*
Y559435D01*
X117870D01*
Y560402D01*
X117245Y563546D01*
X116018Y566507D01*
X114238Y569171D01*
X111972Y571438D01*
X109307Y573218D01*
X106346Y574445D01*
X103202Y575070D01*
D02*
G37*
G36*
X100965D02*
X99998D01*
X96854Y574445D01*
X93893Y573218D01*
X91229Y571438D01*
X88962Y569171D01*
X87182Y566507D01*
X85955Y563546D01*
X85330Y560402D01*
Y559435D01*
X100965D01*
Y575070D01*
D02*
G37*
G36*
X164957Y567579D02*
X163687D01*
X160703Y567186D01*
X157923Y566034D01*
X155535Y564202D01*
X153703Y561814D01*
X152551Y559034D01*
X152159Y556050D01*
X152551Y553066D01*
X153703Y550286D01*
X155535Y547898D01*
X157923Y546066D01*
X160703Y544914D01*
X163687Y544522D01*
X164957D01*
X167941Y544914D01*
X170722Y546066D01*
X173109Y547898D01*
X174941Y550286D01*
X176093Y553066D01*
X176486Y556050D01*
X176093Y559034D01*
X174941Y561814D01*
X173109Y564202D01*
X170722Y566034D01*
X167941Y567186D01*
X164957Y567579D01*
D02*
G37*
G36*
X117870Y558165D02*
X102235D01*
Y542530D01*
X103202D01*
X106346Y543155D01*
X109307Y544382D01*
X111972Y546162D01*
X114238Y548428D01*
X116018Y551093D01*
X117245Y554054D01*
X117870Y557197D01*
Y558165D01*
D02*
G37*
G36*
X100965D02*
X85330D01*
Y557197D01*
X85955Y554054D01*
X87182Y551093D01*
X88962Y548428D01*
X91229Y546162D01*
X93893Y544382D01*
X96854Y543155D01*
X99998Y542530D01*
X100965D01*
Y558165D01*
D02*
G37*
G36*
X808395Y564500D02*
X806605D01*
X804951Y563815D01*
X803685Y562549D01*
X803000Y560895D01*
Y559105D01*
X803685Y557451D01*
X804951Y556185D01*
X805304Y556039D01*
X826421Y534922D01*
X827833Y533978D01*
X829500Y533647D01*
X1076252D01*
X1076605Y533501D01*
X1078395D01*
X1080049Y534185D01*
X1081315Y535451D01*
X1082000Y537105D01*
Y538895D01*
X1081315Y540550D01*
X1080049Y541815D01*
X1078395Y542500D01*
X1076605D01*
X1076252Y542354D01*
X831303D01*
X811461Y562196D01*
X811315Y562549D01*
X810049Y563815D01*
X808395Y564500D01*
D02*
G37*
G36*
X1238395Y554500D02*
X1236605D01*
X1234951Y553815D01*
X1233685Y552549D01*
X1233000Y550895D01*
Y549105D01*
X1233685Y547451D01*
X1234676Y546460D01*
Y518540D01*
X1233685Y517549D01*
X1233000Y515895D01*
Y514105D01*
X1233685Y512451D01*
X1234951Y511185D01*
X1236605Y510500D01*
X1238395D01*
X1240049Y511185D01*
X1241315Y512451D01*
X1242000Y514105D01*
Y515895D01*
X1241315Y517549D01*
X1240324Y518540D01*
Y546460D01*
X1241315Y547451D01*
X1242000Y549105D01*
Y550895D01*
X1241315Y552549D01*
X1240049Y553815D01*
X1238395Y554500D01*
D02*
G37*
G36*
X1572200Y536705D02*
X1556200D01*
X1552736Y536249D01*
X1549508Y534912D01*
X1546736Y532785D01*
X1544609Y530013D01*
X1543272Y526785D01*
X1542816Y523320D01*
X1543272Y519856D01*
X1544609Y516628D01*
X1546736Y513856D01*
X1549508Y511729D01*
X1552736Y510392D01*
X1556200Y509936D01*
X1572200D01*
X1575664Y510392D01*
X1578892Y511729D01*
X1581664Y513856D01*
X1583791Y516628D01*
X1585128Y519856D01*
X1585585Y523320D01*
X1585128Y526785D01*
X1583791Y530013D01*
X1581664Y532785D01*
X1578892Y534912D01*
X1575664Y536249D01*
X1572200Y536705D01*
D02*
G37*
G36*
X103202Y524270D02*
X102235D01*
Y508635D01*
X117870D01*
Y509603D01*
X117245Y512746D01*
X116018Y515707D01*
X114238Y518372D01*
X111972Y520638D01*
X109307Y522418D01*
X106346Y523645D01*
X103202Y524270D01*
D02*
G37*
G36*
X100965D02*
X99998D01*
X96854Y523645D01*
X93893Y522418D01*
X91229Y520638D01*
X88962Y518372D01*
X87182Y515707D01*
X85955Y512746D01*
X85330Y509603D01*
Y508635D01*
X100965D01*
Y524270D01*
D02*
G37*
G36*
X673100Y557823D02*
X671044Y557414D01*
X669301Y556250D01*
X668136Y554506D01*
X667727Y552450D01*
Y501650D01*
X668136Y499594D01*
X669301Y497850D01*
X671044Y496686D01*
X673100Y496277D01*
X675156Y496686D01*
X676899Y497850D01*
X678064Y499594D01*
X678473Y501650D01*
Y552450D01*
X678064Y554506D01*
X676899Y556250D01*
X675156Y557414D01*
X673100Y557823D01*
D02*
G37*
G36*
X117870Y507365D02*
X102235D01*
Y491730D01*
X103202D01*
X106346Y492355D01*
X109307Y493582D01*
X111972Y495362D01*
X114238Y497629D01*
X116018Y500293D01*
X117245Y503254D01*
X117870Y506398D01*
Y507365D01*
D02*
G37*
G36*
X100965D02*
X85330D01*
Y506398D01*
X85955Y503254D01*
X87182Y500293D01*
X88962Y497629D01*
X91229Y495362D01*
X93893Y493582D01*
X96854Y492355D01*
X99998Y491730D01*
X100965D01*
Y507365D01*
D02*
G37*
G36*
X554990Y615123D02*
X552934Y614714D01*
X551190Y613549D01*
X550026Y611806D01*
X549617Y609750D01*
Y488950D01*
X550026Y486894D01*
X551190Y485150D01*
X552934Y483986D01*
X554990Y483577D01*
X557046Y483986D01*
X558789Y485150D01*
X559954Y486894D01*
X560363Y488950D01*
Y609750D01*
X559954Y611806D01*
X558789Y613549D01*
X557046Y614714D01*
X554990Y615123D01*
D02*
G37*
G36*
X1168395Y462000D02*
X1166605D01*
X1164951Y461315D01*
X1164830Y461194D01*
X1107017D01*
X1105795Y461700D01*
X1104005D01*
X1102351Y461015D01*
X1101085Y459749D01*
X1100400Y458095D01*
Y456305D01*
X1101085Y454651D01*
X1102351Y453385D01*
X1104005Y452700D01*
X1105795D01*
X1107449Y453385D01*
X1107570Y453506D01*
X1165383D01*
X1166605Y453000D01*
X1168395D01*
X1170049Y453685D01*
X1171315Y454951D01*
X1172000Y456605D01*
Y458395D01*
X1171315Y460049D01*
X1170049Y461315D01*
X1168395Y462000D01*
D02*
G37*
G36*
X307083Y374376D02*
X303082D01*
X300662Y374057D01*
X298407Y373123D01*
X296471Y371637D01*
X294985Y369701D01*
X294051Y367446D01*
X293732Y365026D01*
X294051Y362606D01*
X294985Y360351D01*
X296471Y358414D01*
X298407Y356929D01*
X300662Y355995D01*
X303082Y355676D01*
X307083D01*
X309502Y355995D01*
X311758Y356929D01*
X313694Y358414D01*
X315180Y360351D01*
X316114Y362606D01*
X316432Y365026D01*
X316114Y367446D01*
X315180Y369701D01*
X313694Y371637D01*
X311758Y373123D01*
X309502Y374057D01*
X307083Y374376D01*
D02*
G37*
G36*
X206882Y371376D02*
X204463Y371057D01*
X202208Y370123D01*
X200271Y368637D01*
X198785Y366701D01*
X197851Y364446D01*
X197533Y362026D01*
Y358026D01*
X197851Y355606D01*
X198785Y353351D01*
X200271Y351414D01*
X202208Y349928D01*
X204463Y348994D01*
X206882Y348676D01*
X209303Y348994D01*
X211558Y349928D01*
X213494Y351414D01*
X214980Y353351D01*
X215914Y355606D01*
X216232Y358026D01*
Y362026D01*
X215914Y364446D01*
X214980Y366701D01*
X213494Y368637D01*
X211558Y370123D01*
X209303Y371057D01*
X206882Y371376D01*
D02*
G37*
G36*
X156883D02*
X154463Y371057D01*
X152208Y370123D01*
X150271Y368637D01*
X148785Y366701D01*
X147851Y364446D01*
X147533Y362026D01*
Y358026D01*
X147851Y355606D01*
X148785Y353351D01*
X150271Y351414D01*
X152208Y349928D01*
X154463Y348994D01*
X156883Y348676D01*
X159303Y348994D01*
X161558Y349928D01*
X163494Y351414D01*
X164980Y353351D01*
X165914Y355606D01*
X166233Y358026D01*
Y362026D01*
X165914Y364446D01*
X164980Y366701D01*
X163494Y368637D01*
X161558Y370123D01*
X159303Y371057D01*
X156883Y371376D01*
D02*
G37*
G36*
X1033395Y392000D02*
X1031605D01*
X1029951Y391315D01*
X1028685Y390049D01*
X1028000Y388395D01*
Y386605D01*
X1028685Y384951D01*
X1029951Y383685D01*
X1031605Y383000D01*
X1033006D01*
X1063000Y353006D01*
Y351605D01*
X1063685Y349951D01*
X1064951Y348685D01*
X1066605Y348000D01*
X1068395D01*
X1070049Y348685D01*
X1071315Y349951D01*
X1072000Y351605D01*
Y353395D01*
X1071315Y355049D01*
X1070049Y356315D01*
X1068395Y357000D01*
X1066994D01*
X1037000Y386994D01*
Y388395D01*
X1036315Y390049D01*
X1035049Y391315D01*
X1033395Y392000D01*
D02*
G37*
G36*
X280718Y326292D02*
Y315661D01*
X289433D01*
Y317026D01*
X289114Y319446D01*
X288180Y321701D01*
X286694Y323638D01*
X284758Y325123D01*
X282503Y326057D01*
X280718Y326292D01*
D02*
G37*
G36*
X279448D02*
X277663Y326057D01*
X275408Y325123D01*
X273471Y323638D01*
X271985Y321701D01*
X271051Y319446D01*
X270733Y317026D01*
Y315661D01*
X279448D01*
Y326292D01*
D02*
G37*
G36*
X289433Y314391D02*
X280718D01*
Y303760D01*
X282503Y303995D01*
X284758Y304929D01*
X286694Y306415D01*
X288180Y308351D01*
X289114Y310606D01*
X289433Y313026D01*
Y314391D01*
D02*
G37*
G36*
X279448D02*
X270733D01*
Y313026D01*
X271051Y310606D01*
X271985Y308351D01*
X273471Y306415D01*
X275408Y304929D01*
X277663Y303995D01*
X279448Y303760D01*
Y314391D01*
D02*
G37*
G36*
X330083Y326376D02*
X327663Y326057D01*
X325408Y325123D01*
X323471Y323638D01*
X321985Y321701D01*
X321051Y319446D01*
X320733Y317026D01*
Y313026D01*
X321051Y310606D01*
X321985Y308351D01*
X323471Y306415D01*
X325408Y304929D01*
X327663Y303995D01*
X330083Y303676D01*
X332503Y303995D01*
X334758Y304929D01*
X336694Y306415D01*
X338180Y308351D01*
X339114Y310606D01*
X339433Y313026D01*
Y317026D01*
X339114Y319446D01*
X338180Y321701D01*
X336694Y323638D01*
X334758Y325123D01*
X332503Y326057D01*
X330083Y326376D01*
D02*
G37*
G36*
X183883Y319375D02*
X179883D01*
X177463Y319057D01*
X175208Y318123D01*
X173271Y316637D01*
X171786Y314700D01*
X170851Y312445D01*
X170533Y310025D01*
X170851Y307605D01*
X171786Y305350D01*
X173271Y303414D01*
X175208Y301928D01*
X177463Y300994D01*
X179883Y300675D01*
X183883D01*
X186303Y300994D01*
X188558Y301928D01*
X190494Y303414D01*
X191980Y305350D01*
X192914Y307605D01*
X193233Y310025D01*
X192914Y312445D01*
X191980Y314700D01*
X190494Y316637D01*
X188558Y318123D01*
X186303Y319057D01*
X183883Y319375D01*
D02*
G37*
G36*
X477145Y341050D02*
X475355D01*
X473701Y340365D01*
X472435Y339099D01*
X471750Y337445D01*
Y335655D01*
X472435Y334001D01*
X472916Y333520D01*
Y309031D01*
X460485Y296600D01*
X459805D01*
X458151Y295915D01*
X456885Y294649D01*
X456200Y292995D01*
Y291205D01*
X456885Y289551D01*
X458151Y288285D01*
X459805Y287600D01*
X461595D01*
X463249Y288285D01*
X464515Y289551D01*
X465200Y291205D01*
Y291885D01*
X478608Y305292D01*
X479330Y306374D01*
X479584Y307650D01*
Y333520D01*
X480065Y334001D01*
X480750Y335655D01*
Y337445D01*
X480065Y339099D01*
X478799Y340365D01*
X477145Y341050D01*
D02*
G37*
G36*
X608300Y336873D02*
X606244Y336464D01*
X604501Y335299D01*
X603336Y333556D01*
X602927Y331500D01*
Y274350D01*
X603336Y272294D01*
X604501Y270550D01*
X606244Y269386D01*
X608300Y268977D01*
X610356Y269386D01*
X612099Y270550D01*
X613264Y272294D01*
X613673Y274350D01*
Y331500D01*
X613264Y333556D01*
X612099Y335299D01*
X610356Y336464D01*
X608300Y336873D01*
D02*
G37*
G36*
X232895Y270943D02*
X231105D01*
X229451Y270258D01*
X228185Y268992D01*
X227500Y267338D01*
Y265548D01*
X228185Y263894D01*
X228666Y263413D01*
Y243473D01*
X228185Y242992D01*
X227500Y241338D01*
Y239548D01*
X228185Y237894D01*
X229451Y236628D01*
X231105Y235943D01*
X232895D01*
X234549Y236628D01*
X235815Y237894D01*
X236500Y239548D01*
Y241338D01*
X235815Y242992D01*
X235334Y243473D01*
Y263413D01*
X235815Y263894D01*
X236500Y265548D01*
Y267338D01*
X235815Y268992D01*
X234549Y270258D01*
X232895Y270943D01*
D02*
G37*
G36*
X755650Y265723D02*
X753594Y265314D01*
X751851Y264149D01*
X750686Y262406D01*
X750277Y260350D01*
Y228600D01*
X750686Y226544D01*
X751851Y224800D01*
X753594Y223636D01*
X755650Y223227D01*
X757706Y223636D01*
X759449Y224800D01*
X760614Y226544D01*
X761023Y228600D01*
Y260350D01*
X760614Y262406D01*
X759449Y264149D01*
X757706Y265314D01*
X755650Y265723D01*
D02*
G37*
G36*
X137859Y238443D02*
X136069D01*
X134415Y237758D01*
X133149Y236492D01*
X132464Y234838D01*
Y233048D01*
X133149Y231394D01*
X134415Y230128D01*
X136069Y229443D01*
X137859D01*
X139513Y230128D01*
X139994Y230609D01*
X154106D01*
X159669Y225046D01*
X160750Y224323D01*
X162026Y224070D01*
X182019D01*
X182500Y223589D01*
X184154Y222904D01*
X185944D01*
X187598Y223589D01*
X188864Y224855D01*
X189549Y226509D01*
Y228299D01*
X188864Y229953D01*
X187598Y231219D01*
X185944Y231904D01*
X184154D01*
X182500Y231219D01*
X182019Y230738D01*
X163407D01*
X157844Y236301D01*
X156763Y237023D01*
X155487Y237277D01*
X139994D01*
X139513Y237758D01*
X137859Y238443D01*
D02*
G37*
G36*
X232895Y231943D02*
X231105D01*
X229451Y231258D01*
X228185Y229992D01*
X227500Y228338D01*
Y226548D01*
X228185Y224894D01*
X228666Y224413D01*
Y203708D01*
X228568Y203610D01*
X227883Y201956D01*
Y200166D01*
X228568Y198512D01*
X229834Y197246D01*
X231488Y196561D01*
X233278D01*
X234932Y197246D01*
X236197Y198512D01*
X236883Y200166D01*
Y201956D01*
X236197Y203610D01*
X235334Y204473D01*
Y224413D01*
X235815Y224894D01*
X236500Y226548D01*
Y228338D01*
X235815Y229992D01*
X234549Y231258D01*
X232895Y231943D01*
D02*
G37*
G36*
X458095Y226750D02*
X456305D01*
X454651Y226065D01*
X453385Y224799D01*
X452700Y223145D01*
Y221355D01*
X453385Y219701D01*
X453866Y219220D01*
Y199880D01*
X453385Y199399D01*
X452700Y197745D01*
Y195955D01*
X453385Y194301D01*
X454651Y193035D01*
X456305Y192350D01*
X458095D01*
X459749Y193035D01*
X461015Y194301D01*
X461700Y195955D01*
Y197745D01*
X461015Y199399D01*
X460534Y199880D01*
Y219220D01*
X461015Y219701D01*
X461700Y221355D01*
Y223145D01*
X461015Y224799D01*
X459749Y226065D01*
X458095Y226750D01*
D02*
G37*
G36*
X1080395Y258500D02*
X1078605D01*
X1076951Y257815D01*
X1075685Y256549D01*
X1075000Y254895D01*
Y253105D01*
X1075146Y252752D01*
Y185398D01*
X1075000Y185045D01*
Y183255D01*
X1075685Y181601D01*
X1076951Y180335D01*
X1078605Y179650D01*
X1080395D01*
X1082049Y180335D01*
X1083315Y181601D01*
X1084000Y183255D01*
Y185045D01*
X1083854Y185398D01*
Y252752D01*
X1084000Y253105D01*
Y254895D01*
X1083315Y256549D01*
X1082049Y257815D01*
X1080395Y258500D01*
D02*
G37*
G36*
X1397000Y265723D02*
X1394944Y265314D01*
X1393201Y264149D01*
X1392036Y262406D01*
X1391627Y260350D01*
Y184150D01*
X1392036Y182094D01*
X1393201Y180350D01*
X1394944Y179186D01*
X1397000Y178777D01*
X1399056Y179186D01*
X1400800Y180350D01*
X1401964Y182094D01*
X1402373Y184150D01*
Y260350D01*
X1401964Y262406D01*
X1400800Y264149D01*
X1399056Y265314D01*
X1397000Y265723D01*
D02*
G37*
G36*
X329135Y159709D02*
Y149078D01*
X337850D01*
Y150443D01*
X337532Y152863D01*
X336598Y155118D01*
X335112Y157054D01*
X333175Y158540D01*
X330920Y159474D01*
X329135Y159709D01*
D02*
G37*
G36*
X327865D02*
X326080Y159474D01*
X323825Y158540D01*
X321889Y157054D01*
X320403Y155118D01*
X319469Y152863D01*
X319150Y150443D01*
Y149078D01*
X327865D01*
Y159709D01*
D02*
G37*
G36*
X807345Y182300D02*
X805555D01*
X803901Y181615D01*
X802635Y180349D01*
X801950Y178695D01*
Y176905D01*
X802635Y175251D01*
X803626Y174260D01*
Y149590D01*
X802635Y148599D01*
X801950Y146945D01*
Y145155D01*
X802635Y143501D01*
X803901Y142235D01*
X805555Y141550D01*
X807345D01*
X808999Y142235D01*
X810265Y143501D01*
X810950Y145155D01*
Y146945D01*
X810265Y148599D01*
X809274Y149590D01*
Y174260D01*
X810265Y175251D01*
X810950Y176905D01*
Y178695D01*
X810265Y180349D01*
X808999Y181615D01*
X807345Y182300D01*
D02*
G37*
G36*
X337850Y147808D02*
X329135D01*
Y137176D01*
X330920Y137411D01*
X333175Y138345D01*
X335112Y139831D01*
X336598Y141768D01*
X337532Y144023D01*
X337850Y146443D01*
Y147808D01*
D02*
G37*
G36*
X327865D02*
X319150D01*
Y146443D01*
X319469Y144023D01*
X320403Y141768D01*
X321889Y139831D01*
X323825Y138345D01*
X326080Y137411D01*
X327865Y137176D01*
Y147808D01*
D02*
G37*
G36*
X211500Y159793D02*
X209080Y159475D01*
X206825Y158540D01*
X204889Y157055D01*
X203403Y155118D01*
X202469Y152863D01*
X202150Y150443D01*
Y146443D01*
X202469Y144023D01*
X203403Y141768D01*
X204889Y139832D01*
X206825Y138346D01*
X209080Y137412D01*
X211500Y137093D01*
X213920Y137412D01*
X216175Y138346D01*
X218112Y139832D01*
X219597Y141768D01*
X220532Y144023D01*
X220850Y146443D01*
Y150443D01*
X220532Y152863D01*
X219597Y155118D01*
X218112Y157055D01*
X216175Y158540D01*
X213920Y159475D01*
X211500Y159793D01*
D02*
G37*
G36*
X161500D02*
X159080Y159475D01*
X156825Y158540D01*
X154889Y157055D01*
X153403Y155118D01*
X152469Y152863D01*
X152150Y150443D01*
Y146443D01*
X152469Y144023D01*
X153403Y141768D01*
X154889Y139832D01*
X156825Y138346D01*
X159080Y137412D01*
X161500Y137093D01*
X163920Y137412D01*
X166175Y138346D01*
X168112Y139832D01*
X169598Y141768D01*
X170532Y144023D01*
X170850Y146443D01*
Y150443D01*
X170532Y152863D01*
X169598Y155118D01*
X168112Y157055D01*
X166175Y158540D01*
X163920Y159475D01*
X161500Y159793D01*
D02*
G37*
G36*
X278500Y159793D02*
X276080Y159474D01*
X273825Y158540D01*
X271889Y157054D01*
X270403Y155118D01*
X269469Y152863D01*
X269150Y150443D01*
Y146443D01*
X269469Y144023D01*
X270403Y141768D01*
X271889Y139831D01*
X273825Y138345D01*
X276080Y137411D01*
X278500Y137093D01*
X280920Y137411D01*
X283175Y138345D01*
X285112Y139831D01*
X286598Y141768D01*
X287532Y144023D01*
X287850Y146443D01*
Y150443D01*
X287532Y152863D01*
X286598Y155118D01*
X285112Y157054D01*
X283175Y158540D01*
X280920Y159474D01*
X278500Y159793D01*
D02*
G37*
G36*
X342845Y115150D02*
X341055D01*
X339401Y114465D01*
X338920Y113984D01*
X319039D01*
X318558Y114465D01*
X316904Y115150D01*
X315114D01*
X313460Y114465D01*
X312194Y113199D01*
X311509Y111545D01*
Y109755D01*
X312194Y108101D01*
X313460Y106835D01*
X315114Y106150D01*
X316904D01*
X318558Y106835D01*
X319039Y107316D01*
X338920D01*
X339401Y106835D01*
X341055Y106150D01*
X342845D01*
X344499Y106835D01*
X345765Y108101D01*
X346450Y109755D01*
Y111545D01*
X345765Y113199D01*
X344499Y114465D01*
X342845Y115150D01*
D02*
G37*
G36*
X305500Y107793D02*
X301500D01*
X299080Y107474D01*
X296825Y106540D01*
X294889Y105054D01*
X293403Y103118D01*
X292469Y100863D01*
X292150Y98443D01*
X292469Y96023D01*
X293403Y93768D01*
X294889Y91831D01*
X296825Y90345D01*
X299080Y89411D01*
X301500Y89093D01*
X305500D01*
X307920Y89411D01*
X310175Y90345D01*
X312111Y91831D01*
X313597Y93768D01*
X314531Y96023D01*
X314850Y98443D01*
X314531Y100863D01*
X313597Y103118D01*
X312111Y105054D01*
X310175Y106540D01*
X307920Y107474D01*
X305500Y107793D01*
D02*
G37*
G36*
X188500D02*
X184501D01*
X182080Y107474D01*
X179825Y106540D01*
X177889Y105054D01*
X176403Y103118D01*
X175469Y100863D01*
X175151Y98443D01*
X175469Y96023D01*
X176403Y93768D01*
X177889Y91831D01*
X179825Y90345D01*
X182080Y89411D01*
X184501Y89093D01*
X188500D01*
X190921Y89411D01*
X193176Y90345D01*
X195112Y91831D01*
X196598Y93768D01*
X197532Y96023D01*
X197850Y98443D01*
X197532Y100863D01*
X196598Y103118D01*
X195112Y105054D01*
X193176Y106540D01*
X190921Y107474D01*
X188500Y107793D01*
D02*
G37*
G36*
X801485Y95320D02*
X800735D01*
Y85435D01*
X810620D01*
Y86185D01*
X809903Y88861D01*
X808518Y91259D01*
X806559Y93218D01*
X804161Y94603D01*
X801485Y95320D01*
D02*
G37*
G36*
X799465D02*
X798715D01*
X796039Y94603D01*
X793641Y93218D01*
X791682Y91259D01*
X790297Y88861D01*
X789580Y86185D01*
Y85435D01*
X799465D01*
Y95320D01*
D02*
G37*
G36*
X763385D02*
X762635D01*
Y85435D01*
X772520D01*
Y86185D01*
X771803Y88861D01*
X770418Y91259D01*
X768459Y93218D01*
X766061Y94603D01*
X763385Y95320D01*
D02*
G37*
G36*
X761365D02*
X760615D01*
X757939Y94603D01*
X755541Y93218D01*
X753582Y91259D01*
X752197Y88861D01*
X751480Y86185D01*
Y85435D01*
X761365D01*
Y95320D01*
D02*
G37*
G36*
X725285D02*
X724535D01*
Y85435D01*
X734420D01*
Y86185D01*
X733703Y88861D01*
X732318Y91259D01*
X730359Y93218D01*
X727961Y94603D01*
X725285Y95320D01*
D02*
G37*
G36*
X723265D02*
X722515D01*
X719839Y94603D01*
X717441Y93218D01*
X715482Y91259D01*
X714097Y88861D01*
X713380Y86185D01*
Y85435D01*
X723265D01*
Y95320D01*
D02*
G37*
G36*
X534785D02*
X534035D01*
Y85435D01*
X543920D01*
Y86185D01*
X543203Y88861D01*
X541818Y91259D01*
X539859Y93218D01*
X537461Y94603D01*
X534785Y95320D01*
D02*
G37*
G36*
X532765D02*
X532015D01*
X529339Y94603D01*
X526941Y93218D01*
X524982Y91259D01*
X523597Y88861D01*
X522880Y86185D01*
Y85435D01*
X532765D01*
Y95320D01*
D02*
G37*
G36*
X1214235D02*
X1211465D01*
X1208789Y94603D01*
X1206391Y93218D01*
X1204432Y91259D01*
X1203047Y88861D01*
X1202330Y86185D01*
Y83415D01*
X1203047Y80739D01*
X1204432Y78341D01*
X1206391Y76382D01*
X1208789Y74997D01*
X1211465Y74280D01*
X1214235D01*
X1216911Y74997D01*
X1219309Y76382D01*
X1221268Y78341D01*
X1222653Y80739D01*
X1223370Y83415D01*
Y86185D01*
X1222653Y88861D01*
X1221268Y91259D01*
X1219309Y93218D01*
X1216911Y94603D01*
X1214235Y95320D01*
D02*
G37*
G36*
X1176135D02*
X1173365D01*
X1170689Y94603D01*
X1168291Y93218D01*
X1166332Y91259D01*
X1164947Y88861D01*
X1164230Y86185D01*
Y83415D01*
X1164947Y80739D01*
X1166332Y78341D01*
X1168291Y76382D01*
X1170689Y74997D01*
X1173365Y74280D01*
X1176135D01*
X1178811Y74997D01*
X1181209Y76382D01*
X1183168Y78341D01*
X1184553Y80739D01*
X1185270Y83415D01*
Y86185D01*
X1184553Y88861D01*
X1183168Y91259D01*
X1181209Y93218D01*
X1178811Y94603D01*
X1176135Y95320D01*
D02*
G37*
G36*
X1138035D02*
X1135265D01*
X1132589Y94603D01*
X1130191Y93218D01*
X1128232Y91259D01*
X1126847Y88861D01*
X1126130Y86185D01*
Y83415D01*
X1126847Y80739D01*
X1128232Y78341D01*
X1130191Y76382D01*
X1132589Y74997D01*
X1135265Y74280D01*
X1138035D01*
X1140711Y74997D01*
X1143109Y76382D01*
X1145068Y78341D01*
X1146453Y80739D01*
X1147170Y83415D01*
Y86185D01*
X1146453Y88861D01*
X1145068Y91259D01*
X1143109Y93218D01*
X1140711Y94603D01*
X1138035Y95320D01*
D02*
G37*
G36*
X1099935D02*
X1097165D01*
X1094489Y94603D01*
X1092091Y93218D01*
X1090132Y91259D01*
X1088747Y88861D01*
X1088030Y86185D01*
Y83415D01*
X1088747Y80739D01*
X1090132Y78341D01*
X1092091Y76382D01*
X1094489Y74997D01*
X1097165Y74280D01*
X1099935D01*
X1102611Y74997D01*
X1105009Y76382D01*
X1106968Y78341D01*
X1108353Y80739D01*
X1109070Y83415D01*
Y86185D01*
X1108353Y88861D01*
X1106968Y91259D01*
X1105009Y93218D01*
X1102611Y94603D01*
X1099935Y95320D01*
D02*
G37*
G36*
X1061835D02*
X1059065D01*
X1056389Y94603D01*
X1053991Y93218D01*
X1052032Y91259D01*
X1050647Y88861D01*
X1049930Y86185D01*
Y83415D01*
X1050647Y80739D01*
X1052032Y78341D01*
X1053991Y76382D01*
X1056389Y74997D01*
X1059065Y74280D01*
X1061835D01*
X1064511Y74997D01*
X1066909Y76382D01*
X1068868Y78341D01*
X1070253Y80739D01*
X1070970Y83415D01*
Y86185D01*
X1070253Y88861D01*
X1068868Y91259D01*
X1066909Y93218D01*
X1064511Y94603D01*
X1061835Y95320D01*
D02*
G37*
G36*
X1023735D02*
X1020965D01*
X1018289Y94603D01*
X1015891Y93218D01*
X1013932Y91259D01*
X1012547Y88861D01*
X1011830Y86185D01*
Y83415D01*
X1012547Y80739D01*
X1013932Y78341D01*
X1015891Y76382D01*
X1018289Y74997D01*
X1020965Y74280D01*
X1023735D01*
X1026411Y74997D01*
X1028809Y76382D01*
X1030768Y78341D01*
X1032153Y80739D01*
X1032870Y83415D01*
Y86185D01*
X1032153Y88861D01*
X1030768Y91259D01*
X1028809Y93218D01*
X1026411Y94603D01*
X1023735Y95320D01*
D02*
G37*
G36*
X985635D02*
X982865D01*
X980189Y94603D01*
X977791Y93218D01*
X975832Y91259D01*
X974447Y88861D01*
X973730Y86185D01*
Y83415D01*
X974447Y80739D01*
X975832Y78341D01*
X977791Y76382D01*
X980189Y74997D01*
X982865Y74280D01*
X985635D01*
X988311Y74997D01*
X990709Y76382D01*
X992668Y78341D01*
X994053Y80739D01*
X994770Y83415D01*
Y86185D01*
X994053Y88861D01*
X992668Y91259D01*
X990709Y93218D01*
X988311Y94603D01*
X985635Y95320D01*
D02*
G37*
G36*
X947535D02*
X944765D01*
X942089Y94603D01*
X939691Y93218D01*
X937732Y91259D01*
X936347Y88861D01*
X935630Y86185D01*
Y83415D01*
X936347Y80739D01*
X937732Y78341D01*
X939691Y76382D01*
X942089Y74997D01*
X944765Y74280D01*
X947535D01*
X950211Y74997D01*
X952609Y76382D01*
X954568Y78341D01*
X955953Y80739D01*
X956670Y83415D01*
Y86185D01*
X955953Y88861D01*
X954568Y91259D01*
X952609Y93218D01*
X950211Y94603D01*
X947535Y95320D01*
D02*
G37*
G36*
X909435D02*
X906665D01*
X903989Y94603D01*
X901591Y93218D01*
X899632Y91259D01*
X898247Y88861D01*
X897530Y86185D01*
Y83415D01*
X898247Y80739D01*
X899632Y78341D01*
X901591Y76382D01*
X903989Y74997D01*
X906665Y74280D01*
X909435D01*
X912111Y74997D01*
X914509Y76382D01*
X916468Y78341D01*
X917853Y80739D01*
X918570Y83415D01*
Y86185D01*
X917853Y88861D01*
X916468Y91259D01*
X914509Y93218D01*
X912111Y94603D01*
X909435Y95320D01*
D02*
G37*
G36*
X880470D02*
X859430D01*
Y74280D01*
X880470D01*
Y95320D01*
D02*
G37*
G36*
X810620Y84165D02*
X800735D01*
Y74280D01*
X801485D01*
X804161Y74997D01*
X806559Y76382D01*
X808518Y78341D01*
X809903Y80739D01*
X810620Y83415D01*
Y84165D01*
D02*
G37*
G36*
X799465D02*
X789580D01*
Y83415D01*
X790297Y80739D01*
X791682Y78341D01*
X793641Y76382D01*
X796039Y74997D01*
X798715Y74280D01*
X799465D01*
Y84165D01*
D02*
G37*
G36*
X772520D02*
X762635D01*
Y74280D01*
X763385D01*
X766061Y74997D01*
X768459Y76382D01*
X770418Y78341D01*
X771803Y80739D01*
X772520Y83415D01*
Y84165D01*
D02*
G37*
G36*
X761365D02*
X751480D01*
Y83415D01*
X752197Y80739D01*
X753582Y78341D01*
X755541Y76382D01*
X757939Y74997D01*
X760615Y74280D01*
X761365D01*
Y84165D01*
D02*
G37*
G36*
X734420D02*
X724535D01*
Y74280D01*
X725285D01*
X727961Y74997D01*
X730359Y76382D01*
X732318Y78341D01*
X733703Y80739D01*
X734420Y83415D01*
Y84165D01*
D02*
G37*
G36*
X723265D02*
X713380D01*
Y83415D01*
X714097Y80739D01*
X715482Y78341D01*
X717441Y76382D01*
X719839Y74997D01*
X722515Y74280D01*
X723265D01*
Y84165D01*
D02*
G37*
G36*
X687185Y95320D02*
X684415D01*
X681739Y94603D01*
X679341Y93218D01*
X677382Y91259D01*
X675997Y88861D01*
X675280Y86185D01*
Y83415D01*
X675997Y80739D01*
X677382Y78341D01*
X679341Y76382D01*
X681739Y74997D01*
X684415Y74280D01*
X687185D01*
X689861Y74997D01*
X692259Y76382D01*
X694218Y78341D01*
X695603Y80739D01*
X696320Y83415D01*
Y86185D01*
X695603Y88861D01*
X694218Y91259D01*
X692259Y93218D01*
X689861Y94603D01*
X687185Y95320D01*
D02*
G37*
G36*
X649085D02*
X646315D01*
X643639Y94603D01*
X641241Y93218D01*
X639282Y91259D01*
X637897Y88861D01*
X637180Y86185D01*
Y83415D01*
X637897Y80739D01*
X639282Y78341D01*
X641241Y76382D01*
X643639Y74997D01*
X646315Y74280D01*
X649085D01*
X651761Y74997D01*
X654159Y76382D01*
X656118Y78341D01*
X657503Y80739D01*
X658220Y83415D01*
Y86185D01*
X657503Y88861D01*
X656118Y91259D01*
X654159Y93218D01*
X651761Y94603D01*
X649085Y95320D01*
D02*
G37*
G36*
X610985D02*
X608215D01*
X605539Y94603D01*
X603141Y93218D01*
X601182Y91259D01*
X599797Y88861D01*
X599080Y86185D01*
Y83415D01*
X599797Y80739D01*
X601182Y78341D01*
X603141Y76382D01*
X605539Y74997D01*
X608215Y74280D01*
X610985D01*
X613661Y74997D01*
X616059Y76382D01*
X618018Y78341D01*
X619403Y80739D01*
X620120Y83415D01*
Y86185D01*
X619403Y88861D01*
X618018Y91259D01*
X616059Y93218D01*
X613661Y94603D01*
X610985Y95320D01*
D02*
G37*
G36*
X572885D02*
X570115D01*
X567439Y94603D01*
X565041Y93218D01*
X563082Y91259D01*
X561697Y88861D01*
X560980Y86185D01*
Y83415D01*
X561697Y80739D01*
X563082Y78341D01*
X565041Y76382D01*
X567439Y74997D01*
X570115Y74280D01*
X572885D01*
X575561Y74997D01*
X577959Y76382D01*
X579918Y78341D01*
X581303Y80739D01*
X582020Y83415D01*
Y86185D01*
X581303Y88861D01*
X579918Y91259D01*
X577959Y93218D01*
X575561Y94603D01*
X572885Y95320D01*
D02*
G37*
G36*
X543920Y84165D02*
X534035D01*
Y74280D01*
X534785D01*
X537461Y74997D01*
X539859Y76382D01*
X541818Y78341D01*
X543203Y80739D01*
X543920Y83415D01*
Y84165D01*
D02*
G37*
G36*
X532765D02*
X522880D01*
Y83415D01*
X523597Y80739D01*
X524982Y78341D01*
X526941Y76382D01*
X529339Y74997D01*
X532015Y74280D01*
X532765D01*
Y84165D01*
D02*
G37*
G36*
X496685Y95320D02*
X493915D01*
X491239Y94603D01*
X488841Y93218D01*
X486882Y91259D01*
X485497Y88861D01*
X484780Y86185D01*
Y83415D01*
X485497Y80739D01*
X486882Y78341D01*
X488841Y76382D01*
X491239Y74997D01*
X493915Y74280D01*
X496685D01*
X499361Y74997D01*
X501759Y76382D01*
X503718Y78341D01*
X505103Y80739D01*
X505820Y83415D01*
Y86185D01*
X505103Y88861D01*
X503718Y91259D01*
X501759Y93218D01*
X499361Y94603D01*
X496685Y95320D01*
D02*
G37*
G36*
X467720D02*
X446680D01*
Y74280D01*
X467720D01*
Y95320D01*
D02*
G37*
%LPD*%
D13*
X1092200Y806450D02*
X1149350D01*
X1079500Y184150D02*
Y254000D01*
X807500Y560000D02*
X829500Y538000D01*
X1077500D01*
D14*
X1104900Y457200D02*
X1105050Y457350D01*
X1167350D01*
X550783Y873760D02*
X561340D01*
X540821Y883721D02*
X550783Y873760D01*
X1167350Y457350D02*
X1167500Y457500D01*
D15*
X1381412Y957612D02*
Y1073150D01*
X1380950Y957150D02*
X1381412Y957612D01*
X1371600Y812730D02*
Y857250D01*
X1197423Y610000D02*
X1260000D01*
D17*
X1265985Y625760D02*
X1267027Y626801D01*
X1233479Y625645D02*
X1233594Y625760D01*
X1267027Y626801D02*
X1269426D01*
X1196340Y619760D02*
X1196914Y620334D01*
X1199314D01*
X1233594Y625760D02*
X1265985D01*
X1199314Y626686D02*
X1200355Y625645D01*
X1267027Y620449D02*
X1269426D01*
X1235362Y621490D02*
X1265985D01*
X1267027Y620449D01*
X1235247Y621375D02*
X1235362Y621490D01*
X1200355Y625645D02*
X1233479D01*
X1196340Y627260D02*
X1196914Y626686D01*
X1200355Y621375D02*
X1235247D01*
X1196914Y626686D02*
X1199314D01*
Y620334D02*
X1200355Y621375D01*
X1269426Y620449D02*
X1270000Y619875D01*
X1269426Y626801D02*
X1270000Y627375D01*
X1073150Y685800D02*
X1121000D01*
X806450Y146050D02*
Y177800D01*
X1206500Y1073150D02*
X1381412D01*
X1382950D01*
X1384300D01*
X1416050D01*
X1434500Y952500D02*
X1467900D01*
X1092200Y774700D02*
X1181100D01*
X1085850Y781050D02*
X1174750D01*
X1079500Y787400D02*
X1168400D01*
X1073150Y793750D02*
X1162050D01*
X919400Y692500D02*
X951900Y660000D01*
X997500D01*
X1237500Y515000D02*
Y550000D01*
X1032500Y387500D02*
X1067500Y352500D01*
D112*
X800100Y84800D02*
D03*
X762000D02*
D03*
X723900D02*
D03*
X685800D02*
D03*
X647700D02*
D03*
X609600D02*
D03*
X571500D02*
D03*
X533400D02*
D03*
X495300D02*
D03*
X908050D02*
D03*
X946150D02*
D03*
X984250D02*
D03*
X1022350D02*
D03*
X1060450D02*
D03*
X1098550D02*
D03*
X1136650D02*
D03*
X1174750D02*
D03*
X1212850D02*
D03*
D113*
X457200D02*
D03*
X869950D02*
D03*
D138*
X476250Y307650D02*
Y336550D01*
X460700Y292100D02*
X476250Y307650D01*
X457200Y196850D02*
Y222250D01*
X136964Y233943D02*
X155487D01*
X162026Y227404D02*
X185049D01*
X155487Y233943D02*
X162026Y227404D01*
X316009Y110650D02*
X341950D01*
X232000Y201443D02*
X232383Y201061D01*
X232000Y201443D02*
Y227443D01*
Y240443D02*
Y266443D01*
D139*
X1443050Y1035050D02*
X1536700D01*
X1443000Y1035000D02*
X1443050Y1035050D01*
X1209000Y1035000D02*
X1305000D01*
X1313168Y1035259D02*
X1320390D01*
X1305260D02*
X1313168D01*
X1305000Y1035000D02*
X1305260Y1035259D01*
X1320390D02*
X1320600Y1035050D01*
X1544038D02*
X1551375D01*
X1536700D02*
X1544038D01*
D142*
X615950Y768350D02*
Y838200D01*
X673100Y501650D02*
Y552450D01*
X554990Y488950D02*
Y609750D01*
X1397000Y184150D02*
Y260350D01*
X755650Y228600D02*
Y260350D01*
X608300Y274350D02*
Y331500D01*
D146*
X511100Y1110000D02*
X977900D01*
X1147700Y1109980D02*
X1381412D01*
X977900Y1110000D02*
X1123950D01*
X1127760Y1109980D02*
X1137920D01*
X441980Y1110000D02*
X511100D01*
D149*
X101600Y762000D02*
D03*
Y711200D02*
D03*
Y660400D02*
D03*
Y609600D02*
D03*
Y558800D02*
D03*
Y508000D02*
D03*
X1174900Y1157500D02*
D03*
X1225700D02*
D03*
X1073300D02*
D03*
X768500D02*
D03*
X819300D02*
D03*
X870100D02*
D03*
X920900D02*
D03*
X971700D02*
D03*
X1022500D02*
D03*
X1124100D02*
D03*
X505700D02*
D03*
X404100D02*
D03*
X353300D02*
D03*
X302500D02*
D03*
X251700D02*
D03*
X200900D02*
D03*
X150100D02*
D03*
X454900D02*
D03*
X1346300D02*
D03*
X1397100D02*
D03*
X1447900D02*
D03*
X1498700D02*
D03*
D150*
X164322Y556050D02*
D03*
Y613200D02*
D03*
Y714800D02*
D03*
Y771950D02*
D03*
D151*
X1571200Y692600D02*
D03*
Y752400D02*
D03*
D152*
X1564000Y765500D02*
D03*
Y679500D02*
D03*
D153*
X1603000Y765500D02*
D03*
Y679500D02*
D03*
D154*
X1564200Y643720D02*
D03*
Y523320D02*
D03*
D155*
X1496400Y583520D02*
D03*
X1608300D02*
D03*
D156*
X1568700Y571021D02*
D03*
Y596020D02*
D03*
X1536700Y571021D02*
D03*
X186500Y98443D02*
D03*
X181883Y310025D02*
D03*
X305082Y365026D02*
D03*
X303500Y98443D02*
D03*
D157*
X1536700Y596020D02*
D03*
D158*
X970200Y692500D02*
D03*
X944800D02*
D03*
X995600D02*
D03*
D159*
X919400D02*
D03*
D160*
X211500Y148443D02*
D03*
X161500D02*
D03*
X156883Y360026D02*
D03*
X206882D02*
D03*
X330083Y315026D02*
D03*
X280083D02*
D03*
X278500Y148443D02*
D03*
X328500D02*
D03*
D161*
X994400Y1108998D02*
D03*
X918200Y1109097D02*
D03*
X842000D02*
D03*
X765800D02*
D03*
X685350Y1104900D02*
D03*
X609150D02*
D03*
X532950D02*
D03*
X456750D02*
D03*
X1477400Y1046400D02*
D03*
X1487400D02*
D03*
X1497400D02*
D03*
X1507400D02*
D03*
X1517400D02*
D03*
X1477400Y1055087D02*
D03*
X1487400D02*
D03*
X1497400D02*
D03*
X1507400D02*
D03*
X1517400D02*
D03*
X1517634Y1064678D02*
D03*
X1507634D02*
D03*
X1497634D02*
D03*
X1487634D02*
D03*
X1477634D02*
D03*
X1517634Y1074678D02*
D03*
Y1084678D02*
D03*
Y1094678D02*
D03*
Y1104678D02*
D03*
X1507634D02*
D03*
X1497634D02*
D03*
X1487634D02*
D03*
X1477634D02*
D03*
Y1094678D02*
D03*
Y1084678D02*
D03*
Y1074678D02*
D03*
X1487634D02*
D03*
X1497634D02*
D03*
X1507634D02*
D03*
Y1084678D02*
D03*
Y1094678D02*
D03*
X1497634D02*
D03*
X1487634D02*
D03*
Y1084678D02*
D03*
X1497634D02*
D03*
X1507634Y1114678D02*
D03*
X1487634D02*
D03*
X1497634D02*
D03*
X1477741Y1018626D02*
D03*
X1487741D02*
D03*
X1497741D02*
D03*
X1507741D02*
D03*
X1517741D02*
D03*
X1477741Y1008626D02*
D03*
Y998626D02*
D03*
Y988626D02*
D03*
Y978626D02*
D03*
X1487741D02*
D03*
X1497741D02*
D03*
X1507741D02*
D03*
X1517741D02*
D03*
Y988626D02*
D03*
Y998626D02*
D03*
Y1008626D02*
D03*
X1507741D02*
D03*
X1497741D02*
D03*
X1487741D02*
D03*
Y998626D02*
D03*
Y988626D02*
D03*
X1497741D02*
D03*
X1507741D02*
D03*
Y998626D02*
D03*
X1497741D02*
D03*
X1487741Y968626D02*
D03*
X1507741D02*
D03*
X1497741D02*
D03*
X1245000Y1080000D02*
D03*
X1265000D02*
D03*
X1255000D02*
D03*
X1285000D02*
D03*
X1275000D02*
D03*
X1285000Y1055000D02*
D03*
X1275000D02*
D03*
X1245000D02*
D03*
X1255000D02*
D03*
X1265000Y1065000D02*
D03*
Y1055000D02*
D03*
X1264850Y1046400D02*
D03*
X1245000Y1065000D02*
D03*
X1255000D02*
D03*
X1285000D02*
D03*
X1275000D02*
D03*
X1274850Y1046400D02*
D03*
X1244850D02*
D03*
X1284850D02*
D03*
X1254850D02*
D03*
X1265000Y970000D02*
D03*
X1275000D02*
D03*
X1255000D02*
D03*
X1265000Y1000000D02*
D03*
X1275000D02*
D03*
Y990000D02*
D03*
X1265000D02*
D03*
X1255000D02*
D03*
Y1000000D02*
D03*
Y1010000D02*
D03*
X1265000D02*
D03*
X1275000D02*
D03*
X1285000D02*
D03*
Y1000000D02*
D03*
Y990000D02*
D03*
Y980000D02*
D03*
X1275000D02*
D03*
X1265000D02*
D03*
X1255000D02*
D03*
X1245000D02*
D03*
Y990000D02*
D03*
Y1000000D02*
D03*
Y1010000D02*
D03*
X1285000Y1020000D02*
D03*
X1275000D02*
D03*
X1265000D02*
D03*
X1255000D02*
D03*
X1245000D02*
D03*
X1270000Y627375D02*
D03*
Y619875D02*
D03*
X1196340Y627260D02*
D03*
Y619760D02*
D03*
X1135000Y580000D02*
D03*
X565651Y673100D02*
D03*
X451485Y671830D02*
D03*
Y661580D02*
D03*
Y650580D02*
D03*
X565651Y652780D02*
D03*
X565785Y662215D02*
D03*
X520700Y755650D02*
D03*
X495300D02*
D03*
X477980Y847900D02*
D03*
X477520Y993140D02*
D03*
Y962660D02*
D03*
X1181100Y1085480D02*
D03*
X1349110Y1084950D02*
D03*
X1101360Y464817D02*
D03*
X1104900Y457200D02*
D03*
X1149350Y508000D02*
D03*
X1121000Y685800D02*
D03*
X806450Y146050D02*
D03*
Y177800D02*
D03*
X1443000Y1035000D02*
D03*
X1228000D02*
D03*
X1219000D02*
D03*
X1209000D02*
D03*
X1313168Y1035259D02*
D03*
X1305000Y1035000D02*
D03*
X316009Y110650D02*
D03*
X232383Y201061D02*
D03*
X1195067Y427805D02*
D03*
X1214065D02*
D03*
X1360000Y380000D02*
D03*
X507780Y737746D02*
D03*
X496263Y739232D02*
D03*
X520000Y740000D02*
D03*
X525798Y746476D02*
D03*
X490000Y746850D02*
D03*
X508000Y754112D02*
D03*
X650240Y365246D02*
D03*
X1549710Y691190D02*
D03*
X1550541Y752400D02*
D03*
X1491331Y266700D02*
D03*
X1308050Y266660D02*
D03*
X1178123Y266680D02*
D03*
X853450Y266700D02*
D03*
X666750Y170180D02*
D03*
X762000Y109220D02*
D03*
X698500D02*
D03*
X820420Y424180D02*
D03*
X1036500Y452000D02*
D03*
X993578Y411480D02*
D03*
X876300Y814891D02*
D03*
X901700Y815350D02*
D03*
X927100Y815808D02*
D03*
X952500D02*
D03*
X705000Y916400D02*
D03*
X805000Y917140D02*
D03*
X853200Y916940D02*
D03*
X1155700Y931742D02*
D03*
X1131300D02*
D03*
X1105900Y931201D02*
D03*
X1079801Y931050D02*
D03*
X1054100Y929640D02*
D03*
X1028700D02*
D03*
X1003300D02*
D03*
X1415400Y1009650D02*
D03*
X1551375Y1035050D02*
D03*
X1544038D02*
D03*
X1321250D02*
D03*
X1191214Y589326D02*
D03*
X1281520Y550000D02*
D03*
X882667Y713630D02*
D03*
X970200Y678260D02*
D03*
X1010000Y605501D02*
D03*
X1247140Y711200D02*
D03*
X1313180Y896620D02*
D03*
X1295400D02*
D03*
X1531620D02*
D03*
X1551940D02*
D03*
X1600200Y975360D02*
D03*
Y1003300D02*
D03*
X1582420Y1089660D02*
D03*
X1600200Y1079500D02*
D03*
X1412240Y1084580D02*
D03*
X1397000Y1079500D02*
D03*
X1366182D02*
D03*
X1397000Y975360D02*
D03*
Y1003300D02*
D03*
X1366183Y975697D02*
D03*
Y1003300D02*
D03*
X1181179Y975439D02*
D03*
X1183385Y1009557D02*
D03*
X1168400Y1003300D02*
D03*
Y1079500D02*
D03*
X1135380Y1104900D02*
D03*
X1125220D02*
D03*
X939800Y845820D02*
D03*
X902067Y863233D02*
D03*
X812800Y845820D02*
D03*
X774700Y863600D02*
D03*
X602064Y856900D02*
D03*
X552643Y852363D02*
D03*
X561340Y873760D02*
D03*
X452220Y876400D02*
D03*
X400243Y852363D02*
D03*
X333470Y846550D02*
D03*
X255903Y856618D02*
D03*
X203200Y863600D02*
D03*
X63500D02*
D03*
X116202Y883282D02*
D03*
X955040Y985520D02*
D03*
Y972820D02*
D03*
X982980Y985520D02*
D03*
Y972820D02*
D03*
X878840Y982980D02*
D03*
Y970280D02*
D03*
X906780Y982980D02*
D03*
Y970280D02*
D03*
X805180Y995680D02*
D03*
X802640Y962660D02*
D03*
X828040Y995680D02*
D03*
X830580Y962660D02*
D03*
X728980Y993140D02*
D03*
Y962660D02*
D03*
X751840Y993140D02*
D03*
Y962660D02*
D03*
X650240Y985520D02*
D03*
Y972820D02*
D03*
X678180Y985520D02*
D03*
Y972820D02*
D03*
X574040Y985520D02*
D03*
Y972820D02*
D03*
X601980Y985520D02*
D03*
Y972820D02*
D03*
X449580Y970280D02*
D03*
Y982980D02*
D03*
X421640D02*
D03*
Y970280D02*
D03*
X336550Y1016000D02*
D03*
Y1003300D02*
D03*
X368300Y1016000D02*
D03*
Y1003300D02*
D03*
X260350Y1016000D02*
D03*
Y1003300D02*
D03*
X285750Y1016000D02*
D03*
Y1003300D02*
D03*
X180340Y1016000D02*
D03*
Y1003300D02*
D03*
X205740Y1016000D02*
D03*
Y1003300D02*
D03*
X127000D02*
D03*
Y1016000D02*
D03*
X99060Y1003300D02*
D03*
Y1016000D02*
D03*
X508000Y746850D02*
D03*
X1381412Y1109980D02*
D03*
X1147700Y1106170D02*
D03*
X1206500Y1073150D02*
D03*
X1380950Y957150D02*
D03*
X1371600Y812730D02*
D03*
Y857250D02*
D03*
X1434500Y952500D02*
D03*
X1467900D02*
D03*
X1181100Y774700D02*
D03*
X1260000Y610000D02*
D03*
X1197423D02*
D03*
X1010500Y497000D02*
D03*
X1174750Y781050D02*
D03*
X1168400Y787400D02*
D03*
X1162050Y793750D02*
D03*
X1022350Y1098550D02*
D03*
X1136650Y990600D02*
D03*
X1416050Y1073150D02*
D03*
X1149350Y806450D02*
D03*
X1092200D02*
D03*
Y774700D02*
D03*
X1085850Y781050D02*
D03*
X1073150Y793750D02*
D03*
Y685800D02*
D03*
X997500Y660000D02*
D03*
X1237500Y515000D02*
D03*
X1167500Y457500D02*
D03*
X1237500Y550000D02*
D03*
X857645Y713424D02*
D03*
X831850Y713150D02*
D03*
X806450Y713550D02*
D03*
X781050Y713950D02*
D03*
X755650Y714350D02*
D03*
X730250Y714750D02*
D03*
X704850Y714850D02*
D03*
X615950Y838200D02*
D03*
X540821Y883721D02*
D03*
X615950Y768350D02*
D03*
X658870Y609750D02*
D03*
X615768D02*
D03*
X653140Y566833D02*
D03*
Y539750D02*
D03*
Y512668D02*
D03*
X673100Y552450D02*
D03*
Y501650D02*
D03*
X654050Y393700D02*
D03*
X655100Y463550D02*
D03*
X554990Y488950D02*
D03*
X614400Y463550D02*
D03*
X654050Y419100D02*
D03*
X582470Y504050D02*
D03*
X572470D02*
D03*
X1397000Y184150D02*
D03*
X1079500Y254000D02*
D03*
Y184150D02*
D03*
X755650Y260350D02*
D03*
Y228600D02*
D03*
X1397000Y260350D02*
D03*
X869950Y158750D02*
D03*
X908050D02*
D03*
X608300Y274350D02*
D03*
Y331500D02*
D03*
X476250Y336550D02*
D03*
X460700Y292100D02*
D03*
X430850Y186850D02*
D03*
X457200Y196850D02*
D03*
Y222250D02*
D03*
X1192500Y565000D02*
D03*
X807500Y560000D02*
D03*
X1077500Y538000D02*
D03*
X962500Y500582D02*
D03*
X1032500Y387500D02*
D03*
X1067500Y352500D02*
D03*
X1158599Y469549D02*
D03*
X1120500Y407098D02*
D03*
X962633Y478582D02*
D03*
X136964Y233943D02*
D03*
X185049Y227404D02*
D03*
X341950Y110650D02*
D03*
X1130300Y1009650D02*
D03*
X254000Y97443D02*
D03*
X437200Y123350D02*
D03*
X328500Y167050D02*
D03*
X437051Y250499D02*
D03*
X430700Y314000D02*
D03*
X277500Y233943D02*
D03*
X292100Y311150D02*
D03*
X260350Y336550D02*
D03*
X137001Y324943D02*
D03*
X176850Y233943D02*
D03*
X138750Y142943D02*
D03*
X94300Y205900D02*
D03*
Y263050D02*
D03*
X1537250Y169800D02*
D03*
X1582556Y169500D02*
D03*
X1582309Y240240D02*
D03*
Y266240D02*
D03*
X1581050Y292700D02*
D03*
X1269143Y292660D02*
D03*
Y266660D02*
D03*
Y240660D02*
D03*
X1353550Y266700D02*
D03*
X1308050Y292700D02*
D03*
Y214700D02*
D03*
Y240700D02*
D03*
X712288Y266677D02*
D03*
X666700Y292700D02*
D03*
Y266700D02*
D03*
Y240700D02*
D03*
Y214700D02*
D03*
X581200Y358100D02*
D03*
X571200D02*
D03*
X949277Y292700D02*
D03*
X949450Y266700D02*
D03*
Y240700D02*
D03*
X989643Y240660D02*
D03*
Y214660D02*
D03*
Y292660D02*
D03*
Y266660D02*
D03*
X1036368Y266366D02*
D03*
X946150Y158750D02*
D03*
X1022350D02*
D03*
X984250D02*
D03*
X1035000Y600000D02*
D03*
X554990Y609750D02*
D03*
X232000Y227443D02*
D03*
Y240443D02*
D03*
Y266443D02*
D03*
X1079500Y787400D02*
D03*
X749300Y1112520D02*
D03*
X1536700Y1035050D02*
D03*
X1454150D02*
D03*
X515620Y1107440D02*
D03*
X668020D02*
D03*
X439420D02*
D03*
X591820D02*
D03*
X901700Y1112520D02*
D03*
X977900D02*
D03*
X825500D02*
D03*
D162*
X508000Y754112D02*
Y1106900D01*
X511100Y1110000D01*
X508000Y746850D02*
Y754112D01*
M02*
