G04*
G04 #@! TF.GenerationSoftware,Altium Limited,Altium Designer,25.0.2 (28)*
G04*
G04 Layer_Color=16711935*
%FSLAX44Y44*%
%MOMM*%
G71*
G04*
G04 #@! TF.SameCoordinates,89448804-F20A-4376-BCDE-6976CDED9B52*
G04*
G04*
G04 #@! TF.FilePolarity,Negative*
G04*
G01*
G75*
%ADD100C,3.1500*%
%ADD101O,2.3090X2.1820*%
%ADD102C,0.8500*%
%ADD103O,2.1500X1.1500*%
%ADD104O,2.5500X1.1500*%
%ADD105O,4.1500X2.5500*%
%ADD106O,2.5500X3.7500*%
%ADD107O,2.1500X1.7500*%
%ADD108R,2.1500X1.7500*%
%ADD109C,2.1500*%
G04:AMPARAMS|DCode=110|XSize=2.15mm|YSize=2.15mm|CornerRadius=0mm|HoleSize=0mm|Usage=FLASHONLY|Rotation=90.000|XOffset=0mm|YOffset=0mm|HoleType=Round|Shape=Octagon|*
%AMOCTAGOND110*
4,1,8,0.5375,1.0750,-0.5375,1.0750,-1.0750,0.5375,-1.0750,-0.5375,-0.5375,-1.0750,0.5375,-1.0750,1.0750,-0.5375,1.0750,0.5375,0.5375,1.0750,0.0*
%
%ADD110OCTAGOND110*%

%ADD111O,1.7500X2.1500*%
%ADD112C,1.8500*%
%ADD113R,1.8500X1.8500*%
%ADD114C,0.1500*%
%ADD115C,0.7500*%
D100*
X101600Y762000D02*
D03*
Y711200D02*
D03*
Y660400D02*
D03*
Y609600D02*
D03*
Y558800D02*
D03*
Y508000D02*
D03*
X1174900Y1157500D02*
D03*
X1225700D02*
D03*
X1073300D02*
D03*
X768500D02*
D03*
X819300D02*
D03*
X870100D02*
D03*
X920900D02*
D03*
X971700D02*
D03*
X1022500D02*
D03*
X1124100D02*
D03*
X505700D02*
D03*
X404100D02*
D03*
X353300D02*
D03*
X302500D02*
D03*
X251700D02*
D03*
X200900D02*
D03*
X150100D02*
D03*
X454900D02*
D03*
X1346300D02*
D03*
X1397100D02*
D03*
X1447900D02*
D03*
X1498700D02*
D03*
D101*
X164322Y556050D02*
D03*
Y613200D02*
D03*
Y714800D02*
D03*
Y771950D02*
D03*
D102*
X1571200Y692600D02*
D03*
Y752400D02*
D03*
D103*
X1564000Y765500D02*
D03*
Y679500D02*
D03*
D104*
X1603000Y765500D02*
D03*
Y679500D02*
D03*
D105*
X1564200Y643720D02*
D03*
Y523320D02*
D03*
D106*
X1496400Y583520D02*
D03*
X1608300D02*
D03*
D107*
X1568700Y571021D02*
D03*
Y596020D02*
D03*
X1536700Y571021D02*
D03*
X186500Y98443D02*
D03*
X181883Y310025D02*
D03*
X305082Y365026D02*
D03*
X303500Y98443D02*
D03*
D108*
X1536700Y596020D02*
D03*
D109*
X970200Y692500D02*
D03*
X944800D02*
D03*
X995600D02*
D03*
D110*
X919400D02*
D03*
D111*
X211500Y148443D02*
D03*
X161500D02*
D03*
X156883Y360026D02*
D03*
X206882D02*
D03*
X330083Y315026D02*
D03*
X280083D02*
D03*
X278500Y148443D02*
D03*
X328500D02*
D03*
D112*
X800100Y84800D02*
D03*
X762000D02*
D03*
X723900D02*
D03*
X685800D02*
D03*
X647700D02*
D03*
X609600D02*
D03*
X571500D02*
D03*
X533400D02*
D03*
X495300D02*
D03*
X908050D02*
D03*
X946150D02*
D03*
X984250D02*
D03*
X1022350D02*
D03*
X1060450D02*
D03*
X1098550D02*
D03*
X1136650D02*
D03*
X1174750D02*
D03*
X1212850D02*
D03*
D113*
X457200D02*
D03*
X869950D02*
D03*
D114*
X70000Y70000D02*
D03*
X1590000D02*
D03*
X70000Y1190000D02*
D03*
X1590000D02*
D03*
D115*
X994400Y1108998D02*
D03*
X918200Y1109097D02*
D03*
X842000D02*
D03*
X765800D02*
D03*
X685350Y1104900D02*
D03*
X609150D02*
D03*
X532950D02*
D03*
X456750D02*
D03*
X1477400Y1046400D02*
D03*
X1487400D02*
D03*
X1497400D02*
D03*
X1507400D02*
D03*
X1517400D02*
D03*
X1477400Y1055087D02*
D03*
X1487400D02*
D03*
X1497400D02*
D03*
X1507400D02*
D03*
X1517400D02*
D03*
X1517634Y1064678D02*
D03*
X1507634D02*
D03*
X1497634D02*
D03*
X1487634D02*
D03*
X1477634D02*
D03*
X1517634Y1074678D02*
D03*
Y1084678D02*
D03*
Y1094678D02*
D03*
Y1104678D02*
D03*
X1507634D02*
D03*
X1497634D02*
D03*
X1487634D02*
D03*
X1477634D02*
D03*
Y1094678D02*
D03*
Y1084678D02*
D03*
Y1074678D02*
D03*
X1487634D02*
D03*
X1497634D02*
D03*
X1507634D02*
D03*
Y1084678D02*
D03*
Y1094678D02*
D03*
X1497634D02*
D03*
X1487634D02*
D03*
Y1084678D02*
D03*
X1497634D02*
D03*
X1507634Y1114678D02*
D03*
X1487634D02*
D03*
X1497634D02*
D03*
X1477741Y1018626D02*
D03*
X1487741D02*
D03*
X1497741D02*
D03*
X1507741D02*
D03*
X1517741D02*
D03*
X1477741Y1008626D02*
D03*
Y998626D02*
D03*
Y988626D02*
D03*
Y978626D02*
D03*
X1487741D02*
D03*
X1497741D02*
D03*
X1507741D02*
D03*
X1517741D02*
D03*
Y988626D02*
D03*
Y998626D02*
D03*
Y1008626D02*
D03*
X1507741D02*
D03*
X1497741D02*
D03*
X1487741D02*
D03*
Y998626D02*
D03*
Y988626D02*
D03*
X1497741D02*
D03*
X1507741D02*
D03*
Y998626D02*
D03*
X1497741D02*
D03*
X1487741Y968626D02*
D03*
X1507741D02*
D03*
X1497741D02*
D03*
X1245000Y1080000D02*
D03*
X1265000D02*
D03*
X1255000D02*
D03*
X1285000D02*
D03*
X1275000D02*
D03*
X1285000Y1055000D02*
D03*
X1275000D02*
D03*
X1245000D02*
D03*
X1255000D02*
D03*
X1265000Y1065000D02*
D03*
Y1055000D02*
D03*
X1264850Y1046400D02*
D03*
X1245000Y1065000D02*
D03*
X1255000D02*
D03*
X1285000D02*
D03*
X1275000D02*
D03*
X1274850Y1046400D02*
D03*
X1244850D02*
D03*
X1284850D02*
D03*
X1254850D02*
D03*
X1265000Y970000D02*
D03*
X1275000D02*
D03*
X1255000D02*
D03*
X1265000Y1000000D02*
D03*
X1275000D02*
D03*
Y990000D02*
D03*
X1265000D02*
D03*
X1255000D02*
D03*
Y1000000D02*
D03*
Y1010000D02*
D03*
X1265000D02*
D03*
X1275000D02*
D03*
X1285000D02*
D03*
Y1000000D02*
D03*
Y990000D02*
D03*
Y980000D02*
D03*
X1275000D02*
D03*
X1265000D02*
D03*
X1255000D02*
D03*
X1245000D02*
D03*
Y990000D02*
D03*
Y1000000D02*
D03*
Y1010000D02*
D03*
X1285000Y1020000D02*
D03*
X1275000D02*
D03*
X1265000D02*
D03*
X1255000D02*
D03*
X1245000D02*
D03*
X1270000Y627375D02*
D03*
Y619875D02*
D03*
X1196340Y627260D02*
D03*
Y619760D02*
D03*
X1135000Y580000D02*
D03*
X565651Y673100D02*
D03*
X451485Y671830D02*
D03*
Y661580D02*
D03*
Y650580D02*
D03*
X565651Y652780D02*
D03*
X565785Y662215D02*
D03*
X520700Y755650D02*
D03*
X495300D02*
D03*
X477980Y847900D02*
D03*
X477520Y993140D02*
D03*
Y962660D02*
D03*
X1181100Y1085480D02*
D03*
X1349110Y1084950D02*
D03*
X1101360Y464817D02*
D03*
X1104900Y457200D02*
D03*
X1149350Y508000D02*
D03*
X1121000Y685800D02*
D03*
X806450Y146050D02*
D03*
Y177800D02*
D03*
X1443000Y1035000D02*
D03*
X1228000D02*
D03*
X1219000D02*
D03*
X1209000D02*
D03*
X1313168Y1035259D02*
D03*
X1305000Y1035000D02*
D03*
X316009Y110650D02*
D03*
X232383Y201061D02*
D03*
X1195067Y427805D02*
D03*
X1214065D02*
D03*
X1360000Y380000D02*
D03*
X507780Y737746D02*
D03*
X496263Y739232D02*
D03*
X520000Y740000D02*
D03*
X525798Y746476D02*
D03*
X490000Y746850D02*
D03*
X508000Y754112D02*
D03*
X650240Y365246D02*
D03*
X1549710Y691190D02*
D03*
X1550541Y752400D02*
D03*
X1491331Y266700D02*
D03*
X1308050Y266660D02*
D03*
X1178123Y266680D02*
D03*
X853450Y266700D02*
D03*
X666750Y170180D02*
D03*
X762000Y109220D02*
D03*
X698500D02*
D03*
X820420Y424180D02*
D03*
X1036500Y452000D02*
D03*
X993578Y411480D02*
D03*
X876300Y814891D02*
D03*
X901700Y815350D02*
D03*
X927100Y815808D02*
D03*
X952500D02*
D03*
X705000Y916400D02*
D03*
X805000Y917140D02*
D03*
X853200Y916940D02*
D03*
X1155700Y931742D02*
D03*
X1131300D02*
D03*
X1105900Y931201D02*
D03*
X1079801Y931050D02*
D03*
X1054100Y929640D02*
D03*
X1028700D02*
D03*
X1003300D02*
D03*
X1415400Y1009650D02*
D03*
X1551375Y1035050D02*
D03*
X1544038D02*
D03*
X1321250D02*
D03*
X1191214Y589326D02*
D03*
X1281520Y550000D02*
D03*
X882667Y713630D02*
D03*
X970200Y678260D02*
D03*
X1010000Y605501D02*
D03*
X1247140Y711200D02*
D03*
X1313180Y896620D02*
D03*
X1295400D02*
D03*
X1531620D02*
D03*
X1551940D02*
D03*
X1600200Y975360D02*
D03*
Y1003300D02*
D03*
X1582420Y1089660D02*
D03*
X1600200Y1079500D02*
D03*
X1412240Y1084580D02*
D03*
X1397000Y1079500D02*
D03*
X1366182D02*
D03*
X1397000Y975360D02*
D03*
Y1003300D02*
D03*
X1366183Y975697D02*
D03*
Y1003300D02*
D03*
X1181179Y975439D02*
D03*
X1183385Y1009557D02*
D03*
X1168400Y1003300D02*
D03*
Y1079500D02*
D03*
X1135380Y1104900D02*
D03*
X1125220D02*
D03*
X939800Y845820D02*
D03*
X902067Y863233D02*
D03*
X812800Y845820D02*
D03*
X774700Y863600D02*
D03*
X602064Y856900D02*
D03*
X552643Y852363D02*
D03*
X561340Y873760D02*
D03*
X452220Y876400D02*
D03*
X400243Y852363D02*
D03*
X333470Y846550D02*
D03*
X255903Y856618D02*
D03*
X203200Y863600D02*
D03*
X63500D02*
D03*
X116202Y883282D02*
D03*
X955040Y985520D02*
D03*
Y972820D02*
D03*
X982980Y985520D02*
D03*
Y972820D02*
D03*
X878840Y982980D02*
D03*
Y970280D02*
D03*
X906780Y982980D02*
D03*
Y970280D02*
D03*
X805180Y995680D02*
D03*
X802640Y962660D02*
D03*
X828040Y995680D02*
D03*
X830580Y962660D02*
D03*
X728980Y993140D02*
D03*
Y962660D02*
D03*
X751840Y993140D02*
D03*
Y962660D02*
D03*
X650240Y985520D02*
D03*
Y972820D02*
D03*
X678180Y985520D02*
D03*
Y972820D02*
D03*
X574040Y985520D02*
D03*
Y972820D02*
D03*
X601980Y985520D02*
D03*
Y972820D02*
D03*
X449580Y970280D02*
D03*
Y982980D02*
D03*
X421640D02*
D03*
Y970280D02*
D03*
X336550Y1016000D02*
D03*
Y1003300D02*
D03*
X368300Y1016000D02*
D03*
Y1003300D02*
D03*
X260350Y1016000D02*
D03*
Y1003300D02*
D03*
X285750Y1016000D02*
D03*
Y1003300D02*
D03*
X180340Y1016000D02*
D03*
Y1003300D02*
D03*
X205740Y1016000D02*
D03*
Y1003300D02*
D03*
X127000D02*
D03*
Y1016000D02*
D03*
X99060Y1003300D02*
D03*
Y1016000D02*
D03*
X508000Y746850D02*
D03*
X1381412Y1109980D02*
D03*
X1147700Y1106170D02*
D03*
X1206500Y1073150D02*
D03*
X1380950Y957150D02*
D03*
X1371600Y812730D02*
D03*
Y857250D02*
D03*
X1434500Y952500D02*
D03*
X1467900D02*
D03*
X1181100Y774700D02*
D03*
X1260000Y610000D02*
D03*
X1197423D02*
D03*
X1010500Y497000D02*
D03*
X1174750Y781050D02*
D03*
X1168400Y787400D02*
D03*
X1162050Y793750D02*
D03*
X1022350Y1098550D02*
D03*
X1136650Y990600D02*
D03*
X1416050Y1073150D02*
D03*
X1149350Y806450D02*
D03*
X1092200D02*
D03*
Y774700D02*
D03*
X1085850Y781050D02*
D03*
X1073150Y793750D02*
D03*
Y685800D02*
D03*
X997500Y660000D02*
D03*
X1237500Y515000D02*
D03*
X1167500Y457500D02*
D03*
X1237500Y550000D02*
D03*
X857645Y713424D02*
D03*
X831850Y713150D02*
D03*
X806450Y713550D02*
D03*
X781050Y713950D02*
D03*
X755650Y714350D02*
D03*
X730250Y714750D02*
D03*
X704850Y714850D02*
D03*
X615950Y838200D02*
D03*
X540821Y883721D02*
D03*
X615950Y768350D02*
D03*
X658870Y609750D02*
D03*
X615768D02*
D03*
X653140Y566833D02*
D03*
Y539750D02*
D03*
Y512668D02*
D03*
X673100Y552450D02*
D03*
Y501650D02*
D03*
X654050Y393700D02*
D03*
X655100Y463550D02*
D03*
X554990Y488950D02*
D03*
X614400Y463550D02*
D03*
X654050Y419100D02*
D03*
X582470Y504050D02*
D03*
X572470D02*
D03*
X1397000Y184150D02*
D03*
X1079500Y254000D02*
D03*
Y184150D02*
D03*
X755650Y260350D02*
D03*
Y228600D02*
D03*
X1397000Y260350D02*
D03*
X869950Y158750D02*
D03*
X908050D02*
D03*
X608300Y274350D02*
D03*
Y331500D02*
D03*
X476250Y336550D02*
D03*
X460700Y292100D02*
D03*
X430850Y186850D02*
D03*
X457200Y196850D02*
D03*
Y222250D02*
D03*
X1192500Y565000D02*
D03*
X807500Y560000D02*
D03*
X1077500Y538000D02*
D03*
X962500Y500582D02*
D03*
X1032500Y387500D02*
D03*
X1067500Y352500D02*
D03*
X1158599Y469549D02*
D03*
X1120500Y407098D02*
D03*
X962633Y478582D02*
D03*
X136964Y233943D02*
D03*
X185049Y227404D02*
D03*
X341950Y110650D02*
D03*
X1130300Y1009650D02*
D03*
X254000Y97443D02*
D03*
X437200Y123350D02*
D03*
X328500Y167050D02*
D03*
X437051Y250499D02*
D03*
X430700Y314000D02*
D03*
X277500Y233943D02*
D03*
X292100Y311150D02*
D03*
X260350Y336550D02*
D03*
X137001Y324943D02*
D03*
X176850Y233943D02*
D03*
X138750Y142943D02*
D03*
X94300Y205900D02*
D03*
Y263050D02*
D03*
X1537250Y169800D02*
D03*
X1582556Y169500D02*
D03*
X1582309Y240240D02*
D03*
Y266240D02*
D03*
X1581050Y292700D02*
D03*
X1269143Y292660D02*
D03*
Y266660D02*
D03*
Y240660D02*
D03*
X1353550Y266700D02*
D03*
X1308050Y292700D02*
D03*
Y214700D02*
D03*
Y240700D02*
D03*
X712288Y266677D02*
D03*
X666700Y292700D02*
D03*
Y266700D02*
D03*
Y240700D02*
D03*
Y214700D02*
D03*
X581200Y358100D02*
D03*
X571200D02*
D03*
X949277Y292700D02*
D03*
X949450Y266700D02*
D03*
Y240700D02*
D03*
X989643Y240660D02*
D03*
Y214660D02*
D03*
Y292660D02*
D03*
Y266660D02*
D03*
X1036368Y266366D02*
D03*
X946150Y158750D02*
D03*
X1022350D02*
D03*
X984250D02*
D03*
X1035000Y600000D02*
D03*
X554990Y609750D02*
D03*
X232000Y227443D02*
D03*
Y240443D02*
D03*
Y266443D02*
D03*
X1079500Y787400D02*
D03*
X749300Y1112520D02*
D03*
X1536700Y1035050D02*
D03*
X1454150D02*
D03*
X515620Y1107440D02*
D03*
X668020D02*
D03*
X439420D02*
D03*
X591820D02*
D03*
X901700Y1112520D02*
D03*
X977900D02*
D03*
X825500D02*
D03*
M02*
