G04*
G04 #@! TF.GenerationSoftware,Altium Limited,Altium Designer,25.0.2 (28)*
G04*
G04 Layer_Color=8388736*
%FSLAX44Y44*%
%MOMM*%
G71*
G04*
G04 #@! TF.SameCoordinates,AC037715-0773-48B7-9E6E-B3265F142276*
G04*
G04*
G04 #@! TF.FilePolarity,Positive*
G04*
G01*
G75*
%ADD11C,0.2000*%
D11*
X216350Y1091100D02*
X283650D01*
Y1028900D02*
Y1091100D01*
X216350Y1028900D02*
X283650D01*
X216350D02*
Y1091100D01*
X296350D02*
X363650D01*
Y1028900D02*
Y1091100D01*
X296350Y1028900D02*
X363650D01*
X296350D02*
Y1091100D01*
X430200Y97550D02*
X827100D01*
Y4050D02*
Y97550D01*
X430200Y4050D02*
X827100D01*
X430200D02*
Y97550D01*
X56350Y1032598D02*
Y1094798D01*
Y1032598D02*
X123650D01*
Y1094798D01*
X56350D02*
X123650D01*
X1553150Y961150D02*
Y1121650D01*
X1441650D02*
X1553150D01*
X1441650Y961150D02*
Y1121650D01*
Y961150D02*
X1553150D01*
X131922Y488522D02*
X171322D01*
Y534221D01*
X131922D02*
X171322D01*
X131922Y488522D02*
Y534221D01*
X181820Y488522D02*
X221220D01*
Y534221D01*
X181820D02*
X221220D01*
X181820Y488522D02*
Y534221D01*
X1209100Y961150D02*
X1320600D01*
X1209100D02*
Y1121650D01*
X1320600D01*
Y961150D02*
Y1121650D01*
X136350Y1091100D02*
X203650D01*
Y1028900D02*
Y1091100D01*
X136350Y1028900D02*
X203650D01*
X136350D02*
Y1091100D01*
X784450Y241700D02*
Y291700D01*
Y241700D02*
X828450D01*
Y291700D01*
X784450D02*
X828450D01*
X533800Y196000D02*
X583800D01*
Y235800D01*
X533800D02*
X583800D01*
X533800Y196000D02*
Y235800D01*
X207049Y208943D02*
Y258943D01*
X163049D02*
X207049D01*
X163049Y208943D02*
Y258943D01*
Y208943D02*
X207049D01*
X1425800Y241700D02*
Y291700D01*
Y241700D02*
X1469800D01*
Y291700D01*
X1425800D02*
X1469800D01*
X842950Y97550D02*
X1239850D01*
Y4050D02*
Y97550D01*
X842950Y4050D02*
X1239850D01*
X842950D02*
Y97550D01*
X1108300Y291700D02*
X1152300D01*
Y241700D02*
Y291700D01*
X1108300Y241700D02*
X1152300D01*
X1108300D02*
Y291700D01*
M02*
