G04*
G04 #@! TF.GenerationSoftware,Altium Limited,Altium Designer,25.0.2 (28)*
G04*
G04 Layer_Color=8388736*
%FSLAX44Y44*%
%MOMM*%
G71*
G04*
G04 #@! TF.SameCoordinates,AC037715-0773-48B7-9E6E-B3265F142276*
G04*
G04*
G04 #@! TF.FilePolarity,Negative*
G04*
G01*
G75*
%ADD32R,1.2500X2.8500*%
%ADD33R,5.5500X6.5000*%
%ADD42R,1.8300X0.6800*%
%ADD43R,2.1000X1.2700*%
G04:AMPARAMS|DCode=55|XSize=1.9554mm|YSize=0.4208mm|CornerRadius=0.2104mm|HoleSize=0mm|Usage=FLASHONLY|Rotation=0.000|XOffset=0mm|YOffset=0mm|HoleType=Round|Shape=RoundedRectangle|*
%AMROUNDEDRECTD55*
21,1,1.9554,0.0000,0,0,0.0*
21,1,1.5347,0.4208,0,0,0.0*
1,1,0.4208,0.7673,0.0000*
1,1,0.4208,-0.7673,0.0000*
1,1,0.4208,-0.7673,0.0000*
1,1,0.4208,0.7673,0.0000*
%
%ADD55ROUNDEDRECTD55*%
%ADD56R,1.9554X0.4208*%
G04:AMPARAMS|DCode=57|XSize=1.55mm|YSize=0.6mm|CornerRadius=0.051mm|HoleSize=0mm|Usage=FLASHONLY|Rotation=90.000|XOffset=0mm|YOffset=0mm|HoleType=Round|Shape=RoundedRectangle|*
%AMROUNDEDRECTD57*
21,1,1.5500,0.4980,0,0,90.0*
21,1,1.4480,0.6000,0,0,90.0*
1,1,0.1020,0.2490,0.7240*
1,1,0.1020,0.2490,-0.7240*
1,1,0.1020,-0.2490,-0.7240*
1,1,0.1020,-0.2490,0.7240*
%
%ADD57ROUNDEDRECTD57*%
G04:AMPARAMS|DCode=62|XSize=1.15mm|YSize=1.75mm|CornerRadius=0.325mm|HoleSize=0mm|Usage=FLASHONLY|Rotation=270.000|XOffset=0mm|YOffset=0mm|HoleType=Round|Shape=RoundedRectangle|*
%AMROUNDEDRECTD62*
21,1,1.1500,1.1000,0,0,270.0*
21,1,0.5000,1.7500,0,0,270.0*
1,1,0.6500,-0.5500,-0.2500*
1,1,0.6500,-0.5500,0.2500*
1,1,0.6500,0.5500,0.2500*
1,1,0.6500,0.5500,-0.2500*
%
%ADD62ROUNDEDRECTD62*%
%ADD63R,1.7500X1.1500*%
%ADD64R,2.3500X2.3500*%
G04:AMPARAMS|DCode=65|XSize=2.35mm|YSize=2.35mm|CornerRadius=0.625mm|HoleSize=0mm|Usage=FLASHONLY|Rotation=270.000|XOffset=0mm|YOffset=0mm|HoleType=Round|Shape=RoundedRectangle|*
%AMROUNDEDRECTD65*
21,1,2.3500,1.1000,0,0,270.0*
21,1,1.1000,2.3500,0,0,270.0*
1,1,1.2500,-0.5500,-0.5500*
1,1,1.2500,-0.5500,0.5500*
1,1,1.2500,0.5500,0.5500*
1,1,1.2500,0.5500,-0.5500*
%
%ADD65ROUNDEDRECTD65*%
G04:AMPARAMS|DCode=66|XSize=1.75mm|YSize=1.75mm|CornerRadius=0.475mm|HoleSize=0mm|Usage=FLASHONLY|Rotation=180.000|XOffset=0mm|YOffset=0mm|HoleType=Round|Shape=RoundedRectangle|*
%AMROUNDEDRECTD66*
21,1,1.7500,0.8000,0,0,180.0*
21,1,0.8000,1.7500,0,0,180.0*
1,1,0.9500,-0.4000,0.4000*
1,1,0.9500,0.4000,0.4000*
1,1,0.9500,0.4000,-0.4000*
1,1,0.9500,-0.4000,-0.4000*
%
%ADD66ROUNDEDRECTD66*%
%ADD67R,2.1500X4.1500*%
%ADD68O,3.7500X1.3500*%
%ADD69R,11.1500X9.1500*%
%ADD70O,3.1500X1.3500*%
%ADD71R,7.1500X6.1500*%
G04:AMPARAMS|DCode=72|XSize=1.15mm|YSize=1.35mm|CornerRadius=0.325mm|HoleSize=0mm|Usage=FLASHONLY|Rotation=90.000|XOffset=0mm|YOffset=0mm|HoleType=Round|Shape=RoundedRectangle|*
%AMROUNDEDRECTD72*
21,1,1.1500,0.7000,0,0,90.0*
21,1,0.5000,1.3500,0,0,90.0*
1,1,0.6500,0.3500,0.2500*
1,1,0.6500,0.3500,-0.2500*
1,1,0.6500,-0.3500,-0.2500*
1,1,0.6500,-0.3500,0.2500*
%
%ADD72ROUNDEDRECTD72*%
G04:AMPARAMS|DCode=73|XSize=1.15mm|YSize=1.35mm|CornerRadius=0.325mm|HoleSize=0mm|Usage=FLASHONLY|Rotation=180.000|XOffset=0mm|YOffset=0mm|HoleType=Round|Shape=RoundedRectangle|*
%AMROUNDEDRECTD73*
21,1,1.1500,0.7000,0,0,180.0*
21,1,0.5000,1.3500,0,0,180.0*
1,1,0.6500,-0.2500,0.3500*
1,1,0.6500,0.2500,0.3500*
1,1,0.6500,0.2500,-0.3500*
1,1,0.6500,-0.2500,-0.3500*
%
%ADD73ROUNDEDRECTD73*%
%ADD74O,0.7500X2.1500*%
%ADD75C,5.3100*%
%ADD76R,1.7500X1.7500*%
%ADD77O,0.7500X2.5500*%
%ADD78O,0.4500X1.7500*%
G04:AMPARAMS|DCode=79|XSize=0.45mm|YSize=1.15mm|CornerRadius=0.15mm|HoleSize=0mm|Usage=FLASHONLY|Rotation=90.000|XOffset=0mm|YOffset=0mm|HoleType=Round|Shape=RoundedRectangle|*
%AMROUNDEDRECTD79*
21,1,0.4500,0.8500,0,0,90.0*
21,1,0.1500,1.1500,0,0,90.0*
1,1,0.3000,0.4250,0.0750*
1,1,0.3000,0.4250,-0.0750*
1,1,0.3000,-0.4250,-0.0750*
1,1,0.3000,-0.4250,0.0750*
%
%ADD79ROUNDEDRECTD79*%
G04:AMPARAMS|DCode=80|XSize=0.65mm|YSize=1.15mm|CornerRadius=0.2mm|HoleSize=0mm|Usage=FLASHONLY|Rotation=90.000|XOffset=0mm|YOffset=0mm|HoleType=Round|Shape=RoundedRectangle|*
%AMROUNDEDRECTD80*
21,1,0.6500,0.7500,0,0,90.0*
21,1,0.2500,1.1500,0,0,90.0*
1,1,0.4000,0.3750,0.1250*
1,1,0.4000,0.3750,-0.1250*
1,1,0.4000,-0.3750,-0.1250*
1,1,0.4000,-0.3750,0.1250*
%
%ADD80ROUNDEDRECTD80*%
G04:AMPARAMS|DCode=81|XSize=1.75mm|YSize=1.75mm|CornerRadius=0.475mm|HoleSize=0mm|Usage=FLASHONLY|Rotation=90.000|XOffset=0mm|YOffset=0mm|HoleType=Round|Shape=RoundedRectangle|*
%AMROUNDEDRECTD81*
21,1,1.7500,0.8000,0,0,90.0*
21,1,0.8000,1.7500,0,0,90.0*
1,1,0.9500,0.4000,0.4000*
1,1,0.9500,0.4000,-0.4000*
1,1,0.9500,-0.4000,-0.4000*
1,1,0.9500,-0.4000,0.4000*
%
%ADD81ROUNDEDRECTD81*%
G04:AMPARAMS|DCode=82|XSize=1.35mm|YSize=1.55mm|CornerRadius=0.375mm|HoleSize=0mm|Usage=FLASHONLY|Rotation=0.000|XOffset=0mm|YOffset=0mm|HoleType=Round|Shape=RoundedRectangle|*
%AMROUNDEDRECTD82*
21,1,1.3500,0.8000,0,0,0.0*
21,1,0.6000,1.5500,0,0,0.0*
1,1,0.7500,0.3000,-0.4000*
1,1,0.7500,-0.3000,-0.4000*
1,1,0.7500,-0.3000,0.4000*
1,1,0.7500,0.3000,0.4000*
%
%ADD82ROUNDEDRECTD82*%
%ADD83O,1.6000X1.0000*%
G04:AMPARAMS|DCode=84|XSize=1.15mm|YSize=1.75mm|CornerRadius=0.325mm|HoleSize=0mm|Usage=FLASHONLY|Rotation=180.000|XOffset=0mm|YOffset=0mm|HoleType=Round|Shape=RoundedRectangle|*
%AMROUNDEDRECTD84*
21,1,1.1500,1.1000,0,0,180.0*
21,1,0.5000,1.7500,0,0,180.0*
1,1,0.6500,-0.2500,0.5500*
1,1,0.6500,0.2500,0.5500*
1,1,0.6500,0.2500,-0.5500*
1,1,0.6500,-0.2500,-0.5500*
%
%ADD84ROUNDEDRECTD84*%
%ADD85R,1.1500X1.7500*%
%ADD86O,1.7500X0.4500*%
%ADD87R,4.1500X2.1500*%
G04:AMPARAMS|DCode=88|XSize=0.9mm|YSize=1.4mm|CornerRadius=0.275mm|HoleSize=0mm|Usage=FLASHONLY|Rotation=0.000|XOffset=0mm|YOffset=0mm|HoleType=Round|Shape=RoundedRectangle|*
%AMROUNDEDRECTD88*
21,1,0.9000,0.8500,0,0,0.0*
21,1,0.3500,1.4000,0,0,0.0*
1,1,0.5500,0.1750,-0.4250*
1,1,0.5500,-0.1750,-0.4250*
1,1,0.5500,-0.1750,0.4250*
1,1,0.5500,0.1750,0.4250*
%
%ADD88ROUNDEDRECTD88*%
G04:AMPARAMS|DCode=89|XSize=0.9mm|YSize=1.4mm|CornerRadius=0.275mm|HoleSize=0mm|Usage=FLASHONLY|Rotation=90.000|XOffset=0mm|YOffset=0mm|HoleType=Round|Shape=RoundedRectangle|*
%AMROUNDEDRECTD89*
21,1,0.9000,0.8500,0,0,90.0*
21,1,0.3500,1.4000,0,0,90.0*
1,1,0.5500,0.4250,0.1750*
1,1,0.5500,0.4250,-0.1750*
1,1,0.5500,-0.4250,-0.1750*
1,1,0.5500,-0.4250,0.1750*
%
%ADD89ROUNDEDRECTD89*%
%ADD90R,6.1500X7.1500*%
%ADD91O,1.3500X3.1500*%
%ADD92R,1.8500X1.8500*%
%ADD93C,1.8500*%
%ADD94C,3.1500*%
%ADD95O,2.3090X2.1820*%
%ADD96C,0.8500*%
%ADD97O,2.1500X1.1500*%
%ADD98O,2.5500X1.1500*%
%ADD99O,4.1500X2.5500*%
%ADD100O,2.5500X3.7500*%
%ADD101O,2.1500X1.7500*%
%ADD102R,2.1500X1.7500*%
%ADD103C,2.1500*%
G04:AMPARAMS|DCode=104|XSize=2.15mm|YSize=2.15mm|CornerRadius=0mm|HoleSize=0mm|Usage=FLASHONLY|Rotation=90.000|XOffset=0mm|YOffset=0mm|HoleType=Round|Shape=Octagon|*
%AMOCTAGOND104*
4,1,8,0.5375,1.0750,-0.5375,1.0750,-1.0750,0.5375,-1.0750,-0.5375,-0.5375,-1.0750,0.5375,-1.0750,1.0750,-0.5375,1.0750,0.5375,0.5375,1.0750,0.0*
%
%ADD104OCTAGOND104*%

%ADD105O,1.7500X2.1500*%
%ADD106C,0.1500*%
%ADD107C,0.7500*%
G36*
X1280850Y1109900D02*
X1294350D01*
Y972900D01*
X1280850D01*
Y962700D01*
X1248850D01*
Y972900D01*
X1235350D01*
Y1109900D01*
X1248850D01*
Y1120100D01*
X1280850D01*
Y1109900D01*
D02*
G37*
G36*
X1513400D02*
X1526900D01*
Y972900D01*
X1513400D01*
Y962700D01*
X1481400D01*
Y972900D01*
X1467900D01*
Y1109900D01*
X1481400D01*
Y1120100D01*
X1513400D01*
Y1109900D01*
D02*
G37*
D32*
X227140Y1010625D02*
D03*
X272860D02*
D03*
X307140D02*
D03*
X352860D02*
D03*
X112860Y1014323D02*
D03*
X67140D02*
D03*
X147140Y1010625D02*
D03*
X192860D02*
D03*
D33*
X250000Y1074625D02*
D03*
X330000D02*
D03*
X90000Y1078323D02*
D03*
X170000Y1074625D02*
D03*
D42*
X1428750Y984250D02*
D03*
Y996950D02*
D03*
Y1009650D02*
D03*
Y1022350D02*
D03*
Y1035050D02*
D03*
Y1047750D02*
D03*
Y1060450D02*
D03*
Y1073150D02*
D03*
Y1085850D02*
D03*
Y1098550D02*
D03*
X1566050D02*
D03*
Y1085850D02*
D03*
Y1073150D02*
D03*
Y1060450D02*
D03*
Y1047750D02*
D03*
Y1035050D02*
D03*
Y1022350D02*
D03*
Y1009650D02*
D03*
Y996950D02*
D03*
Y984250D02*
D03*
X1333500D02*
D03*
Y996950D02*
D03*
Y1009650D02*
D03*
Y1022350D02*
D03*
Y1035050D02*
D03*
Y1047750D02*
D03*
Y1060450D02*
D03*
Y1073150D02*
D03*
Y1085850D02*
D03*
Y1098550D02*
D03*
X1196200D02*
D03*
Y1085850D02*
D03*
Y1073150D02*
D03*
Y1060450D02*
D03*
Y1047750D02*
D03*
Y1035050D02*
D03*
Y1022350D02*
D03*
Y1009650D02*
D03*
Y996950D02*
D03*
Y984250D02*
D03*
D43*
X151622Y531171D02*
D03*
Y491572D02*
D03*
X201520Y531171D02*
D03*
Y491572D02*
D03*
D55*
X835204Y286200D02*
D03*
Y279700D02*
D03*
Y273200D02*
D03*
Y266700D02*
D03*
Y260200D02*
D03*
Y253700D02*
D03*
Y247200D02*
D03*
X777696D02*
D03*
Y253700D02*
D03*
Y260200D02*
D03*
Y266700D02*
D03*
Y273200D02*
D03*
Y279700D02*
D03*
X156295Y214443D02*
D03*
Y220943D02*
D03*
Y227443D02*
D03*
Y233943D02*
D03*
Y240443D02*
D03*
Y246943D02*
D03*
Y253443D02*
D03*
X213803D02*
D03*
Y246943D02*
D03*
Y240443D02*
D03*
Y233943D02*
D03*
Y227443D02*
D03*
Y220943D02*
D03*
X1476554Y286200D02*
D03*
Y279700D02*
D03*
Y273200D02*
D03*
Y266700D02*
D03*
Y260200D02*
D03*
Y253700D02*
D03*
Y247200D02*
D03*
X1419046D02*
D03*
Y253700D02*
D03*
Y260200D02*
D03*
Y266700D02*
D03*
Y273200D02*
D03*
Y279700D02*
D03*
X1101546Y279700D02*
D03*
Y273200D02*
D03*
Y266700D02*
D03*
Y260200D02*
D03*
Y253700D02*
D03*
Y247200D02*
D03*
X1159054D02*
D03*
Y253700D02*
D03*
Y260200D02*
D03*
Y266700D02*
D03*
Y273200D02*
D03*
Y279700D02*
D03*
Y286200D02*
D03*
D56*
X777696D02*
D03*
X213803Y214443D02*
D03*
X1419046Y286200D02*
D03*
X1101546D02*
D03*
D57*
X539750Y242900D02*
D03*
X552450D02*
D03*
X565150D02*
D03*
X577850D02*
D03*
Y188900D02*
D03*
X565150D02*
D03*
X552450D02*
D03*
X539750D02*
D03*
D62*
X139700Y921700D02*
D03*
X215900D02*
D03*
X63500D02*
D03*
X762000Y125700D02*
D03*
X1295400Y443200D02*
D03*
X647700Y949700D02*
D03*
X571500D02*
D03*
X495300D02*
D03*
X419100D02*
D03*
X292100Y921700D02*
D03*
D63*
X139700Y949700D02*
D03*
X215900D02*
D03*
X63500D02*
D03*
X762000Y153700D02*
D03*
X1295400Y471200D02*
D03*
X647700Y921700D02*
D03*
X571500D02*
D03*
X495300D02*
D03*
X419100D02*
D03*
X292100Y949700D02*
D03*
D64*
X1596000Y795000D02*
D03*
X645750Y1107150D02*
D03*
X569550D02*
D03*
Y1164300D02*
D03*
X645750D02*
D03*
X723800Y1109097D02*
D03*
X952400Y1108998D02*
D03*
X800000Y1109097D02*
D03*
X876200D02*
D03*
D65*
X1554000Y795000D02*
D03*
X687750Y1107150D02*
D03*
X611550D02*
D03*
Y1164300D02*
D03*
X687750D02*
D03*
X765800Y1109097D02*
D03*
X994400Y1108998D02*
D03*
X842000Y1109097D02*
D03*
X918200D02*
D03*
D66*
X608300Y450850D02*
D03*
X636300D02*
D03*
X608300Y596900D02*
D03*
X636300D02*
D03*
X247922Y530650D02*
D03*
X487650Y622300D02*
D03*
X515650D02*
D03*
X637570Y512668D02*
D03*
X609570D02*
D03*
X637570Y539750D02*
D03*
X609570D02*
D03*
X637570Y566833D02*
D03*
X609570D02*
D03*
X636300Y361950D02*
D03*
X608300D02*
D03*
X636300Y420783D02*
D03*
X608300D02*
D03*
X636300Y393700D02*
D03*
X608300D02*
D03*
X1194850Y736600D02*
D03*
X437799Y288600D02*
D03*
Y161450D02*
D03*
X430500Y622300D02*
D03*
X458500D02*
D03*
D67*
X565150Y746850D02*
D03*
Y662850D02*
D03*
X451485Y745580D02*
D03*
Y661580D02*
D03*
D68*
X361572Y581450D02*
D03*
Y606850D02*
D03*
Y632250D02*
D03*
X361172Y695750D02*
D03*
Y721150D02*
D03*
Y746550D02*
D03*
D69*
X259572Y606850D02*
D03*
X259172Y721150D02*
D03*
D70*
X577270Y516750D02*
D03*
Y562750D02*
D03*
X576000Y370700D02*
D03*
Y416700D02*
D03*
D71*
X509270Y539750D02*
D03*
X508000Y393700D02*
D03*
D72*
X590550Y129700D02*
D03*
Y149700D02*
D03*
X603384Y225900D02*
D03*
Y205900D02*
D03*
X533400Y149700D02*
D03*
Y129700D02*
D03*
X1268316Y447200D02*
D03*
Y467200D02*
D03*
X730250Y129700D02*
D03*
Y149700D02*
D03*
X767450Y218200D02*
D03*
Y198200D02*
D03*
X985000Y425000D02*
D03*
Y445000D02*
D03*
X1120000Y420000D02*
D03*
Y440000D02*
D03*
X901700Y803750D02*
D03*
Y783750D02*
D03*
X927100Y803750D02*
D03*
Y783750D02*
D03*
X876300Y803750D02*
D03*
Y783750D02*
D03*
X730250Y682150D02*
D03*
Y702150D02*
D03*
X704850Y682150D02*
D03*
Y702150D02*
D03*
X781050D02*
D03*
Y682150D02*
D03*
X755650D02*
D03*
Y702150D02*
D03*
X930000Y555000D02*
D03*
Y535000D02*
D03*
X905000Y555000D02*
D03*
Y535000D02*
D03*
X933450Y447200D02*
D03*
Y467200D02*
D03*
X795020Y520860D02*
D03*
Y540860D02*
D03*
X908050Y467200D02*
D03*
Y447200D02*
D03*
X952500Y783750D02*
D03*
Y803750D02*
D03*
X857250Y702150D02*
D03*
Y682150D02*
D03*
X882650Y702150D02*
D03*
Y682150D02*
D03*
X806450D02*
D03*
Y702150D02*
D03*
X831850Y682150D02*
D03*
Y702150D02*
D03*
X1095000Y450000D02*
D03*
Y430000D02*
D03*
X1158599Y498950D02*
D03*
Y478950D02*
D03*
X1136650Y143350D02*
D03*
Y123350D02*
D03*
X1060450Y143350D02*
D03*
Y123350D02*
D03*
X819450Y218200D02*
D03*
Y198200D02*
D03*
X793450Y218200D02*
D03*
Y198200D02*
D03*
X845450Y218200D02*
D03*
Y198200D02*
D03*
X1411053Y201450D02*
D03*
Y221450D02*
D03*
X1434135Y201450D02*
D03*
Y221450D02*
D03*
X1457218Y201450D02*
D03*
Y221450D02*
D03*
X1480300Y201450D02*
D03*
Y221450D02*
D03*
X565150Y136050D02*
D03*
Y156050D02*
D03*
X1104900Y962500D02*
D03*
Y942500D02*
D03*
X1130300Y962500D02*
D03*
Y942500D02*
D03*
X1079500Y962500D02*
D03*
Y942500D02*
D03*
X1155700Y962500D02*
D03*
Y942500D02*
D03*
X1054100Y962500D02*
D03*
Y942500D02*
D03*
X1028700Y962500D02*
D03*
Y942500D02*
D03*
X1003300Y962500D02*
D03*
Y942500D02*
D03*
X317500Y945700D02*
D03*
Y925700D02*
D03*
X342900Y925700D02*
D03*
Y945700D02*
D03*
X850900Y945700D02*
D03*
Y925700D02*
D03*
X774700Y945700D02*
D03*
Y925700D02*
D03*
X800100Y945700D02*
D03*
Y925700D02*
D03*
X876300Y945700D02*
D03*
Y925700D02*
D03*
X952500Y925700D02*
D03*
Y945700D02*
D03*
X723900Y925700D02*
D03*
Y945700D02*
D03*
X698500Y925700D02*
D03*
Y945700D02*
D03*
X927100Y945700D02*
D03*
Y925700D02*
D03*
X190500Y925700D02*
D03*
Y945700D02*
D03*
X114300D02*
D03*
Y925700D02*
D03*
X165100Y925700D02*
D03*
Y945700D02*
D03*
X88900Y925700D02*
D03*
Y945700D02*
D03*
X368300Y925700D02*
D03*
Y945700D02*
D03*
X444500Y925700D02*
D03*
Y945700D02*
D03*
X266700Y945700D02*
D03*
Y925700D02*
D03*
X596900Y925700D02*
D03*
Y945700D02*
D03*
X546100Y925700D02*
D03*
Y945700D02*
D03*
X520700Y925700D02*
D03*
Y945700D02*
D03*
X469900Y925700D02*
D03*
Y945700D02*
D03*
X393700Y925700D02*
D03*
Y945700D02*
D03*
X241300Y925700D02*
D03*
Y945700D02*
D03*
X622300Y925700D02*
D03*
Y945700D02*
D03*
X1212850Y143350D02*
D03*
Y123350D02*
D03*
X1174750Y143350D02*
D03*
Y123350D02*
D03*
X1098550Y143350D02*
D03*
Y123350D02*
D03*
X1022350Y143350D02*
D03*
Y123350D02*
D03*
X1094550Y202357D02*
D03*
Y222357D02*
D03*
X1117633Y202357D02*
D03*
Y222357D02*
D03*
X1163798Y202357D02*
D03*
Y222357D02*
D03*
X1140715Y202357D02*
D03*
Y222357D02*
D03*
X908050Y143350D02*
D03*
Y123350D02*
D03*
X984250Y143350D02*
D03*
Y123350D02*
D03*
X946150Y143350D02*
D03*
Y123350D02*
D03*
X869950Y143350D02*
D03*
Y123350D02*
D03*
D73*
X342809Y530650D02*
D03*
X322809D02*
D03*
X1372950Y914400D02*
D03*
X1392950D02*
D03*
X1497500Y716917D02*
D03*
X1517500D02*
D03*
X1497500Y693835D02*
D03*
X1517500D02*
D03*
X1517500Y740000D02*
D03*
X1497500D02*
D03*
X1250000Y550000D02*
D03*
X1270000D02*
D03*
X1005000Y400000D02*
D03*
X1025000D02*
D03*
X995000Y500000D02*
D03*
X975000D02*
D03*
X891700Y406400D02*
D03*
X911700D02*
D03*
X1165700Y736600D02*
D03*
X1145700D02*
D03*
X1191100Y711200D02*
D03*
X1171100D02*
D03*
X1235550D02*
D03*
X1215550D02*
D03*
X1525000Y170000D02*
D03*
X1505000D02*
D03*
X1506050Y240700D02*
D03*
X1526050D02*
D03*
X1160000Y565000D02*
D03*
X1180000D02*
D03*
X1030000Y619099D02*
D03*
X1010000D02*
D03*
X1160000Y589326D02*
D03*
X1180000D02*
D03*
X995000Y475000D02*
D03*
X975000D02*
D03*
X1570000Y170000D02*
D03*
X1550000D02*
D03*
X724950Y292700D02*
D03*
X744950D02*
D03*
X724950Y241520D02*
D03*
X744950D02*
D03*
X724950Y266700D02*
D03*
X744950D02*
D03*
X913450Y240700D02*
D03*
X933450D02*
D03*
X887950Y241553D02*
D03*
X867950D02*
D03*
X887950Y266700D02*
D03*
X867950D02*
D03*
X887950Y292700D02*
D03*
X867950D02*
D03*
X913450Y266700D02*
D03*
X933450D02*
D03*
X913450Y292700D02*
D03*
X933450D02*
D03*
X699450Y240700D02*
D03*
X679450D02*
D03*
Y292700D02*
D03*
X699450D02*
D03*
Y214700D02*
D03*
X679450D02*
D03*
X699450Y266700D02*
D03*
X679450D02*
D03*
X562450Y266733D02*
D03*
X542450D02*
D03*
X248000Y207943D02*
D03*
X268000D02*
D03*
X248000Y233943D02*
D03*
X268000D02*
D03*
X235000Y149443D02*
D03*
X255000D02*
D03*
X268000Y181943D02*
D03*
X248000D02*
D03*
X196000Y181943D02*
D03*
X216000D02*
D03*
X248000Y259944D02*
D03*
X268000D02*
D03*
X235000Y313360D02*
D03*
X255000D02*
D03*
X216000Y285944D02*
D03*
X196000D02*
D03*
X248000Y285943D02*
D03*
X268000D02*
D03*
X150500Y181943D02*
D03*
X170500D02*
D03*
Y285943D02*
D03*
X150500D02*
D03*
X105000Y246943D02*
D03*
X125000D02*
D03*
Y194943D02*
D03*
X105000D02*
D03*
Y168943D02*
D03*
X125000D02*
D03*
Y142943D02*
D03*
X105000D02*
D03*
Y220943D02*
D03*
X125000D02*
D03*
Y324943D02*
D03*
X105000D02*
D03*
Y298943D02*
D03*
X125000D02*
D03*
Y272943D02*
D03*
X105000D02*
D03*
X353700Y314000D02*
D03*
X373699D02*
D03*
X373700Y339400D02*
D03*
X353700D02*
D03*
X418150D02*
D03*
X398150D02*
D03*
X353700Y263200D02*
D03*
X373699D02*
D03*
X353700Y237800D02*
D03*
X373700D02*
D03*
X398150Y314000D02*
D03*
X418149D02*
D03*
X373699Y288600D02*
D03*
X353700D02*
D03*
Y136050D02*
D03*
X373699D02*
D03*
Y110650D02*
D03*
X353700D02*
D03*
X1548300Y240700D02*
D03*
X1568300D02*
D03*
X1526050Y266700D02*
D03*
X1506050D02*
D03*
X1526050Y292700D02*
D03*
X1506050D02*
D03*
X1340800Y240700D02*
D03*
X1320800D02*
D03*
X1366300D02*
D03*
X1386300D02*
D03*
X1340800Y292700D02*
D03*
X1320800D02*
D03*
X1366300D02*
D03*
X1386300D02*
D03*
Y266700D02*
D03*
X1366300D02*
D03*
X1548300D02*
D03*
X1568300D02*
D03*
X1340800Y214700D02*
D03*
X1320800D02*
D03*
X1340800Y266700D02*
D03*
X1320800D02*
D03*
X1548300Y292700D02*
D03*
X1568300D02*
D03*
X339250Y903950D02*
D03*
X359250D02*
D03*
X460850Y903950D02*
D03*
X440850D02*
D03*
X613250Y903950D02*
D03*
X593250D02*
D03*
X488156Y903222D02*
D03*
X508156D02*
D03*
X398150Y186850D02*
D03*
X418150D02*
D03*
X1372950Y889000D02*
D03*
X1392950D02*
D03*
X373700Y161450D02*
D03*
X353700D02*
D03*
X418150Y212250D02*
D03*
X398150D02*
D03*
X373700D02*
D03*
X353700D02*
D03*
Y186850D02*
D03*
X373700D02*
D03*
X1003300Y214700D02*
D03*
X1023300D02*
D03*
X1003300Y240700D02*
D03*
X1023300D02*
D03*
X1068800D02*
D03*
X1048800D02*
D03*
Y266700D02*
D03*
X1068800D02*
D03*
X1003300D02*
D03*
X1023300D02*
D03*
X1068800Y292700D02*
D03*
X1048800D02*
D03*
X1003300D02*
D03*
X1023300D02*
D03*
X1257300Y240700D02*
D03*
X1237300D02*
D03*
X1191800D02*
D03*
X1211800D02*
D03*
X1191800Y266700D02*
D03*
X1211800D02*
D03*
X1257300D02*
D03*
X1237300D02*
D03*
X1191800Y292700D02*
D03*
X1211800D02*
D03*
X1257300D02*
D03*
X1237300D02*
D03*
D74*
X304800Y893850D02*
D03*
X292100D02*
D03*
X279400D02*
D03*
X266700D02*
D03*
X304800Y837850D02*
D03*
X292100D02*
D03*
X279400D02*
D03*
X266700D02*
D03*
X133350D02*
D03*
X146050D02*
D03*
X158750D02*
D03*
X171450D02*
D03*
X133350Y893850D02*
D03*
X146050D02*
D03*
X158750D02*
D03*
X171450D02*
D03*
X749300Y848300D02*
D03*
X762000D02*
D03*
X774700D02*
D03*
X787400D02*
D03*
X749300Y904300D02*
D03*
X762000D02*
D03*
X774700D02*
D03*
X787400D02*
D03*
X876667Y848300D02*
D03*
X889367D02*
D03*
X902067D02*
D03*
X914767D02*
D03*
X876667Y904300D02*
D03*
X889367D02*
D03*
X902067D02*
D03*
X914767D02*
D03*
X419100Y893850D02*
D03*
X406400D02*
D03*
X393700D02*
D03*
X381000D02*
D03*
X419100Y837850D02*
D03*
X406400D02*
D03*
X393700D02*
D03*
X381000D02*
D03*
X527524D02*
D03*
X540224D02*
D03*
X552924D02*
D03*
X565624D02*
D03*
X527524Y893850D02*
D03*
X540224D02*
D03*
X552924D02*
D03*
X565624D02*
D03*
D75*
X1497400Y1041400D02*
D03*
X1264850D02*
D03*
D76*
X283922Y530650D02*
D03*
X1230850Y736600D02*
D03*
X401800Y288600D02*
D03*
Y161450D02*
D03*
D77*
X1104900Y1090948D02*
D03*
X1054100Y994949D02*
D03*
X1104900D02*
D03*
X1041400Y1090948D02*
D03*
X1130300Y994949D02*
D03*
X1054100Y1090948D02*
D03*
X1117600D02*
D03*
X1066800D02*
D03*
X1079500D02*
D03*
X1092200Y994949D02*
D03*
X1066800D02*
D03*
X1041400D02*
D03*
X1092200Y1090948D02*
D03*
X1079500Y994949D02*
D03*
X1117600D02*
D03*
X1130300Y1090948D02*
D03*
D78*
X1055000Y596000D02*
D03*
X1060000D02*
D03*
X1040000D02*
D03*
X1045000D02*
D03*
X1050000D02*
D03*
X1065000D02*
D03*
X1070000D02*
D03*
X1075000D02*
D03*
X1080000D02*
D03*
X1085000D02*
D03*
X1090000D02*
D03*
X1095000D02*
D03*
X1100000D02*
D03*
X1105000D02*
D03*
X1110000D02*
D03*
X1115000D02*
D03*
Y480000D02*
D03*
X1110000D02*
D03*
X1105000D02*
D03*
X1100000D02*
D03*
X1095000D02*
D03*
X1090000D02*
D03*
X1085000D02*
D03*
X1080000D02*
D03*
X1075000D02*
D03*
X1070000D02*
D03*
X1065000D02*
D03*
X1060000D02*
D03*
X1055000D02*
D03*
X1050000D02*
D03*
X1045000D02*
D03*
X1040000D02*
D03*
D79*
X1560000Y705000D02*
D03*
Y710000D02*
D03*
Y715000D02*
D03*
Y740000D02*
D03*
Y735000D02*
D03*
Y730000D02*
D03*
Y720000D02*
D03*
Y725000D02*
D03*
D80*
Y746000D02*
D03*
Y699000D02*
D03*
Y753500D02*
D03*
Y691500D02*
D03*
D81*
X1241232Y443200D02*
D03*
Y471200D02*
D03*
X107950Y879850D02*
D03*
Y851850D02*
D03*
X1168400Y1017300D02*
D03*
Y989300D02*
D03*
X1397000Y1093500D02*
D03*
Y1065500D02*
D03*
X939800Y862300D02*
D03*
Y890300D02*
D03*
X812800Y862300D02*
D03*
Y890300D02*
D03*
X635000Y153700D02*
D03*
Y125700D02*
D03*
X1214149Y471200D02*
D03*
Y443200D02*
D03*
X1187067Y471200D02*
D03*
Y443200D02*
D03*
X501650Y879850D02*
D03*
Y851850D02*
D03*
X355600Y851850D02*
D03*
Y879850D02*
D03*
X241300Y879850D02*
D03*
Y851850D02*
D03*
X698500Y125700D02*
D03*
Y153700D02*
D03*
X666750D02*
D03*
Y125700D02*
D03*
X1600200Y1065500D02*
D03*
Y1093500D02*
D03*
X1366182Y1065500D02*
D03*
Y1093500D02*
D03*
X1600200Y989300D02*
D03*
Y1017300D02*
D03*
X1397000Y989300D02*
D03*
Y1017300D02*
D03*
X1366183Y989300D02*
D03*
Y1017300D02*
D03*
X1168400Y1065500D02*
D03*
Y1093500D02*
D03*
D82*
X1026098Y446000D02*
D03*
Y424000D02*
D03*
X1006098D02*
D03*
Y446000D02*
D03*
D83*
X820900Y558750D02*
D03*
X880900D02*
D03*
X820900Y520750D02*
D03*
X880900D02*
D03*
X820900Y476200D02*
D03*
X880900D02*
D03*
X820900Y438200D02*
D03*
X880900D02*
D03*
D84*
X836900Y406400D02*
D03*
D85*
X864900D02*
D03*
D86*
X1019500Y500500D02*
D03*
Y505500D02*
D03*
Y510500D02*
D03*
Y515500D02*
D03*
Y520500D02*
D03*
Y525500D02*
D03*
Y530500D02*
D03*
Y535500D02*
D03*
Y540500D02*
D03*
Y545500D02*
D03*
Y550500D02*
D03*
Y555500D02*
D03*
Y560500D02*
D03*
Y565500D02*
D03*
Y570500D02*
D03*
Y575500D02*
D03*
X1135500D02*
D03*
Y570500D02*
D03*
Y565500D02*
D03*
Y560500D02*
D03*
Y555500D02*
D03*
Y550500D02*
D03*
Y545500D02*
D03*
Y540500D02*
D03*
Y535500D02*
D03*
Y530500D02*
D03*
Y525500D02*
D03*
Y520500D02*
D03*
Y515500D02*
D03*
Y510500D02*
D03*
Y505500D02*
D03*
Y500500D02*
D03*
D87*
X1456600Y895350D02*
D03*
X1540600D02*
D03*
X1305650D02*
D03*
X1221650D02*
D03*
D88*
X255000Y123443D02*
D03*
X235000D02*
D03*
X245000Y97443D02*
D03*
D89*
X232000Y354443D02*
D03*
Y334443D02*
D03*
X258000Y344443D02*
D03*
X401500Y260499D02*
D03*
Y240499D02*
D03*
X427500Y250499D02*
D03*
Y123350D02*
D03*
X401500Y113350D02*
D03*
Y133350D02*
D03*
D90*
X717550Y1045900D02*
D03*
X946150D02*
D03*
X641350D02*
D03*
X869950D02*
D03*
X793750D02*
D03*
X565150D02*
D03*
X488950D02*
D03*
X413890D02*
D03*
D91*
X740550Y977900D02*
D03*
X694550D02*
D03*
X969150D02*
D03*
X923150D02*
D03*
X618350D02*
D03*
X664350D02*
D03*
X892950D02*
D03*
X846950D02*
D03*
X770750D02*
D03*
X816750D02*
D03*
X588150D02*
D03*
X542150D02*
D03*
X511950D02*
D03*
X465950D02*
D03*
X436890D02*
D03*
X390890D02*
D03*
D92*
X457200Y84800D02*
D03*
X869950D02*
D03*
D93*
X495300D02*
D03*
X533400D02*
D03*
X571500D02*
D03*
X609600D02*
D03*
X647700D02*
D03*
X685800D02*
D03*
X723900D02*
D03*
X762000D02*
D03*
X800100D02*
D03*
X908050D02*
D03*
X946150D02*
D03*
X984250D02*
D03*
X1022350D02*
D03*
X1060450D02*
D03*
X1098550D02*
D03*
X1136650D02*
D03*
X1174750D02*
D03*
X1212850D02*
D03*
D94*
X1498700Y1157500D02*
D03*
X1447900D02*
D03*
X1397100D02*
D03*
X1346300D02*
D03*
X1124100D02*
D03*
X1022500D02*
D03*
X971700D02*
D03*
X920900D02*
D03*
X870100D02*
D03*
X819300D02*
D03*
X768500D02*
D03*
X1073300D02*
D03*
X1225700D02*
D03*
X1174900D02*
D03*
X454900D02*
D03*
X150100D02*
D03*
X200900D02*
D03*
X251700D02*
D03*
X302500D02*
D03*
X353300D02*
D03*
X404100D02*
D03*
X505700D02*
D03*
X101600Y762000D02*
D03*
Y711200D02*
D03*
Y660400D02*
D03*
Y609600D02*
D03*
Y558800D02*
D03*
Y508000D02*
D03*
D95*
X164322Y556050D02*
D03*
Y613200D02*
D03*
Y714800D02*
D03*
Y771950D02*
D03*
D96*
X1571200Y692600D02*
D03*
Y752400D02*
D03*
X728980Y962660D02*
D03*
Y993140D02*
D03*
X751840Y962660D02*
D03*
Y993140D02*
D03*
X957580D02*
D03*
X980440D02*
D03*
X957580Y962660D02*
D03*
X980440D02*
D03*
X881380Y993140D02*
D03*
X904240D02*
D03*
X881380Y962660D02*
D03*
X904240D02*
D03*
X805180Y993140D02*
D03*
X828040D02*
D03*
X805180Y962660D02*
D03*
X828040D02*
D03*
D97*
X1564000Y765500D02*
D03*
Y679500D02*
D03*
D98*
X1603000Y765500D02*
D03*
Y679500D02*
D03*
D99*
X1564200Y643720D02*
D03*
Y523320D02*
D03*
D100*
X1496400Y583520D02*
D03*
X1608300D02*
D03*
D101*
X1568700Y571021D02*
D03*
Y596020D02*
D03*
X1536700Y571021D02*
D03*
X186500Y98443D02*
D03*
X181883Y310025D02*
D03*
X305082Y365026D02*
D03*
X303500Y98443D02*
D03*
D102*
X1536700Y596020D02*
D03*
D103*
X970200Y692500D02*
D03*
X944800D02*
D03*
X995600D02*
D03*
D104*
X919400D02*
D03*
D105*
X211500Y148443D02*
D03*
X161500D02*
D03*
X156883Y360026D02*
D03*
X206882D02*
D03*
X330083Y315026D02*
D03*
X280083D02*
D03*
X278500Y148443D02*
D03*
X328500D02*
D03*
D106*
X70000Y70000D02*
D03*
X1590000D02*
D03*
X70000Y1190000D02*
D03*
X1590000D02*
D03*
D107*
X310658Y974841D02*
D03*
X310536Y955925D02*
D03*
X234950Y965200D02*
D03*
X1166500Y774800D02*
D03*
X647700Y732500D02*
D03*
Y834100D02*
D03*
X685800Y846800D02*
D03*
X977900Y1112520D02*
D03*
X901700D02*
D03*
X825500D02*
D03*
X749300D02*
D03*
X765800Y1109097D02*
D03*
X706500Y904800D02*
D03*
X628650Y903950D02*
D03*
X800100Y910300D02*
D03*
X474599Y902721D02*
D03*
X711200Y850900D02*
D03*
X850900Y910300D02*
D03*
X1155700Y757900D02*
D03*
X1066800D02*
D03*
X1160043Y781050D02*
D03*
X1147343Y793750D02*
D03*
X1153693Y787400D02*
D03*
X1066800Y812800D02*
D03*
X1073150Y793750D02*
D03*
X1079500Y787400D02*
D03*
X1085850Y781050D02*
D03*
X854838Y714307D02*
D03*
X882667Y716964D02*
D03*
X806450Y427700D02*
D03*
X572470Y504050D02*
D03*
X1079500Y929350D02*
D03*
X374650Y770600D02*
D03*
X342900D02*
D03*
X692150Y319750D02*
D03*
X527050Y300700D02*
D03*
X488950D02*
D03*
X1416050Y1113500D02*
D03*
X1339850Y973800D02*
D03*
X1416050D02*
D03*
X1352550Y903950D02*
D03*
X1339850Y948400D02*
D03*
X1320800Y929350D02*
D03*
X1295400Y954750D02*
D03*
X1308100Y942050D02*
D03*
Y929350D02*
D03*
X1327150Y878550D02*
D03*
X1301750Y872200D02*
D03*
X1308100Y859500D02*
D03*
X1301750Y853150D02*
D03*
X1543050Y846800D02*
D03*
Y942050D02*
D03*
X1555750Y859500D02*
D03*
Y929350D02*
D03*
X1543050Y859500D02*
D03*
Y929350D02*
D03*
X1574800Y967450D02*
D03*
X1562100D02*
D03*
X1587500Y1050000D02*
D03*
X1409700Y1132550D02*
D03*
X1479550D02*
D03*
X1543050Y1018250D02*
D03*
X1409700Y999200D02*
D03*
Y1050000D02*
D03*
X1301750D02*
D03*
Y1018250D02*
D03*
X1270000Y954750D02*
D03*
X1257300D02*
D03*
X1092200Y1062700D02*
D03*
X1060450D02*
D03*
X1270000Y389600D02*
D03*
X1186500Y384800D02*
D03*
X1016000Y491200D02*
D03*
X1060450Y529300D02*
D03*
X1104900D02*
D03*
X984250Y637250D02*
D03*
X1454150Y605500D02*
D03*
X1333500Y599150D02*
D03*
X1352550Y649950D02*
D03*
X1244600Y161000D02*
D03*
X1116465Y407290D02*
D03*
X1157500Y467500D02*
D03*
X1100000Y562500D02*
D03*
X1060000Y560000D02*
D03*
X1165000Y610000D02*
D03*
X1137500Y585000D02*
D03*
X608300Y377825D02*
D03*
X1146473Y571500D02*
D03*
X1022743Y474757D02*
D03*
X1005000Y475000D02*
D03*
X961573Y475286D02*
D03*
X1095000Y417500D02*
D03*
X1042055Y608138D02*
D03*
X1146801Y504185D02*
D03*
X1096000Y465000D02*
D03*
X1006333Y504377D02*
D03*
X876300Y317500D02*
D03*
X774700Y304800D02*
D03*
X1066800Y711200D02*
D03*
X1552042Y753500D02*
D03*
Y691407D02*
D03*
X1027500Y588000D02*
D03*
X1080000Y500000D02*
D03*
X1095000Y497500D02*
D03*
X240000Y110000D02*
D03*
X1211500Y424800D02*
D03*
X1376500Y124800D02*
D03*
X1440000Y150000D02*
D03*
X620000Y640000D02*
D03*
X510000D02*
D03*
X540000D02*
D03*
X480000D02*
D03*
X590000D02*
D03*
X850000Y550000D02*
D03*
X907500Y435000D02*
D03*
X1260000Y510000D02*
D03*
X1570000Y390000D02*
D03*
X1440000Y500000D02*
D03*
X1400000Y600000D02*
D03*
X1310000Y560000D02*
D03*
X1280000Y600000D02*
D03*
X1510000Y790000D02*
D03*
X1440000Y650000D02*
D03*
X1400000Y790000D02*
D03*
X1340000D02*
D03*
X1270000Y720000D02*
D03*
X1280000Y650000D02*
D03*
X1060000Y1030000D02*
D03*
X1090000D02*
D03*
X952500Y910300D02*
D03*
X1080000Y840000D02*
D03*
X1170000Y830000D02*
D03*
X1560000Y870000D02*
D03*
Y920000D02*
D03*
X1330000D02*
D03*
X1440000Y850000D02*
D03*
X1350000Y870000D02*
D03*
X1020000Y680000D02*
D03*
X1050000Y650000D02*
D03*
X1170000Y910000D02*
D03*
X1140000Y870000D02*
D03*
X1160000Y720000D02*
D03*
X1200000Y690000D02*
D03*
X1220000Y660000D02*
D03*
X1240000Y640000D02*
D03*
Y600000D02*
D03*
X1230000Y580000D02*
D03*
X1420000Y420000D02*
D03*
X1450000Y340000D02*
D03*
X1350000Y520000D02*
D03*
X1450000Y280000D02*
D03*
X1230000Y320000D02*
D03*
X1211500Y384800D02*
D03*
X1160000Y370000D02*
D03*
X1130300Y271700D02*
D03*
X1296500Y104800D02*
D03*
X1250000Y80000D02*
D03*
X1130000Y640000D02*
D03*
Y660000D02*
D03*
Y700000D02*
D03*
X1180000Y640000D02*
D03*
X1130000Y620000D02*
D03*
X1210000Y500000D02*
D03*
X1180000D02*
D03*
X1170000Y470000D02*
D03*
X962500Y500582D02*
D03*
X980000Y410000D02*
D03*
X990000Y400000D02*
D03*
X1040000D02*
D03*
Y420000D02*
D03*
X575000Y262500D02*
D03*
X600000Y250000D02*
D03*
X259074Y333470D02*
D03*
X293376Y308070D02*
D03*
X427604Y239660D02*
D03*
X1489710Y1098417D02*
D03*
Y1052697D02*
D03*
X1474470D02*
D03*
X1504950Y1067937D02*
D03*
Y1052697D02*
D03*
X1520190Y1098417D02*
D03*
Y1083177D02*
D03*
X1489710Y1067937D02*
D03*
X1520190D02*
D03*
X1474470Y1098417D02*
D03*
X1504950Y1083177D02*
D03*
X1520190Y1052697D02*
D03*
X1489710Y1083177D02*
D03*
X1474470Y1067937D02*
D03*
X1504950Y1098417D02*
D03*
X1474470Y1083177D02*
D03*
X1504950Y1115060D02*
D03*
X1489710D02*
D03*
X1505090Y1023620D02*
D03*
X1489850D02*
D03*
X1520330D02*
D03*
X1474610D02*
D03*
X1505090Y1008380D02*
D03*
X1489850D02*
D03*
X1520330D02*
D03*
X1474610D02*
D03*
X1505090Y993140D02*
D03*
X1489850D02*
D03*
X1520330D02*
D03*
X1474610D02*
D03*
X1505090Y977900D02*
D03*
X1489850D02*
D03*
X1520330D02*
D03*
X1474610D02*
D03*
X1489850Y967740D02*
D03*
X1505090D02*
D03*
X1257300Y1049020D02*
D03*
X1242060D02*
D03*
X1287780D02*
D03*
X1272540D02*
D03*
Y967740D02*
D03*
X1257300D02*
D03*
X1242060Y977900D02*
D03*
X1287780D02*
D03*
X1257300D02*
D03*
X1272540D02*
D03*
X1242060Y993140D02*
D03*
X1287780D02*
D03*
X1257300D02*
D03*
X1272540D02*
D03*
X1242060Y1008380D02*
D03*
X1287780D02*
D03*
X1257300D02*
D03*
X1272540D02*
D03*
X1242060Y1023620D02*
D03*
X1287780D02*
D03*
X1257300D02*
D03*
X1272540D02*
D03*
X1242060Y1064260D02*
D03*
X1287780D02*
D03*
X1257300D02*
D03*
X1272540D02*
D03*
Y1082040D02*
D03*
X1257300D02*
D03*
X1287780D02*
D03*
X1242060D02*
D03*
X673100Y499730D02*
D03*
X927100Y514350D02*
D03*
X653140Y512668D02*
D03*
X1060000Y520000D02*
D03*
X1125000Y490000D02*
D03*
X1145000D02*
D03*
X1077500Y538000D02*
D03*
X609570Y566833D02*
D03*
X577850Y577850D02*
D03*
Y539750D02*
D03*
X654050Y450850D02*
D03*
Y361950D02*
D03*
X576000Y416700D02*
D03*
X654050Y596900D02*
D03*
X558789Y485150D02*
D03*
X994400Y1108998D02*
D03*
X918200Y1109097D02*
D03*
X842000D02*
D03*
X1270000Y627375D02*
D03*
Y619875D02*
D03*
X1196340Y627260D02*
D03*
Y619760D02*
D03*
X565651Y673100D02*
D03*
X451485Y671830D02*
D03*
Y661580D02*
D03*
Y650580D02*
D03*
X565651Y652780D02*
D03*
X565785Y662215D02*
D03*
X520700Y755650D02*
D03*
X495300D02*
D03*
X1181100Y1085480D02*
D03*
X1349110Y1084950D02*
D03*
X1104900Y457200D02*
D03*
X1121000Y685800D02*
D03*
X806450Y146050D02*
D03*
Y177800D02*
D03*
X1443000Y1035000D02*
D03*
X1228000D02*
D03*
X1219000D02*
D03*
X1209000D02*
D03*
X1313168Y1035259D02*
D03*
X1305000Y1035000D02*
D03*
X316009Y110650D02*
D03*
X232383Y201061D02*
D03*
X1186500Y424800D02*
D03*
X1360000Y380000D02*
D03*
X507780Y737746D02*
D03*
X496263Y739232D02*
D03*
X520000Y740000D02*
D03*
X525798Y746476D02*
D03*
X490000Y746850D02*
D03*
X508000Y754112D02*
D03*
X1491331Y266700D02*
D03*
X1308050Y266660D02*
D03*
X1178123Y266680D02*
D03*
X853450Y266700D02*
D03*
X666750Y170180D02*
D03*
X762000Y109220D02*
D03*
X698500D02*
D03*
X1036500Y452000D02*
D03*
X876300Y814891D02*
D03*
X901700Y815350D02*
D03*
X927100Y815808D02*
D03*
X952500D02*
D03*
X1155700Y931742D02*
D03*
X1131300D02*
D03*
X1105900Y931201D02*
D03*
X1054100Y929640D02*
D03*
X1028700D02*
D03*
X1003300D02*
D03*
X1415400Y1009650D02*
D03*
X1551375Y1035050D02*
D03*
X1544038D02*
D03*
X1321250D02*
D03*
X1191214Y589326D02*
D03*
X1281520Y550000D02*
D03*
X980000Y680000D02*
D03*
X1010000Y605501D02*
D03*
X1247140Y711200D02*
D03*
X1313180Y896620D02*
D03*
X1295400D02*
D03*
X1531620D02*
D03*
X1551940D02*
D03*
X1600200Y975360D02*
D03*
Y1003300D02*
D03*
X1582420Y1089660D02*
D03*
X1600200Y1079500D02*
D03*
X1412240Y1084580D02*
D03*
X1397000Y1079500D02*
D03*
X1366182D02*
D03*
X1397000Y975360D02*
D03*
Y1003300D02*
D03*
X1366183Y975697D02*
D03*
Y1003300D02*
D03*
X1181179Y975439D02*
D03*
X1183385Y1009557D02*
D03*
X1168400Y1003300D02*
D03*
Y1079500D02*
D03*
X1135380Y1104900D02*
D03*
X1125220D02*
D03*
X939800Y845820D02*
D03*
X902067Y863233D02*
D03*
X812800Y845820D02*
D03*
X774700Y863600D02*
D03*
X508000Y746850D02*
D03*
X1381412Y1109980D02*
D03*
X1147700Y1106170D02*
D03*
X1206500Y1073150D02*
D03*
X1380950Y957150D02*
D03*
X1371600Y812730D02*
D03*
Y857250D02*
D03*
X1434500Y952500D02*
D03*
X1467900D02*
D03*
X1260000Y610000D02*
D03*
X1197423D02*
D03*
X1022350Y1098550D02*
D03*
X1136650Y990600D02*
D03*
X1416050Y1073150D02*
D03*
X1092200Y774700D02*
D03*
X1073150Y685800D02*
D03*
X997500Y660000D02*
D03*
X1237500Y515000D02*
D03*
X1167500Y457500D02*
D03*
X1237500Y550000D02*
D03*
X831850Y713450D02*
D03*
X806450D02*
D03*
X781050Y713950D02*
D03*
X755650Y714350D02*
D03*
X730250Y714750D02*
D03*
X704850Y714850D02*
D03*
X653140Y566833D02*
D03*
Y539750D02*
D03*
X673100Y552450D02*
D03*
X654050Y393700D02*
D03*
Y419100D02*
D03*
X582470Y504050D02*
D03*
X1397000Y184150D02*
D03*
X1079500Y254000D02*
D03*
Y184150D02*
D03*
X755650Y260350D02*
D03*
Y228600D02*
D03*
X1397000Y260350D02*
D03*
X869950Y158750D02*
D03*
X908050D02*
D03*
X608300Y274350D02*
D03*
Y331500D02*
D03*
X476250Y336550D02*
D03*
X460700Y292100D02*
D03*
X430850Y186850D02*
D03*
X457200Y196850D02*
D03*
Y222250D02*
D03*
X1192500Y565000D02*
D03*
X807500Y560000D02*
D03*
X1032500Y387500D02*
D03*
X1067500Y352500D02*
D03*
X136964Y233943D02*
D03*
X185049Y227404D02*
D03*
X341950Y110650D02*
D03*
X1130300Y1009650D02*
D03*
X440534Y123350D02*
D03*
X328500Y167050D02*
D03*
X430700Y314000D02*
D03*
X280834Y233943D02*
D03*
X137001Y324943D02*
D03*
X176850Y233943D02*
D03*
X138750Y142943D02*
D03*
X94300Y205900D02*
D03*
Y263050D02*
D03*
X1537250Y169800D02*
D03*
X1582556Y169500D02*
D03*
X1582309Y240240D02*
D03*
Y266240D02*
D03*
X1581050Y292700D02*
D03*
X1269143Y292660D02*
D03*
Y266660D02*
D03*
Y240660D02*
D03*
X1353550Y266700D02*
D03*
X1308050Y292700D02*
D03*
Y214700D02*
D03*
Y240700D02*
D03*
X712288Y266677D02*
D03*
X666700Y292700D02*
D03*
Y266700D02*
D03*
Y240700D02*
D03*
Y214700D02*
D03*
X581200Y358100D02*
D03*
X571200D02*
D03*
X949277Y292700D02*
D03*
X949450Y266700D02*
D03*
Y240700D02*
D03*
X989643Y240660D02*
D03*
Y214660D02*
D03*
Y292660D02*
D03*
Y266660D02*
D03*
X1036368Y266366D02*
D03*
X946150Y158750D02*
D03*
X1022350D02*
D03*
X984250D02*
D03*
X554990Y609750D02*
D03*
X232000Y227443D02*
D03*
Y240443D02*
D03*
Y266443D02*
D03*
X1536700Y1035050D02*
D03*
X1454150D02*
D03*
M02*
