G04*
G04 #@! TF.GenerationSoftware,Altium Limited,Altium Designer,25.0.2 (28)*
G04*
G04 Layer_Color=65535*
%FSLAX44Y44*%
%MOMM*%
G71*
G04*
G04 #@! TF.SameCoordinates,89448804-F20A-4376-BCDE-6976CDED9B52*
G04*
G04*
G04 #@! TF.FilePolarity,Positive*
G04*
G01*
G75*
%ADD10C,0.2000*%
%ADD11C,0.2500*%
%ADD12C,0.1270*%
%ADD13C,0.6000*%
%ADD14C,0.5000*%
%ADD15C,0.2540*%
%ADD16C,0.1000*%
%ADD17C,0.3000*%
%ADD18C,0.1524*%
%ADD19R,0.6000X0.6000*%
%ADD20R,0.6940X0.7620*%
%ADD21R,0.7620X0.7620*%
%ADD22R,1.7240X0.7620*%
%ADD23R,3.4000X1.2000*%
%ADD24R,1.2000X3.4000*%
%ADD25R,0.7620X0.6940*%
%ADD26R,0.7620X0.6940*%
G36*
X1596704Y1223703D02*
X1601046Y1222540D01*
X1605199Y1220820D01*
X1609091Y1218572D01*
X1612657Y1215836D01*
X1615836Y1212657D01*
X1618572Y1209091D01*
X1620820Y1205199D01*
X1622540Y1201046D01*
X1623703Y1196704D01*
X1624290Y1192247D01*
Y1190000D01*
X1607000D01*
X1606918Y1191666D01*
X1606268Y1194935D01*
X1604993Y1198014D01*
X1603141Y1200785D01*
X1600785Y1203141D01*
X1598014Y1204993D01*
X1594935Y1206268D01*
X1591666Y1206918D01*
X1590000Y1207000D01*
Y1224290D01*
X1592247D01*
X1596704Y1223703D01*
D02*
G37*
G36*
X76704D02*
X81046Y1222540D01*
X85199Y1220820D01*
X89091Y1218572D01*
X92657Y1215836D01*
X95836Y1212657D01*
X98572Y1209091D01*
X100820Y1205199D01*
X102540Y1201046D01*
X103703Y1196704D01*
X104290Y1192247D01*
Y1190000D01*
X87000D01*
X86918Y1191666D01*
X86268Y1194935D01*
X84993Y1198014D01*
X83141Y1200785D01*
X80785Y1203141D01*
X78014Y1204993D01*
X74935Y1206268D01*
X71666Y1206918D01*
X70000Y1207000D01*
Y1224290D01*
X72248D01*
X76704Y1223703D01*
D02*
G37*
G36*
X1573082Y1188334D02*
X1573732Y1185065D01*
X1575007Y1181986D01*
X1576859Y1179215D01*
X1579215Y1176859D01*
X1581986Y1175007D01*
X1585065Y1173732D01*
X1588334Y1173082D01*
X1590000Y1173000D01*
Y1155710D01*
X1587753D01*
X1583296Y1156297D01*
X1578954Y1157460D01*
X1574801Y1159180D01*
X1570909Y1161428D01*
X1567343Y1164164D01*
X1564164Y1167343D01*
X1561428Y1170909D01*
X1559180Y1174801D01*
X1557460Y1178954D01*
X1556297Y1183296D01*
X1555710Y1187753D01*
Y1190000D01*
X1573000D01*
X1573082Y1188334D01*
D02*
G37*
G36*
X53082D02*
X53732Y1185065D01*
X55007Y1181986D01*
X56859Y1179215D01*
X59215Y1176859D01*
X61986Y1175007D01*
X65065Y1173732D01*
X68334Y1173082D01*
X70000Y1173000D01*
X70000Y1155710D01*
X67752D01*
X63296Y1156297D01*
X58954Y1157460D01*
X54801Y1159180D01*
X50909Y1161428D01*
X47343Y1164164D01*
X44164Y1167343D01*
X41428Y1170909D01*
X39180Y1174801D01*
X37460Y1178954D01*
X36297Y1183296D01*
X35710Y1187753D01*
Y1190000D01*
X53000D01*
X53082Y1188334D01*
D02*
G37*
G36*
X359600Y984999D02*
X362600Y982000D01*
X348601Y981999D01*
X351600Y985000D01*
X359600Y984999D01*
D02*
G37*
G36*
X277050D02*
X280050Y982000D01*
X266050Y981999D01*
X269050Y985000D01*
X277050Y984999D01*
D02*
G37*
G36*
X199898D02*
X202897Y982000D01*
X188898Y981999D01*
X191897Y985000D01*
X199898Y984999D01*
D02*
G37*
G36*
X118300D02*
X121300Y982000D01*
X107301Y981999D01*
X110300Y985000D01*
X118300Y984999D01*
D02*
G37*
G36*
X675008Y953400D02*
X678007Y950400D01*
X664008Y950399D01*
X667008Y953400D01*
X675008Y953400D01*
D02*
G37*
G36*
X598333D02*
X601332Y950400D01*
X587333Y950399D01*
X590332Y953400D01*
X598333Y953400D01*
D02*
G37*
G36*
X521180D02*
X524180Y950400D01*
X510181Y950399D01*
X513180Y953400D01*
X521180Y953400D01*
D02*
G37*
G36*
X440440D02*
X443440Y950400D01*
X429441Y950399D01*
X432440Y953400D01*
X440440Y953400D01*
D02*
G37*
G36*
X1185850Y729600D02*
X1182850Y732600D01*
X1182850Y740601D01*
X1185851Y743600D01*
X1185850Y729600D01*
D02*
G37*
G36*
X238922Y523650D02*
X235922Y526650D01*
X235923Y534650D01*
X238923Y537650D01*
X238922Y523650D01*
D02*
G37*
G36*
X1299400Y434200D02*
X1291400Y434200D01*
X1288400Y437200D01*
X1302399Y437201D01*
X1299400Y434200D01*
D02*
G37*
G36*
X830901Y399400D02*
X827900Y402400D01*
X827900Y410400D01*
X830900Y413400D01*
X830901Y399400D01*
D02*
G37*
G36*
X449800Y292599D02*
X449799Y284599D01*
X446799Y281599D01*
X446799Y295600D01*
X449800Y292599D01*
D02*
G37*
G36*
X449800Y165450D02*
X449799Y157449D01*
X446799Y154449D01*
X446800Y168450D01*
X449800Y165450D01*
D02*
G37*
G36*
X766000Y116700D02*
X758000Y116700D01*
X755000Y119700D01*
X768999Y119701D01*
X766000Y116700D01*
D02*
G37*
G36*
X1596704Y103703D02*
X1601046Y102540D01*
X1605199Y100820D01*
X1609091Y98572D01*
X1612657Y95836D01*
X1615836Y92657D01*
X1618572Y89091D01*
X1620820Y85199D01*
X1622540Y81046D01*
X1623703Y76704D01*
X1624290Y72248D01*
Y70000D01*
X1607000D01*
X1606918Y71666D01*
X1606268Y74935D01*
X1604993Y78014D01*
X1603141Y80785D01*
X1600785Y83141D01*
X1598014Y84993D01*
X1594935Y86268D01*
X1591666Y86918D01*
X1590000Y87000D01*
Y104290D01*
X1592247D01*
X1596704Y103703D01*
D02*
G37*
G36*
X76704D02*
X81046Y102540D01*
X85199Y100820D01*
X89091Y98572D01*
X92657Y95836D01*
X95836Y92657D01*
X98572Y89091D01*
X100820Y85199D01*
X102540Y81046D01*
X103703Y76704D01*
X104290Y72248D01*
Y70000D01*
X87000D01*
X86918Y71666D01*
X86268Y74935D01*
X84993Y78014D01*
X83141Y80785D01*
X80785Y83141D01*
X78014Y84993D01*
X74935Y86268D01*
X71666Y86918D01*
X70000Y87000D01*
Y104290D01*
X72248D01*
X76704Y103703D01*
D02*
G37*
G36*
X1573082Y68334D02*
X1573732Y65065D01*
X1575007Y61986D01*
X1576859Y59215D01*
X1579215Y56859D01*
X1581986Y55007D01*
X1585065Y53732D01*
X1588334Y53082D01*
X1590000Y53000D01*
Y35710D01*
X1587753D01*
X1583296Y36297D01*
X1578954Y37460D01*
X1574801Y39180D01*
X1570909Y41428D01*
X1567343Y44164D01*
X1564164Y47343D01*
X1561428Y50909D01*
X1559180Y54801D01*
X1557460Y58954D01*
X1556297Y63296D01*
X1555710Y67752D01*
Y70000D01*
X1573000D01*
X1573082Y68334D01*
D02*
G37*
G36*
X53082D02*
X53732Y65065D01*
X55007Y61986D01*
X56859Y59215D01*
X59215Y56859D01*
X61986Y55007D01*
X65065Y53732D01*
X68334Y53082D01*
X70000Y53000D01*
X70000Y35710D01*
X67752D01*
X63296Y36297D01*
X58954Y37460D01*
X54801Y39180D01*
X50909Y41428D01*
X47343Y44164D01*
X44164Y47343D01*
X41428Y50909D01*
X39180Y54801D01*
X37460Y58954D01*
X36297Y63296D01*
X35710Y67752D01*
Y70000D01*
X53000D01*
X53082Y68334D01*
D02*
G37*
D10*
X225553Y872500D02*
G03*
X225553Y872500I-2000J0D01*
G01*
X232553Y889500D02*
G03*
X232553Y889500I-2000J0D01*
G01*
X1042850Y1013948D02*
G03*
X1042850Y1013948I-2000J0D01*
G01*
X1035850Y995948D02*
G03*
X1035850Y995948I-2000J0D01*
G01*
X1002098Y456000D02*
G03*
X1002098Y456000I-1000J0D01*
G01*
X343172Y685150D02*
G03*
X343172Y685150I-2000J0D01*
G01*
X343572Y570850D02*
G03*
X343572Y570850I-2000J0D01*
G01*
X464685Y654318D02*
G03*
X464685Y752842I-13200J49262D01*
G01*
X438285D02*
G03*
X438285Y654318I13200J-49262D01*
G01*
X551950Y754112D02*
G03*
X551950Y655588I13200J-49262D01*
G01*
X578350D02*
G03*
X578350Y754112I-13200J49262D01*
G01*
X568570Y626750D02*
G03*
X568570Y626750I-2000J0D01*
G01*
X564800Y480550D02*
G03*
X564800Y480550I-2000J0D01*
G01*
X92852Y889500D02*
G03*
X92852Y889500I-2000J0D01*
G01*
X85852Y872500D02*
G03*
X85852Y872500I-2000J0D01*
G01*
X1547862Y908550D02*
G03*
X1449338Y908550I-49262J-13200D01*
G01*
Y882150D02*
G03*
X1547862Y882150I49262J13200D01*
G01*
X1214388D02*
G03*
X1312912Y882150I49262J13200D01*
G01*
Y908550D02*
G03*
X1214388Y908550I-49262J-13200D01*
G01*
X199000Y101792D02*
G03*
X174000Y101792I-12500J21651D01*
G01*
X213500Y89443D02*
G03*
X220500Y96443I0J7000D01*
G01*
X152500D02*
G03*
X159500Y89443I7000J0D01*
G01*
X147883Y308025D02*
G03*
X154883Y301026I7000J0D01*
G01*
X208883D02*
G03*
X215883Y308025I0J7000D01*
G01*
X194383Y313375D02*
G03*
X169383Y313375I-12500J21651D01*
G01*
X339083Y367026D02*
G03*
X332082Y374026I-7000J0D01*
G01*
X278083D02*
G03*
X271082Y367026I0J-7000D01*
G01*
X292582Y361677D02*
G03*
X317582Y361677I12500J-21651D01*
G01*
X269500Y96443D02*
G03*
X276500Y89443I7000J0D01*
G01*
X330500D02*
G03*
X337500Y96443I0J7000D01*
G01*
X316000Y101792D02*
G03*
X291000Y101792I-12500J21651D01*
G01*
X87000Y70000D02*
G03*
X87000Y70000I-17000J0D01*
G01*
X104290D02*
G03*
X104290Y70000I-34290J0D01*
G01*
X751350Y867300D02*
G03*
X751350Y867300I-2000J0D01*
G01*
X744350Y850300D02*
G03*
X744350Y850300I-2000J0D01*
G01*
X878717Y867300D02*
G03*
X878717Y867300I-2000J0D01*
G01*
X871717Y850300D02*
G03*
X871717Y850300I-2000J0D01*
G01*
X369893Y840900D02*
G03*
X369893Y840900I-2000J0D01*
G01*
X376893Y857900D02*
G03*
X376893Y857900I-2000J0D01*
G01*
X529293D02*
G03*
X529293Y857900I-2000J0D01*
G01*
X522293Y840900D02*
G03*
X522293Y840900I-2000J0D01*
G01*
X1624290Y70000D02*
G03*
X1624290Y70000I-34290J0D01*
G01*
X1607000D02*
G03*
X1607000Y70000I-17000J0D01*
G01*
X104290Y1190000D02*
G03*
X104290Y1190000I-34290J0D01*
G01*
X87000D02*
G03*
X87000Y1190000I-17000J0D01*
G01*
X1624290D02*
G03*
X1624290Y1190000I-34290J0D01*
G01*
X1607000D02*
G03*
X1607000Y1190000I-17000J0D01*
G01*
X222552Y877499D02*
Y919500D01*
X225553D01*
X222552Y877499D02*
X225553D01*
X273552D02*
X276553D01*
X273552Y919500D02*
X276553D01*
Y877499D02*
Y919500D01*
X268050Y985000D02*
X278050D01*
X283050Y980000D01*
X263050D02*
X268050Y985000D01*
X263050Y964000D02*
Y980000D01*
X283050Y964000D02*
Y980000D01*
X263050Y940999D02*
X283050D01*
Y960000D01*
X263050Y940999D02*
Y960000D01*
X267050Y959000D02*
X273050Y965000D01*
X267050Y959000D02*
X279050D01*
X273050Y965000D02*
X279050Y959000D01*
X136350Y1028900D02*
Y1091100D01*
Y1028900D02*
X203650D01*
Y1091100D01*
X201500D02*
X203650D01*
X136350D02*
X138500D01*
X216350Y1028900D02*
Y1091100D01*
Y1028900D02*
X283650D01*
Y1091100D01*
X281500D02*
X283650D01*
X216350D02*
X218500D01*
X195898Y965000D02*
X201898Y959000D01*
X189897D02*
X201898D01*
X189897D02*
X195898Y965000D01*
X185898Y940999D02*
Y960000D01*
X205898Y940999D02*
Y960000D01*
X185898Y940999D02*
X205898D01*
Y964000D02*
Y980000D01*
X185898Y964000D02*
Y980000D01*
X190897Y985000D01*
X200898D02*
X205898Y980000D01*
X190897Y985000D02*
X200898D01*
X720250Y115700D02*
X740250D01*
X720250Y163700D02*
X740250D01*
X740251Y115700D02*
Y137700D01*
Y141700D02*
Y163700D01*
X720250Y115700D02*
Y137700D01*
Y141700D02*
Y163700D01*
X759450Y225200D02*
X775450D01*
X759450Y210200D02*
Y225200D01*
X775450Y210200D02*
Y225200D01*
Y191200D02*
Y206200D01*
X759450Y191200D02*
Y206200D01*
Y191200D02*
X775450D01*
X1553150Y961150D02*
Y977100D01*
Y1105700D02*
Y1121650D01*
X1441650D02*
X1464150D01*
X1530650D02*
X1553150D01*
X1441650Y961150D02*
Y977100D01*
Y1105700D02*
Y1121650D01*
Y961150D02*
X1464150D01*
X1530650D02*
X1553150D01*
X121920Y482600D02*
Y787400D01*
X600Y482600D02*
Y787400D01*
X121920D01*
X600Y482600D02*
X121920D01*
X28600D02*
Y787400D01*
X600Y495900D02*
X16600Y500900D01*
Y515900D01*
X600Y521900D02*
X16600Y515900D01*
X600Y546700D02*
X16600Y551700D01*
Y566700D01*
X600Y572700D02*
X16600Y566700D01*
X600Y597500D02*
X16600Y602500D01*
Y617500D01*
X600Y623500D02*
X16600Y617500D01*
X600Y648300D02*
X16600Y653300D01*
Y668300D01*
X600Y674300D02*
X16600Y668300D01*
X600Y699100D02*
X16600Y704100D01*
Y719100D01*
X600Y725100D02*
X16600Y719100D01*
X600Y749900D02*
X16600Y754900D01*
Y769900D01*
X600Y775900D02*
X16600Y769900D01*
X131922Y488522D02*
X137372D01*
X165872D02*
X171322D01*
Y534221D01*
X131922D02*
X137372D01*
X165872D02*
X171322D01*
X131922Y488522D02*
Y534221D01*
X181820Y488522D02*
X187270D01*
X215770D02*
X221220D01*
Y534221D01*
X181820D02*
X187270D01*
X215770D02*
X221220D01*
X181820Y488522D02*
Y534221D01*
X133573Y714050D02*
X164372D01*
X133472Y713750D02*
Y775760D01*
X195372D01*
Y714050D02*
Y775760D01*
X164372Y714050D02*
X195472Y714150D01*
X132972Y553510D02*
X194872D01*
X132972D02*
Y614750D01*
X132872Y614550D02*
X194772D01*
X194872Y553510D02*
Y613650D01*
X308809Y520650D02*
X330809D01*
X334809D02*
X356809D01*
X308809Y540652D02*
X330809D01*
X334809D02*
X356809D01*
X308809Y520650D02*
Y540650D01*
X356809Y520650D02*
Y540650D01*
X268922Y530650D02*
X272922D01*
X258922D02*
X262922D01*
Y526650D02*
Y534650D01*
Y530650D02*
X268922Y536650D01*
Y524650D02*
Y536650D01*
X262922Y530650D02*
X268922Y524650D01*
X257922Y538650D02*
X273922D01*
X241922Y520650D02*
X257032D01*
X241922Y540650D02*
X257032D01*
X274812D02*
X293922D01*
X274812Y520650D02*
X293922D01*
Y540650D01*
X235922Y526650D02*
Y534650D01*
X241922Y540650D01*
X235922Y526650D02*
X241922Y520650D01*
X257922Y522650D02*
X273922D01*
X1298100Y961150D02*
X1320600D01*
X1209100D02*
X1231600D01*
X1209100Y1105700D02*
Y1121650D01*
Y961150D02*
Y977100D01*
X1298100Y1121650D02*
X1320600D01*
X1209100D02*
X1231600D01*
X1320600Y1105700D02*
Y1121650D01*
Y961150D02*
Y977100D01*
X1134850Y1004949D02*
X1138850D01*
X1134850Y1080948D02*
X1138850D01*
Y1004949D02*
Y1080948D01*
X1032850Y1004949D02*
Y1080948D01*
X1036850D01*
X1032850Y1004949D02*
X1036850D01*
X296350Y1091100D02*
X298500D01*
X361500D02*
X363650D01*
Y1028900D02*
Y1091100D01*
X296350Y1028900D02*
X363650D01*
X296350D02*
Y1091100D01*
X56350Y1028900D02*
Y1091100D01*
Y1028900D02*
X123650D01*
Y1091100D01*
X121500D02*
X123650D01*
X56350D02*
X58500D01*
X1365950Y906400D02*
Y922400D01*
X1380950D01*
X1365950Y906400D02*
X1380950D01*
X1384950D02*
X1399950D01*
X1384950Y922400D02*
X1399950D01*
Y906400D02*
Y922400D01*
X1490500Y708917D02*
Y724918D01*
Y708917D02*
X1505500D01*
X1490500Y724918D02*
X1505500D01*
X1509500D02*
X1524500D01*
X1509500Y708917D02*
X1524500D01*
Y724918D01*
X1490500Y685835D02*
Y701835D01*
Y685835D02*
X1505500D01*
X1490500Y701835D02*
X1505500D01*
X1509500D02*
X1524500D01*
X1509500Y685835D02*
X1524500D01*
Y701835D01*
X1524500Y732000D02*
Y748000D01*
X1509500Y732000D02*
X1524500D01*
X1509500Y748000D02*
X1524500D01*
X1490500D02*
X1505500D01*
X1490500Y732000D02*
X1505500D01*
X1490500D02*
Y748000D01*
X1576000Y677500D02*
X1589000D01*
X1576000Y767500D02*
X1589000D01*
X1617000D02*
X1628000D01*
Y677500D02*
Y767500D01*
X1617000Y677500D02*
X1628000D01*
X1578000Y795000D02*
X1582000D01*
X1568000D02*
X1572000D01*
Y791000D02*
Y799000D01*
Y795000D02*
X1578000Y801000D01*
Y789000D02*
Y801000D01*
X1572000Y795000D02*
X1578000Y789000D01*
X1551000Y810000D02*
X1599000D01*
X1546000Y805000D02*
X1551000Y810000D01*
Y780000D02*
X1599000D01*
X1546000Y785000D02*
X1551000Y780000D01*
X1599000Y805000D02*
Y810000D01*
Y780000D02*
Y785000D01*
X1495400Y643720D02*
X1541200D01*
X1495400Y606521D02*
Y643720D01*
Y523320D02*
Y560520D01*
Y523320D02*
X1541200D01*
X1587200D02*
X1610000D01*
Y560520D01*
Y606521D02*
Y643720D01*
X1587200D02*
X1610000D01*
X1277000Y542000D02*
Y558000D01*
X1262000D02*
X1277000D01*
X1262000Y542000D02*
X1277000D01*
X1243000D02*
X1258000D01*
X1243000Y558000D02*
X1258000D01*
X1243000Y542000D02*
Y558000D01*
X1231232Y481200D02*
X1251232D01*
X1231232Y433200D02*
X1251232D01*
X1231232D02*
Y455200D01*
Y459200D02*
Y481200D01*
X1251234Y433200D02*
Y455200D01*
Y459200D02*
Y481200D01*
X1014099Y452000D02*
X1018099D01*
X1014099Y418000D02*
X1018099D01*
X1002098Y433000D02*
Y437000D01*
X1030098Y433000D02*
Y437000D01*
X1032000Y392000D02*
Y408000D01*
X1017000Y392000D02*
X1032000D01*
X1017000Y408000D02*
X1032000D01*
X998000D02*
X1013000D01*
X998000Y392000D02*
X1013000D01*
X998000D02*
Y408000D01*
X977000Y452000D02*
X993000D01*
Y437000D02*
Y452000D01*
X977000Y437000D02*
Y452000D01*
Y418000D02*
Y433000D01*
X993000Y418000D02*
Y433000D01*
X977000Y418000D02*
X993000D01*
X1112000Y447000D02*
X1128000D01*
Y432000D02*
Y447000D01*
X1112000Y432000D02*
Y447000D01*
Y413000D02*
Y428000D01*
X1128000Y413000D02*
Y428000D01*
X1112000Y413000D02*
X1128000D01*
X491270Y505750D02*
Y507750D01*
Y571750D02*
Y573750D01*
X553270D01*
Y505750D02*
Y573750D01*
X491270Y505750D02*
X553270D01*
X222167Y767199D02*
X229237Y774141D01*
X222167Y675101D02*
X228228Y669150D01*
X323172D02*
Y774150D01*
X229228D02*
X323172D01*
X228228Y669150D02*
X323172D01*
X490000Y359700D02*
Y361700D01*
Y425700D02*
Y427700D01*
X552000D01*
Y359700D02*
Y427700D01*
X490000Y359700D02*
X552000D01*
X905500Y667020D02*
X1009500D01*
X905500Y727500D02*
X1009500D01*
X919500Y675500D02*
X995500D01*
X905500Y667020D02*
Y727500D01*
X1009500Y667020D02*
Y727500D01*
X919500Y667020D02*
Y675500D01*
X995500Y667020D02*
Y675500D01*
X228628Y554850D02*
X323572D01*
X229628Y659850D02*
X323572D01*
Y554850D02*
Y659850D01*
X222567Y560801D02*
X228628Y554850D01*
X222567Y652899D02*
X229637Y659841D01*
X893700Y810750D02*
X909700D01*
X893700Y795750D02*
Y810750D01*
X909700Y795750D02*
Y810750D01*
Y776750D02*
Y791750D01*
X893700Y776750D02*
Y791750D01*
Y776750D02*
X909700D01*
X919100Y810750D02*
X935100D01*
X919100Y795750D02*
Y810750D01*
X935100Y795750D02*
Y810750D01*
Y776750D02*
Y791750D01*
X919100Y776750D02*
Y791750D01*
Y776750D02*
X935100D01*
X868300Y810750D02*
X884300D01*
X868300Y795750D02*
Y810750D01*
X884300Y795750D02*
Y810750D01*
Y776750D02*
Y791750D01*
X868300Y776750D02*
Y791750D01*
Y776750D02*
X884300D01*
X504485Y650580D02*
Y739580D01*
X463485Y650580D02*
X504485D01*
X487485Y756580D02*
X504485Y739580D01*
X463485Y756580D02*
X487485D01*
X415485D02*
X439485D01*
X398485Y739580D02*
X415485Y756580D01*
X398485Y650580D02*
X439485D01*
X398485D02*
Y739580D01*
X722250Y675150D02*
X738250D01*
X722250D02*
Y690150D01*
X738250Y675150D02*
Y690150D01*
Y694150D02*
Y709150D01*
X722250Y694150D02*
Y709150D01*
X738250D01*
X696850Y675150D02*
X712850D01*
X696850D02*
Y690150D01*
X712850Y675150D02*
Y690150D01*
Y694150D02*
Y709150D01*
X696850Y694150D02*
Y709150D01*
X712850D01*
X512150Y651850D02*
Y740850D01*
Y651850D02*
X553150D01*
X512150Y740850D02*
X529150Y757850D01*
X553150D01*
X577150D02*
X601150D01*
X618150Y740850D01*
X577150Y651850D02*
X618150D01*
Y740850D01*
X773050Y709150D02*
X789050D01*
X773050Y694150D02*
Y709150D01*
X789050Y694150D02*
Y709150D01*
Y675150D02*
Y690150D01*
X773050Y675150D02*
Y690150D01*
Y675150D02*
X789050D01*
X747650D02*
X763650D01*
X747650D02*
Y690150D01*
X763650Y675150D02*
Y690150D01*
Y694150D02*
Y709150D01*
X747650Y694150D02*
Y709150D01*
X763650D01*
X922000Y562000D02*
X938000D01*
Y547000D02*
Y562000D01*
X922000Y547000D02*
Y562000D01*
Y528000D02*
Y543000D01*
X938000Y528000D02*
Y543000D01*
X922000Y528000D02*
X938000D01*
X897000Y562000D02*
X913000D01*
Y547000D02*
Y562000D01*
X897000Y547000D02*
Y562000D01*
Y528000D02*
Y543000D01*
X913000Y528000D02*
Y543000D01*
X897000Y528000D02*
X913000D01*
X925450Y440200D02*
X941450D01*
Y455200D01*
X925450Y440200D02*
Y455200D01*
Y459200D02*
Y474200D01*
X941450Y459200D02*
Y474200D01*
X925450D02*
X941450D01*
X787020Y513860D02*
X803020D01*
X787020D02*
Y528860D01*
X803020Y513860D02*
Y528860D01*
Y532860D02*
Y547860D01*
X787020Y532860D02*
Y547860D01*
X803020D01*
X900050Y440200D02*
X916050D01*
Y455200D01*
X900050Y440200D02*
Y455200D01*
Y459200D02*
Y474200D01*
X916050Y459200D02*
Y474200D01*
X900050D02*
X916050D01*
X835900Y512750D02*
Y514750D01*
Y512750D02*
X865900D01*
Y514750D01*
X868900Y517750D01*
X832900D02*
X835900Y514750D01*
X832900Y561750D02*
X835900Y564750D01*
X865900D02*
X868900Y561750D01*
X823900Y526750D02*
Y552750D01*
X877900Y526750D02*
Y552750D01*
X865900Y564750D02*
Y566750D01*
X835900D02*
X865900D01*
X835900Y564750D02*
Y566750D01*
X835900Y430200D02*
Y432200D01*
Y430200D02*
X865900D01*
Y432200D01*
X868900Y435200D01*
X832900D02*
X835900Y432200D01*
X832900Y479200D02*
X835900Y482200D01*
X865900D02*
X868900Y479200D01*
X823900Y444200D02*
Y470200D01*
X877900Y444200D02*
Y470200D01*
X865900Y482200D02*
Y484200D01*
X835900D02*
X865900D01*
X835900Y482200D02*
Y484200D01*
X477650Y632301D02*
X499650D01*
X503650D02*
X525650D01*
X477650Y612300D02*
X499650D01*
X503650D02*
X525650D01*
Y632300D01*
X477650Y612300D02*
Y632300D01*
X599570Y522668D02*
X621570D01*
X625570D02*
X647570D01*
X625570Y502668D02*
X647570D01*
Y522668D01*
X599570Y502668D02*
X621570D01*
X599570D02*
Y522668D01*
Y549750D02*
X621570D01*
X625570D02*
X647570D01*
X625570Y529750D02*
X647570D01*
Y549750D01*
X599570Y529750D02*
X621570D01*
X599570D02*
Y549750D01*
Y576833D02*
X621570D01*
X625570D02*
X647570D01*
X625570Y556833D02*
X647570D01*
Y576833D01*
X599570Y556833D02*
X621570D01*
X599570D02*
Y576833D01*
X571070Y627750D02*
X575070Y631750D01*
X571070Y624750D02*
Y627750D01*
X610070Y631750D02*
X645070D01*
Y624750D02*
Y631750D01*
X575070D02*
X606070D01*
X575070Y587750D02*
X606070D01*
X645070D02*
Y594750D01*
X610070Y587750D02*
X645070D01*
X571070Y591750D02*
Y594750D01*
Y591750D02*
X575070Y587750D01*
X598300Y371950D02*
X620300D01*
X624300D02*
X646300D01*
X624300Y351950D02*
X646300D01*
Y371950D01*
X598300Y351950D02*
X620300D01*
X598300D02*
Y371950D01*
Y430783D02*
X620300D01*
X624300D02*
X646300D01*
X624300Y410783D02*
X646300D01*
Y430783D01*
X598300Y410783D02*
X620300D01*
X598300D02*
Y430783D01*
X567300Y445550D02*
X571300Y441550D01*
X567300Y445550D02*
Y448550D01*
X606300Y441550D02*
X641300D01*
Y448550D01*
X571300Y441550D02*
X602300D01*
X571300Y485550D02*
X602300D01*
X641300Y478550D02*
Y485550D01*
X606300D02*
X641300D01*
X567300Y478550D02*
Y481550D01*
X571300Y485550D01*
X598300Y403700D02*
X620300D01*
X624300D02*
X646300D01*
X624300Y383700D02*
X646300D01*
Y403700D01*
X598300Y383700D02*
X620300D01*
X598300D02*
Y403700D01*
X53500Y916150D02*
X73500D01*
X53500Y894150D02*
Y916150D01*
Y868150D02*
X73500D01*
X53500D02*
Y890150D01*
X73500Y868150D02*
Y890150D01*
Y894150D02*
Y916150D01*
X136853Y877499D02*
Y919500D01*
X133852D02*
X136853D01*
X133852Y877499D02*
X136853D01*
X82852D02*
X85852D01*
X82852Y919500D02*
X85852D01*
X82852Y877499D02*
Y919500D01*
X968000Y492000D02*
Y508000D01*
Y492000D02*
X983000D01*
X968000Y508000D02*
X983000D01*
X987000D02*
X1002000D01*
X987000Y492000D02*
X1002000D01*
Y508000D01*
X944500Y776750D02*
X960500D01*
X944500D02*
Y791750D01*
X960500Y776750D02*
Y791750D01*
Y795750D02*
Y810750D01*
X944500Y795750D02*
Y810750D01*
X960500D01*
X849250Y709150D02*
X865250D01*
X849250Y694150D02*
Y709150D01*
X865250Y694150D02*
Y709150D01*
Y675150D02*
Y690150D01*
X849250Y675150D02*
Y690150D01*
Y675150D02*
X865250D01*
X874650Y709150D02*
X890650D01*
X874650Y694150D02*
Y709150D01*
X890650Y694150D02*
Y709150D01*
Y675150D02*
Y690150D01*
X874650Y675150D02*
Y690150D01*
Y675150D02*
X890650D01*
X798450D02*
X814450D01*
X798450D02*
Y690150D01*
X814450Y675150D02*
Y690150D01*
Y694150D02*
Y709150D01*
X798450Y694150D02*
Y709150D01*
X814450D01*
X823850Y675150D02*
X839850D01*
X823850D02*
Y690150D01*
X839850Y675150D02*
Y690150D01*
Y694150D02*
Y709150D01*
X823850Y694150D02*
Y709150D01*
X839850D01*
X884700Y398400D02*
Y414400D01*
Y398400D02*
X899700D01*
X884700Y414400D02*
X899700D01*
X903700D02*
X918700D01*
X903700Y398400D02*
X918700D01*
Y414400D01*
X827900Y401400D02*
Y411400D01*
X832900Y416400D01*
X827900Y401400D02*
X832900Y396400D01*
X848900D01*
X832900Y416400D02*
X848900D01*
X871900Y396400D02*
Y416400D01*
X852900D02*
X871900D01*
X852900Y396400D02*
X871900D01*
X847900Y406400D02*
X853900Y400400D01*
Y412400D01*
X847900Y406400D02*
X853900Y412400D01*
X1172700Y728600D02*
Y744600D01*
X1157700D02*
X1172700D01*
X1157700Y728600D02*
X1172700D01*
X1138700D02*
X1153700D01*
X1138700Y744600D02*
X1153700D01*
X1138700Y728600D02*
Y744600D01*
X1215850Y736600D02*
X1219850D01*
X1205850D02*
X1209850D01*
Y732600D02*
Y740600D01*
Y736600D02*
X1215850Y742600D01*
Y730600D02*
Y742600D01*
X1209850Y736600D02*
X1215850Y730600D01*
X1204850Y744600D02*
X1220850D01*
X1188850Y726600D02*
X1203960D01*
X1188850Y746600D02*
X1203960D01*
X1221740D02*
X1240850D01*
X1221740Y726600D02*
X1240850D01*
Y746600D01*
X1182850Y732600D02*
Y740600D01*
X1188850Y746600D01*
X1182850Y732600D02*
X1188850Y726600D01*
X1204850Y728600D02*
X1220850D01*
X1198100Y703200D02*
Y719200D01*
X1183100D02*
X1198100D01*
X1183100Y703200D02*
X1198100D01*
X1164100D02*
X1179100D01*
X1164100Y719200D02*
X1179100D01*
X1164100Y703200D02*
Y719200D01*
X1242550Y703200D02*
Y719200D01*
X1227550D02*
X1242550D01*
X1227550Y703200D02*
X1242550D01*
X1208550D02*
X1223550D01*
X1208550Y719200D02*
X1223550D01*
X1208550Y703200D02*
Y719200D01*
X1532000Y162000D02*
Y178000D01*
X1517000Y162000D02*
X1532000D01*
X1517000Y178000D02*
X1532000D01*
X1498000D02*
X1513000D01*
X1498000Y162000D02*
X1513000D01*
X1498000D02*
Y178000D01*
X1499050Y232700D02*
Y248700D01*
X1514050D01*
X1499050Y232700D02*
X1514050D01*
X1518050D02*
X1533050D01*
X1518050Y248700D02*
X1533050D01*
Y232700D02*
Y248700D01*
X1123500Y492000D02*
Y584000D01*
X1031500Y492000D02*
Y584000D01*
X1123500D01*
X1031500Y492000D02*
X1123500D01*
X1087000Y423000D02*
X1103000D01*
Y438000D01*
X1087000Y423000D02*
Y438000D01*
Y442000D02*
Y457000D01*
X1103000Y442000D02*
Y457000D01*
X1087000D02*
X1103000D01*
X1150599Y471950D02*
X1166599D01*
Y486950D01*
X1150599Y471950D02*
Y486950D01*
Y490950D02*
Y505950D01*
X1166599Y490950D02*
Y505950D01*
X1150599D02*
X1166599D01*
X1187000Y557000D02*
Y573000D01*
X1172000D02*
X1187000D01*
X1172000Y557000D02*
X1187000D01*
X1153000D02*
X1168000D01*
X1153000Y573000D02*
X1168000D01*
X1153000Y557000D02*
Y573000D01*
X1003000Y611099D02*
Y627099D01*
Y611099D02*
X1018000D01*
X1003000Y627099D02*
X1018000D01*
X1022000D02*
X1037000D01*
X1022000Y611099D02*
X1037000D01*
Y627099D01*
X1187000Y581326D02*
Y597326D01*
X1172000D02*
X1187000D01*
X1172000Y581326D02*
X1187000D01*
X1153000D02*
X1168000D01*
X1153000Y597326D02*
X1168000D01*
X1153000Y581326D02*
Y597326D01*
X968000Y467000D02*
Y483000D01*
Y467000D02*
X983000D01*
X968000Y483000D02*
X983000D01*
X987000D02*
X1002000D01*
X987000Y467000D02*
X1002000D01*
Y483000D01*
X1577000Y162000D02*
Y178000D01*
X1562000Y162000D02*
X1577000D01*
X1562000Y178000D02*
X1577000D01*
X1543000D02*
X1558000D01*
X1543000Y162000D02*
X1558000D01*
X1543000D02*
Y178000D01*
X1128650Y150350D02*
X1144650D01*
Y135350D02*
Y150350D01*
X1128650Y135350D02*
Y150350D01*
Y116350D02*
Y131350D01*
X1144650Y116350D02*
Y131350D01*
X1128650Y116350D02*
X1144650D01*
X1052450Y150350D02*
X1068450D01*
Y135350D02*
Y150350D01*
X1052450Y135350D02*
Y150350D01*
Y116350D02*
Y131350D01*
X1068450Y116350D02*
Y131350D01*
X1052450Y116350D02*
X1068450D01*
X792473Y241700D02*
Y291700D01*
Y241700D02*
X820427D01*
Y291700D01*
X792473D02*
X820427D01*
X717950Y284700D02*
Y300700D01*
Y284700D02*
X732950D01*
X717950Y300700D02*
X732950D01*
X736950D02*
X751950D01*
X736950Y284700D02*
X751950D01*
Y300700D01*
X717950Y233519D02*
Y249519D01*
Y233519D02*
X732950D01*
X717950Y249519D02*
X732950D01*
X736950D02*
X751950D01*
X736950Y233519D02*
X751950D01*
Y249519D01*
Y258700D02*
Y274700D01*
X736950Y258700D02*
X751950D01*
X736950Y274700D02*
X751950D01*
X717950D02*
X732950D01*
X717950Y258700D02*
X732950D01*
X717950D02*
Y274700D01*
X906450Y232700D02*
Y248700D01*
Y232700D02*
X921450D01*
X906450Y248700D02*
X921450D01*
X925450D02*
X940450D01*
X925450Y232700D02*
X940450D01*
Y248700D01*
X894950Y233552D02*
Y249552D01*
X879950D02*
X894950D01*
X879950Y233552D02*
X894950D01*
X860950D02*
X875950D01*
X860950Y249552D02*
X875950D01*
X860950Y233552D02*
Y249552D01*
X894950Y258700D02*
Y274700D01*
X879950D02*
X894950D01*
X879950Y258700D02*
X894950D01*
X860950D02*
X875950D01*
X860950Y274700D02*
X875950D01*
X860950Y258700D02*
Y274700D01*
X894950Y284700D02*
Y300700D01*
X879950D02*
X894950D01*
X879950Y284700D02*
X894950D01*
X860950D02*
X875950D01*
X860950Y300700D02*
X875950D01*
X860950Y284700D02*
Y300700D01*
X940450Y258700D02*
Y274700D01*
X925450D02*
X940450D01*
X925450Y258700D02*
X940450D01*
X906450D02*
X921450D01*
X906450Y274700D02*
X921450D01*
X906450Y258700D02*
Y274700D01*
X940450Y284700D02*
Y300700D01*
X925450D02*
X940450D01*
X925450Y284700D02*
X940450D01*
X906450D02*
X921450D01*
X906450Y300700D02*
X921450D01*
X906450Y284700D02*
Y300700D01*
X706450Y232700D02*
Y248700D01*
X691450D02*
X706450D01*
X691450Y232700D02*
X706450D01*
X672450D02*
X687450D01*
X672450Y248700D02*
X687450D01*
X672450Y232700D02*
Y248700D01*
Y284700D02*
Y300700D01*
X687450D01*
X672450Y284700D02*
X687450D01*
X691450D02*
X706450D01*
X691450Y300700D02*
X706450D01*
Y284700D02*
Y300700D01*
X672450Y206700D02*
Y222700D01*
Y206700D02*
X687450D01*
X672450Y222700D02*
X687450D01*
X691450D02*
X706450D01*
X691450Y206700D02*
X706450D01*
Y222700D01*
X672450Y258700D02*
Y274700D01*
Y258700D02*
X687450D01*
X672450Y274700D02*
X687450D01*
X691450D02*
X706450D01*
X691450Y258700D02*
X706450D01*
Y274700D01*
X811450Y225200D02*
X827450D01*
X811450Y210200D02*
Y225200D01*
X827450Y210200D02*
Y225200D01*
Y191200D02*
Y206200D01*
X811450Y191200D02*
Y206200D01*
Y191200D02*
X827450D01*
X785450Y225200D02*
X801450D01*
X785450Y210200D02*
Y225200D01*
X801450Y210200D02*
Y225200D01*
Y191200D02*
Y206200D01*
X785450Y191200D02*
Y206200D01*
Y191200D02*
X801450D01*
X837450Y225200D02*
X853450D01*
X837450Y210200D02*
Y225200D01*
X853450Y210200D02*
Y225200D01*
Y191200D02*
Y206200D01*
X837450Y191200D02*
Y206200D01*
Y191200D02*
X853450D01*
X1403053Y194450D02*
X1419053D01*
X1403053D02*
Y209450D01*
X1419053Y194450D02*
Y209450D01*
Y213450D02*
Y228450D01*
X1403053Y213450D02*
Y228450D01*
X1419053D01*
X1426135Y194450D02*
X1442135D01*
X1426135D02*
Y209450D01*
X1442135Y194450D02*
Y209450D01*
Y213450D02*
Y228450D01*
X1426135Y213450D02*
Y228450D01*
X1442135D01*
X1449218Y194450D02*
X1465218D01*
X1449218D02*
Y209450D01*
X1465218Y194450D02*
Y209450D01*
Y213450D02*
Y228450D01*
X1449218Y213450D02*
Y228450D01*
X1465218D01*
X1472300Y194450D02*
X1488300D01*
X1472300D02*
Y209450D01*
X1488300Y194450D02*
Y209450D01*
Y213450D02*
Y228450D01*
X1472300Y213450D02*
Y228450D01*
X1488300D01*
X533800Y200900D02*
X583800D01*
Y230900D01*
X533800D02*
X583800D01*
X533800Y200900D02*
Y230900D01*
X557150Y129050D02*
X573150D01*
X557150D02*
Y144050D01*
X573150Y129050D02*
Y144050D01*
Y148050D02*
Y163050D01*
X557150Y148050D02*
Y163050D01*
X573150D01*
X593384Y239900D02*
X613384D01*
X593384Y191900D02*
X613384D01*
X593383Y217900D02*
Y239900D01*
Y191900D02*
Y213900D01*
X613384Y217900D02*
Y239900D01*
Y191900D02*
Y213900D01*
X523400Y163700D02*
X543400D01*
X523400Y115700D02*
X543400D01*
X523399Y141700D02*
Y163700D01*
Y115700D02*
Y137700D01*
X543400Y141700D02*
Y163700D01*
Y115700D02*
Y137700D01*
X535450Y258732D02*
Y274732D01*
X550450D01*
X535450Y258732D02*
X550450D01*
X554450D02*
X569450D01*
X554450Y274732D02*
X569450D01*
Y258732D02*
Y274732D01*
X580550Y115700D02*
X600550D01*
X580550Y163700D02*
X600550D01*
X600551Y115700D02*
Y137700D01*
Y141700D02*
Y163700D01*
X580550Y115700D02*
Y137700D01*
Y141700D02*
Y163700D01*
X1462600Y948350D02*
X1551600D01*
Y907350D02*
Y948350D01*
X1445600Y931350D02*
X1462600Y948350D01*
X1445600Y907350D02*
Y931350D01*
Y859350D02*
Y883350D01*
Y859350D02*
X1462600Y842350D01*
X1551600D02*
Y883350D01*
X1462600Y842350D02*
X1551600D01*
X1227650D02*
X1316650D01*
Y883350D01*
X1210650Y859350D02*
X1227650Y842350D01*
X1210650Y859350D02*
Y883350D01*
Y907350D02*
Y931350D01*
X1227650Y948350D01*
X1316650Y907350D02*
Y948350D01*
X1227650D02*
X1316650D01*
X190501Y110443D02*
Y119443D01*
X182500Y110443D02*
X190501D01*
X182500D02*
Y119443D01*
X190501D02*
X199500D01*
X173500D02*
X182500D01*
Y127443D02*
Y136443D01*
X173500Y127443D02*
X182500D01*
X173500Y119443D02*
Y127443D01*
X182500Y136443D02*
X190501D01*
Y127443D02*
Y136443D01*
Y127443D02*
X199500D01*
Y119443D02*
Y127443D01*
X152500Y162443D02*
X220500D01*
Y96443D02*
Y162443D01*
X159500Y89443D02*
X213500D01*
X152500Y96443D02*
Y162443D01*
X147882Y308025D02*
Y374026D01*
X154883Y301026D02*
X208883D01*
X215883Y308025D02*
Y374026D01*
X147882D02*
X215883D01*
X194883Y331026D02*
Y339025D01*
X185883D02*
X194883D01*
X185883D02*
Y348026D01*
X177883D02*
X185883D01*
X168883Y331026D02*
Y339025D01*
X177883D01*
Y348026D01*
X168883Y331026D02*
X177883D01*
X185883D02*
X194883D01*
X177883Y322025D02*
Y331026D01*
Y322025D02*
X185883D01*
Y331026D01*
X339083Y301026D02*
Y367026D01*
X278083Y374026D02*
X332083D01*
X271082Y301026D02*
Y367026D01*
Y301026D02*
X339083D01*
X292083Y336026D02*
Y344026D01*
Y336026D02*
X301082D01*
Y327026D02*
Y336026D01*
Y327026D02*
X309082D01*
X318083Y336026D02*
Y344026D01*
X309082Y336026D02*
X318083D01*
X309082Y327026D02*
Y336026D01*
Y344026D02*
X318083D01*
X292083D02*
X301082D01*
X309082D02*
Y353026D01*
X301082D02*
X309082D01*
X301082Y344026D02*
Y353026D01*
X269500Y96443D02*
Y162443D01*
X276500Y89443D02*
X330500D01*
X337500Y96443D02*
Y162443D01*
X269500D02*
X337500D01*
X316500Y119443D02*
Y127443D01*
X307500D02*
X316500D01*
X307500D02*
Y136443D01*
X299500D02*
X307500D01*
X290500Y119443D02*
Y127443D01*
X299500D01*
Y136443D01*
X290500Y119443D02*
X299500D01*
X307500D02*
X316500D01*
X299500Y110443D02*
Y119443D01*
Y110443D02*
X307500D01*
Y119443D01*
X199025Y208943D02*
Y258943D01*
X171072D02*
X199025D01*
X171072Y208943D02*
Y258943D01*
Y208943D02*
X199025D01*
X241000Y199943D02*
Y215943D01*
X256000D01*
X241000Y199943D02*
X256000D01*
X260000D02*
X275000D01*
X260000Y215943D02*
X275000D01*
Y199943D02*
Y215943D01*
X275000Y225943D02*
Y241943D01*
X260000D02*
X275000D01*
X260000Y225943D02*
X275000D01*
X241000D02*
X256000D01*
X241000Y241943D02*
X256000D01*
X241000Y225943D02*
Y241943D01*
X228000Y141443D02*
Y157443D01*
X243000D01*
X228000Y141443D02*
X243000D01*
X247000D02*
X262000D01*
X247000Y157443D02*
X262000D01*
Y141443D02*
Y157443D01*
X250000Y102443D02*
X261000D01*
Y118443D01*
X240000D02*
X250000D01*
X229000Y102443D02*
Y118443D01*
Y102443D02*
X240000D01*
X275000Y173943D02*
Y189943D01*
X260000D02*
X275000D01*
X260000Y173943D02*
X275000D01*
X241000D02*
X256000D01*
X241000Y189943D02*
X256000D01*
X241000Y173943D02*
Y189943D01*
X189000Y173943D02*
Y189943D01*
X204000D01*
X189000Y173943D02*
X204000D01*
X208000D02*
X223000D01*
X208000Y189943D02*
X223000D01*
Y173943D02*
Y189943D01*
X241000Y251943D02*
Y267944D01*
X256000D01*
X241000Y251943D02*
X256000D01*
X260000D02*
X275000D01*
X260000Y267944D02*
X275000D01*
Y251943D02*
Y267944D01*
X253000Y349443D02*
Y360443D01*
X237000D02*
X253000D01*
X237000Y339443D02*
Y349443D01*
Y328443D02*
X253000D01*
Y339443D01*
X228000Y305360D02*
Y321360D01*
X243000D01*
X228000Y305360D02*
X243000D01*
X247000D02*
X262000D01*
X247000Y321360D02*
X262000D01*
Y305360D02*
Y321360D01*
X223000Y277944D02*
Y293944D01*
X208000D02*
X223000D01*
X208000Y277944D02*
X223000D01*
X189000D02*
X204000D01*
X189000Y293944D02*
X204000D01*
X189000Y277944D02*
Y293944D01*
X241000Y277943D02*
Y293943D01*
X256000D01*
X241000Y277943D02*
X256000D01*
X260000D02*
X275000D01*
X260000Y293943D02*
X275000D01*
Y277943D02*
Y293943D01*
X143500Y173943D02*
Y189943D01*
X158500D01*
X143500Y173943D02*
X158500D01*
X162500D02*
X177500D01*
X162500Y189943D02*
X177500D01*
Y173943D02*
Y189943D01*
Y277943D02*
Y293943D01*
X162500D02*
X177500D01*
X162500Y277943D02*
X177500D01*
X143500D02*
X158500D01*
X143500Y293943D02*
X158500D01*
X143500Y277943D02*
Y293943D01*
X98000Y238943D02*
Y254943D01*
X113000D01*
X98000Y238943D02*
X113000D01*
X117000D02*
X132000D01*
X117000Y254943D02*
X132000D01*
Y238943D02*
Y254943D01*
Y186943D02*
Y202943D01*
X117000D02*
X132000D01*
X117000Y186943D02*
X132000D01*
X98000D02*
X113000D01*
X98000Y202943D02*
X113000D01*
X98000Y186943D02*
Y202943D01*
Y160943D02*
Y176943D01*
X113000D01*
X98000Y160943D02*
X113000D01*
X117000D02*
X132000D01*
X117000Y176943D02*
X132000D01*
Y160943D02*
Y176943D01*
X132000Y134943D02*
Y150943D01*
X117000D02*
X132000D01*
X117000Y134943D02*
X132000D01*
X98000D02*
X113000D01*
X98000Y150943D02*
X113000D01*
X98000Y134943D02*
Y150943D01*
Y212943D02*
Y228943D01*
X113000D01*
X98000Y212943D02*
X113000D01*
X117000D02*
X132000D01*
X117000Y228943D02*
X132000D01*
Y212943D02*
Y228943D01*
X132000Y316943D02*
Y332943D01*
X117000D02*
X132000D01*
X117000Y316943D02*
X132000D01*
X98000D02*
X113000D01*
X98000Y332943D02*
X113000D01*
X98000Y316943D02*
Y332943D01*
Y290943D02*
Y306943D01*
X113000D01*
X98000Y290943D02*
X113000D01*
X117000D02*
X132000D01*
X117000Y306943D02*
X132000D01*
Y290943D02*
Y306943D01*
X132000Y264943D02*
Y280943D01*
X117000D02*
X132000D01*
X117000Y264943D02*
X132000D01*
X98000D02*
X113000D01*
X98000Y280943D02*
X113000D01*
X98000Y264943D02*
Y280943D01*
X346700Y306000D02*
Y322000D01*
X361700D01*
X346700Y306000D02*
X361700D01*
X365700D02*
X380700D01*
X365700Y322000D02*
X380700D01*
Y306000D02*
Y322000D01*
Y331400D02*
Y347400D01*
X365700Y331400D02*
X380700D01*
X365700Y347400D02*
X380700D01*
X346700D02*
X361700D01*
X346700Y331400D02*
X361700D01*
X346700D02*
Y347400D01*
X425150Y331400D02*
Y347400D01*
X410150Y331400D02*
X425150D01*
X410150Y347400D02*
X425150D01*
X391150D02*
X406150D01*
X391150Y331400D02*
X406150D01*
X391150D02*
Y347400D01*
X346700Y255200D02*
Y271200D01*
X361700D01*
X346700Y255200D02*
X361700D01*
X365700D02*
X380700D01*
X365700Y271200D02*
X380700D01*
Y255200D02*
Y271200D01*
X346700Y229800D02*
Y245800D01*
Y229800D02*
X361700D01*
X346700Y245800D02*
X361700D01*
X365700D02*
X380700D01*
X365700Y229800D02*
X380700D01*
Y245800D01*
X422500Y255500D02*
Y266499D01*
X406500D02*
X422500D01*
X406500Y245500D02*
Y255500D01*
Y234499D02*
X422500D01*
Y245500D01*
X425150Y306000D02*
Y322000D01*
X410149D02*
X425150D01*
X410149Y306000D02*
X425150D01*
X391150D02*
X406150D01*
X391150Y322000D02*
X406150D01*
X391150Y306000D02*
Y322000D01*
X346700Y280600D02*
Y296600D01*
X361700D01*
X346700Y280600D02*
X361700D01*
X365700D02*
X380700D01*
X365700Y296600D02*
X380700D01*
Y280600D02*
Y296600D01*
X411800D02*
X427799D01*
X443800Y298600D02*
X449799Y292600D01*
X443800Y278600D02*
X449799Y284600D01*
Y292600D01*
X391799Y278600D02*
Y298600D01*
X410910D01*
X391799Y278600D02*
X410910D01*
X428689D02*
X443800D01*
X428689Y298600D02*
X443800D01*
X411800Y280600D02*
X427799D01*
X416799Y294600D02*
X422799Y288600D01*
X416799Y282600D02*
Y294600D01*
Y282600D02*
X422799Y288600D01*
Y284600D02*
Y292600D01*
Y288600D02*
X426799D01*
X412799D02*
X416799D01*
X411800Y169450D02*
X427799D01*
X443800Y171450D02*
X449799Y165450D01*
X443800Y151450D02*
X449799Y157450D01*
Y165450D01*
X391800Y151450D02*
Y171450D01*
X410910D01*
X391800Y151450D02*
X410910D01*
X428689D02*
X443800D01*
X428689Y171450D02*
X443800D01*
X411800Y153450D02*
X427799D01*
X416799Y167450D02*
X422799Y161450D01*
X416799Y155450D02*
Y167450D01*
Y155450D02*
X422799Y161450D01*
Y157450D02*
Y165450D01*
Y161450D02*
X426799D01*
X412799D02*
X416799D01*
X346700Y128050D02*
Y144050D01*
X361700D01*
X346700Y128050D02*
X361700D01*
X365700D02*
X380700D01*
X365700Y144050D02*
X380700D01*
Y128050D02*
Y144050D01*
X430200Y4050D02*
Y97550D01*
Y4050D02*
X827100D01*
Y97550D01*
X813100D02*
X827100D01*
X430200D02*
X444200D01*
X1158400Y1027300D02*
X1178400D01*
X1158400Y1005300D02*
Y1027300D01*
Y979300D02*
X1178400D01*
X1158400D02*
Y1001300D01*
X1178400Y979300D02*
Y1001300D01*
Y1005300D02*
Y1027300D01*
X1096900Y969500D02*
X1112900D01*
Y954500D02*
Y969500D01*
X1096900Y954500D02*
Y969500D01*
Y935500D02*
Y950500D01*
X1112900Y935500D02*
Y950500D01*
X1096900Y935500D02*
X1112900D01*
X1122300Y969500D02*
X1138300D01*
Y954500D02*
Y969500D01*
X1122300Y954500D02*
Y969500D01*
Y935500D02*
Y950500D01*
X1138300Y935500D02*
Y950500D01*
X1122300Y935500D02*
X1138300D01*
X1071500Y969500D02*
X1087500D01*
Y954500D02*
Y969500D01*
X1071500Y954500D02*
Y969500D01*
Y935500D02*
Y950500D01*
X1087500Y935500D02*
Y950500D01*
X1071500Y935500D02*
X1087500D01*
X1147700Y969500D02*
X1163700D01*
Y954500D02*
Y969500D01*
X1147700Y954500D02*
Y969500D01*
Y935500D02*
Y950500D01*
X1163700Y935500D02*
Y950500D01*
X1147700Y935500D02*
X1163700D01*
X1046100Y969500D02*
X1062100D01*
Y954500D02*
Y969500D01*
X1046100Y954500D02*
Y969500D01*
Y935500D02*
Y950500D01*
X1062100Y935500D02*
Y950500D01*
X1046100Y935500D02*
X1062100D01*
X1020700Y969500D02*
X1036700D01*
Y954500D02*
Y969500D01*
X1020700Y954500D02*
Y969500D01*
Y935500D02*
Y950500D01*
X1036700Y935500D02*
Y950500D01*
X1020700Y935500D02*
X1036700D01*
X995300Y969500D02*
X1011300D01*
Y954500D02*
Y969500D01*
X995300Y954500D02*
Y969500D01*
Y935500D02*
Y950500D01*
X1011300Y935500D02*
Y950500D01*
X995300Y935500D02*
X1011300D01*
X1387000Y1055500D02*
Y1077500D01*
Y1081500D02*
Y1103500D01*
X1407000Y1081500D02*
Y1103500D01*
X1387000D02*
X1407000D01*
Y1055500D02*
Y1077500D01*
X1387000Y1055500D02*
X1407000D01*
X422500Y107350D02*
Y118350D01*
X406500Y107350D02*
X422500D01*
X406500Y118350D02*
Y128350D01*
Y139350D02*
X422500D01*
Y128350D02*
Y139350D01*
X380700Y102650D02*
Y118650D01*
X365700Y102650D02*
X380700D01*
X365700Y118650D02*
X380700D01*
X346700D02*
X361700D01*
X346700Y102650D02*
X361700D01*
X346700D02*
Y118650D01*
X321247Y944999D02*
X337248D01*
X321247D02*
Y960000D01*
X337248Y944999D02*
Y960000D01*
Y964000D02*
Y979000D01*
X321247Y964000D02*
Y979000D01*
X337248D01*
X296800Y945000D02*
X312800D01*
X296800D02*
Y960000D01*
X312800Y945000D02*
Y960000D01*
Y964000D02*
Y979000D01*
X296800Y964000D02*
Y979000D01*
X312800D01*
X1433823Y241700D02*
Y291700D01*
Y241700D02*
X1461777D01*
Y291700D01*
X1433823D02*
X1461777D01*
X1541300Y232700D02*
Y248700D01*
Y232700D02*
X1556300D01*
X1541300Y248700D02*
X1556300D01*
X1560300D02*
X1575300D01*
X1560300Y232700D02*
X1575300D01*
Y248700D01*
X1533050Y258700D02*
Y274700D01*
X1518050D02*
X1533050D01*
X1518050Y258700D02*
X1533050D01*
X1499050D02*
X1514050D01*
X1499050Y274700D02*
X1514050D01*
X1499050Y258700D02*
Y274700D01*
X1533050Y284700D02*
Y300700D01*
X1518050D02*
X1533050D01*
X1518050Y284700D02*
X1533050D01*
X1499050D02*
X1514050D01*
X1499050Y300700D02*
X1514050D01*
X1499050Y284700D02*
Y300700D01*
X1347800Y232700D02*
Y248700D01*
X1332800D02*
X1347800D01*
X1332800Y232700D02*
X1347800D01*
X1313800D02*
X1328800D01*
X1313800Y248700D02*
X1328800D01*
X1313800Y232700D02*
Y248700D01*
X1359300Y232700D02*
Y248700D01*
Y232700D02*
X1374300D01*
X1359300Y248700D02*
X1374300D01*
X1378300D02*
X1393300D01*
X1378300Y232700D02*
X1393300D01*
Y248700D01*
X1347800Y284700D02*
Y300700D01*
X1332800D02*
X1347800D01*
X1332800Y284700D02*
X1347800D01*
X1313800D02*
X1328800D01*
X1313800Y300700D02*
X1328800D01*
X1313800Y284700D02*
Y300700D01*
X1359300Y284700D02*
Y300700D01*
Y284700D02*
X1374300D01*
X1359300Y300700D02*
X1374300D01*
X1378300D02*
X1393300D01*
X1378300Y284700D02*
X1393300D01*
Y300700D01*
X1359300Y258700D02*
Y274700D01*
Y258700D02*
X1374300D01*
X1359300Y274700D02*
X1374300D01*
X1378300D02*
X1393300D01*
X1378300Y258700D02*
X1393300D01*
Y274700D01*
X1575300Y258700D02*
Y274700D01*
X1560300D02*
X1575300D01*
X1560300Y258700D02*
X1575300D01*
X1541300D02*
X1556300D01*
X1541300Y274700D02*
X1556300D01*
X1541300Y258700D02*
Y274700D01*
X1313800Y206700D02*
Y222700D01*
Y206700D02*
X1328800D01*
X1313800Y222700D02*
X1328800D01*
X1332800D02*
X1347800D01*
X1332800Y206700D02*
X1347800D01*
Y222700D01*
X1313800Y258700D02*
Y274700D01*
Y258700D02*
X1328800D01*
X1313800Y274700D02*
X1328800D01*
X1332800D02*
X1347800D01*
X1332800Y258700D02*
X1347800D01*
Y274700D01*
X1575300Y284700D02*
Y300700D01*
X1560300D02*
X1575300D01*
X1560300Y284700D02*
X1575300D01*
X1541300D02*
X1556300D01*
X1541300Y300700D02*
X1556300D01*
X1541300Y284700D02*
Y300700D01*
X795350Y855300D02*
Y897300D01*
X792350D02*
X795350D01*
X792350Y855300D02*
X795350D01*
X741350D02*
X744350D01*
X741350Y897300D02*
X744350D01*
X741350Y855300D02*
Y897300D01*
X922718Y855300D02*
Y897300D01*
X919717D02*
X922718D01*
X919717Y855300D02*
X922718D01*
X868717D02*
X871717D01*
X868717Y897300D02*
X871717D01*
X868717Y855300D02*
Y897300D01*
X737800Y1109097D02*
X741800D01*
X747800D02*
X751800D01*
X747800Y1105097D02*
Y1113097D01*
X741800Y1103097D02*
X747800Y1109097D01*
X741800Y1103097D02*
Y1115097D01*
X747800Y1109097D01*
X720800Y1088097D02*
X768800D01*
X720800D02*
Y1096097D01*
X768800D02*
X776800D01*
X768800Y1088097D02*
X776800Y1096097D01*
X768800Y1088097D02*
Y1096097D01*
Y1122097D02*
Y1130097D01*
X776800Y1122097D01*
X768800D02*
X776800D01*
X720800D02*
Y1130097D01*
X768800D01*
X683550Y1063900D02*
X685550D01*
X749550D02*
X751550D01*
Y1001900D02*
Y1063900D01*
X683550Y1001900D02*
X751550D01*
X683550D02*
Y1063900D01*
X746100Y1137180D02*
Y1258500D01*
Y1137180D02*
X1248100D01*
Y1258500D01*
X746100D02*
X1248100D01*
X746100Y1230500D02*
X1248100D01*
X756400Y1258500D02*
X761400Y1242500D01*
X776400D01*
X782400Y1258500D01*
X807200D02*
X812200Y1242500D01*
X827200D01*
X833200Y1258500D01*
X858000D02*
X863000Y1242500D01*
X878000D01*
X884000Y1258500D01*
X908800D02*
X913800Y1242500D01*
X928800D01*
X934800Y1258500D01*
X959600D02*
X964600Y1242500D01*
X979600D01*
X985600Y1258500D01*
X1010400D02*
X1015400Y1242500D01*
X1030400D01*
X1036400Y1258500D01*
X1061200D02*
X1066200Y1242500D01*
X1081200D01*
X1087200Y1258500D01*
X1112000D02*
X1117000Y1242500D01*
X1132000D01*
X1138000Y1258500D01*
X1162800D02*
X1167800Y1242500D01*
X1182800D01*
X1188800Y1258500D01*
X1213600D02*
X1218600Y1242500D01*
X1233600D01*
X1239600Y1258500D01*
X109300Y985000D02*
X119300D01*
X124300Y980000D01*
X104300D02*
X109300Y985000D01*
X104300Y964000D02*
Y980000D01*
X124300Y964000D02*
Y980000D01*
X104300Y940999D02*
X124300D01*
Y960000D01*
X104300Y940999D02*
Y960000D01*
X108300Y959000D02*
X114300Y965000D01*
X108300Y959000D02*
X120300D01*
X114300Y965000D02*
X120300Y959000D01*
X912150Y1063900D02*
X914150D01*
X978150D02*
X980150D01*
Y1001900D02*
Y1063900D01*
X912150Y1001900D02*
X980150D01*
X912150D02*
Y1063900D01*
X949800Y878300D02*
Y900300D01*
Y852300D02*
Y874300D01*
X929800Y852300D02*
Y874300D01*
Y852300D02*
X949800D01*
X929800Y878300D02*
Y900300D01*
X949800D01*
X822800Y878300D02*
Y900300D01*
Y852300D02*
Y874300D01*
X802800Y852300D02*
Y874300D01*
Y852300D02*
X822800D01*
X802800Y878300D02*
Y900300D01*
X822800D01*
X607350Y1001900D02*
Y1063900D01*
Y1001900D02*
X675350D01*
Y1063900D01*
X673350D02*
X675350D01*
X607350D02*
X609350D01*
X835950D02*
X837950D01*
X901950D02*
X903950D01*
Y1001900D02*
Y1063900D01*
X835950Y1001900D02*
X903950D01*
X835950D02*
Y1063900D01*
X759750Y1001900D02*
Y1063900D01*
Y1001900D02*
X827750D01*
Y1063900D01*
X825750D02*
X827750D01*
X759750D02*
X761750D01*
X949400Y1129999D02*
X997400D01*
X949400Y1121999D02*
Y1129999D01*
X997400Y1121999D02*
X1005400D01*
X997400Y1129999D02*
X1005400Y1121999D01*
X997400D02*
Y1129999D01*
Y1087998D02*
Y1095998D01*
Y1087998D02*
X1005400Y1095998D01*
X997400D02*
X1005400D01*
X949400Y1087998D02*
Y1095998D01*
Y1087998D02*
X997400D01*
X970400Y1114998D02*
X976400Y1108998D01*
X970400Y1102999D02*
Y1114998D01*
Y1102999D02*
X976400Y1108998D01*
Y1104999D02*
Y1112999D01*
Y1108998D02*
X980400D01*
X966400D02*
X970400D01*
X797000Y1130097D02*
X845000D01*
X797000Y1122097D02*
Y1130097D01*
X845000Y1122097D02*
X853000D01*
X845000Y1130097D02*
X853000Y1122097D01*
X845000D02*
Y1130097D01*
Y1088097D02*
Y1096097D01*
Y1088097D02*
X853000Y1096097D01*
X845000D02*
X853000D01*
X797000Y1088097D02*
Y1096097D01*
Y1088097D02*
X845000D01*
X818000Y1115097D02*
X824000Y1109097D01*
X818000Y1103097D02*
Y1115097D01*
Y1103097D02*
X824000Y1109097D01*
Y1105097D02*
Y1113097D01*
Y1109097D02*
X828000D01*
X814000D02*
X818000D01*
X873200Y1130097D02*
X921200D01*
X873200Y1122097D02*
Y1130097D01*
X921200Y1122097D02*
X929200D01*
X921200Y1130097D02*
X929200Y1122097D01*
X921200D02*
Y1130097D01*
Y1088097D02*
Y1096097D01*
Y1088097D02*
X929200Y1096097D01*
X921200D02*
X929200D01*
X873200Y1088097D02*
Y1096097D01*
Y1088097D02*
X921200D01*
X894200Y1115097D02*
X900200Y1109097D01*
X894200Y1103097D02*
Y1115097D01*
Y1103097D02*
X900200Y1109097D01*
Y1105097D02*
Y1113097D01*
Y1109097D02*
X904200D01*
X890200D02*
X894200D01*
X845200Y957030D02*
X861200D01*
Y942030D02*
Y957030D01*
X845200Y942030D02*
Y957030D01*
Y923030D02*
Y938030D01*
X861200Y923030D02*
Y938030D01*
X845200Y923030D02*
X861200D01*
X772950Y955801D02*
X788950D01*
X772950Y940801D02*
Y955801D01*
X788950Y940801D02*
Y955801D01*
Y921802D02*
Y936801D01*
X772950Y921802D02*
Y936801D01*
Y921802D02*
X788950D01*
X797000Y955801D02*
X813000D01*
Y940801D02*
Y955801D01*
X797000Y940801D02*
Y955801D01*
Y921801D02*
Y936801D01*
X813000Y921801D02*
Y936801D01*
X797000Y921801D02*
X813000D01*
X872000Y955801D02*
X888000D01*
X872000Y940801D02*
Y955801D01*
X888000Y940801D02*
Y955801D01*
Y921802D02*
Y936801D01*
X872000Y921802D02*
Y936801D01*
Y921802D02*
X888000D01*
X468500Y612300D02*
Y632300D01*
X446500D02*
X468500D01*
X420500Y612300D02*
Y632300D01*
X442500D01*
X420500Y612299D02*
X442500D01*
X446500D02*
X468500D01*
X757000Y116700D02*
X767000D01*
X752000Y121700D02*
X757000Y116700D01*
X767000D02*
X772000Y121700D01*
Y137700D01*
X752000Y121700D02*
Y137700D01*
Y160700D02*
X772000D01*
X752000Y141700D02*
Y160700D01*
X772000Y141700D02*
Y160700D01*
X762000Y136700D02*
X768000Y142700D01*
X756000D02*
X768000D01*
X756000D02*
X762000Y136700D01*
X645002Y141700D02*
Y163700D01*
Y115700D02*
Y137700D01*
X625000Y141700D02*
Y163700D01*
Y115700D02*
Y137700D01*
Y115700D02*
X645000D01*
X625000Y163700D02*
X645000D01*
X1290400Y434200D02*
X1300400D01*
X1285400Y439200D02*
X1290400Y434200D01*
X1300400D02*
X1305400Y439200D01*
Y455200D01*
X1285400Y439200D02*
Y455200D01*
Y478200D02*
X1305400D01*
X1285400Y459200D02*
Y478200D01*
X1305400Y459200D02*
Y478200D01*
X1295400Y454200D02*
X1301400Y460200D01*
X1289400D02*
X1301400D01*
X1289400D02*
X1295400Y454200D01*
X1258316Y459200D02*
Y481200D01*
Y433200D02*
Y455200D01*
X1278317Y459200D02*
Y481200D01*
Y433200D02*
Y455200D01*
X1258316Y481200D02*
X1278316D01*
X1258316Y433200D02*
X1278316D01*
X1204149Y481200D02*
X1224149D01*
X1204149Y459200D02*
Y481200D01*
Y433200D02*
X1224149D01*
X1204149D02*
Y455200D01*
X1224149Y433200D02*
Y455200D01*
Y459200D02*
Y481200D01*
X1177067D02*
X1197067D01*
X1177067Y459200D02*
Y481200D01*
Y433200D02*
X1197067D01*
X1177067D02*
Y455200D01*
X1197067Y433200D02*
Y455200D01*
Y459200D02*
Y481200D01*
X947000Y925360D02*
X963000D01*
Y940360D01*
X947000Y925360D02*
Y940360D01*
Y944360D02*
Y959360D01*
X963000Y944360D02*
Y959360D01*
X947000D02*
X963000D01*
X722150Y921802D02*
X738150D01*
X722150D02*
Y936801D01*
X738150Y921802D02*
Y936801D01*
Y940801D02*
Y955801D01*
X722150Y940801D02*
Y955801D01*
X738150D01*
X697000Y921801D02*
X713000D01*
Y936801D01*
X697000Y921801D02*
Y936801D01*
Y940801D02*
Y955801D01*
X713000Y940801D02*
Y955801D01*
X697000D02*
X713000D01*
X923917Y959360D02*
X939917D01*
X923917Y944360D02*
Y959360D01*
X939917Y944360D02*
Y959360D01*
Y925360D02*
Y940360D01*
X923917Y925360D02*
Y940360D01*
Y925360D02*
X939917D01*
X137192Y945000D02*
X153193D01*
X137192D02*
Y960000D01*
X153193Y945000D02*
Y960000D01*
Y964000D02*
Y979000D01*
X137192Y964000D02*
Y979000D01*
X153193D01*
X55500D02*
X71500D01*
X55500Y964000D02*
Y979000D01*
X71500Y964000D02*
Y979000D01*
Y945000D02*
Y960000D01*
X55500Y945000D02*
Y960000D01*
Y945000D02*
X71500D01*
X161545Y979000D02*
X177545D01*
X161545Y964000D02*
Y979000D01*
X177545Y964000D02*
Y979000D01*
Y944999D02*
Y960000D01*
X161545Y944999D02*
Y960000D01*
Y944999D02*
X177545D01*
X79948Y979000D02*
X95948D01*
X79948Y964000D02*
Y979000D01*
X95948Y964000D02*
Y979000D01*
Y944999D02*
Y960000D01*
X79948Y944999D02*
Y960000D01*
Y944999D02*
X95948D01*
X332250Y912750D02*
Y928750D01*
Y912750D02*
X347250D01*
X332250Y928750D02*
X347250D01*
X351250D02*
X366250D01*
X351250Y912750D02*
X366250D01*
Y928750D01*
X456771Y869400D02*
X472771D01*
Y884400D01*
X456771Y869400D02*
Y884400D01*
Y888400D02*
Y903400D01*
X472771Y888400D02*
Y903400D01*
X456771D02*
X472771D01*
X489940Y885900D02*
X509940D01*
X489940Y863900D02*
Y885900D01*
Y837900D02*
X509940D01*
X489940D02*
Y859900D01*
X509940Y837900D02*
Y859900D01*
Y863900D02*
Y885900D01*
X671008Y933400D02*
X677008Y927400D01*
X665008D02*
X677008D01*
X665008D02*
X671008Y933400D01*
X661008Y909400D02*
Y928400D01*
X681008Y909400D02*
Y928400D01*
X661008Y909400D02*
X681008D01*
Y932400D02*
Y948400D01*
X661008Y932400D02*
Y948400D01*
X666007Y953400D01*
X676008D02*
X681008Y948400D01*
X666007Y953400D02*
X676008D01*
X589332D02*
X599333D01*
X604333Y948400D01*
X584333D02*
X589332Y953400D01*
X584333Y932400D02*
Y948400D01*
X604333Y932400D02*
Y948400D01*
X584333Y909400D02*
X604333D01*
Y928400D01*
X584333Y909400D02*
Y928400D01*
X588333Y927400D02*
X594333Y933400D01*
X588333Y927400D02*
X600333D01*
X594333Y933400D02*
X600333Y927400D01*
X580150Y1104900D02*
X584150D01*
X590150D02*
X594150D01*
X590150Y1100900D02*
Y1108900D01*
X584150Y1098900D02*
X590150Y1104900D01*
X584150Y1098900D02*
Y1110900D01*
X590150Y1104900D01*
X563150Y1089900D02*
X611150D01*
X616150Y1094900D01*
X563150Y1119900D02*
X611150D01*
X616150Y1114900D01*
X563150Y1089900D02*
Y1094900D01*
Y1114900D02*
Y1119900D01*
X377735Y913400D02*
X393735D01*
X377735D02*
Y928400D01*
X393735Y913400D02*
Y928400D01*
Y932400D02*
Y947400D01*
X377735Y932400D02*
Y947400D01*
X393735D01*
X512180Y953400D02*
X522180D01*
X527180Y948400D01*
X507180D02*
X512180Y953400D01*
X507180Y932400D02*
Y948400D01*
X527180Y932400D02*
Y948400D01*
X507180Y909400D02*
X527180D01*
Y928400D01*
X507180Y909400D02*
Y928400D01*
X511180Y927400D02*
X517180Y933400D01*
X511180Y927400D02*
X523180D01*
X517180Y933400D02*
X523180Y927400D01*
X431440Y953400D02*
X441440D01*
X446440Y948400D01*
X426440D02*
X431440Y953400D01*
X426440Y932400D02*
Y948400D01*
X446440Y932400D02*
Y948400D01*
X426440Y909400D02*
X446440D01*
Y928400D01*
X426440Y909400D02*
Y928400D01*
X430440Y927400D02*
X436440Y933400D01*
X430440Y927400D02*
X442440D01*
X436440Y933400D02*
X442440Y927400D01*
X531150Y1063900D02*
X533150D01*
X597150D02*
X599150D01*
Y1001900D02*
Y1063900D01*
X531150Y1001900D02*
X599150D01*
X531150D02*
Y1063900D01*
X455940Y913400D02*
X471940D01*
X455940D02*
Y928400D01*
X471940Y913400D02*
Y928400D01*
Y932400D02*
Y947400D01*
X455940Y932400D02*
Y947400D01*
X471940D01*
X454950Y1063900D02*
X456950D01*
X520950D02*
X522950D01*
Y1001900D02*
Y1063900D01*
X454950Y1001900D02*
X522950D01*
X454950D02*
Y1063900D01*
X378750D02*
X380750D01*
X444750D02*
X446750D01*
Y1001900D02*
Y1063900D01*
X378750Y1001900D02*
X446750D01*
X378750D02*
Y1063900D01*
X214250Y979000D02*
X230250D01*
X214250Y964000D02*
Y979000D01*
X230250Y964000D02*
Y979000D01*
Y945000D02*
Y960000D01*
X214250Y945000D02*
Y960000D01*
Y945000D02*
X230250D01*
X355600Y965000D02*
X361600Y959000D01*
X349600D02*
X361600D01*
X349600D02*
X355600Y965000D01*
X345600Y940999D02*
Y960000D01*
X365600Y940999D02*
Y960000D01*
X345600Y940999D02*
X365600D01*
Y964000D02*
Y980000D01*
X345600Y964000D02*
Y980000D01*
X350600Y985000D01*
X360600D02*
X365600Y980000D01*
X350600Y985000D02*
X360600D01*
X366892Y845900D02*
Y887900D01*
X369893D01*
X366892Y845900D02*
X369893D01*
X417892D02*
X420893D01*
X417892Y887900D02*
X420893D01*
Y845900D02*
Y887900D01*
X357540Y862550D02*
Y884550D01*
Y836550D02*
Y858550D01*
X337540Y836550D02*
Y858550D01*
Y836550D02*
X357540D01*
X337540Y862550D02*
Y884550D01*
X357540D01*
X193200Y916150D02*
X213200D01*
X193200Y894150D02*
Y916150D01*
Y868150D02*
X213200D01*
X193200D02*
Y890150D01*
X213200Y868150D02*
Y890150D01*
Y894150D02*
Y916150D01*
X573293Y845900D02*
Y887900D01*
X570293D02*
X573293D01*
X570293Y845900D02*
X573293D01*
X519292D02*
X522293D01*
X519292Y887900D02*
X522293D01*
X519292Y845900D02*
Y887900D01*
X656350Y1104900D02*
X660350D01*
X666350D02*
X670350D01*
X666350Y1100900D02*
Y1108900D01*
X660350Y1098900D02*
X666350Y1104900D01*
X660350Y1098900D02*
Y1110900D01*
X666350Y1104900D01*
X639350Y1089900D02*
X687350D01*
X692350Y1094900D01*
X639350Y1119900D02*
X687350D01*
X692350Y1114900D01*
X639350Y1089900D02*
Y1094900D01*
Y1114900D02*
Y1119900D01*
X503950Y1104900D02*
X507950D01*
X513950D02*
X517950D01*
X513950Y1100900D02*
Y1108900D01*
X507950Y1098900D02*
X513950Y1104900D01*
X507950Y1098900D02*
Y1110900D01*
X513950Y1104900D01*
X486950Y1089900D02*
X534950D01*
X539950Y1094900D01*
X486950Y1119900D02*
X534950D01*
X539950Y1114900D01*
X486950Y1089900D02*
Y1094900D01*
Y1114900D02*
Y1119900D01*
X513600Y1242500D02*
X519600Y1258500D01*
X498601Y1242500D02*
X513600D01*
X493600Y1258500D02*
X498601Y1242500D01*
X462800D02*
X468800Y1258500D01*
X447800Y1242500D02*
X462800D01*
X442800Y1258500D02*
X447800Y1242500D01*
X412000D02*
X418000Y1258500D01*
X397001Y1242500D02*
X412000D01*
X392000Y1258500D02*
X397001Y1242500D01*
X361200D02*
X367200Y1258500D01*
X346200Y1242500D02*
X361200D01*
X341200Y1258500D02*
X346200Y1242500D01*
X310400D02*
X316400Y1258500D01*
X295401Y1242500D02*
X310400D01*
X290400Y1258500D02*
X295401Y1242500D01*
X259600D02*
X265600Y1258500D01*
X244601Y1242500D02*
X259600D01*
X239600Y1258500D02*
X244601Y1242500D01*
X208800D02*
X214800Y1258500D01*
X193801Y1242500D02*
X208800D01*
X188800Y1258500D02*
X193801Y1242500D01*
X158000D02*
X164000Y1258500D01*
X143000Y1242500D02*
X158000D01*
X138000Y1258500D02*
X143000Y1242500D01*
X125900Y1258500D02*
X529900D01*
Y1137180D02*
Y1258500D01*
X125900Y1137180D02*
Y1258500D01*
Y1137180D02*
X529900D01*
X125900Y1230500D02*
X529900D01*
X427750Y1104900D02*
X431750D01*
X437750D02*
X441750D01*
X437750Y1100900D02*
Y1108900D01*
X431750Y1098900D02*
X437750Y1104900D01*
X431750Y1098900D02*
Y1110900D01*
X437750Y1104900D01*
X410750Y1089900D02*
X458750D01*
X463750Y1094900D01*
X410750Y1119900D02*
X458750D01*
X463750Y1114900D01*
X410750Y1089900D02*
Y1094900D01*
Y1114900D02*
Y1119900D01*
X612685Y913400D02*
X628685D01*
X612685D02*
Y928400D01*
X628685Y913400D02*
Y928400D01*
Y932400D02*
Y947400D01*
X612685Y932400D02*
Y947400D01*
X628685D01*
X559980Y913400D02*
X575980D01*
Y928400D01*
X559980Y913400D02*
Y928400D01*
Y932400D02*
Y947400D01*
X575980Y932400D02*
Y947400D01*
X559980D02*
X575980D01*
X535533Y913400D02*
X551533D01*
X535533D02*
Y928400D01*
X551533Y913400D02*
Y928400D01*
Y932400D02*
Y947400D01*
X535533Y932400D02*
Y947400D01*
X551533D01*
X480293Y913400D02*
X496293D01*
Y928400D01*
X480293Y913400D02*
Y928400D01*
Y932400D02*
Y947400D01*
X496293Y932400D02*
Y947400D01*
X480293D02*
X496293D01*
X402088Y913400D02*
X418088D01*
Y928400D01*
X402088Y913400D02*
Y928400D01*
Y932400D02*
Y947400D01*
X418088Y932400D02*
Y947400D01*
X402088D02*
X418088D01*
X238697Y979000D02*
X254697D01*
X238697Y964000D02*
Y979000D01*
X254697Y964000D02*
Y979000D01*
Y944999D02*
Y960000D01*
X238697Y944999D02*
Y960000D01*
Y944999D02*
X254697D01*
X581888Y849900D02*
X597888D01*
Y864900D01*
X581888Y849900D02*
Y864900D01*
Y868900D02*
Y883900D01*
X597888Y868900D02*
Y883900D01*
X581888D02*
X597888D01*
X606240Y849900D02*
X622240D01*
Y864900D01*
X606240Y849900D02*
Y864900D01*
Y868900D02*
Y883900D01*
X622240Y868900D02*
Y883900D01*
X606240D02*
X622240D01*
X637038Y913400D02*
X653038D01*
Y928400D01*
X637038Y913400D02*
Y928400D01*
Y932400D02*
Y947400D01*
X653038Y932400D02*
Y947400D01*
X637038D02*
X653038D01*
X708500Y141700D02*
Y163700D01*
Y115700D02*
Y137700D01*
X688500Y115700D02*
Y137700D01*
Y115700D02*
X708500D01*
X688500Y141700D02*
Y163700D01*
X708500D01*
X656750Y115700D02*
Y137700D01*
Y141700D02*
Y163700D01*
X676750Y141700D02*
Y163700D01*
X656750D02*
X676750D01*
Y115700D02*
Y137700D01*
X656750Y115700D02*
X676750D01*
X1590200Y1055500D02*
X1610200D01*
Y1077500D01*
X1590200Y1103500D02*
X1610200D01*
Y1081500D02*
Y1103500D01*
X1590200Y1081500D02*
Y1103500D01*
Y1055500D02*
Y1077500D01*
X1356182Y1055500D02*
X1376182D01*
Y1077500D01*
X1356182Y1103500D02*
X1376182D01*
Y1081500D02*
Y1103500D01*
X1356182Y1081500D02*
Y1103500D01*
Y1055500D02*
Y1077500D01*
X425150Y178850D02*
Y194850D01*
X410150D02*
X425150D01*
X410150Y178850D02*
X425150D01*
X391150D02*
X406150D01*
X391150Y194850D02*
X406150D01*
X391150Y178850D02*
Y194850D01*
X1610200Y1005300D02*
Y1027300D01*
Y979300D02*
Y1001300D01*
X1590200Y979300D02*
Y1001300D01*
Y979300D02*
X1610200D01*
X1590200Y1005300D02*
Y1027300D01*
X1610200D01*
X1407000Y1005300D02*
Y1027300D01*
Y979300D02*
Y1001300D01*
X1387000Y979300D02*
Y1001300D01*
Y979300D02*
X1407000D01*
X1387000Y1005300D02*
Y1027300D01*
X1407000D01*
X1376183Y1005300D02*
Y1027300D01*
Y979300D02*
Y1001300D01*
X1356182Y979300D02*
Y1001300D01*
Y979300D02*
X1376183D01*
X1356182Y1005300D02*
Y1027300D01*
X1376183D01*
X1158400Y1055500D02*
X1178400D01*
Y1077500D01*
X1158400Y1103500D02*
X1178400D01*
Y1081500D02*
Y1103500D01*
X1158400Y1081500D02*
Y1103500D01*
Y1055500D02*
Y1077500D01*
X1204850Y150350D02*
X1220850D01*
Y135350D02*
Y150350D01*
X1204850Y135350D02*
Y150350D01*
Y116350D02*
Y131350D01*
X1220850Y116350D02*
Y131350D01*
X1204850Y116350D02*
X1220850D01*
X1166750Y150350D02*
X1182750D01*
Y135350D02*
Y150350D01*
X1166750Y135350D02*
Y150350D01*
Y116350D02*
Y131350D01*
X1182750Y116350D02*
Y131350D01*
X1166750Y116350D02*
X1182750D01*
X842950Y97550D02*
X856950D01*
X1225850D02*
X1239850D01*
Y4050D02*
Y97550D01*
X842950Y4050D02*
X1239850D01*
X842950D02*
Y97550D01*
X1090550Y150350D02*
X1106550D01*
Y135350D02*
Y150350D01*
X1090550Y135350D02*
Y150350D01*
Y116350D02*
Y131350D01*
X1106550Y116350D02*
Y131350D01*
X1090550Y116350D02*
X1106550D01*
X1014350Y150350D02*
X1030350D01*
Y135350D02*
Y150350D01*
X1014350Y135350D02*
Y150350D01*
Y116350D02*
Y131350D01*
X1030350Y116350D02*
Y131350D01*
X1014350Y116350D02*
X1030350D01*
X1365950Y881000D02*
Y897000D01*
X1380950D01*
X1365950Y881000D02*
X1380950D01*
X1384950D02*
X1399950D01*
X1384950Y897000D02*
X1399950D01*
Y881000D02*
Y897000D01*
X346700Y153450D02*
Y169450D01*
X361700D01*
X346700Y153450D02*
X361700D01*
X365700D02*
X380700D01*
X365700Y169450D02*
X380700D01*
Y153450D02*
Y169450D01*
X425150Y204250D02*
Y220250D01*
X410150Y204250D02*
X425150D01*
X410150Y220250D02*
X425150D01*
X391150D02*
X406150D01*
X391150Y204250D02*
X406150D01*
X391150D02*
Y220250D01*
X380700Y204250D02*
Y220250D01*
X365700Y204250D02*
X380700D01*
X365700Y220250D02*
X380700D01*
X346700D02*
X361700D01*
X346700Y204250D02*
X361700D01*
X346700D02*
Y220250D01*
Y178850D02*
Y194850D01*
X361700D01*
X346700Y178850D02*
X361700D01*
X365700D02*
X380700D01*
X365700Y194850D02*
X380700D01*
Y178850D02*
Y194850D01*
X1116323Y291700D02*
X1144277D01*
Y241700D02*
Y291700D01*
X1116323Y241700D02*
X1144277D01*
X1116323D02*
Y291700D01*
X1030300Y206700D02*
Y222700D01*
X1015300Y206700D02*
X1030300D01*
X1015300Y222700D02*
X1030300D01*
X996300D02*
X1011300D01*
X996300Y206700D02*
X1011300D01*
X996300D02*
Y222700D01*
Y232700D02*
Y248700D01*
X1011300D01*
X996300Y232700D02*
X1011300D01*
X1015300D02*
X1030300D01*
X1015300Y248700D02*
X1030300D01*
Y232700D02*
Y248700D01*
X1075800Y232700D02*
Y248700D01*
X1060800Y232700D02*
X1075800D01*
X1060800Y248700D02*
X1075800D01*
X1041800D02*
X1056800D01*
X1041800Y232700D02*
X1056800D01*
X1041800D02*
Y248700D01*
X1075800Y258700D02*
Y274700D01*
X1060800Y258700D02*
X1075800D01*
X1060800Y274700D02*
X1075800D01*
X1041800D02*
X1056800D01*
X1041800Y258700D02*
X1056800D01*
X1041800D02*
Y274700D01*
X1030300Y258700D02*
Y274700D01*
X1015300Y258700D02*
X1030300D01*
X1015300Y274700D02*
X1030300D01*
X996300D02*
X1011300D01*
X996300Y258700D02*
X1011300D01*
X996300D02*
Y274700D01*
X1075800Y284700D02*
Y300700D01*
X1060800Y284700D02*
X1075800D01*
X1060800Y300700D02*
X1075800D01*
X1041800D02*
X1056800D01*
X1041800Y284700D02*
X1056800D01*
X1041800D02*
Y300700D01*
X996300Y284700D02*
Y300700D01*
X1011300D01*
X996300Y284700D02*
X1011300D01*
X1015300D02*
X1030300D01*
X1015300Y300700D02*
X1030300D01*
Y284700D02*
Y300700D01*
X1086550Y195357D02*
X1102551D01*
X1086550D02*
Y210357D01*
X1102551Y195357D02*
Y210357D01*
Y214357D02*
Y229357D01*
X1086550Y214357D02*
Y229357D01*
X1102551D01*
X1109633Y195357D02*
X1125633D01*
X1109633D02*
Y210357D01*
X1125633Y195357D02*
Y210357D01*
Y214357D02*
Y229357D01*
X1109633Y214357D02*
Y229357D01*
X1125633D01*
X1155798Y195357D02*
X1171798D01*
X1155798D02*
Y210357D01*
X1171798Y195357D02*
Y210357D01*
Y214357D02*
Y229357D01*
X1155798Y214357D02*
Y229357D01*
X1171798D01*
X1132716Y195357D02*
X1148716D01*
X1132716D02*
Y210357D01*
X1148716Y195357D02*
Y210357D01*
Y214357D02*
Y229357D01*
X1132716Y214357D02*
Y229357D01*
X1148716D01*
X1264300Y232700D02*
Y248700D01*
X1249300Y232700D02*
X1264300D01*
X1249300Y248700D02*
X1264300D01*
X1230300D02*
X1245300D01*
X1230300Y232700D02*
X1245300D01*
X1230300D02*
Y248700D01*
X1184800Y232700D02*
Y248700D01*
X1199800D01*
X1184800Y232700D02*
X1199800D01*
X1203800D02*
X1218800D01*
X1203800Y248700D02*
X1218800D01*
Y232700D02*
Y248700D01*
Y258700D02*
Y274700D01*
X1203800Y258700D02*
X1218800D01*
X1203800Y274700D02*
X1218800D01*
X1184800D02*
X1199800D01*
X1184800Y258700D02*
X1199800D01*
X1184800D02*
Y274700D01*
X1230300Y258700D02*
Y274700D01*
X1245300D01*
X1230300Y258700D02*
X1245300D01*
X1249300D02*
X1264300D01*
X1249300Y274700D02*
X1264300D01*
Y258700D02*
Y274700D01*
X1184800Y284700D02*
Y300700D01*
X1199800D01*
X1184800Y284700D02*
X1199800D01*
X1203800D02*
X1218800D01*
X1203800Y300700D02*
X1218800D01*
Y284700D02*
Y300700D01*
X1264300Y284700D02*
Y300700D01*
X1249300Y284700D02*
X1264300D01*
X1249300Y300700D02*
X1264300D01*
X1230300D02*
X1245300D01*
X1230300Y284700D02*
X1245300D01*
X1230300D02*
Y300700D01*
X900050Y150350D02*
X916050D01*
Y135350D02*
Y150350D01*
X900050Y135350D02*
Y150350D01*
Y116350D02*
Y131350D01*
X916050Y116350D02*
Y131350D01*
X900050Y116350D02*
X916050D01*
X976250Y150350D02*
X992250D01*
Y135350D02*
Y150350D01*
X976250Y135350D02*
Y150350D01*
Y116350D02*
Y131350D01*
X992250Y116350D02*
Y131350D01*
X976250Y116350D02*
X992250D01*
X938150Y150350D02*
X954150D01*
Y135350D02*
Y150350D01*
X938150Y135350D02*
Y150350D01*
Y116350D02*
Y131350D01*
X954150Y116350D02*
Y131350D01*
X938150Y116350D02*
X954150D01*
X861950Y150350D02*
X877950D01*
Y135350D02*
Y150350D01*
X861950Y135350D02*
Y150350D01*
Y116350D02*
Y131350D01*
X877950Y116350D02*
Y131350D01*
X861950Y116350D02*
X877950D01*
X1320900Y1137180D02*
X1524100D01*
X1320900Y1258500D02*
X1524100D01*
Y1137180D02*
Y1258500D01*
X1320900Y1137180D02*
Y1258500D01*
Y1230500D02*
X1524100D01*
X1334200Y1258500D02*
X1339200Y1242500D01*
X1354200D01*
X1360200Y1258500D01*
X1385000D02*
X1390000Y1242500D01*
X1405000D01*
X1411000Y1258500D01*
X1435800D02*
X1440800Y1242500D01*
X1455800D01*
X1461800Y1258500D01*
X1486600D02*
X1491600Y1242500D01*
X1506600D01*
X1512600Y1258500D01*
D11*
X1581400Y980850D02*
G03*
X1581400Y980850I-1250J0D01*
G01*
X1348850D02*
G03*
X1348850Y980850I-1250J0D01*
G01*
X1034250Y480000D02*
G03*
X1034250Y480000I-1250J0D01*
G01*
X763200Y286200D02*
G03*
X763200Y286200I-1250J0D01*
G01*
X541000Y175400D02*
G03*
X541000Y175400I-1250J0D01*
G01*
X230799Y214443D02*
G03*
X230799Y214443I-1250J0D01*
G01*
X458450Y104800D02*
G03*
X458450Y104800I-1250J0D01*
G01*
X1404550Y286200D02*
G03*
X1404550Y286200I-1250J0D01*
G01*
X871200Y104800D02*
G03*
X871200Y104800I-1250J0D01*
G01*
X1087050Y286200D02*
G03*
X1087050Y286200I-1250J0D01*
G01*
D12*
X164322Y664000D02*
G03*
X164322Y648760I0J-7620D01*
G01*
Y664000D02*
G03*
X164633Y679234I0J7620D01*
G01*
X164633Y679234D02*
Y688834D01*
X164322Y637560D02*
Y648760D01*
D13*
X1044500Y502000D02*
G03*
X1044500Y502000I-3000J0D01*
G01*
D14*
X802473Y284200D02*
G03*
X802473Y284200I-2500J0D01*
G01*
X544050Y208650D02*
G03*
X544050Y208650I-2500J0D01*
G01*
X194025Y216443D02*
G03*
X194025Y216443I-2500J0D01*
G01*
X1443823Y284200D02*
G03*
X1443823Y284200I-2500J0D01*
G01*
X1126323D02*
G03*
X1126323Y284200I-2500J0D01*
G01*
D15*
X571500Y1162050D02*
X723900D01*
X571500Y1187450D02*
X723900D01*
Y1162050D02*
Y1187450D01*
X571500Y1162050D02*
Y1187450D01*
X1543812Y833877D02*
Y818642D01*
X1551429D01*
X1553969Y821181D01*
Y831338D01*
X1551429Y833877D01*
X1543812D01*
X1569204Y818642D02*
X1559047D01*
X1569204Y828799D01*
Y831338D01*
X1566665Y833877D01*
X1561586D01*
X1559047Y831338D01*
X1574282D02*
X1576821Y833877D01*
X1581900D01*
X1584439Y831338D01*
Y821181D01*
X1581900Y818642D01*
X1576821D01*
X1574282Y821181D01*
Y831338D01*
X1526041Y487003D02*
Y502238D01*
X1533658D01*
X1536197Y499699D01*
Y494620D01*
X1533658Y492081D01*
X1526041D01*
X1541276Y502238D02*
Y489542D01*
X1543815Y487003D01*
X1548893D01*
X1551432Y489542D01*
Y502238D01*
X1566667Y499699D02*
X1564128Y502238D01*
X1559050D01*
X1556511Y499699D01*
Y497160D01*
X1559050Y494620D01*
X1564128D01*
X1566667Y492081D01*
Y489542D01*
X1564128Y487003D01*
X1559050D01*
X1556511Y489542D01*
X1571746Y502238D02*
Y487003D01*
X1579363D01*
X1581903Y489542D01*
Y492081D01*
X1579363Y494620D01*
X1571746D01*
X1579363D01*
X1581903Y497160D01*
Y499699D01*
X1579363Y502238D01*
X1571746D01*
X1586981Y487003D02*
X1592059D01*
X1589520D01*
Y502238D01*
X1586981Y499699D01*
D16*
X138414Y614550D02*
Y714050D01*
X189494Y614550D02*
Y714131D01*
D17*
X723900Y1136650D02*
Y1162050D01*
D18*
X77985Y50585D02*
Y52979D01*
X80379Y55373D01*
X82773D01*
X83970Y54176D01*
Y51782D01*
X82773Y50585D01*
X83970Y51782D01*
X86364D01*
X87561Y50585D01*
Y48191D01*
X85167Y45797D01*
X82773D01*
X91152Y51782D02*
X89955Y52979D01*
X91152Y54176D01*
X92349Y52979D01*
X91152Y51782D01*
X101925Y62555D02*
X97137Y57767D01*
Y67343D01*
X95940Y68540D01*
X93546D01*
X91152Y66146D01*
Y63752D01*
X1597985Y50585D02*
Y52979D01*
X1600379Y55373D01*
X1602773D01*
X1603970Y54176D01*
Y51782D01*
X1602773Y50585D01*
X1603970Y51782D01*
X1606364D01*
X1607561Y50585D01*
Y48191D01*
X1605167Y45797D01*
X1602773D01*
X1611152Y51782D02*
X1609955Y52979D01*
X1611152Y54176D01*
X1612349Y52979D01*
X1611152Y51782D01*
X1621925Y62555D02*
X1617137Y57767D01*
Y67343D01*
X1615940Y68540D01*
X1613546D01*
X1611152Y66146D01*
Y63752D01*
X77985Y1170585D02*
Y1172979D01*
X80379Y1175373D01*
X82773D01*
X83970Y1174176D01*
Y1171782D01*
X82773Y1170585D01*
X83970Y1171782D01*
X86364D01*
X87561Y1170585D01*
Y1168191D01*
X85167Y1165797D01*
X82773D01*
X91152Y1171782D02*
X89955Y1172979D01*
X91152Y1174176D01*
X92349Y1172979D01*
X91152Y1171782D01*
X101925Y1182555D02*
X97137Y1177767D01*
Y1187343D01*
X95940Y1188540D01*
X93546D01*
X91152Y1186146D01*
Y1183752D01*
X1597985Y1170585D02*
Y1172979D01*
X1600379Y1175373D01*
X1602773D01*
X1603970Y1174176D01*
Y1171782D01*
X1602773Y1170585D01*
X1603970Y1171782D01*
X1606364D01*
X1607561Y1170585D01*
Y1168191D01*
X1605167Y1165797D01*
X1602773D01*
X1611152Y1171782D02*
X1609955Y1172979D01*
X1611152Y1174176D01*
X1612349Y1172979D01*
X1611152Y1171782D01*
X1621925Y1182555D02*
X1617137Y1177767D01*
Y1187343D01*
X1615940Y1188540D01*
X1613546D01*
X1611152Y1186146D01*
Y1183752D01*
X1458858Y688757D02*
Y698913D01*
X1463936D01*
X1465629Y697221D01*
Y693835D01*
X1463936Y692142D01*
X1458858D01*
X1462243D02*
X1465629Y688757D01*
X1475786Y698913D02*
X1469014D01*
Y693835D01*
X1472400Y695528D01*
X1474093D01*
X1475786Y693835D01*
Y690449D01*
X1474093Y688757D01*
X1470707D01*
X1469014Y690449D01*
X1485942Y698913D02*
X1479171D01*
Y693835D01*
X1482557Y695528D01*
X1484250D01*
X1485942Y693835D01*
Y690449D01*
X1484250Y688757D01*
X1480864D01*
X1479171Y690449D01*
X1458858Y710439D02*
Y720596D01*
X1463936D01*
X1465629Y718903D01*
Y715518D01*
X1463936Y713825D01*
X1458858D01*
X1462243D02*
X1465629Y710439D01*
X1475786Y720596D02*
X1469014D01*
Y715518D01*
X1472400Y717210D01*
X1474093D01*
X1475786Y715518D01*
Y712132D01*
X1474093Y710439D01*
X1470707D01*
X1469014Y712132D01*
X1485942Y710439D02*
X1479171D01*
X1485942Y717210D01*
Y718903D01*
X1484250Y720596D01*
X1480864D01*
X1479171Y718903D01*
X1253229Y572346D02*
X1251536Y574038D01*
X1248150D01*
X1246458Y572346D01*
Y565574D01*
X1248150Y563882D01*
X1251536D01*
X1253229Y565574D01*
X1261693Y563882D02*
Y574038D01*
X1256614Y568960D01*
X1263386D01*
X1266771Y574038D02*
X1273542D01*
Y572346D01*
X1266771Y565574D01*
Y563882D01*
X449792Y776816D02*
X448099Y778508D01*
X444714D01*
X443021Y776816D01*
Y770044D01*
X444714Y768352D01*
X448099D01*
X449792Y770044D01*
X459949Y778508D02*
X456563Y776816D01*
X453178Y773430D01*
Y770044D01*
X454871Y768352D01*
X458256D01*
X459949Y770044D01*
Y771737D01*
X458256Y773430D01*
X453178D01*
X102304Y370078D02*
Y361614D01*
X103997Y359922D01*
X107382D01*
X109075Y361614D01*
Y370078D01*
X112461Y359922D02*
X115846D01*
X114154D01*
Y370078D01*
X112461Y368386D01*
X120925D02*
X122618Y370078D01*
X126003D01*
X127696Y368386D01*
Y366693D01*
X126003Y365000D01*
X124310D01*
X126003D01*
X127696Y363307D01*
Y361614D01*
X126003Y359922D01*
X122618D01*
X120925Y361614D01*
X112186Y100328D02*
Y90172D01*
Y95250D01*
X118957D01*
Y100328D01*
Y90172D01*
X129114D02*
X122343D01*
X129114Y96943D01*
Y98636D01*
X127421Y100328D01*
X124036D01*
X122343Y98636D01*
X496572Y601978D02*
X489800D01*
Y596900D01*
X493186D01*
X489800D01*
Y591822D01*
X499957Y601978D02*
Y591822D01*
X505036D01*
X506728Y593514D01*
Y595207D01*
X505036Y596900D01*
X499957D01*
X505036D01*
X506728Y598593D01*
Y600286D01*
X505036Y601978D01*
X499957D01*
X510114Y591822D02*
X513499D01*
X511807D01*
Y601978D01*
X510114Y600286D01*
X563457Y778086D02*
X561764Y779778D01*
X558379D01*
X556686Y778086D01*
Y771314D01*
X558379Y769622D01*
X561764D01*
X563457Y771314D01*
X566843Y779778D02*
X573614D01*
Y778086D01*
X566843Y771314D01*
Y769622D01*
X1160778Y119808D02*
X1150622D01*
Y124886D01*
X1152314Y126579D01*
X1155700D01*
X1157393Y124886D01*
Y119808D01*
Y123193D02*
X1160778Y126579D01*
X1150622Y129965D02*
Y136736D01*
X1152314D01*
X1159085Y129965D01*
X1160778D01*
X1152314Y140121D02*
X1150622Y141814D01*
Y145199D01*
X1152314Y146892D01*
X1154007D01*
X1155700Y145199D01*
Y143507D01*
Y145199D01*
X1157393Y146892D01*
X1159085D01*
X1160778Y145199D01*
Y141814D01*
X1159085Y140121D01*
X1084578Y119808D02*
X1074422D01*
Y124886D01*
X1076114Y126579D01*
X1079500D01*
X1081193Y124886D01*
Y119808D01*
Y123193D02*
X1084578Y126579D01*
X1074422Y136736D02*
Y129965D01*
X1079500D01*
X1077807Y133350D01*
Y135043D01*
X1079500Y136736D01*
X1082886D01*
X1084578Y135043D01*
Y131657D01*
X1082886Y129965D01*
X1076114Y140121D02*
X1074422Y141814D01*
Y145199D01*
X1076114Y146892D01*
X1077807D01*
X1079500Y145199D01*
X1081193Y146892D01*
X1082886D01*
X1084578Y145199D01*
Y141814D01*
X1082886Y140121D01*
X1081193D01*
X1079500Y141814D01*
X1077807Y140121D01*
X1076114D01*
X1079500Y141814D02*
Y145199D01*
X1062098Y886466D02*
X1051942D01*
Y891544D01*
X1053634Y893237D01*
X1057020D01*
X1058713Y891544D01*
Y886466D01*
Y889851D02*
X1062098Y893237D01*
Y896622D02*
Y900008D01*
Y898315D01*
X1051942D01*
X1053634Y896622D01*
X1062098Y911858D02*
Y905086D01*
X1055327Y911858D01*
X1053634D01*
X1051942Y910165D01*
Y906779D01*
X1053634Y905086D01*
X1051942Y915243D02*
Y922014D01*
X1053634D01*
X1060406Y915243D01*
X1062098D01*
X1033778Y886466D02*
X1023622D01*
Y891544D01*
X1025314Y893237D01*
X1028700D01*
X1030393Y891544D01*
Y886466D01*
Y889851D02*
X1033778Y893237D01*
Y896622D02*
Y900008D01*
Y898315D01*
X1023622D01*
X1025314Y896622D01*
X1033778Y911858D02*
Y905086D01*
X1027007Y911858D01*
X1025314D01*
X1023622Y910165D01*
Y906779D01*
X1025314Y905086D01*
X1023622Y922014D02*
X1025314Y918629D01*
X1028700Y915243D01*
X1032086D01*
X1033778Y916936D01*
Y920322D01*
X1032086Y922014D01*
X1030393D01*
X1028700Y920322D01*
Y915243D01*
X1008378Y886466D02*
X998222D01*
Y891544D01*
X999914Y893237D01*
X1003300D01*
X1004993Y891544D01*
Y886466D01*
Y889851D02*
X1008378Y893237D01*
Y896622D02*
Y900008D01*
Y898315D01*
X998222D01*
X999914Y896622D01*
X1008378Y911858D02*
Y905086D01*
X1001607Y911858D01*
X999914D01*
X998222Y910165D01*
Y906779D01*
X999914Y905086D01*
X998222Y922014D02*
Y915243D01*
X1003300D01*
X1001607Y918629D01*
Y920322D01*
X1003300Y922014D01*
X1006686D01*
X1008378Y920322D01*
Y916936D01*
X1006686Y915243D01*
X753277Y1276347D02*
X749892D01*
X751584D01*
Y1267883D01*
X749892Y1266190D01*
X748199D01*
X746506Y1267883D01*
X763434Y1276347D02*
X756663D01*
Y1271268D01*
X760048Y1272961D01*
X761741D01*
X763434Y1271268D01*
Y1267883D01*
X761741Y1266190D01*
X758355D01*
X756663Y1267883D01*
X151245Y921536D02*
X141088D01*
Y926614D01*
X142781Y928307D01*
X146166D01*
X147859Y926614D01*
Y921536D01*
Y924922D02*
X151245Y928307D01*
Y936771D02*
X141088D01*
X146166Y931693D01*
Y938464D01*
X67578Y925646D02*
X57422D01*
Y930725D01*
X59114Y932417D01*
X62500D01*
X64193Y930725D01*
Y925646D01*
Y929032D02*
X67578Y932417D01*
Y935803D02*
Y939189D01*
Y937496D01*
X57422D01*
X59114Y935803D01*
X174623Y912957D02*
X164467D01*
Y918036D01*
X166159Y919728D01*
X169545D01*
X171238Y918036D01*
Y912957D01*
Y916343D02*
X174623Y919728D01*
Y929885D02*
Y923114D01*
X167852Y929885D01*
X166159D01*
X164467Y928192D01*
Y924807D01*
X166159Y923114D01*
X164467Y940042D02*
Y933271D01*
X169545D01*
X167852Y936656D01*
Y938349D01*
X169545Y940042D01*
X172931D01*
X174623Y938349D01*
Y934964D01*
X172931Y933271D01*
X93026Y983525D02*
X82869D01*
Y988604D01*
X84562Y990296D01*
X87948D01*
X89640Y988604D01*
Y983525D01*
Y986911D02*
X93026Y990296D01*
Y1000453D02*
Y993682D01*
X86255Y1000453D01*
X84562D01*
X82869Y998760D01*
Y995375D01*
X84562Y993682D01*
X93026Y1003839D02*
Y1007224D01*
Y1005531D01*
X82869D01*
X84562Y1003839D01*
X188193Y934078D02*
Y923922D01*
X193271D01*
X194964Y925614D01*
Y932386D01*
X193271Y934078D01*
X188193D01*
X198349Y925614D02*
X200042Y923922D01*
X203428D01*
X205121Y925614D01*
Y932386D01*
X203428Y934078D01*
X200042D01*
X198349Y932386D01*
Y930693D01*
X200042Y929000D01*
X205121D01*
X136489Y993836D02*
Y983679D01*
X141567D01*
X143260Y985372D01*
Y992143D01*
X141567Y993836D01*
X136489D01*
X153416D02*
X146645D01*
Y988757D01*
X150031Y990450D01*
X151723D01*
X153416Y988757D01*
Y985372D01*
X151723Y983679D01*
X148338D01*
X146645Y985372D01*
X140972Y888579D02*
X149436D01*
X151128Y890272D01*
Y893657D01*
X149436Y895350D01*
X140972D01*
X151128Y898736D02*
Y902121D01*
Y900428D01*
X140972D01*
X142664Y898736D01*
X312218Y909324D02*
X302062D01*
Y914402D01*
X303754Y916095D01*
X307140D01*
X308833Y914402D01*
Y909324D01*
Y912710D02*
X312218Y916095D01*
Y919481D02*
Y922867D01*
Y921174D01*
X302062D01*
X303754Y919481D01*
X312218Y934716D02*
Y927945D01*
X305447Y934716D01*
X303754D01*
X302062Y933023D01*
Y929638D01*
X303754Y927945D01*
X220913Y923719D02*
X210756D01*
Y928798D01*
X212449Y930491D01*
X215835D01*
X217527Y928798D01*
Y923719D01*
Y927105D02*
X220913Y930491D01*
X219220Y933876D02*
X220913Y935569D01*
Y938954D01*
X219220Y940647D01*
X212449D01*
X210756Y938954D01*
Y935569D01*
X212449Y933876D01*
X214142D01*
X215835Y935569D01*
Y940647D01*
X1603586Y961811D02*
X1605278Y963504D01*
Y966889D01*
X1603586Y968582D01*
X1596814D01*
X1595122Y966889D01*
Y963504D01*
X1596814Y961811D01*
X1595122Y951654D02*
Y958426D01*
X1601893Y951654D01*
X1603586D01*
X1605278Y953347D01*
Y956733D01*
X1603586Y958426D01*
X1605278Y941498D02*
Y948269D01*
X1600200D01*
X1601893Y944883D01*
Y943191D01*
X1600200Y941498D01*
X1596814D01*
X1595122Y943191D01*
Y946576D01*
X1596814Y948269D01*
X1400386Y964351D02*
X1402078Y966044D01*
Y969429D01*
X1400386Y971122D01*
X1393614D01*
X1391922Y969429D01*
Y966044D01*
X1393614Y964351D01*
X1391922Y954194D02*
Y960966D01*
X1398693Y954194D01*
X1400386D01*
X1402078Y955887D01*
Y959273D01*
X1400386Y960966D01*
X1391922Y945731D02*
X1402078D01*
X1397000Y950809D01*
Y944038D01*
X1369906Y961811D02*
X1371598Y963504D01*
Y966889D01*
X1369906Y968582D01*
X1363134D01*
X1361442Y966889D01*
Y963504D01*
X1363134Y961811D01*
X1361442Y951654D02*
Y958426D01*
X1368213Y951654D01*
X1369906D01*
X1371598Y953347D01*
Y956733D01*
X1369906Y958426D01*
Y948269D02*
X1371598Y946576D01*
Y943191D01*
X1369906Y941498D01*
X1363134D01*
X1361442Y943191D01*
Y946576D01*
X1363134Y948269D01*
X1369906D01*
X1145627Y996489D02*
X1143934Y994796D01*
Y991411D01*
X1145627Y989718D01*
X1152398D01*
X1154091Y991411D01*
Y994796D01*
X1152398Y996489D01*
X1154091Y999875D02*
Y1003260D01*
Y1001568D01*
X1143934D01*
X1145627Y999875D01*
X1152398Y1008339D02*
X1154091Y1010032D01*
Y1013417D01*
X1152398Y1015110D01*
X1145627D01*
X1143934Y1013417D01*
Y1010032D01*
X1145627Y1008339D01*
X1147320D01*
X1149013Y1010032D01*
Y1015110D01*
X411057Y87628D02*
X407672D01*
X409364D01*
Y79164D01*
X407672Y77472D01*
X405979D01*
X404286Y79164D01*
X419521Y77472D02*
Y87628D01*
X414443Y82550D01*
X421214D01*
X1581536Y1145078D02*
Y1134922D01*
Y1140000D01*
X1588307D01*
Y1145078D01*
Y1134922D01*
X1596771D02*
Y1145078D01*
X1591693Y1140000D01*
X1598464D01*
X1581536Y125078D02*
Y114922D01*
Y120000D01*
X1588307D01*
Y125078D01*
Y114922D01*
X1591693Y123386D02*
X1593386Y125078D01*
X1596771D01*
X1598464Y123386D01*
Y121693D01*
X1596771Y120000D01*
X1595078D01*
X1596771D01*
X1598464Y118307D01*
Y116614D01*
X1596771Y114922D01*
X1593386D01*
X1591693Y116614D01*
X90729Y1152578D02*
Y1142422D01*
Y1147500D01*
X97500D01*
Y1152578D01*
Y1142422D01*
X100886D02*
X104271D01*
X102578D01*
Y1152578D01*
X100886Y1150886D01*
X287226Y204922D02*
Y215078D01*
X292304D01*
X293997Y213386D01*
Y210000D01*
X292304Y208307D01*
X287226D01*
X290611D02*
X293997Y204922D01*
X297382D02*
X300768D01*
X299075D01*
Y215078D01*
X297382Y213386D01*
X305846D02*
X307539Y215078D01*
X310925D01*
X312617Y213386D01*
Y206614D01*
X310925Y204922D01*
X307539D01*
X305846Y206614D01*
Y213386D01*
X322774Y215078D02*
X316003D01*
Y210000D01*
X319389Y211693D01*
X321082D01*
X322774Y210000D01*
Y206614D01*
X321082Y204922D01*
X317696D01*
X316003Y206614D01*
X1253067Y68578D02*
X1249682D01*
X1251374D01*
Y60114D01*
X1249682Y58422D01*
X1247989D01*
X1246296Y60114D01*
X1263224Y68578D02*
X1259838Y66886D01*
X1256453Y63500D01*
Y60114D01*
X1258146Y58422D01*
X1261531D01*
X1263224Y60114D01*
Y61807D01*
X1261531Y63500D01*
X1256453D01*
X635350Y235622D02*
Y245778D01*
X640429D01*
X642122Y244086D01*
Y240700D01*
X640429Y239007D01*
X635350D01*
X638736D02*
X642122Y235622D01*
X650586D02*
Y245778D01*
X645507Y240700D01*
X652278D01*
X655664Y235622D02*
X659050D01*
X657357D01*
Y245778D01*
X655664Y244086D01*
X633658Y287622D02*
Y297778D01*
X638736D01*
X640429Y296086D01*
Y292700D01*
X638736Y291007D01*
X633658D01*
X637043D02*
X640429Y287622D01*
X643814Y296086D02*
X645507Y297778D01*
X648893D01*
X650586Y296086D01*
Y294393D01*
X648893Y292700D01*
X647200D01*
X648893D01*
X650586Y291007D01*
Y289314D01*
X648893Y287622D01*
X645507D01*
X643814Y289314D01*
X653971Y297778D02*
X660742D01*
Y296086D01*
X653971Y289314D01*
Y287622D01*
X797986Y310778D02*
Y302314D01*
X799679Y300622D01*
X803064D01*
X804757Y302314D01*
Y310778D01*
X808143Y302314D02*
X809836Y300622D01*
X813221D01*
X814914Y302314D01*
Y309086D01*
X813221Y310778D01*
X809836D01*
X808143Y309086D01*
Y307393D01*
X809836Y305700D01*
X814914D01*
X1037169Y441958D02*
X1043940Y431802D01*
Y441958D02*
X1037169Y431802D01*
X1047326D02*
X1050711D01*
X1049018D01*
Y441958D01*
X1047326Y440266D01*
X516892Y203204D02*
X525356D01*
X527048Y204897D01*
Y208283D01*
X525356Y209975D01*
X516892D01*
X527048Y213361D02*
Y216746D01*
Y215054D01*
X516892D01*
X518584Y213361D01*
X516892Y228596D02*
X518584Y225210D01*
X521970Y221825D01*
X525356D01*
X527048Y223518D01*
Y226903D01*
X525356Y228596D01*
X523663D01*
X521970Y226903D01*
Y221825D01*
X882504Y833118D02*
Y824654D01*
X884197Y822962D01*
X887583D01*
X889275Y824654D01*
Y833118D01*
X892661Y822962D02*
X896047D01*
X894354D01*
Y833118D01*
X892661Y831426D01*
X907896Y833118D02*
X901125D01*
Y828040D01*
X904510Y829733D01*
X906203D01*
X907896Y828040D01*
Y824654D01*
X906203Y822962D01*
X902818D01*
X901125Y824654D01*
X754384Y830578D02*
Y822114D01*
X756077Y820422D01*
X759463D01*
X761155Y822114D01*
Y830578D01*
X764541Y820422D02*
X767926D01*
X766234D01*
Y830578D01*
X764541Y828886D01*
X778083Y820422D02*
Y830578D01*
X773005Y825500D01*
X779776D01*
X1434749Y309879D02*
Y301415D01*
X1436442Y299722D01*
X1439827D01*
X1441520Y301415D01*
Y309879D01*
X1444906Y299722D02*
X1448291D01*
X1446599D01*
Y309879D01*
X1444906Y308186D01*
X1460141Y299722D02*
X1453370D01*
X1460141Y306493D01*
Y308186D01*
X1458448Y309879D01*
X1455063D01*
X1453370Y308186D01*
X1118390Y310739D02*
Y302275D01*
X1120083Y300582D01*
X1123468D01*
X1125161Y302275D01*
Y310739D01*
X1128547Y300582D02*
X1131932D01*
X1130239D01*
Y310739D01*
X1128547Y309046D01*
X1137011Y300582D02*
X1140396D01*
X1138703D01*
Y310739D01*
X1137011Y309046D01*
X1122684Y609598D02*
Y601134D01*
X1124377Y599442D01*
X1127763D01*
X1129455Y601134D01*
Y609598D01*
X1132841Y599442D02*
X1136226D01*
X1134534D01*
Y609598D01*
X1132841Y607906D01*
X1141305D02*
X1142998Y609598D01*
X1146383D01*
X1148076Y607906D01*
Y601134D01*
X1146383Y599442D01*
X1142998D01*
X1141305Y601134D01*
Y607906D01*
X1420286Y1129028D02*
Y1120564D01*
X1421979Y1118872D01*
X1425364D01*
X1427057Y1120564D01*
Y1129028D01*
X1430443Y1127336D02*
X1432136Y1129028D01*
X1435521D01*
X1437214Y1127336D01*
Y1125643D01*
X1435521Y1123950D01*
X1437214Y1122257D01*
Y1120564D01*
X1435521Y1118872D01*
X1432136D01*
X1430443Y1120564D01*
Y1122257D01*
X1432136Y1123950D01*
X1430443Y1125643D01*
Y1127336D01*
X1432136Y1123950D02*
X1435521D01*
X1185336Y1122678D02*
Y1114214D01*
X1187029Y1112522D01*
X1190414D01*
X1192107Y1114214D01*
Y1122678D01*
X1195493D02*
X1202264D01*
Y1120986D01*
X1195493Y1114214D01*
Y1112522D01*
X453392Y531286D02*
X461856D01*
X463548Y532979D01*
Y536364D01*
X461856Y538057D01*
X453392D01*
Y548214D02*
X455084Y544828D01*
X458470Y541443D01*
X461856D01*
X463548Y543136D01*
Y546521D01*
X461856Y548214D01*
X460163D01*
X458470Y546521D01*
Y541443D01*
X452122Y385236D02*
X460586D01*
X462278Y386929D01*
Y390314D01*
X460586Y392007D01*
X452122D01*
Y402164D02*
Y395393D01*
X457200D01*
X455507Y398778D01*
Y400471D01*
X457200Y402164D01*
X460586D01*
X462278Y400471D01*
Y397086D01*
X460586Y395393D01*
X577678Y888240D02*
X586142D01*
X587835Y889933D01*
Y893319D01*
X586142Y895011D01*
X577678D01*
X587835Y903475D02*
X577678D01*
X582757Y898397D01*
Y905168D01*
X281672Y890786D02*
X290136D01*
X291828Y892479D01*
Y895864D01*
X290136Y897557D01*
X281672D01*
X283364Y900943D02*
X281672Y902636D01*
Y906021D01*
X283364Y907714D01*
X285057D01*
X286750Y906021D01*
Y904328D01*
Y906021D01*
X288443Y907714D01*
X290136D01*
X291828Y906021D01*
Y902636D01*
X290136Y900943D01*
X425922Y857786D02*
X434386D01*
X436078Y859479D01*
Y862864D01*
X434386Y864557D01*
X425922D01*
X436078Y874714D02*
Y867943D01*
X429307Y874714D01*
X427614D01*
X425922Y873021D01*
Y869636D01*
X427614Y867943D01*
X629076Y985518D02*
X635847D01*
X632462D01*
Y975362D01*
X644311D02*
Y985518D01*
X639233Y980440D01*
X646004D01*
X552876Y982978D02*
X559647D01*
X556262D01*
Y972822D01*
X563033Y981286D02*
X564726Y982978D01*
X568111D01*
X569804Y981286D01*
Y979593D01*
X568111Y977900D01*
X566418D01*
X568111D01*
X569804Y976207D01*
Y974514D01*
X568111Y972822D01*
X564726D01*
X563033Y974514D01*
X487682Y969436D02*
Y976207D01*
Y972822D01*
X497838D01*
Y986364D02*
Y979593D01*
X491067Y986364D01*
X489374D01*
X487682Y984671D01*
Y981286D01*
X489374Y979593D01*
X403979Y987212D02*
X410750D01*
X407364D01*
Y977055D01*
X414136D02*
X417521D01*
X415828D01*
Y987212D01*
X414136Y985519D01*
X844129Y498686D02*
X842436Y500378D01*
X839051D01*
X837358Y498686D01*
Y496993D01*
X839051Y495300D01*
X842436D01*
X844129Y493607D01*
Y491914D01*
X842436Y490222D01*
X839051D01*
X837358Y491914D01*
X847514Y500378D02*
Y490222D01*
X850900Y493607D01*
X854286Y490222D01*
Y500378D01*
X864442Y490222D02*
X857671D01*
X864442Y496993D01*
Y498686D01*
X862749Y500378D01*
X859364D01*
X857671Y498686D01*
X845822Y583136D02*
X844129Y584828D01*
X840743D01*
X839051Y583136D01*
Y581443D01*
X840743Y579750D01*
X844129D01*
X845822Y578057D01*
Y576364D01*
X844129Y574672D01*
X840743D01*
X839051Y576364D01*
X849207Y584828D02*
Y574672D01*
X852593Y578057D01*
X855978Y574672D01*
Y584828D01*
X859364Y574672D02*
X862749D01*
X861057D01*
Y584828D01*
X859364Y583136D01*
X515618Y105926D02*
X505462D01*
Y111004D01*
X507154Y112697D01*
X510540D01*
X512233Y111004D01*
Y105926D01*
Y109311D02*
X515618Y112697D01*
Y116082D02*
Y119468D01*
Y117775D01*
X505462D01*
X507154Y116082D01*
X515618Y129625D02*
X505462D01*
X510540Y124546D01*
Y131318D01*
X505462Y134703D02*
Y141474D01*
X507154D01*
X513926Y134703D01*
X515618D01*
X628648Y198126D02*
X618492D01*
Y203204D01*
X620184Y204897D01*
X623570D01*
X625263Y203204D01*
Y198126D01*
Y201511D02*
X628648Y204897D01*
Y208283D02*
Y211668D01*
Y209975D01*
X618492D01*
X620184Y208283D01*
X628648Y221825D02*
X618492D01*
X623570Y216746D01*
Y223518D01*
X618492Y233674D02*
X620184Y230289D01*
X623570Y226903D01*
X626955D01*
X628648Y228596D01*
Y231982D01*
X626955Y233674D01*
X625263D01*
X623570Y231982D01*
Y226903D01*
X615078Y122226D02*
X604922D01*
Y127304D01*
X606614Y128997D01*
X610000D01*
X611693Y127304D01*
Y122226D01*
Y125611D02*
X615078Y128997D01*
Y132382D02*
Y135768D01*
Y134075D01*
X604922D01*
X606614Y132382D01*
X615078Y145925D02*
X604922D01*
X610000Y140846D01*
Y147618D01*
X604922Y157774D02*
Y151003D01*
X610000D01*
X608307Y154389D01*
Y156081D01*
X610000Y157774D01*
X613386D01*
X615078Y156081D01*
Y152696D01*
X613386Y151003D01*
X497838Y105926D02*
X487682D01*
Y111004D01*
X489374Y112697D01*
X492760D01*
X494453Y111004D01*
Y105926D01*
Y109311D02*
X497838Y112697D01*
Y116082D02*
Y119468D01*
Y117775D01*
X487682D01*
X489374Y116082D01*
X497838Y129625D02*
X487682D01*
X492760Y124546D01*
Y131318D01*
X497838Y139782D02*
X487682D01*
X492760Y134703D01*
Y141474D01*
X977898Y924726D02*
X967742D01*
Y929804D01*
X969434Y931497D01*
X972820D01*
X974513Y929804D01*
Y924726D01*
Y928111D02*
X977898Y931497D01*
Y934883D02*
Y938268D01*
Y936575D01*
X967742D01*
X969434Y934883D01*
X977898Y948425D02*
X967742D01*
X972820Y943346D01*
Y950118D01*
X969434Y953503D02*
X967742Y955196D01*
Y958581D01*
X969434Y960274D01*
X971127D01*
X972820Y958581D01*
Y956889D01*
Y958581D01*
X974513Y960274D01*
X976206D01*
X977898Y958581D01*
Y955196D01*
X976206Y953503D01*
X932178Y731526D02*
X922022D01*
Y736604D01*
X923714Y738297D01*
X927100D01*
X928793Y736604D01*
Y731526D01*
Y734911D02*
X932178Y738297D01*
Y741683D02*
Y745068D01*
Y743375D01*
X922022D01*
X923714Y741683D01*
X932178Y755225D02*
X922022D01*
X927100Y750146D01*
Y756917D01*
X932178Y767074D02*
Y760303D01*
X925407Y767074D01*
X923714D01*
X922022Y765381D01*
Y761996D01*
X923714Y760303D01*
X957578Y733219D02*
X947422D01*
Y738297D01*
X949114Y739990D01*
X952500D01*
X954193Y738297D01*
Y733219D01*
Y736604D02*
X957578Y739990D01*
Y743375D02*
Y746761D01*
Y745068D01*
X947422D01*
X949114Y743375D01*
X957578Y756918D02*
X947422D01*
X952500Y751839D01*
Y758610D01*
X957578Y761996D02*
Y765381D01*
Y763689D01*
X947422D01*
X949114Y761996D01*
X919260Y923893D02*
X909103D01*
Y928971D01*
X910796Y930664D01*
X914182D01*
X915874Y928971D01*
Y923893D01*
Y927278D02*
X919260Y930664D01*
Y934049D02*
Y937435D01*
Y935742D01*
X909103D01*
X910796Y934049D01*
X919260Y947592D02*
X909103D01*
X914182Y942513D01*
Y949284D01*
X910796Y952670D02*
X909103Y954363D01*
Y957748D01*
X910796Y959441D01*
X917567D01*
X919260Y957748D01*
Y954363D01*
X917567Y952670D01*
X910796D01*
X858278Y874526D02*
X848121D01*
Y879604D01*
X849814Y881297D01*
X853200D01*
X854893Y879604D01*
Y874526D01*
Y877911D02*
X858278Y881297D01*
Y884682D02*
Y888068D01*
Y886375D01*
X848121D01*
X849814Y884682D01*
Y893146D02*
X848121Y894839D01*
Y898225D01*
X849814Y899918D01*
X851507D01*
X853200Y898225D01*
Y896532D01*
Y898225D01*
X854893Y899918D01*
X856585D01*
X858278Y898225D01*
Y894839D01*
X856585Y893146D01*
Y903303D02*
X858278Y904996D01*
Y908381D01*
X856585Y910074D01*
X849814D01*
X848121Y908381D01*
Y904996D01*
X849814Y903303D01*
X851507D01*
X853200Y904996D01*
Y910074D01*
X904238Y921027D02*
X894082D01*
Y926106D01*
X895774Y927798D01*
X899160D01*
X900853Y926106D01*
Y921027D01*
Y924413D02*
X904238Y927798D01*
Y931184D02*
Y934569D01*
Y932877D01*
X894082D01*
X895774Y931184D01*
Y939648D02*
X894082Y941341D01*
Y944726D01*
X895774Y946419D01*
X897467D01*
X899160Y944726D01*
Y943033D01*
Y944726D01*
X900853Y946419D01*
X902546D01*
X904238Y944726D01*
Y941341D01*
X902546Y939648D01*
X895774Y949805D02*
X894082Y951497D01*
Y954883D01*
X895774Y956576D01*
X897467D01*
X899160Y954883D01*
X900853Y956576D01*
X902546D01*
X904238Y954883D01*
Y951497D01*
X902546Y949805D01*
X900853D01*
X899160Y951497D01*
X897467Y949805D01*
X895774D01*
X899160Y951497D02*
Y954883D01*
X881378Y731526D02*
X871222D01*
Y736604D01*
X872914Y738297D01*
X876300D01*
X877993Y736604D01*
Y731526D01*
Y734911D02*
X881378Y738297D01*
Y741683D02*
Y745068D01*
Y743375D01*
X871222D01*
X872914Y741683D01*
Y750146D02*
X871222Y751839D01*
Y755225D01*
X872914Y756917D01*
X874607D01*
X876300Y755225D01*
Y753532D01*
Y755225D01*
X877993Y756917D01*
X879686D01*
X881378Y755225D01*
Y751839D01*
X879686Y750146D01*
X871222Y760303D02*
Y767074D01*
X872914D01*
X879686Y760303D01*
X881378D01*
X906778Y731526D02*
X896622D01*
Y736604D01*
X898314Y738297D01*
X901700D01*
X903393Y736604D01*
Y731526D01*
Y734911D02*
X906778Y738297D01*
Y741683D02*
Y745068D01*
Y743375D01*
X896622D01*
X898314Y741683D01*
Y750146D02*
X896622Y751839D01*
Y755225D01*
X898314Y756917D01*
X900007D01*
X901700Y755225D01*
Y753532D01*
Y755225D01*
X903393Y756917D01*
X905086D01*
X906778Y755225D01*
Y751839D01*
X905086Y750146D01*
X896622Y767074D02*
X898314Y763689D01*
X901700Y760303D01*
X905086D01*
X906778Y761996D01*
Y765381D01*
X905086Y767074D01*
X903393D01*
X901700Y765381D01*
Y760303D01*
X827878Y920256D02*
X817722D01*
Y925334D01*
X819414Y927027D01*
X822800D01*
X824493Y925334D01*
Y920256D01*
Y923641D02*
X827878Y927027D01*
Y930413D02*
Y933798D01*
Y932105D01*
X817722D01*
X819414Y930413D01*
Y938876D02*
X817722Y940569D01*
Y943955D01*
X819414Y945648D01*
X821107D01*
X822800Y943955D01*
Y942262D01*
Y943955D01*
X824493Y945648D01*
X826186D01*
X827878Y943955D01*
Y940569D01*
X826186Y938876D01*
X817722Y955804D02*
Y949033D01*
X822800D01*
X821107Y952419D01*
Y954112D01*
X822800Y955804D01*
X826186D01*
X827878Y954112D01*
Y950726D01*
X826186Y949033D01*
X767078Y921027D02*
X756922D01*
Y926106D01*
X758614Y927798D01*
X762000D01*
X763693Y926106D01*
Y921027D01*
Y924413D02*
X767078Y927798D01*
Y931184D02*
Y934569D01*
Y932877D01*
X756922D01*
X758614Y931184D01*
Y939648D02*
X756922Y941341D01*
Y944726D01*
X758614Y946419D01*
X760307D01*
X762000Y944726D01*
Y943033D01*
Y944726D01*
X763693Y946419D01*
X765386D01*
X767078Y944726D01*
Y941341D01*
X765386Y939648D01*
X767078Y954883D02*
X756922D01*
X762000Y949805D01*
Y956576D01*
X710078Y871226D02*
X699922D01*
Y876304D01*
X701614Y877997D01*
X705000D01*
X706693Y876304D01*
Y871226D01*
Y874611D02*
X710078Y877997D01*
Y881383D02*
Y884768D01*
Y883075D01*
X699922D01*
X701614Y881383D01*
Y889846D02*
X699922Y891539D01*
Y894925D01*
X701614Y896618D01*
X703307D01*
X705000Y894925D01*
Y893232D01*
Y894925D01*
X706693Y896618D01*
X708386D01*
X710078Y894925D01*
Y891539D01*
X708386Y889846D01*
X701614Y900003D02*
X699922Y901696D01*
Y905081D01*
X701614Y906774D01*
X703307D01*
X705000Y905081D01*
Y903389D01*
Y905081D01*
X706693Y906774D01*
X708386D01*
X710078Y905081D01*
Y901696D01*
X708386Y900003D01*
X735228Y879526D02*
X725071D01*
Y884604D01*
X726764Y886297D01*
X730150D01*
X731843Y884604D01*
Y879526D01*
Y882912D02*
X735228Y886297D01*
Y889683D02*
Y893068D01*
Y891376D01*
X725071D01*
X726764Y889683D01*
Y898147D02*
X725071Y899839D01*
Y903225D01*
X726764Y904918D01*
X728457D01*
X730150Y903225D01*
Y901532D01*
Y903225D01*
X731843Y904918D01*
X733536D01*
X735228Y903225D01*
Y899839D01*
X733536Y898147D01*
X735228Y915074D02*
Y908303D01*
X728457Y915074D01*
X726764D01*
X725071Y913382D01*
Y909996D01*
X726764Y908303D01*
X1160778Y888158D02*
X1150622D01*
Y893237D01*
X1152314Y894930D01*
X1155700D01*
X1157393Y893237D01*
Y888158D01*
Y891544D02*
X1160778Y894930D01*
Y898315D02*
Y901701D01*
Y900008D01*
X1150622D01*
X1152314Y898315D01*
Y906779D02*
X1150622Y908472D01*
Y911858D01*
X1152314Y913550D01*
X1154007D01*
X1155700Y911858D01*
Y910165D01*
Y911858D01*
X1157393Y913550D01*
X1159085D01*
X1160778Y911858D01*
Y908472D01*
X1159085Y906779D01*
X1160778Y916936D02*
Y920322D01*
Y918629D01*
X1150622D01*
X1152314Y916936D01*
X1135378Y886466D02*
X1125222D01*
Y891544D01*
X1126914Y893237D01*
X1130300D01*
X1131993Y891544D01*
Y886466D01*
Y889851D02*
X1135378Y893237D01*
Y896622D02*
Y900008D01*
Y898315D01*
X1125222D01*
X1126914Y896622D01*
Y905086D02*
X1125222Y906779D01*
Y910165D01*
X1126914Y911858D01*
X1128607D01*
X1130300Y910165D01*
Y908472D01*
Y910165D01*
X1131993Y911858D01*
X1133686D01*
X1135378Y910165D01*
Y906779D01*
X1133686Y905086D01*
X1126914Y915243D02*
X1125222Y916936D01*
Y920322D01*
X1126914Y922014D01*
X1133686D01*
X1135378Y920322D01*
Y916936D01*
X1133686Y915243D01*
X1126914D01*
X1110979Y886466D02*
X1100822D01*
Y891544D01*
X1102515Y893237D01*
X1105900D01*
X1107593Y891544D01*
Y886466D01*
Y889851D02*
X1110979Y893237D01*
Y896622D02*
Y900008D01*
Y898315D01*
X1100822D01*
X1102515Y896622D01*
X1110979Y911858D02*
Y905086D01*
X1104207Y911858D01*
X1102515D01*
X1100822Y910165D01*
Y906779D01*
X1102515Y905086D01*
X1109286Y915243D02*
X1110979Y916936D01*
Y920322D01*
X1109286Y922014D01*
X1102515D01*
X1100822Y920322D01*
Y916936D01*
X1102515Y915243D01*
X1104207D01*
X1105900Y916936D01*
Y922014D01*
X1084578Y886466D02*
X1074422D01*
Y891544D01*
X1076114Y893237D01*
X1079500D01*
X1081193Y891544D01*
Y886466D01*
Y889851D02*
X1084578Y893237D01*
Y896622D02*
Y900008D01*
Y898315D01*
X1074422D01*
X1076114Y896622D01*
X1084578Y911858D02*
Y905086D01*
X1077807Y911858D01*
X1076114D01*
X1074422Y910165D01*
Y906779D01*
X1076114Y905086D01*
Y915243D02*
X1074422Y916936D01*
Y920322D01*
X1076114Y922014D01*
X1077807D01*
X1079500Y920322D01*
X1081193Y922014D01*
X1082886D01*
X1084578Y920322D01*
Y916936D01*
X1082886Y915243D01*
X1081193D01*
X1079500Y916936D01*
X1077807Y915243D01*
X1076114D01*
X1079500Y916936D02*
Y920322D01*
X437226Y309922D02*
Y320078D01*
X442304D01*
X443997Y318386D01*
Y315000D01*
X442304Y313307D01*
X437226D01*
X440611D02*
X443997Y309922D01*
X447382D02*
X450768D01*
X449075D01*
Y320078D01*
X447382Y318386D01*
X462617Y309922D02*
X455846D01*
X462617Y316693D01*
Y318386D01*
X460925Y320078D01*
X457539D01*
X455846Y318386D01*
X471081Y309922D02*
Y320078D01*
X466003Y315000D01*
X472774D01*
X437226Y334922D02*
Y345078D01*
X442304D01*
X443997Y343386D01*
Y340000D01*
X442304Y338307D01*
X437226D01*
X440611D02*
X443997Y334922D01*
X447382D02*
X450768D01*
X449075D01*
Y345078D01*
X447382Y343386D01*
X462617Y334922D02*
X455846D01*
X462617Y341693D01*
Y343386D01*
X460925Y345078D01*
X457539D01*
X455846Y343386D01*
X466003D02*
X467696Y345078D01*
X471081D01*
X472774Y343386D01*
Y341693D01*
X471081Y340000D01*
X469389D01*
X471081D01*
X472774Y338307D01*
Y336614D01*
X471081Y334922D01*
X467696D01*
X466003Y336614D01*
X482226Y334922D02*
Y345078D01*
X487304D01*
X488997Y343386D01*
Y340000D01*
X487304Y338307D01*
X482226D01*
X485611D02*
X488997Y334922D01*
X492382D02*
X495768D01*
X494075D01*
Y345078D01*
X492382Y343386D01*
X507617Y334922D02*
X500846D01*
X507617Y341693D01*
Y343386D01*
X505925Y345078D01*
X502539D01*
X500846Y343386D01*
X517774Y334922D02*
X511003D01*
X517774Y341693D01*
Y343386D01*
X516081Y345078D01*
X512696D01*
X511003Y343386D01*
X288918Y254922D02*
Y265078D01*
X293997D01*
X295690Y263386D01*
Y260000D01*
X293997Y258307D01*
X288918D01*
X292304D02*
X295690Y254922D01*
X299075D02*
X302461D01*
X300768D01*
Y265078D01*
X299075Y263386D01*
X314310Y254922D02*
X307539D01*
X314310Y261693D01*
Y263386D01*
X312617Y265078D01*
X309232D01*
X307539Y263386D01*
X317696Y254922D02*
X321082D01*
X319389D01*
Y265078D01*
X317696Y263386D01*
X432226Y259922D02*
Y270078D01*
X437304D01*
X438997Y268386D01*
Y265000D01*
X437304Y263307D01*
X432226D01*
X435611D02*
X438997Y259922D01*
X442382D02*
X445768D01*
X444075D01*
Y270078D01*
X442382Y268386D01*
X457617Y259922D02*
X450846D01*
X457617Y266693D01*
Y268386D01*
X455925Y270078D01*
X452539D01*
X450846Y268386D01*
X461003D02*
X462696Y270078D01*
X466081D01*
X467774Y268386D01*
Y261614D01*
X466081Y259922D01*
X462696D01*
X461003Y261614D01*
Y268386D01*
X54072Y270922D02*
Y281078D01*
X59151D01*
X60843Y279386D01*
Y276000D01*
X59151Y274307D01*
X54072D01*
X57458D02*
X60843Y270922D01*
X64229D02*
X67614D01*
X65922D01*
Y281078D01*
X64229Y279386D01*
X72693Y270922D02*
X76078D01*
X74386D01*
Y281078D01*
X72693Y279386D01*
X81157Y272614D02*
X82850Y270922D01*
X86235D01*
X87928Y272614D01*
Y279386D01*
X86235Y281078D01*
X82850D01*
X81157Y279386D01*
Y277693D01*
X82850Y276000D01*
X87928D01*
X433072Y229922D02*
Y240078D01*
X438150D01*
X439843Y238386D01*
Y235000D01*
X438150Y233307D01*
X433072D01*
X436458D02*
X439843Y229922D01*
X443229D02*
X446614D01*
X444922D01*
Y240078D01*
X443229Y238386D01*
X451693Y229922D02*
X455078D01*
X453386D01*
Y240078D01*
X451693Y238386D01*
X460157D02*
X461850Y240078D01*
X465235D01*
X466928Y238386D01*
Y236693D01*
X465235Y235000D01*
X466928Y233307D01*
Y231614D01*
X465235Y229922D01*
X461850D01*
X460157Y231614D01*
Y233307D01*
X461850Y235000D01*
X460157Y236693D01*
Y238386D01*
X461850Y235000D02*
X465235D01*
X54072Y316422D02*
Y326578D01*
X59151D01*
X60843Y324886D01*
Y321500D01*
X59151Y319807D01*
X54072D01*
X57458D02*
X60843Y316422D01*
X64229D02*
X67614D01*
X65922D01*
Y326578D01*
X64229Y324886D01*
X72693Y316422D02*
X76078D01*
X74386D01*
Y326578D01*
X72693Y324886D01*
X81157Y326578D02*
X87928D01*
Y324886D01*
X81157Y318114D01*
Y316422D01*
X54072Y244922D02*
Y255078D01*
X59151D01*
X60843Y253386D01*
Y250000D01*
X59151Y248307D01*
X54072D01*
X57458D02*
X60843Y244922D01*
X64229D02*
X67614D01*
X65922D01*
Y255078D01*
X64229Y253386D01*
X72693Y244922D02*
X76078D01*
X74386D01*
Y255078D01*
X72693Y253386D01*
X87928Y255078D02*
X84542Y253386D01*
X81157Y250000D01*
Y246614D01*
X82850Y244922D01*
X86235D01*
X87928Y246614D01*
Y248307D01*
X86235Y250000D01*
X81157D01*
X54072Y296922D02*
Y307078D01*
X59151D01*
X60843Y305386D01*
Y302000D01*
X59151Y300307D01*
X54072D01*
X57458D02*
X60843Y296922D01*
X64229D02*
X67614D01*
X65922D01*
Y307078D01*
X64229Y305386D01*
X72693Y296922D02*
X76078D01*
X74386D01*
Y307078D01*
X72693Y305386D01*
X87928Y307078D02*
X81157D01*
Y302000D01*
X84542Y303693D01*
X86235D01*
X87928Y302000D01*
Y298614D01*
X86235Y296922D01*
X82850D01*
X81157Y298614D01*
X53072Y339922D02*
Y350078D01*
X58151D01*
X59843Y348386D01*
Y345000D01*
X58151Y343307D01*
X53072D01*
X56458D02*
X59843Y339922D01*
X63229D02*
X66614D01*
X64922D01*
Y350078D01*
X63229Y348386D01*
X71693Y339922D02*
X75078D01*
X73386D01*
Y350078D01*
X71693Y348386D01*
X85235Y339922D02*
Y350078D01*
X80157Y345000D01*
X86928D01*
X98072Y339922D02*
Y350078D01*
X103151D01*
X104843Y348386D01*
Y345000D01*
X103151Y343307D01*
X98072D01*
X101458D02*
X104843Y339922D01*
X108229D02*
X111614D01*
X109922D01*
Y350078D01*
X108229Y348386D01*
X116693Y339922D02*
X120078D01*
X118386D01*
Y350078D01*
X116693Y348386D01*
X125157D02*
X126849Y350078D01*
X130235D01*
X131928Y348386D01*
Y346693D01*
X130235Y345000D01*
X128542D01*
X130235D01*
X131928Y343307D01*
Y341614D01*
X130235Y339922D01*
X126849D01*
X125157Y341614D01*
X288072Y379922D02*
Y390078D01*
X293151D01*
X294843Y388386D01*
Y385000D01*
X293151Y383307D01*
X288072D01*
X291458D02*
X294843Y379922D01*
X298229D02*
X301614D01*
X299922D01*
Y390078D01*
X298229Y388386D01*
X306693Y379922D02*
X310078D01*
X308386D01*
Y390078D01*
X306693Y388386D01*
X321928Y379922D02*
X315157D01*
X321928Y386693D01*
Y388386D01*
X320235Y390078D01*
X316849D01*
X315157Y388386D01*
X164765Y379922D02*
Y390078D01*
X169843D01*
X171536Y388386D01*
Y385000D01*
X169843Y383307D01*
X164765D01*
X168151D02*
X171536Y379922D01*
X174922D02*
X178307D01*
X176614D01*
Y390078D01*
X174922Y388386D01*
X183386Y379922D02*
X186771D01*
X185078D01*
Y390078D01*
X183386Y388386D01*
X191849Y379922D02*
X195235D01*
X193542D01*
Y390078D01*
X191849Y388386D01*
X228072Y364922D02*
Y375078D01*
X233151D01*
X234843Y373386D01*
Y370000D01*
X233151Y368307D01*
X228072D01*
X231458D02*
X234843Y364922D01*
X238229D02*
X241614D01*
X239922D01*
Y375078D01*
X238229Y373386D01*
X246693Y364922D02*
X250078D01*
X248386D01*
Y375078D01*
X246693Y373386D01*
X255157D02*
X256849Y375078D01*
X260235D01*
X261928Y373386D01*
Y366614D01*
X260235Y364922D01*
X256849D01*
X255157Y366614D01*
Y373386D01*
X287226Y279922D02*
Y290078D01*
X292304D01*
X293997Y288386D01*
Y285000D01*
X292304Y283307D01*
X287226D01*
X290611D02*
X293997Y279922D01*
X297382D02*
X300768D01*
X299075D01*
Y290078D01*
X297382Y288386D01*
X305846D02*
X307539Y290078D01*
X310925D01*
X312617Y288386D01*
Y281614D01*
X310925Y279922D01*
X307539D01*
X305846Y281614D01*
Y288386D01*
X316003Y281614D02*
X317696Y279922D01*
X321082D01*
X322774Y281614D01*
Y288386D01*
X321082Y290078D01*
X317696D01*
X316003Y288386D01*
Y286693D01*
X317696Y285000D01*
X322774D01*
X437226Y179922D02*
Y190078D01*
X442304D01*
X443997Y188386D01*
Y185000D01*
X442304Y183307D01*
X437226D01*
X440611D02*
X443997Y179922D01*
X447382D02*
X450768D01*
X449075D01*
Y190078D01*
X447382Y188386D01*
X455846D02*
X457539Y190078D01*
X460925D01*
X462617Y188386D01*
Y181614D01*
X460925Y179922D01*
X457539D01*
X455846Y181614D01*
Y188386D01*
X466003D02*
X467696Y190078D01*
X471081D01*
X472774Y188386D01*
Y186693D01*
X471081Y185000D01*
X472774Y183307D01*
Y181614D01*
X471081Y179922D01*
X467696D01*
X466003Y181614D01*
Y183307D01*
X467696Y185000D01*
X466003Y186693D01*
Y188386D01*
X467696Y185000D02*
X471081D01*
X437226Y204922D02*
Y215078D01*
X442304D01*
X443997Y213386D01*
Y210000D01*
X442304Y208307D01*
X437226D01*
X440611D02*
X443997Y204922D01*
X447382D02*
X450768D01*
X449075D01*
Y215078D01*
X447382Y213386D01*
X455846D02*
X457539Y215078D01*
X460925D01*
X462617Y213386D01*
Y206614D01*
X460925Y204922D01*
X457539D01*
X455846Y206614D01*
Y213386D01*
X466003Y215078D02*
X472774D01*
Y213386D01*
X466003Y206614D01*
Y204922D01*
X477226D02*
Y215078D01*
X482304D01*
X483997Y213386D01*
Y210000D01*
X482304Y208307D01*
X477226D01*
X480611D02*
X483997Y204922D01*
X487382D02*
X490768D01*
X489075D01*
Y215078D01*
X487382Y213386D01*
X495846D02*
X497539Y215078D01*
X500925D01*
X502617Y213386D01*
Y206614D01*
X500925Y204922D01*
X497539D01*
X495846Y206614D01*
Y213386D01*
X512774Y215078D02*
X509389Y213386D01*
X506003Y210000D01*
Y206614D01*
X507696Y204922D01*
X511082D01*
X512774Y206614D01*
Y208307D01*
X511082Y210000D01*
X506003D01*
X432226Y134922D02*
Y145078D01*
X437304D01*
X438997Y143386D01*
Y140000D01*
X437304Y138307D01*
X432226D01*
X435611D02*
X438997Y134922D01*
X442382D02*
X445768D01*
X444075D01*
Y145078D01*
X442382Y143386D01*
X450846D02*
X452539Y145078D01*
X455925D01*
X457617Y143386D01*
Y136614D01*
X455925Y134922D01*
X452539D01*
X450846Y136614D01*
Y143386D01*
X466081Y134922D02*
Y145078D01*
X461003Y140000D01*
X467774D01*
X53226Y192922D02*
Y203078D01*
X58304D01*
X59997Y201386D01*
Y198000D01*
X58304Y196307D01*
X53226D01*
X56611D02*
X59997Y192922D01*
X63382D02*
X66768D01*
X65075D01*
Y203078D01*
X63382Y201386D01*
X71846D02*
X73539Y203078D01*
X76925D01*
X78618Y201386D01*
Y194614D01*
X76925Y192922D01*
X73539D01*
X71846Y194614D01*
Y201386D01*
X82003D02*
X83696Y203078D01*
X87081D01*
X88774Y201386D01*
Y199693D01*
X87081Y198000D01*
X85389D01*
X87081D01*
X88774Y196307D01*
Y194614D01*
X87081Y192922D01*
X83696D01*
X82003Y194614D01*
X432226Y104922D02*
Y115078D01*
X437304D01*
X438997Y113386D01*
Y110000D01*
X437304Y108307D01*
X432226D01*
X435611D02*
X438997Y104922D01*
X442382D02*
X445768D01*
X444075D01*
Y115078D01*
X442382Y113386D01*
X450846D02*
X452539Y115078D01*
X455925D01*
X457617Y113386D01*
Y106614D01*
X455925Y104922D01*
X452539D01*
X450846Y106614D01*
Y113386D01*
X467774Y104922D02*
X461003D01*
X467774Y111693D01*
Y113386D01*
X466081Y115078D01*
X462696D01*
X461003Y113386D01*
X54918Y140922D02*
Y151078D01*
X59997D01*
X61690Y149386D01*
Y146000D01*
X59997Y144307D01*
X54918D01*
X58304D02*
X61690Y140922D01*
X65075D02*
X68461D01*
X66768D01*
Y151078D01*
X65075Y149386D01*
X73539D02*
X75232Y151078D01*
X78618D01*
X80310Y149386D01*
Y142614D01*
X78618Y140922D01*
X75232D01*
X73539Y142614D01*
Y149386D01*
X83696Y140922D02*
X87081D01*
X85389D01*
Y151078D01*
X83696Y149386D01*
X53226Y218922D02*
Y229078D01*
X58304D01*
X59997Y227386D01*
Y224000D01*
X58304Y222307D01*
X53226D01*
X56611D02*
X59997Y218922D01*
X63382D02*
X66768D01*
X65075D01*
Y229078D01*
X63382Y227386D01*
X71846D02*
X73539Y229078D01*
X76925D01*
X78618Y227386D01*
Y220614D01*
X76925Y218922D01*
X73539D01*
X71846Y220614D01*
Y227386D01*
X82003D02*
X83696Y229078D01*
X87081D01*
X88774Y227386D01*
Y220614D01*
X87081Y218922D01*
X83696D01*
X82003Y220614D01*
Y227386D01*
X57458Y166922D02*
Y177078D01*
X62536D01*
X64229Y175386D01*
Y172000D01*
X62536Y170307D01*
X57458D01*
X60843D02*
X64229Y166922D01*
X67614Y168614D02*
X69307Y166922D01*
X72693D01*
X74385Y168614D01*
Y175386D01*
X72693Y177078D01*
X69307D01*
X67614Y175386D01*
Y173693D01*
X69307Y172000D01*
X74385D01*
X77771Y168614D02*
X79464Y166922D01*
X82850D01*
X84542Y168614D01*
Y175386D01*
X82850Y177078D01*
X79464D01*
X77771Y175386D01*
Y173693D01*
X79464Y172000D01*
X84542D01*
X75358Y115572D02*
Y125728D01*
X80436D01*
X82129Y124036D01*
Y120650D01*
X80436Y118957D01*
X75358D01*
X78743D02*
X82129Y115572D01*
X85514Y117264D02*
X87207Y115572D01*
X90593D01*
X92286Y117264D01*
Y124036D01*
X90593Y125728D01*
X87207D01*
X85514Y124036D01*
Y122343D01*
X87207Y120650D01*
X92286D01*
X95671Y124036D02*
X97364Y125728D01*
X100750D01*
X102442Y124036D01*
Y122343D01*
X100750Y120650D01*
X102442Y118957D01*
Y117264D01*
X100750Y115572D01*
X97364D01*
X95671Y117264D01*
Y118957D01*
X97364Y120650D01*
X95671Y122343D01*
Y124036D01*
X97364Y120650D02*
X100750D01*
X113458Y115572D02*
Y125728D01*
X118536D01*
X120229Y124036D01*
Y120650D01*
X118536Y118957D01*
X113458D01*
X116843D02*
X120229Y115572D01*
X123614Y117264D02*
X125307Y115572D01*
X128693D01*
X130386Y117264D01*
Y124036D01*
X128693Y125728D01*
X125307D01*
X123614Y124036D01*
Y122343D01*
X125307Y120650D01*
X130386D01*
X133771Y125728D02*
X140542D01*
Y124036D01*
X133771Y117264D01*
Y115572D01*
X291458Y74922D02*
Y85078D01*
X296536D01*
X298229Y83386D01*
Y80000D01*
X296536Y78307D01*
X291458D01*
X294843D02*
X298229Y74922D01*
X301614Y76614D02*
X303307Y74922D01*
X306693D01*
X308386Y76614D01*
Y83386D01*
X306693Y85078D01*
X303307D01*
X301614Y83386D01*
Y81693D01*
X303307Y80000D01*
X308386D01*
X318542Y85078D02*
X315157Y83386D01*
X311771Y80000D01*
Y76614D01*
X313464Y74922D01*
X316849D01*
X318542Y76614D01*
Y78307D01*
X316849Y80000D01*
X311771D01*
X171458Y74922D02*
Y85078D01*
X176536D01*
X178229Y83386D01*
Y80000D01*
X176536Y78307D01*
X171458D01*
X174843D02*
X178229Y74922D01*
X181614Y76614D02*
X183307Y74922D01*
X186693D01*
X188386Y76614D01*
Y83386D01*
X186693Y85078D01*
X183307D01*
X181614Y83386D01*
Y81693D01*
X183307Y80000D01*
X188386D01*
X198542Y85078D02*
X191771D01*
Y80000D01*
X195157Y81693D01*
X196849D01*
X198542Y80000D01*
Y76614D01*
X196849Y74922D01*
X193464D01*
X191771Y76614D01*
X231458Y74922D02*
Y85078D01*
X236536D01*
X238229Y83386D01*
Y80000D01*
X236536Y78307D01*
X231458D01*
X234843D02*
X238229Y74922D01*
X241614Y76614D02*
X243307Y74922D01*
X246693D01*
X248386Y76614D01*
Y83386D01*
X246693Y85078D01*
X243307D01*
X241614Y83386D01*
Y81693D01*
X243307Y80000D01*
X248386D01*
X256849Y74922D02*
Y85078D01*
X251771Y80000D01*
X258542D01*
X291458Y174922D02*
Y185078D01*
X296536D01*
X298229Y183386D01*
Y180000D01*
X296536Y178307D01*
X291458D01*
X294843D02*
X298229Y174922D01*
X301614Y176614D02*
X303307Y174922D01*
X306693D01*
X308386Y176614D01*
Y183386D01*
X306693Y185078D01*
X303307D01*
X301614Y183386D01*
Y181693D01*
X303307Y180000D01*
X308386D01*
X311771Y183386D02*
X313464Y185078D01*
X316849D01*
X318542Y183386D01*
Y181693D01*
X316849Y180000D01*
X315157D01*
X316849D01*
X318542Y178307D01*
Y176614D01*
X316849Y174922D01*
X313464D01*
X311771Y176614D01*
X1544758Y183622D02*
Y193778D01*
X1549836D01*
X1551529Y192086D01*
Y188700D01*
X1549836Y187007D01*
X1544758D01*
X1548143D02*
X1551529Y183622D01*
X1554914Y185314D02*
X1556607Y183622D01*
X1559993D01*
X1561686Y185314D01*
Y192086D01*
X1559993Y193778D01*
X1556607D01*
X1554914Y192086D01*
Y190393D01*
X1556607Y188700D01*
X1561686D01*
X1571842Y183622D02*
X1565071D01*
X1571842Y190393D01*
Y192086D01*
X1570150Y193778D01*
X1566764D01*
X1565071Y192086D01*
X1503150Y144922D02*
Y155078D01*
X1508229D01*
X1509922Y153386D01*
Y150000D01*
X1508229Y148307D01*
X1503150D01*
X1506536D02*
X1509922Y144922D01*
X1513307Y146614D02*
X1515000Y144922D01*
X1518386D01*
X1520078Y146614D01*
Y153386D01*
X1518386Y155078D01*
X1515000D01*
X1513307Y153386D01*
Y151693D01*
X1515000Y150000D01*
X1520078D01*
X1523464Y144922D02*
X1526850D01*
X1525157D01*
Y155078D01*
X1523464Y153386D01*
X1502508Y183622D02*
Y193778D01*
X1507586D01*
X1509279Y192086D01*
Y188700D01*
X1507586Y187007D01*
X1502508D01*
X1505893D02*
X1509279Y183622D01*
X1512664Y185314D02*
X1514357Y183622D01*
X1517743D01*
X1519436Y185314D01*
Y192086D01*
X1517743Y193778D01*
X1514357D01*
X1512664Y192086D01*
Y190393D01*
X1514357Y188700D01*
X1519436D01*
X1522821Y192086D02*
X1524514Y193778D01*
X1527899D01*
X1529592Y192086D01*
Y185314D01*
X1527899Y183622D01*
X1524514D01*
X1522821Y185314D01*
Y192086D01*
X1485378Y162158D02*
X1475222D01*
Y167236D01*
X1476914Y168929D01*
X1480300D01*
X1481993Y167236D01*
Y162158D01*
Y165543D02*
X1485378Y168929D01*
X1476914Y172314D02*
X1475222Y174007D01*
Y177393D01*
X1476914Y179086D01*
X1478607D01*
X1480300Y177393D01*
X1481993Y179086D01*
X1483685D01*
X1485378Y177393D01*
Y174007D01*
X1483685Y172314D01*
X1481993D01*
X1480300Y174007D01*
X1478607Y172314D01*
X1476914D01*
X1480300Y174007D02*
Y177393D01*
X1483685Y182471D02*
X1485378Y184164D01*
Y187549D01*
X1483685Y189242D01*
X1476914D01*
X1475222Y187549D01*
Y184164D01*
X1476914Y182471D01*
X1478607D01*
X1480300Y184164D01*
Y189242D01*
X1502508Y199872D02*
Y210028D01*
X1507586D01*
X1509279Y208336D01*
Y204950D01*
X1507586Y203257D01*
X1502508D01*
X1505893D02*
X1509279Y199872D01*
X1512664Y208336D02*
X1514357Y210028D01*
X1517743D01*
X1519436Y208336D01*
Y206643D01*
X1517743Y204950D01*
X1519436Y203257D01*
Y201564D01*
X1517743Y199872D01*
X1514357D01*
X1512664Y201564D01*
Y203257D01*
X1514357Y204950D01*
X1512664Y206643D01*
Y208336D01*
X1514357Y204950D02*
X1517743D01*
X1522821Y208336D02*
X1524514Y210028D01*
X1527899D01*
X1529592Y208336D01*
Y206643D01*
X1527899Y204950D01*
X1529592Y203257D01*
Y201564D01*
X1527899Y199872D01*
X1524514D01*
X1522821Y201564D01*
Y203257D01*
X1524514Y204950D01*
X1522821Y206643D01*
Y208336D01*
X1524514Y204950D02*
X1527899D01*
X1546458Y144922D02*
Y155078D01*
X1551536D01*
X1553229Y153386D01*
Y150000D01*
X1551536Y148307D01*
X1546458D01*
X1549843D02*
X1553229Y144922D01*
X1556614Y153386D02*
X1558307Y155078D01*
X1561693D01*
X1563386Y153386D01*
Y151693D01*
X1561693Y150000D01*
X1563386Y148307D01*
Y146614D01*
X1561693Y144922D01*
X1558307D01*
X1556614Y146614D01*
Y148307D01*
X1558307Y150000D01*
X1556614Y151693D01*
Y153386D01*
X1558307Y150000D02*
X1561693D01*
X1566771Y155078D02*
X1573542D01*
Y153386D01*
X1566771Y146614D01*
Y144922D01*
X1502508Y216122D02*
Y226278D01*
X1507586D01*
X1509279Y224586D01*
Y221200D01*
X1507586Y219507D01*
X1502508D01*
X1505893D02*
X1509279Y216122D01*
X1512664Y224586D02*
X1514357Y226278D01*
X1517743D01*
X1519436Y224586D01*
Y222893D01*
X1517743Y221200D01*
X1519436Y219507D01*
Y217814D01*
X1517743Y216122D01*
X1514357D01*
X1512664Y217814D01*
Y219507D01*
X1514357Y221200D01*
X1512664Y222893D01*
Y224586D01*
X1514357Y221200D02*
X1517743D01*
X1529592Y226278D02*
X1526207Y224586D01*
X1522821Y221200D01*
Y217814D01*
X1524514Y216122D01*
X1527899D01*
X1529592Y217814D01*
Y219507D01*
X1527899Y221200D01*
X1522821D01*
X1465213Y162158D02*
X1455056D01*
Y167236D01*
X1456749Y168929D01*
X1460135D01*
X1461828Y167236D01*
Y162158D01*
Y165543D02*
X1465213Y168929D01*
X1456749Y172314D02*
X1455056Y174007D01*
Y177393D01*
X1456749Y179086D01*
X1458442D01*
X1460135Y177393D01*
X1461828Y179086D01*
X1463520D01*
X1465213Y177393D01*
Y174007D01*
X1463520Y172314D01*
X1461828D01*
X1460135Y174007D01*
X1458442Y172314D01*
X1456749D01*
X1460135Y174007D02*
Y177393D01*
X1455056Y189242D02*
Y182471D01*
X1460135D01*
X1458442Y185857D01*
Y187549D01*
X1460135Y189242D01*
X1463520D01*
X1465213Y187549D01*
Y184164D01*
X1463520Y182471D01*
X1275008Y235622D02*
Y245778D01*
X1280086D01*
X1281779Y244086D01*
Y240700D01*
X1280086Y239007D01*
X1275008D01*
X1278393D02*
X1281779Y235622D01*
X1285164Y244086D02*
X1286857Y245778D01*
X1290243D01*
X1291936Y244086D01*
Y242393D01*
X1290243Y240700D01*
X1291936Y239007D01*
Y237314D01*
X1290243Y235622D01*
X1286857D01*
X1285164Y237314D01*
Y239007D01*
X1286857Y240700D01*
X1285164Y242393D01*
Y244086D01*
X1286857Y240700D02*
X1290243D01*
X1300399Y235622D02*
Y245778D01*
X1295321Y240700D01*
X1302092D01*
X1236978Y119808D02*
X1226822D01*
Y124886D01*
X1228514Y126579D01*
X1231900D01*
X1233593Y124886D01*
Y119808D01*
Y123193D02*
X1236978Y126579D01*
X1228514Y129964D02*
X1226822Y131657D01*
Y135043D01*
X1228514Y136736D01*
X1230207D01*
X1231900Y135043D01*
X1233593Y136736D01*
X1235286D01*
X1236978Y135043D01*
Y131657D01*
X1235286Y129964D01*
X1233593D01*
X1231900Y131657D01*
X1230207Y129964D01*
X1228514D01*
X1231900Y131657D02*
Y135043D01*
X1228514Y140121D02*
X1226822Y141814D01*
Y145199D01*
X1228514Y146892D01*
X1230207D01*
X1231900Y145199D01*
Y143507D01*
Y145199D01*
X1233593Y146892D01*
X1235286D01*
X1236978Y145199D01*
Y141814D01*
X1235286Y140121D01*
X1362758Y183622D02*
Y193778D01*
X1367836D01*
X1369529Y192086D01*
Y188700D01*
X1367836Y187007D01*
X1362758D01*
X1366143D02*
X1369529Y183622D01*
X1372914Y192086D02*
X1374607Y193778D01*
X1377993D01*
X1379686Y192086D01*
Y190393D01*
X1377993Y188700D01*
X1379686Y187007D01*
Y185314D01*
X1377993Y183622D01*
X1374607D01*
X1372914Y185314D01*
Y187007D01*
X1374607Y188700D01*
X1372914Y190393D01*
Y192086D01*
X1374607Y188700D02*
X1377993D01*
X1389842Y183622D02*
X1383071D01*
X1389842Y190393D01*
Y192086D01*
X1388150Y193778D01*
X1384764D01*
X1383071Y192086D01*
X1416131Y163850D02*
X1405974D01*
Y168929D01*
X1407667Y170622D01*
X1411052D01*
X1412745Y168929D01*
Y163850D01*
Y167236D02*
X1416131Y170622D01*
X1407667Y174007D02*
X1405974Y175700D01*
Y179086D01*
X1407667Y180778D01*
X1409359D01*
X1411052Y179086D01*
X1412745Y180778D01*
X1414438D01*
X1416131Y179086D01*
Y175700D01*
X1414438Y174007D01*
X1412745D01*
X1411052Y175700D01*
X1409359Y174007D01*
X1407667D01*
X1411052Y175700D02*
Y179086D01*
X1416131Y184164D02*
Y187549D01*
Y185857D01*
X1405974D01*
X1407667Y184164D01*
X1275008Y287622D02*
Y297778D01*
X1280086D01*
X1281779Y296086D01*
Y292700D01*
X1280086Y291007D01*
X1275008D01*
X1278393D02*
X1281779Y287622D01*
X1285164Y296086D02*
X1286857Y297778D01*
X1290243D01*
X1291936Y296086D01*
Y294393D01*
X1290243Y292700D01*
X1291936Y291007D01*
Y289314D01*
X1290243Y287622D01*
X1286857D01*
X1285164Y289314D01*
Y291007D01*
X1286857Y292700D01*
X1285164Y294393D01*
Y296086D01*
X1286857Y292700D02*
X1290243D01*
X1295321Y296086D02*
X1297014Y297778D01*
X1300399D01*
X1302092Y296086D01*
Y289314D01*
X1300399Y287622D01*
X1297014D01*
X1295321Y289314D01*
Y296086D01*
X1198878Y119808D02*
X1188722D01*
Y124886D01*
X1190414Y126579D01*
X1193800D01*
X1195493Y124886D01*
Y119808D01*
Y123193D02*
X1198878Y126579D01*
X1188722Y129965D02*
Y136736D01*
X1190414D01*
X1197186Y129965D01*
X1198878D01*
X1197186Y140121D02*
X1198878Y141814D01*
Y145199D01*
X1197186Y146892D01*
X1190414D01*
X1188722Y145199D01*
Y141814D01*
X1190414Y140121D01*
X1192107D01*
X1193800Y141814D01*
Y146892D01*
X1362758Y216122D02*
Y226278D01*
X1367836D01*
X1369529Y224586D01*
Y221200D01*
X1367836Y219507D01*
X1362758D01*
X1366143D02*
X1369529Y216122D01*
X1372914Y226278D02*
X1379686D01*
Y224586D01*
X1372914Y217814D01*
Y216122D01*
X1383071Y224586D02*
X1384764Y226278D01*
X1388150D01*
X1389842Y224586D01*
Y222893D01*
X1388150Y221200D01*
X1389842Y219507D01*
Y217814D01*
X1388150Y216122D01*
X1384764D01*
X1383071Y217814D01*
Y219507D01*
X1384764Y221200D01*
X1383071Y222893D01*
Y224586D01*
X1384764Y221200D02*
X1388150D01*
X1439213Y162158D02*
X1429057D01*
Y167236D01*
X1430749Y168929D01*
X1434135D01*
X1435828Y167236D01*
Y162158D01*
Y165543D02*
X1439213Y168929D01*
X1429057Y172314D02*
Y179086D01*
X1430749D01*
X1437520Y172314D01*
X1439213D01*
X1429057Y182471D02*
Y189242D01*
X1430749D01*
X1437520Y182471D01*
X1439213D01*
X1232851Y183582D02*
Y193739D01*
X1237929D01*
X1239622Y192046D01*
Y188660D01*
X1237929Y186968D01*
X1232851D01*
X1236236D02*
X1239622Y183582D01*
X1243008Y193739D02*
X1249779D01*
Y192046D01*
X1243008Y185275D01*
Y183582D01*
X1259935Y193739D02*
X1256550Y192046D01*
X1253164Y188660D01*
Y185275D01*
X1254857Y183582D01*
X1258242D01*
X1259935Y185275D01*
Y186968D01*
X1258242Y188660D01*
X1253164D01*
X1187351Y183582D02*
Y193739D01*
X1192429D01*
X1194122Y192046D01*
Y188660D01*
X1192429Y186968D01*
X1187351D01*
X1190736D02*
X1194122Y183582D01*
X1197507Y193739D02*
X1204279D01*
Y192046D01*
X1197507Y185275D01*
Y183582D01*
X1214435Y193739D02*
X1207664D01*
Y188660D01*
X1211050Y190353D01*
X1212743D01*
X1214435Y188660D01*
Y185275D01*
X1212743Y183582D01*
X1209357D01*
X1207664Y185275D01*
X1167969Y163025D02*
X1157813D01*
Y168104D01*
X1159505Y169796D01*
X1162891D01*
X1164584Y168104D01*
Y163025D01*
Y166411D02*
X1167969Y169796D01*
X1157813Y173182D02*
Y179953D01*
X1159505D01*
X1166276Y173182D01*
X1167969D01*
Y188417D02*
X1157813D01*
X1162891Y183339D01*
Y190110D01*
X1212008Y687072D02*
Y697228D01*
X1217086D01*
X1218779Y695536D01*
Y692150D01*
X1217086Y690457D01*
X1212008D01*
X1215393D02*
X1218779Y687072D01*
X1222164Y697228D02*
X1228936D01*
Y695536D01*
X1222164Y688764D01*
Y687072D01*
X1239092D02*
X1232321D01*
X1239092Y693843D01*
Y695536D01*
X1237400Y697228D01*
X1234014D01*
X1232321Y695536D01*
X1169250Y687072D02*
Y697228D01*
X1174329D01*
X1176022Y695536D01*
Y692150D01*
X1174329Y690457D01*
X1169250D01*
X1172636D02*
X1176022Y687072D01*
X1179407Y697228D02*
X1186178D01*
Y695536D01*
X1179407Y688764D01*
Y687072D01*
X1189564D02*
X1192950D01*
X1191257D01*
Y697228D01*
X1189564Y695536D01*
X1232851Y216082D02*
Y226239D01*
X1237929D01*
X1239622Y224546D01*
Y221160D01*
X1237929Y219468D01*
X1232851D01*
X1236236D02*
X1239622Y216082D01*
X1243008Y226239D02*
X1249779D01*
Y224546D01*
X1243008Y217775D01*
Y216082D01*
X1253164Y224546D02*
X1254857Y226239D01*
X1258242D01*
X1259935Y224546D01*
Y217775D01*
X1258242Y216082D01*
X1254857D01*
X1253164Y217775D01*
Y224546D01*
X1122678Y119808D02*
X1112522D01*
Y124886D01*
X1114214Y126579D01*
X1117600D01*
X1119293Y124886D01*
Y119808D01*
Y123193D02*
X1122678Y126579D01*
X1112522Y136736D02*
X1114214Y133350D01*
X1117600Y129965D01*
X1120985D01*
X1122678Y131657D01*
Y135043D01*
X1120985Y136736D01*
X1119293D01*
X1117600Y135043D01*
Y129965D01*
X1122678Y145199D02*
X1112522D01*
X1117600Y140121D01*
Y146892D01*
X1187351Y216082D02*
Y226239D01*
X1192429D01*
X1194122Y224546D01*
Y221160D01*
X1192429Y219468D01*
X1187351D01*
X1190736D02*
X1194122Y216082D01*
X1204279Y226239D02*
X1200893Y224546D01*
X1197507Y221160D01*
Y217775D01*
X1199200Y216082D01*
X1202586D01*
X1204279Y217775D01*
Y219468D01*
X1202586Y221160D01*
X1197507D01*
X1207664Y217775D02*
X1209357Y216082D01*
X1212743D01*
X1214435Y217775D01*
Y224546D01*
X1212743Y226239D01*
X1209357D01*
X1207664Y224546D01*
Y222853D01*
X1209357Y221160D01*
X1214435D01*
X1455858Y734922D02*
Y745078D01*
X1460936D01*
X1462629Y743386D01*
Y740000D01*
X1460936Y738307D01*
X1455858D01*
X1459243D02*
X1462629Y734922D01*
X1472785Y745078D02*
X1469400Y743386D01*
X1466014Y740000D01*
Y736615D01*
X1467707Y734922D01*
X1471093D01*
X1472785Y736615D01*
Y738307D01*
X1471093Y740000D01*
X1466014D01*
X1476171Y743386D02*
X1477864Y745078D01*
X1481250D01*
X1482942Y743386D01*
Y741693D01*
X1481250Y740000D01*
X1482942Y738307D01*
Y736615D01*
X1481250Y734922D01*
X1477864D01*
X1476171Y736615D01*
Y738307D01*
X1477864Y740000D01*
X1476171Y741693D01*
Y743386D01*
X1477864Y740000D02*
X1481250D01*
X899922Y593542D02*
X910078D01*
Y588464D01*
X908386Y586771D01*
X905000D01*
X903307Y588464D01*
Y593542D01*
Y590157D02*
X899922Y586771D01*
X910078Y576614D02*
X908386Y580000D01*
X905000Y583386D01*
X901614D01*
X899922Y581693D01*
Y578307D01*
X901614Y576614D01*
X903307D01*
X905000Y578307D01*
Y583386D01*
X910078Y573229D02*
Y566458D01*
X908386D01*
X901614Y573229D01*
X899922D01*
X924922Y593542D02*
X935078D01*
Y588464D01*
X933386Y586771D01*
X930000D01*
X928307Y588464D01*
Y593542D01*
Y590157D02*
X924922Y586771D01*
X935078Y576614D02*
X933386Y580000D01*
X930000Y583386D01*
X926614D01*
X924922Y581693D01*
Y578307D01*
X926614Y576614D01*
X928307D01*
X930000Y578307D01*
Y583386D01*
X935078Y566458D02*
X933386Y569843D01*
X930000Y573229D01*
X926614D01*
X924922Y571536D01*
Y568150D01*
X926614Y566458D01*
X928307D01*
X930000Y568150D01*
Y573229D01*
X1148137Y163025D02*
X1137980D01*
Y168104D01*
X1139673Y169796D01*
X1143058D01*
X1144751Y168104D01*
Y163025D01*
Y166411D02*
X1148137Y169796D01*
X1137980Y179953D02*
X1139673Y176567D01*
X1143058Y173182D01*
X1146444D01*
X1148137Y174875D01*
Y178260D01*
X1146444Y179953D01*
X1144751D01*
X1143058Y178260D01*
Y173182D01*
X1137980Y190110D02*
Y183339D01*
X1143058D01*
X1141366Y186724D01*
Y188417D01*
X1143058Y190110D01*
X1146444D01*
X1148137Y188417D01*
Y185032D01*
X1146444Y183339D01*
X1142158Y749302D02*
Y759458D01*
X1147236D01*
X1148929Y757766D01*
Y754380D01*
X1147236Y752687D01*
X1142158D01*
X1145543D02*
X1148929Y749302D01*
X1159086Y759458D02*
X1155700Y757766D01*
X1152314Y754380D01*
Y750994D01*
X1154007Y749302D01*
X1157393D01*
X1159086Y750994D01*
Y752687D01*
X1157393Y754380D01*
X1152314D01*
X1162471Y757766D02*
X1164164Y759458D01*
X1167550D01*
X1169242Y757766D01*
Y756073D01*
X1167550Y754380D01*
X1165857D01*
X1167550D01*
X1169242Y752687D01*
Y750994D01*
X1167550Y749302D01*
X1164164D01*
X1162471Y750994D01*
X888158Y383542D02*
Y393698D01*
X893236D01*
X894929Y392006D01*
Y388620D01*
X893236Y386927D01*
X888158D01*
X891543D02*
X894929Y383542D01*
X905086Y393698D02*
X901700Y392006D01*
X898314Y388620D01*
Y385234D01*
X900007Y383542D01*
X903393D01*
X905086Y385234D01*
Y386927D01*
X903393Y388620D01*
X898314D01*
X915242Y383542D02*
X908471D01*
X915242Y390313D01*
Y392006D01*
X913549Y393698D01*
X910164D01*
X908471Y392006D01*
X958294Y235582D02*
Y245739D01*
X963372D01*
X965065Y244046D01*
Y240660D01*
X963372Y238968D01*
X958294D01*
X961679D02*
X965065Y235582D01*
X975221Y245739D02*
X971836Y244046D01*
X968450Y240660D01*
Y237275D01*
X970143Y235582D01*
X973529D01*
X975221Y237275D01*
Y238968D01*
X973529Y240660D01*
X968450D01*
X978607Y235582D02*
X981992D01*
X980300D01*
Y245739D01*
X978607Y244046D01*
X1044351Y183582D02*
Y193739D01*
X1049429D01*
X1051122Y192046D01*
Y188660D01*
X1049429Y186968D01*
X1044351D01*
X1047736D02*
X1051122Y183582D01*
X1061279Y193739D02*
X1057893Y192046D01*
X1054508Y188660D01*
Y185275D01*
X1056200Y183582D01*
X1059586D01*
X1061279Y185275D01*
Y186968D01*
X1059586Y188660D01*
X1054508D01*
X1064664Y192046D02*
X1066357Y193739D01*
X1069743D01*
X1071435Y192046D01*
Y185275D01*
X1069743Y183582D01*
X1066357D01*
X1064664Y185275D01*
Y192046D01*
X1098722Y163025D02*
X1088565D01*
Y168104D01*
X1090258Y169796D01*
X1093643D01*
X1095336Y168104D01*
Y163025D01*
Y166411D02*
X1098722Y169796D01*
X1088565Y179953D02*
Y173182D01*
X1093643D01*
X1091951Y176567D01*
Y178260D01*
X1093643Y179953D01*
X1097029D01*
X1098722Y178260D01*
Y174875D01*
X1097029Y173182D01*
Y183339D02*
X1098722Y185031D01*
Y188417D01*
X1097029Y190110D01*
X1090258D01*
X1088565Y188417D01*
Y185031D01*
X1090258Y183339D01*
X1091951D01*
X1093643Y185031D01*
Y190110D01*
X956601Y287582D02*
Y297739D01*
X961679D01*
X963372Y296046D01*
Y292660D01*
X961679Y290968D01*
X956601D01*
X959986D02*
X963372Y287582D01*
X973529Y297739D02*
X966758D01*
Y292660D01*
X970143Y294353D01*
X971836D01*
X973529Y292660D01*
Y289275D01*
X971836Y287582D01*
X968450D01*
X966758Y289275D01*
X976914Y297739D02*
X983685D01*
Y296046D01*
X976914Y289275D01*
Y287582D01*
X1046478Y119808D02*
X1036322D01*
Y124886D01*
X1038014Y126579D01*
X1041400D01*
X1043093Y124886D01*
Y119808D01*
Y123193D02*
X1046478Y126579D01*
X1036322Y136736D02*
Y129964D01*
X1041400D01*
X1039707Y133350D01*
Y135043D01*
X1041400Y136736D01*
X1044786D01*
X1046478Y135043D01*
Y131657D01*
X1044786Y129964D01*
X1036322Y146892D02*
X1038014Y143507D01*
X1041400Y140121D01*
X1044786D01*
X1046478Y141814D01*
Y145199D01*
X1044786Y146892D01*
X1043093D01*
X1041400Y145199D01*
Y140121D01*
X1044351Y216082D02*
Y226239D01*
X1049429D01*
X1051122Y224546D01*
Y221160D01*
X1049429Y219468D01*
X1044351D01*
X1047736D02*
X1051122Y216082D01*
X1061279Y226239D02*
X1054508D01*
Y221160D01*
X1057893Y222853D01*
X1059586D01*
X1061279Y221160D01*
Y217775D01*
X1059586Y216082D01*
X1056200D01*
X1054508Y217775D01*
X1069743Y216082D02*
Y226239D01*
X1064664Y221160D01*
X1071435D01*
X1121804Y163025D02*
X1111647D01*
Y168104D01*
X1113340Y169796D01*
X1116726D01*
X1118419Y168104D01*
Y163025D01*
Y166411D02*
X1121804Y169796D01*
X1111647Y179953D02*
Y173182D01*
X1116726D01*
X1115033Y176567D01*
Y178260D01*
X1116726Y179953D01*
X1120111D01*
X1121804Y178260D01*
Y174875D01*
X1120111Y173182D01*
X1113340Y183339D02*
X1111647Y185031D01*
Y188417D01*
X1113340Y190110D01*
X1115033D01*
X1116726Y188417D01*
Y186724D01*
Y188417D01*
X1118419Y190110D01*
X1120111D01*
X1121804Y188417D01*
Y185031D01*
X1120111Y183339D01*
X911600Y183622D02*
Y193778D01*
X916679D01*
X918372Y192086D01*
Y188700D01*
X916679Y187007D01*
X911600D01*
X914986D02*
X918372Y183622D01*
X928528Y193778D02*
X921757D01*
Y188700D01*
X925143Y190393D01*
X926836D01*
X928528Y188700D01*
Y185314D01*
X926836Y183622D01*
X923450D01*
X921757Y185314D01*
X931914Y183622D02*
X935300D01*
X933607D01*
Y193778D01*
X931914Y192086D01*
X780098Y517318D02*
X769942D01*
Y522396D01*
X771634Y524089D01*
X775020D01*
X776713Y522396D01*
Y517318D01*
Y520703D02*
X780098Y524089D01*
X769942Y534246D02*
Y527474D01*
X775020D01*
X773327Y530860D01*
Y532553D01*
X775020Y534246D01*
X778406D01*
X780098Y532553D01*
Y529167D01*
X778406Y527474D01*
X771634Y537631D02*
X769942Y539324D01*
Y542710D01*
X771634Y544402D01*
X778406D01*
X780098Y542710D01*
Y539324D01*
X778406Y537631D01*
X771634D01*
X1008378Y119808D02*
X998222D01*
Y124886D01*
X999914Y126579D01*
X1003300D01*
X1004993Y124886D01*
Y119808D01*
Y123193D02*
X1008378Y126579D01*
Y135043D02*
X998222D01*
X1003300Y129965D01*
Y136736D01*
X1006685Y140121D02*
X1008378Y141814D01*
Y145199D01*
X1006685Y146892D01*
X999914D01*
X998222Y145199D01*
Y141814D01*
X999914Y140121D01*
X1001607D01*
X1003300Y141814D01*
Y146892D01*
X864408Y183622D02*
Y193778D01*
X869486D01*
X871179Y192086D01*
Y188700D01*
X869486Y187007D01*
X864408D01*
X867793D02*
X871179Y183622D01*
X879643D02*
Y193778D01*
X874564Y188700D01*
X881336D01*
X884721Y192086D02*
X886414Y193778D01*
X889799D01*
X891492Y192086D01*
Y190393D01*
X889799Y188700D01*
X891492Y187007D01*
Y185314D01*
X889799Y183622D01*
X886414D01*
X884721Y185314D01*
Y187007D01*
X886414Y188700D01*
X884721Y190393D01*
Y192086D01*
X886414Y188700D02*
X889799D01*
X850528Y158908D02*
X840372D01*
Y163986D01*
X842064Y165679D01*
X845450D01*
X847143Y163986D01*
Y158908D01*
Y162293D02*
X850528Y165679D01*
Y174143D02*
X840372D01*
X845450Y169064D01*
Y175836D01*
X840372Y179221D02*
Y185992D01*
X842064D01*
X848836Y179221D01*
X850528D01*
X864408Y199872D02*
Y210028D01*
X869486D01*
X871179Y208336D01*
Y204950D01*
X869486Y203257D01*
X864408D01*
X867793D02*
X871179Y199872D01*
X879643D02*
Y210028D01*
X874564Y204950D01*
X881336D01*
X891492Y210028D02*
X888107Y208336D01*
X884721Y204950D01*
Y201564D01*
X886414Y199872D01*
X889799D01*
X891492Y201564D01*
Y203257D01*
X889799Y204950D01*
X884721D01*
X957578Y443658D02*
X947422D01*
Y448736D01*
X949114Y450429D01*
X952500D01*
X954193Y448736D01*
Y443658D01*
Y447043D02*
X957578Y450429D01*
Y458893D02*
X947422D01*
X952500Y453815D01*
Y460586D01*
X947422Y470742D02*
Y463971D01*
X952500D01*
X950807Y467357D01*
Y469049D01*
X952500Y470742D01*
X955885D01*
X957578Y469049D01*
Y465664D01*
X955885Y463971D01*
X970278Y119808D02*
X960122D01*
Y124886D01*
X961814Y126579D01*
X965200D01*
X966893Y124886D01*
Y119808D01*
Y123193D02*
X970278Y126579D01*
Y135043D02*
X960122D01*
X965200Y129965D01*
Y136736D01*
X970278Y145199D02*
X960122D01*
X965200Y140121D01*
Y146892D01*
X864408Y216122D02*
Y226278D01*
X869486D01*
X871179Y224586D01*
Y221200D01*
X869486Y219507D01*
X864408D01*
X867793D02*
X871179Y216122D01*
X879643D02*
Y226278D01*
X874564Y221200D01*
X881336D01*
X884721Y224586D02*
X886414Y226278D01*
X889799D01*
X891492Y224586D01*
Y222893D01*
X889799Y221200D01*
X888107D01*
X889799D01*
X891492Y219507D01*
Y217814D01*
X889799Y216122D01*
X886414D01*
X884721Y217814D01*
X827778Y158908D02*
X817622D01*
Y163986D01*
X819314Y165679D01*
X822700D01*
X824393Y163986D01*
Y158908D01*
Y162293D02*
X827778Y165679D01*
Y174143D02*
X817622D01*
X822700Y169064D01*
Y175836D01*
X827778Y185992D02*
Y179221D01*
X821007Y185992D01*
X819314D01*
X817622Y184300D01*
Y180914D01*
X819314Y179221D01*
X932178Y119808D02*
X922022D01*
Y124886D01*
X923714Y126579D01*
X927100D01*
X928793Y124886D01*
Y119808D01*
Y123193D02*
X932178Y126579D01*
Y135043D02*
X922022D01*
X927100Y129964D01*
Y136736D01*
X923714Y140121D02*
X922022Y141814D01*
Y145199D01*
X923714Y146892D01*
X930486D01*
X932178Y145199D01*
Y141814D01*
X930486Y140121D01*
X923714D01*
X721408Y183622D02*
Y193778D01*
X726486D01*
X728179Y192086D01*
Y188700D01*
X726486Y187007D01*
X721408D01*
X724793D02*
X728179Y183622D01*
X731564Y192086D02*
X733257Y193778D01*
X736643D01*
X738336Y192086D01*
Y190393D01*
X736643Y188700D01*
X734950D01*
X736643D01*
X738336Y187007D01*
Y185314D01*
X736643Y183622D01*
X733257D01*
X731564Y185314D01*
X741721D02*
X743414Y183622D01*
X746799D01*
X748492Y185314D01*
Y192086D01*
X746799Y193778D01*
X743414D01*
X741721Y192086D01*
Y190393D01*
X743414Y188700D01*
X748492D01*
X754458Y172722D02*
Y182878D01*
X759536D01*
X761229Y181186D01*
Y177800D01*
X759536Y176107D01*
X754458D01*
X757843D02*
X761229Y172722D01*
X764614Y181186D02*
X766307Y182878D01*
X769693D01*
X771386Y181186D01*
Y179493D01*
X769693Y177800D01*
X768000D01*
X769693D01*
X771386Y176107D01*
Y174414D01*
X769693Y172722D01*
X766307D01*
X764614Y174414D01*
X774771Y181186D02*
X776464Y182878D01*
X779849D01*
X781542Y181186D01*
Y179493D01*
X779849Y177800D01*
X781542Y176107D01*
Y174414D01*
X779849Y172722D01*
X776464D01*
X774771Y174414D01*
Y176107D01*
X776464Y177800D01*
X774771Y179493D01*
Y181186D01*
X776464Y177800D02*
X779849D01*
X894078Y119808D02*
X883922D01*
Y124886D01*
X885614Y126579D01*
X889000D01*
X890693Y124886D01*
Y119808D01*
Y123193D02*
X894078Y126579D01*
X885614Y129965D02*
X883922Y131657D01*
Y135043D01*
X885614Y136736D01*
X887307D01*
X889000Y135043D01*
Y133350D01*
Y135043D01*
X890693Y136736D01*
X892385D01*
X894078Y135043D01*
Y131657D01*
X892385Y129965D01*
X883922Y146892D02*
X885614Y143507D01*
X889000Y140121D01*
X892385D01*
X894078Y141814D01*
Y145199D01*
X892385Y146892D01*
X890693D01*
X889000Y145199D01*
Y140121D01*
X721408Y216122D02*
Y226278D01*
X726486D01*
X728179Y224586D01*
Y221200D01*
X726486Y219507D01*
X721408D01*
X724793D02*
X728179Y216122D01*
X731564Y224586D02*
X733257Y226278D01*
X736643D01*
X738336Y224586D01*
Y222893D01*
X736643Y221200D01*
X734950D01*
X736643D01*
X738336Y219507D01*
Y217814D01*
X736643Y216122D01*
X733257D01*
X731564Y217814D01*
X748492Y226278D02*
X741721D01*
Y221200D01*
X745107Y222893D01*
X746799D01*
X748492Y221200D01*
Y217814D01*
X746799Y216122D01*
X743414D01*
X741721Y217814D01*
X798528Y158908D02*
X788372D01*
Y163986D01*
X790064Y165679D01*
X793450D01*
X795143Y163986D01*
Y158908D01*
Y162293D02*
X798528Y165679D01*
X790064Y169064D02*
X788372Y170757D01*
Y174143D01*
X790064Y175836D01*
X791757D01*
X793450Y174143D01*
Y172450D01*
Y174143D01*
X795143Y175836D01*
X796836D01*
X798528Y174143D01*
Y170757D01*
X796836Y169064D01*
X798528Y184300D02*
X788372D01*
X793450Y179221D01*
Y185992D01*
X1369408Y864872D02*
Y875028D01*
X1374486D01*
X1376179Y873336D01*
Y869950D01*
X1374486Y868257D01*
X1369408D01*
X1372793D02*
X1376179Y864872D01*
X1379564Y873336D02*
X1381257Y875028D01*
X1384643D01*
X1386336Y873336D01*
Y871643D01*
X1384643Y869950D01*
X1382950D01*
X1384643D01*
X1386336Y868257D01*
Y866564D01*
X1384643Y864872D01*
X1381257D01*
X1379564Y866564D01*
X1389721Y873336D02*
X1391414Y875028D01*
X1394799D01*
X1396492Y873336D01*
Y871643D01*
X1394799Y869950D01*
X1393107D01*
X1394799D01*
X1396492Y868257D01*
Y866564D01*
X1394799Y864872D01*
X1391414D01*
X1389721Y866564D01*
X1369408Y928372D02*
Y938528D01*
X1374486D01*
X1376179Y936836D01*
Y933450D01*
X1374486Y931757D01*
X1369408D01*
X1372793D02*
X1376179Y928372D01*
X1379564Y936836D02*
X1381257Y938528D01*
X1384643D01*
X1386336Y936836D01*
Y935143D01*
X1384643Y933450D01*
X1382950D01*
X1384643D01*
X1386336Y931757D01*
Y930064D01*
X1384643Y928372D01*
X1381257D01*
X1379564Y930064D01*
X1396492Y928372D02*
X1389721D01*
X1396492Y935143D01*
Y936836D01*
X1394799Y938528D01*
X1391414D01*
X1389721Y936836D01*
X1274747Y402139D02*
X1264591D01*
Y407217D01*
X1266283Y408910D01*
X1269669D01*
X1271362Y407217D01*
Y402139D01*
Y405524D02*
X1274747Y408910D01*
X1266283Y412295D02*
X1264591Y413988D01*
Y417374D01*
X1266283Y419067D01*
X1267976D01*
X1269669Y417374D01*
Y415681D01*
Y417374D01*
X1271362Y419067D01*
X1273055D01*
X1274747Y417374D01*
Y413988D01*
X1273055Y412295D01*
X1274747Y422452D02*
Y425838D01*
Y424145D01*
X1264591D01*
X1266283Y422452D01*
X319266Y471172D02*
Y481328D01*
X324345D01*
X326037Y479636D01*
Y476250D01*
X324345Y474557D01*
X319266D01*
X322652D02*
X326037Y471172D01*
X329423Y479636D02*
X331116Y481328D01*
X334501D01*
X336194Y479636D01*
Y477943D01*
X334501Y476250D01*
X332809D01*
X334501D01*
X336194Y474557D01*
Y472864D01*
X334501Y471172D01*
X331116D01*
X329423Y472864D01*
X339580Y479636D02*
X341273Y481328D01*
X344658D01*
X346351Y479636D01*
Y472864D01*
X344658Y471172D01*
X341273D01*
X339580Y472864D01*
Y479636D01*
X717579Y101168D02*
Y111325D01*
X722657D01*
X724350Y109632D01*
Y106246D01*
X722657Y104554D01*
X717579D01*
X720964D02*
X724350Y101168D01*
X734506D02*
X727735D01*
X734506Y107939D01*
Y109632D01*
X732813Y111325D01*
X729428D01*
X727735Y109632D01*
X737892Y102861D02*
X739585Y101168D01*
X742970D01*
X744663Y102861D01*
Y109632D01*
X742970Y111325D01*
X739585D01*
X737892Y109632D01*
Y107939D01*
X739585Y106246D01*
X744663D01*
X553718Y794178D02*
X543562D01*
Y799256D01*
X545254Y800949D01*
X548640D01*
X550333Y799256D01*
Y794178D01*
Y797563D02*
X553718Y800949D01*
Y811106D02*
Y804334D01*
X546947Y811106D01*
X545254D01*
X543562Y809413D01*
Y806027D01*
X545254Y804334D01*
Y814491D02*
X543562Y816184D01*
Y819569D01*
X545254Y821262D01*
X546947D01*
X548640Y819569D01*
X550333Y821262D01*
X552025D01*
X553718Y819569D01*
Y816184D01*
X552025Y814491D01*
X550333D01*
X548640Y816184D01*
X546947Y814491D01*
X545254D01*
X548640Y816184D02*
Y819569D01*
X459738Y796718D02*
X449582D01*
Y801796D01*
X451274Y803489D01*
X454660D01*
X456353Y801796D01*
Y796718D01*
Y800103D02*
X459738Y803489D01*
Y813646D02*
Y806874D01*
X452967Y813646D01*
X451274D01*
X449582Y811953D01*
Y808567D01*
X451274Y806874D01*
X449582Y817031D02*
Y823802D01*
X451274D01*
X458046Y817031D01*
X459738D01*
X318772Y1016842D02*
X328928D01*
Y1011764D01*
X327236Y1010071D01*
X323850D01*
X322157Y1011764D01*
Y1016842D01*
Y1013457D02*
X318772Y1010071D01*
Y999914D02*
Y1006686D01*
X325543Y999914D01*
X327236D01*
X328928Y1001607D01*
Y1004993D01*
X327236Y1006686D01*
X328928Y989758D02*
X327236Y993143D01*
X323850Y996529D01*
X320464D01*
X318772Y994836D01*
Y991451D01*
X320464Y989758D01*
X322157D01*
X323850Y991451D01*
Y996529D01*
X505019Y796718D02*
X494862D01*
Y801796D01*
X496554Y803489D01*
X499940D01*
X501633Y801796D01*
Y796718D01*
Y800103D02*
X505019Y803489D01*
Y813646D02*
Y806874D01*
X498247Y813646D01*
X496554D01*
X494862Y811953D01*
Y808567D01*
X496554Y806874D01*
X505019Y822110D02*
X494862D01*
X499940Y817031D01*
Y823802D01*
X403858Y796718D02*
X393702D01*
Y801796D01*
X395394Y803489D01*
X398780D01*
X400473Y801796D01*
Y796718D01*
Y800103D02*
X403858Y803489D01*
Y813646D02*
Y806874D01*
X397087Y813646D01*
X395394D01*
X393702Y811953D01*
Y808567D01*
X395394Y806874D01*
Y817031D02*
X393702Y818724D01*
Y822110D01*
X395394Y823802D01*
X397087D01*
X398780Y822110D01*
Y820417D01*
Y822110D01*
X400473Y823802D01*
X402165D01*
X403858Y822110D01*
Y818724D01*
X402165Y817031D01*
X252828Y984958D02*
X242672D01*
Y990036D01*
X244364Y991729D01*
X247750D01*
X249443Y990036D01*
Y984958D01*
Y988343D02*
X252828Y991729D01*
Y1001886D02*
Y995115D01*
X246057Y1001886D01*
X244364D01*
X242672Y1000193D01*
Y996807D01*
X244364Y995115D01*
X252828Y1012042D02*
Y1005271D01*
X246057Y1012042D01*
X244364D01*
X242672Y1010350D01*
Y1006964D01*
X244364Y1005271D01*
X594966Y818115D02*
X584809D01*
Y823194D01*
X586502Y824886D01*
X589888D01*
X591580Y823194D01*
Y818115D01*
Y821501D02*
X594966Y824886D01*
Y835043D02*
Y828272D01*
X588195Y835043D01*
X586502D01*
X584809Y833350D01*
Y829965D01*
X586502Y828272D01*
Y838429D02*
X584809Y840121D01*
Y843507D01*
X586502Y845200D01*
X593273D01*
X594966Y843507D01*
Y840121D01*
X593273Y838429D01*
X586502D01*
X535938Y795024D02*
X525782D01*
Y800102D01*
X527474Y801795D01*
X530860D01*
X532553Y800102D01*
Y795024D01*
Y798410D02*
X535938Y801795D01*
Y805181D02*
Y808566D01*
Y806874D01*
X525782D01*
X527474Y805181D01*
X534246Y813645D02*
X535938Y815338D01*
Y818723D01*
X534246Y820416D01*
X527474D01*
X525782Y818723D01*
Y815338D01*
X527474Y813645D01*
X529167D01*
X530860Y815338D01*
Y820416D01*
X637538Y854204D02*
X627382D01*
Y859282D01*
X629074Y860975D01*
X632460D01*
X634153Y859282D01*
Y854204D01*
Y857590D02*
X637538Y860975D01*
Y864361D02*
Y867746D01*
Y866054D01*
X627382D01*
X629074Y864361D01*
Y872825D02*
X627382Y874518D01*
Y877903D01*
X629074Y879596D01*
X630767D01*
X632460Y877903D01*
X634153Y879596D01*
X635846D01*
X637538Y877903D01*
Y874518D01*
X635846Y872825D01*
X634153D01*
X632460Y874518D01*
X630767Y872825D01*
X629074D01*
X632460Y874518D02*
Y877903D01*
X490218Y797564D02*
X480062D01*
Y802643D01*
X481754Y804335D01*
X485140D01*
X486833Y802643D01*
Y797564D01*
Y800950D02*
X490218Y804335D01*
Y807721D02*
Y811106D01*
Y809414D01*
X480062D01*
X481754Y807721D01*
X480062Y816185D02*
Y822956D01*
X481754D01*
X488526Y816185D01*
X490218D01*
X862328Y635004D02*
X852172D01*
Y640082D01*
X853864Y641775D01*
X857250D01*
X858943Y640082D01*
Y635004D01*
Y638390D02*
X862328Y641775D01*
Y645161D02*
Y648546D01*
Y646854D01*
X852172D01*
X853864Y645161D01*
X852172Y660396D02*
X853864Y657010D01*
X857250Y653625D01*
X860636D01*
X862328Y655318D01*
Y658703D01*
X860636Y660396D01*
X858943D01*
X857250Y658703D01*
Y653625D01*
X887728Y635004D02*
X877572D01*
Y640082D01*
X879264Y641775D01*
X882650D01*
X884343Y640082D01*
Y635004D01*
Y638390D02*
X887728Y641775D01*
Y645161D02*
Y648546D01*
Y646854D01*
X877572D01*
X879264Y645161D01*
X877572Y660396D02*
Y653625D01*
X882650D01*
X880957Y657010D01*
Y658703D01*
X882650Y660396D01*
X886036D01*
X887728Y658703D01*
Y655318D01*
X886036Y653625D01*
X760728Y635004D02*
X750572D01*
Y640082D01*
X752264Y641775D01*
X755650D01*
X757343Y640082D01*
Y635004D01*
Y638390D02*
X760728Y641775D01*
Y645161D02*
Y648546D01*
Y646854D01*
X750572D01*
X752264Y645161D01*
X760728Y658703D02*
X750572D01*
X755650Y653625D01*
Y660396D01*
X786128Y635004D02*
X775972D01*
Y640082D01*
X777664Y641775D01*
X781050D01*
X782743Y640082D01*
Y635004D01*
Y638390D02*
X786128Y641775D01*
Y645161D02*
Y648546D01*
Y646854D01*
X775972D01*
X777664Y645161D01*
Y653625D02*
X775972Y655318D01*
Y658703D01*
X777664Y660396D01*
X779357D01*
X781050Y658703D01*
Y657010D01*
Y658703D01*
X782743Y660396D01*
X784436D01*
X786128Y658703D01*
Y655318D01*
X784436Y653625D01*
X469850Y842983D02*
X459693D01*
Y848062D01*
X461385Y849754D01*
X464771D01*
X466464Y848062D01*
Y842983D01*
Y846369D02*
X469850Y849754D01*
Y853140D02*
Y856525D01*
Y854833D01*
X459693D01*
X461385Y853140D01*
X469850Y861604D02*
Y864989D01*
Y863297D01*
X459693D01*
X461385Y861604D01*
X441958Y797564D02*
X431802D01*
Y802643D01*
X433494Y804335D01*
X436880D01*
X438573Y802643D01*
Y797564D01*
Y800950D02*
X441958Y804335D01*
Y807721D02*
Y811106D01*
Y809414D01*
X431802D01*
X433494Y807721D01*
Y816185D02*
X431802Y817878D01*
Y821263D01*
X433494Y822956D01*
X440266D01*
X441958Y821263D01*
Y817878D01*
X440266Y816185D01*
X433494D01*
X811528Y639236D02*
X801372D01*
Y644314D01*
X803064Y646007D01*
X806450D01*
X808143Y644314D01*
Y639236D01*
Y642622D02*
X811528Y646007D01*
X803064Y649393D02*
X801372Y651086D01*
Y654471D01*
X803064Y656164D01*
X804757D01*
X806450Y654471D01*
X808143Y656164D01*
X809836D01*
X811528Y654471D01*
Y651086D01*
X809836Y649393D01*
X808143D01*
X806450Y651086D01*
X804757Y649393D01*
X803064D01*
X806450Y651086D02*
Y654471D01*
X836928Y639236D02*
X826772D01*
Y644314D01*
X828464Y646007D01*
X831850D01*
X833543Y644314D01*
Y639236D01*
Y642622D02*
X836928Y646007D01*
X826772Y649393D02*
Y656164D01*
X828464D01*
X835236Y649393D01*
X836928D01*
X709928Y639236D02*
X699772D01*
Y644314D01*
X701464Y646007D01*
X704850D01*
X706543Y644314D01*
Y639236D01*
Y642622D02*
X709928Y646007D01*
X699772Y656164D02*
X701464Y652778D01*
X704850Y649393D01*
X708236D01*
X709928Y651086D01*
Y654471D01*
X708236Y656164D01*
X706543D01*
X704850Y654471D01*
Y649393D01*
X735328Y639236D02*
X725172D01*
Y644314D01*
X726864Y646007D01*
X730250D01*
X731943Y644314D01*
Y639236D01*
Y642622D02*
X735328Y646007D01*
X725172Y656164D02*
Y649393D01*
X730250D01*
X728557Y652778D01*
Y654471D01*
X730250Y656164D01*
X733636D01*
X735328Y654471D01*
Y651086D01*
X733636Y649393D01*
X340673Y896822D02*
Y906978D01*
X345751D01*
X347444Y905285D01*
Y901900D01*
X345751Y900207D01*
X340673D01*
X344059D02*
X347444Y896822D01*
X350830Y905285D02*
X352523Y906978D01*
X355908D01*
X357601Y905285D01*
Y903593D01*
X355908Y901900D01*
X354215D01*
X355908D01*
X357601Y900207D01*
Y898514D01*
X355908Y896822D01*
X352523D01*
X350830Y898514D01*
X379971Y804336D02*
X369814D01*
Y809414D01*
X371507Y811107D01*
X374893D01*
X376586Y809414D01*
Y804336D01*
Y807722D02*
X379971Y811107D01*
Y821264D02*
Y814493D01*
X373200Y821264D01*
X371507D01*
X369814Y819571D01*
Y816186D01*
X371507Y814493D01*
X948266Y971975D02*
X941494D01*
X939802Y970283D01*
Y966897D01*
X941494Y965204D01*
X948266D01*
X949958Y966897D01*
Y970283D01*
X946573Y968590D02*
X949958Y971975D01*
Y970283D02*
X948266Y971975D01*
X949958Y975361D02*
Y978746D01*
Y977054D01*
X939802D01*
X941494Y975361D01*
X939802Y990596D02*
Y983825D01*
X944880D01*
X943187Y987210D01*
Y988903D01*
X944880Y990596D01*
X948266D01*
X949958Y988903D01*
Y985518D01*
X948266Y983825D01*
X873336Y971975D02*
X866564D01*
X864872Y970283D01*
Y966897D01*
X866564Y965204D01*
X873336D01*
X875028Y966897D01*
Y970283D01*
X871643Y968590D02*
X875028Y971975D01*
Y970283D02*
X873336Y971975D01*
X875028Y975361D02*
Y978746D01*
Y977054D01*
X864872D01*
X866564Y975361D01*
X875028Y988903D02*
X864872D01*
X869950Y983825D01*
Y990596D01*
X797136Y971975D02*
X790364D01*
X788672Y970283D01*
Y966897D01*
X790364Y965204D01*
X797136D01*
X798828Y966897D01*
Y970283D01*
X795443Y968590D02*
X798828Y971975D01*
Y970283D02*
X797136Y971975D01*
X798828Y975361D02*
Y978746D01*
Y977054D01*
X788672D01*
X790364Y975361D01*
Y983825D02*
X788672Y985518D01*
Y988903D01*
X790364Y990596D01*
X792057D01*
X793750Y988903D01*
Y987210D01*
Y988903D01*
X795443Y990596D01*
X797136D01*
X798828Y988903D01*
Y985518D01*
X797136Y983825D01*
X719666Y971975D02*
X712894D01*
X711202Y970283D01*
Y966897D01*
X712894Y965204D01*
X719666D01*
X721358Y966897D01*
Y970283D01*
X717973Y968590D02*
X721358Y971975D01*
Y970283D02*
X719666Y971975D01*
X721358Y975361D02*
Y978746D01*
Y977054D01*
X711202D01*
X712894Y975361D01*
X721358Y990596D02*
Y983825D01*
X714587Y990596D01*
X712894D01*
X711202Y988903D01*
Y985518D01*
X712894Y983825D01*
X1025736Y1037168D02*
X1018964D01*
X1017272Y1035475D01*
Y1032090D01*
X1018964Y1030397D01*
X1025736D01*
X1027428Y1032090D01*
Y1035475D01*
X1024043Y1033783D02*
X1027428Y1037168D01*
Y1035475D02*
X1025736Y1037168D01*
X1027428Y1040554D02*
Y1043939D01*
Y1042246D01*
X1017272D01*
X1018964Y1040554D01*
X1027428Y1049018D02*
Y1052403D01*
Y1050710D01*
X1017272D01*
X1018964Y1049018D01*
X449075Y246614D02*
Y253386D01*
X447382Y255078D01*
X443997D01*
X442304Y253386D01*
Y246614D01*
X443997Y244922D01*
X447382D01*
X445690Y248307D02*
X449075Y244922D01*
X447382D02*
X449075Y246614D01*
X452461Y244922D02*
X455846D01*
X454154D01*
Y255078D01*
X452461Y253386D01*
X460925D02*
X462617Y255078D01*
X466003D01*
X467696Y253386D01*
Y246614D01*
X466003Y244922D01*
X462617D01*
X460925Y246614D01*
Y253386D01*
X243307Y381614D02*
Y388386D01*
X241614Y390078D01*
X238229D01*
X236536Y388386D01*
Y381614D01*
X238229Y379922D01*
X241614D01*
X239922Y383307D02*
X243307Y379922D01*
X241614D02*
X243307Y381614D01*
X246693D02*
X248386Y379922D01*
X251771D01*
X253464Y381614D01*
Y388386D01*
X251771Y390078D01*
X248386D01*
X246693Y388386D01*
Y386693D01*
X248386Y385000D01*
X253464D01*
X453307Y121614D02*
Y128386D01*
X451614Y130078D01*
X448229D01*
X446536Y128386D01*
Y121614D01*
X448229Y119922D01*
X451614D01*
X449922Y123307D02*
X453307Y119922D01*
X451614D02*
X453307Y121614D01*
X456693Y128386D02*
X458386Y130078D01*
X461771D01*
X463464Y128386D01*
Y126693D01*
X461771Y125000D01*
X463464Y123307D01*
Y121614D01*
X461771Y119922D01*
X458386D01*
X456693Y121614D01*
Y123307D01*
X458386Y125000D01*
X456693Y126693D01*
Y128386D01*
X458386Y125000D02*
X461771D01*
X243307Y61614D02*
Y68386D01*
X241614Y70078D01*
X238229D01*
X236536Y68386D01*
Y61614D01*
X238229Y59922D01*
X241614D01*
X239922Y63307D02*
X243307Y59922D01*
X241614D02*
X243307Y61614D01*
X246693Y70078D02*
X253464D01*
Y68386D01*
X246693Y61614D01*
Y59922D01*
X359879Y555164D02*
Y561936D01*
X358186Y563628D01*
X354801D01*
X353108Y561936D01*
Y555164D01*
X354801Y553472D01*
X358186D01*
X356494Y556857D02*
X359879Y553472D01*
X358186D02*
X359879Y555164D01*
X370036Y563628D02*
X366651Y561936D01*
X363265Y558550D01*
Y555164D01*
X364958Y553472D01*
X368343D01*
X370036Y555164D01*
Y556857D01*
X368343Y558550D01*
X363265D01*
X359479Y670164D02*
Y676936D01*
X357787Y678628D01*
X354401D01*
X352708Y676936D01*
Y670164D01*
X354401Y668472D01*
X357787D01*
X356094Y671857D02*
X359479Y668472D01*
X357787D02*
X359479Y670164D01*
X369636Y678628D02*
X362865D01*
Y673550D01*
X366251Y675243D01*
X367943D01*
X369636Y673550D01*
Y670164D01*
X367943Y668472D01*
X364558D01*
X362865Y670164D01*
X329857Y1122560D02*
Y1129331D01*
X328164Y1131024D01*
X324778D01*
X323086Y1129331D01*
Y1122560D01*
X324778Y1120867D01*
X328164D01*
X326471Y1124253D02*
X329857Y1120867D01*
X328164D02*
X329857Y1122560D01*
X338321Y1120867D02*
Y1131024D01*
X333242Y1125946D01*
X340014D01*
X249157Y1121414D02*
Y1128186D01*
X247464Y1129878D01*
X244079D01*
X242386Y1128186D01*
Y1121414D01*
X244079Y1119722D01*
X247464D01*
X245772Y1123107D02*
X249157Y1119722D01*
X247464D02*
X249157Y1121414D01*
X252543Y1128186D02*
X254235Y1129878D01*
X257621D01*
X259314Y1128186D01*
Y1126493D01*
X257621Y1124800D01*
X255928D01*
X257621D01*
X259314Y1123107D01*
Y1121414D01*
X257621Y1119722D01*
X254235D01*
X252543Y1121414D01*
X168307Y1120784D02*
Y1127555D01*
X166615Y1129248D01*
X163229D01*
X161536Y1127555D01*
Y1120784D01*
X163229Y1119091D01*
X166615D01*
X164922Y1122477D02*
X168307Y1119091D01*
X166615D02*
X168307Y1120784D01*
X178464Y1119091D02*
X171693D01*
X178464Y1125862D01*
Y1127555D01*
X176771Y1129248D01*
X173386D01*
X171693Y1127555D01*
X90000Y1121601D02*
Y1128372D01*
X88307Y1130065D01*
X84922D01*
X83229Y1128372D01*
Y1121601D01*
X84922Y1119908D01*
X88307D01*
X86614Y1123294D02*
X90000Y1119908D01*
X88307D02*
X90000Y1121601D01*
X93385Y1119908D02*
X96771D01*
X95078D01*
Y1130065D01*
X93385Y1128372D01*
X912789Y745233D02*
X909404D01*
X911096D01*
Y736769D01*
X909404Y735076D01*
X907711D01*
X906018Y736769D01*
X916175Y743540D02*
X917868Y745233D01*
X921253D01*
X922946Y743540D01*
Y741847D01*
X921253Y740154D01*
X922946Y738462D01*
Y736769D01*
X921253Y735076D01*
X917868D01*
X916175Y736769D01*
Y738462D01*
X917868Y740154D01*
X916175Y741847D01*
Y743540D01*
X917868Y740154D02*
X921253D01*
X1535007Y770579D02*
X1531622D01*
X1533314D01*
Y762115D01*
X1531622Y760422D01*
X1529929D01*
X1528236Y762115D01*
X1538393Y770579D02*
X1545164D01*
Y768886D01*
X1538393Y762115D01*
Y760422D01*
X1328079Y1276347D02*
X1324694D01*
X1326386D01*
Y1267883D01*
X1324694Y1266190D01*
X1323001D01*
X1321308Y1267883D01*
X1331465Y1274654D02*
X1333158Y1276347D01*
X1336543D01*
X1338236Y1274654D01*
Y1272961D01*
X1336543Y1271268D01*
X1334850D01*
X1336543D01*
X1338236Y1269576D01*
Y1267883D01*
X1336543Y1266190D01*
X1333158D01*
X1331465Y1267883D01*
X133263Y1276347D02*
X129878D01*
X131570D01*
Y1267883D01*
X129878Y1266190D01*
X128185D01*
X126492Y1267883D01*
X143420Y1266190D02*
X136649D01*
X143420Y1272961D01*
Y1274654D01*
X141727Y1276347D01*
X138342D01*
X136649Y1274654D01*
X101600Y468628D02*
X98214D01*
X99907D01*
Y460164D01*
X98214Y458472D01*
X96522D01*
X94829Y460164D01*
X104986Y458472D02*
X108371D01*
X106678D01*
Y468628D01*
X104986Y466936D01*
X1235696Y407249D02*
Y400478D01*
X1240774D01*
Y403863D01*
Y400478D01*
X1245852D01*
X1235696Y410634D02*
X1245852D01*
Y415713D01*
X1244160Y417406D01*
X1242467D01*
X1240774Y415713D01*
Y410634D01*
Y415713D01*
X1239081Y417406D01*
X1237388D01*
X1235696Y415713D01*
Y410634D01*
X1237388Y420791D02*
X1235696Y422484D01*
Y425869D01*
X1237388Y427562D01*
X1239081D01*
X1240774Y425869D01*
Y424177D01*
Y425869D01*
X1242467Y427562D01*
X1244160D01*
X1245852Y425869D01*
Y422484D01*
X1244160Y420791D01*
X631518Y176109D02*
Y169338D01*
X636597D01*
Y172723D01*
Y169338D01*
X641675D01*
X631518Y179494D02*
X641675D01*
Y184573D01*
X639982Y186266D01*
X638289D01*
X636597Y184573D01*
Y179494D01*
Y184573D01*
X634904Y186266D01*
X633211D01*
X631518Y184573D01*
Y179494D01*
X641675Y196422D02*
Y189651D01*
X634904Y196422D01*
X633211D01*
X631518Y194729D01*
Y191344D01*
X633211Y189651D01*
X162630Y803628D02*
X155858D01*
Y798550D01*
X159244D01*
X155858D01*
Y793472D01*
X172786D02*
X166015D01*
X172786Y800243D01*
Y801936D01*
X171094Y803628D01*
X167708D01*
X166015Y801936D01*
X444500Y601978D02*
X437729D01*
Y596900D01*
X441114D01*
X437729D01*
Y591822D01*
X447886D02*
X451271D01*
X449578D01*
Y601978D01*
X447886Y600286D01*
X691308Y1179828D02*
Y1169672D01*
X696386D01*
X698079Y1171364D01*
Y1178136D01*
X696386Y1179828D01*
X691308D01*
X708236Y1169672D02*
X701464D01*
X708236Y1176443D01*
Y1178136D01*
X706543Y1179828D01*
X703157D01*
X701464Y1178136D01*
X718392Y1179828D02*
X715007Y1178136D01*
X711621Y1174750D01*
Y1171364D01*
X713314Y1169672D01*
X716700D01*
X718392Y1171364D01*
Y1173057D01*
X716700Y1174750D01*
X711621D01*
X653208Y1179828D02*
Y1169672D01*
X658286D01*
X659979Y1171364D01*
Y1178136D01*
X658286Y1179828D01*
X653208D01*
X670136Y1169672D02*
X663364D01*
X670136Y1176443D01*
Y1178136D01*
X668443Y1179828D01*
X665057D01*
X663364Y1178136D01*
X680292Y1179828D02*
X673521D01*
Y1174750D01*
X676907Y1176443D01*
X678599D01*
X680292Y1174750D01*
Y1171364D01*
X678599Y1169672D01*
X675214D01*
X673521Y1171364D01*
X615108Y1179828D02*
Y1169672D01*
X620186D01*
X621879Y1171364D01*
Y1178136D01*
X620186Y1179828D01*
X615108D01*
X632036Y1169672D02*
X625264D01*
X632036Y1176443D01*
Y1178136D01*
X630343Y1179828D01*
X626957D01*
X625264Y1178136D01*
X640499Y1169672D02*
Y1179828D01*
X635421Y1174750D01*
X642192D01*
X578085Y1179828D02*
Y1169672D01*
X583164D01*
X584856Y1171364D01*
Y1178136D01*
X583164Y1179828D01*
X578085D01*
X595013Y1169672D02*
X588242D01*
X595013Y1176443D01*
Y1178136D01*
X593320Y1179828D01*
X589935D01*
X588242Y1178136D01*
X598399D02*
X600092Y1179828D01*
X603477D01*
X605170Y1178136D01*
Y1176443D01*
X603477Y1174750D01*
X601784D01*
X603477D01*
X605170Y1173057D01*
Y1171364D01*
X603477Y1169672D01*
X600092D01*
X598399Y1171364D01*
X491458Y295078D02*
Y284922D01*
X496536D01*
X498229Y286614D01*
Y293386D01*
X496536Y295078D01*
X491458D01*
X508386Y284922D02*
X501614D01*
X508386Y291693D01*
Y293386D01*
X506693Y295078D01*
X503307D01*
X501614Y293386D01*
X518542Y284922D02*
X511771D01*
X518542Y291693D01*
Y293386D01*
X516850Y295078D01*
X513464D01*
X511771Y293386D01*
X493150Y165078D02*
Y154922D01*
X498229D01*
X499922Y156614D01*
Y163386D01*
X498229Y165078D01*
X493150D01*
X510078Y154922D02*
X503307D01*
X510078Y161693D01*
Y163386D01*
X508386Y165078D01*
X505000D01*
X503307Y163386D01*
X513464Y154922D02*
X516850D01*
X515157D01*
Y165078D01*
X513464Y163386D01*
X1200061Y761607D02*
Y751451D01*
X1205139D01*
X1206832Y753143D01*
Y759914D01*
X1205139Y761607D01*
X1200061D01*
X1210218Y751451D02*
X1213603D01*
X1211910D01*
Y761607D01*
X1210218Y759914D01*
X1218681Y753143D02*
X1220374Y751451D01*
X1223760D01*
X1225453Y753143D01*
Y759914D01*
X1223760Y761607D01*
X1220374D01*
X1218681Y759914D01*
Y758222D01*
X1220374Y756529D01*
X1225453D01*
X838204Y391158D02*
Y381002D01*
X843282D01*
X844975Y382694D01*
Y389466D01*
X843282Y391158D01*
X838204D01*
X848361Y381002D02*
X851746D01*
X850054D01*
Y391158D01*
X848361Y389466D01*
X856825D02*
X858518Y391158D01*
X861903D01*
X863596Y389466D01*
Y387773D01*
X861903Y386080D01*
X863596Y384387D01*
Y382694D01*
X861903Y381002D01*
X858518D01*
X856825Y382694D01*
Y384387D01*
X858518Y386080D01*
X856825Y387773D01*
Y389466D01*
X858518Y386080D02*
X861903D01*
X1290322Y403864D02*
X1300478D01*
Y408942D01*
X1298786Y410635D01*
X1292014D01*
X1290322Y408942D01*
Y403864D01*
X1300478Y414021D02*
Y417406D01*
Y415714D01*
X1290322D01*
X1292014Y414021D01*
X1290322Y422485D02*
Y429256D01*
X1292014D01*
X1298786Y422485D01*
X1300478D01*
X777242Y127004D02*
X787398D01*
Y132083D01*
X785706Y133775D01*
X778934D01*
X777242Y132083D01*
Y127004D01*
X787398Y137161D02*
Y140546D01*
Y138854D01*
X777242D01*
X778934Y137161D01*
X777242Y152396D02*
X778934Y149010D01*
X782320Y145625D01*
X785706D01*
X787398Y147318D01*
Y150703D01*
X785706Y152396D01*
X784013D01*
X782320Y150703D01*
Y145625D01*
X253226Y510328D02*
Y500172D01*
X258305D01*
X259998Y501864D01*
Y508636D01*
X258305Y510328D01*
X253226D01*
X263383Y500172D02*
X266769D01*
X265076D01*
Y510328D01*
X263383Y508636D01*
X278618Y510328D02*
X271847D01*
Y505250D01*
X275233Y506943D01*
X276925D01*
X278618Y505250D01*
Y501864D01*
X276925Y500172D01*
X273540D01*
X271847Y501864D01*
X188824Y476450D02*
Y466293D01*
X193902D01*
X195595Y467986D01*
Y474757D01*
X193902Y476450D01*
X188824D01*
X198981Y466293D02*
X202366D01*
X200674D01*
Y476450D01*
X198981Y474757D01*
X212523Y466293D02*
Y476450D01*
X207445Y471371D01*
X214216D01*
X138926Y476450D02*
Y466293D01*
X144005D01*
X145697Y467986D01*
Y474757D01*
X144005Y476450D01*
X138926D01*
X149083Y466293D02*
X152469D01*
X150776D01*
Y476450D01*
X149083Y474757D01*
X157547D02*
X159240Y476450D01*
X162625D01*
X164318Y474757D01*
Y473064D01*
X162625Y471371D01*
X160933D01*
X162625D01*
X164318Y469679D01*
Y467986D01*
X162625Y466293D01*
X159240D01*
X157547Y467986D01*
X580202Y784354D02*
X590359D01*
Y789433D01*
X588666Y791125D01*
X581895D01*
X580202Y789433D01*
Y784354D01*
X590359Y794511D02*
Y797897D01*
Y796204D01*
X580202D01*
X581895Y794511D01*
X590359Y809746D02*
Y802975D01*
X583587Y809746D01*
X581895D01*
X580202Y808053D01*
Y804668D01*
X581895Y802975D01*
X464822Y799257D02*
X474978D01*
Y804335D01*
X473286Y806028D01*
X466514D01*
X464822Y804335D01*
Y799257D01*
X474978Y809414D02*
Y812799D01*
Y811106D01*
X464822D01*
X466514Y809414D01*
X474978Y817878D02*
Y821263D01*
Y819570D01*
X464822D01*
X466514Y817878D01*
X370052Y952304D02*
X380208D01*
Y957382D01*
X378516Y959075D01*
X371744D01*
X370052Y957382D01*
Y952304D01*
X380208Y962461D02*
Y965846D01*
Y964154D01*
X370052D01*
X371744Y962461D01*
Y970925D02*
X370052Y972617D01*
Y976003D01*
X371744Y977696D01*
X378516D01*
X380208Y976003D01*
Y972617D01*
X378516Y970925D01*
X371744D01*
X510542Y799256D02*
X520698D01*
Y804334D01*
X519006Y806027D01*
X512234D01*
X510542Y804334D01*
Y799256D01*
X512234Y809413D02*
X510542Y811106D01*
Y814491D01*
X512234Y816184D01*
X513927D01*
X515620Y814491D01*
X517313Y816184D01*
X519006D01*
X520698Y814491D01*
Y811106D01*
X519006Y809413D01*
X517313D01*
X515620Y811106D01*
X513927Y809413D01*
X512234D01*
X515620Y811106D02*
Y814491D01*
X414022Y804336D02*
X424178D01*
Y809414D01*
X422486Y811107D01*
X415714D01*
X414022Y809414D01*
Y804336D01*
Y814493D02*
Y821264D01*
X415714D01*
X422486Y814493D01*
X424178D01*
X280786Y936078D02*
Y925922D01*
X285864D01*
X287557Y927614D01*
Y934386D01*
X285864Y936078D01*
X280786D01*
X297714D02*
X294328Y934386D01*
X290943Y931000D01*
Y927614D01*
X292636Y925922D01*
X296021D01*
X297714Y927614D01*
Y929307D01*
X296021Y931000D01*
X290943D01*
X616886Y1134328D02*
Y1124172D01*
X621964D01*
X623657Y1125864D01*
Y1132636D01*
X621964Y1134328D01*
X616886D01*
X632121Y1124172D02*
Y1134328D01*
X627043Y1129250D01*
X633814D01*
X540686Y1133124D02*
Y1122967D01*
X545765D01*
X547457Y1124660D01*
Y1131431D01*
X545765Y1133124D01*
X540686D01*
X550843Y1131431D02*
X552536Y1133124D01*
X555921D01*
X557614Y1131431D01*
Y1129738D01*
X555921Y1128045D01*
X554228D01*
X555921D01*
X557614Y1126353D01*
Y1124660D01*
X555921Y1122967D01*
X552536D01*
X550843Y1124660D01*
X464486Y1132578D02*
Y1122422D01*
X469565D01*
X471257Y1124114D01*
Y1130886D01*
X469565Y1132578D01*
X464486D01*
X481414Y1122422D02*
X474643D01*
X481414Y1129193D01*
Y1130886D01*
X479721Y1132578D01*
X476336D01*
X474643Y1130886D01*
X388717Y1128318D02*
Y1118161D01*
X393795D01*
X395488Y1119854D01*
Y1126625D01*
X393795Y1128318D01*
X388717D01*
X398873Y1118161D02*
X402259D01*
X400566D01*
Y1128318D01*
X398873Y1126625D01*
X1144963Y1072888D02*
X1143270Y1071195D01*
Y1067809D01*
X1144963Y1066116D01*
X1151734D01*
X1153427Y1067809D01*
Y1071195D01*
X1151734Y1072888D01*
X1153427Y1083044D02*
Y1076273D01*
X1146656Y1083044D01*
X1144963D01*
X1143270Y1081351D01*
Y1077966D01*
X1144963Y1076273D01*
Y1086430D02*
X1143270Y1088123D01*
Y1091508D01*
X1144963Y1093201D01*
X1146656D01*
X1148348Y1091508D01*
Y1089815D01*
Y1091508D01*
X1150041Y1093201D01*
X1151734D01*
X1153427Y1091508D01*
Y1088123D01*
X1151734Y1086430D01*
X546949Y289136D02*
X545256Y290828D01*
X541870D01*
X540178Y289136D01*
Y282364D01*
X541870Y280672D01*
X545256D01*
X546949Y282364D01*
X557106Y290828D02*
X553720Y289136D01*
X550334Y285750D01*
Y282364D01*
X552027Y280672D01*
X555413D01*
X557106Y282364D01*
Y284057D01*
X555413Y285750D01*
X550334D01*
X560491Y289136D02*
X562184Y290828D01*
X565569D01*
X567262Y289136D01*
Y287443D01*
X565569Y285750D01*
X563877D01*
X565569D01*
X567262Y284057D01*
Y282364D01*
X565569Y280672D01*
X562184D01*
X560491Y282364D01*
X956734Y869529D02*
X955042Y867836D01*
Y864451D01*
X956734Y862758D01*
X963505D01*
X965198Y864451D01*
Y867836D01*
X963505Y869529D01*
X955042Y879686D02*
X956734Y876300D01*
X960120Y872915D01*
X963505D01*
X965198Y874607D01*
Y877993D01*
X963505Y879686D01*
X961813D01*
X960120Y877993D01*
Y872915D01*
X965198Y889842D02*
Y883071D01*
X958427Y889842D01*
X956734D01*
X955042Y888149D01*
Y884764D01*
X956734Y883071D01*
X829734Y871222D02*
X828042Y869529D01*
Y866143D01*
X829734Y864451D01*
X836506D01*
X838198Y866143D01*
Y869529D01*
X836506Y871222D01*
X828042Y881378D02*
X829734Y877993D01*
X833120Y874607D01*
X836506D01*
X838198Y876300D01*
Y879686D01*
X836506Y881378D01*
X834813D01*
X833120Y879686D01*
Y874607D01*
X838198Y884764D02*
Y888149D01*
Y886457D01*
X828042D01*
X829734Y884764D01*
X493229Y318386D02*
X491536Y320078D01*
X488150D01*
X486458Y318386D01*
Y311614D01*
X488150Y309922D01*
X491536D01*
X493229Y311614D01*
X503386Y320078D02*
X500000Y318386D01*
X496614Y315000D01*
Y311614D01*
X498307Y309922D01*
X501693D01*
X503386Y311614D01*
Y313307D01*
X501693Y315000D01*
X496614D01*
X506771Y318386D02*
X508464Y320078D01*
X511850D01*
X513542Y318386D01*
Y311614D01*
X511850Y309922D01*
X508464D01*
X506771Y311614D01*
Y318386D01*
X463229Y293386D02*
X461536Y295078D01*
X458150D01*
X456458Y293386D01*
Y286614D01*
X458150Y284922D01*
X461536D01*
X463229Y286614D01*
X473386Y295078D02*
X466614D01*
Y290000D01*
X470000Y291693D01*
X471693D01*
X473386Y290000D01*
Y286614D01*
X471693Y284922D01*
X468307D01*
X466614Y286614D01*
X476771D02*
X478464Y284922D01*
X481850D01*
X483542Y286614D01*
Y293386D01*
X481850Y295078D01*
X478464D01*
X476771Y293386D01*
Y291693D01*
X478464Y290000D01*
X483542D01*
X298229Y238386D02*
X296536Y240078D01*
X293151D01*
X291458Y238386D01*
Y231614D01*
X293151Y229922D01*
X296536D01*
X298229Y231614D01*
X308386Y240078D02*
X301614D01*
Y235000D01*
X305000Y236693D01*
X306693D01*
X308386Y235000D01*
Y231614D01*
X306693Y229922D01*
X303307D01*
X301614Y231614D01*
X311771Y238386D02*
X313464Y240078D01*
X316849D01*
X318542Y238386D01*
Y236693D01*
X316849Y235000D01*
X318542Y233307D01*
Y231614D01*
X316849Y229922D01*
X313464D01*
X311771Y231614D01*
Y233307D01*
X313464Y235000D01*
X311771Y236693D01*
Y238386D01*
X313464Y235000D02*
X316849D01*
X488229Y188386D02*
X486536Y190078D01*
X483150D01*
X481458Y188386D01*
Y181614D01*
X483150Y179922D01*
X486536D01*
X488229Y181614D01*
X498386Y190078D02*
X491614D01*
Y185000D01*
X495000Y186693D01*
X496693D01*
X498386Y185000D01*
Y181614D01*
X496693Y179922D01*
X493307D01*
X491614Y181614D01*
X501771Y190078D02*
X508542D01*
Y188386D01*
X501771Y181614D01*
Y179922D01*
X463229Y163386D02*
X461536Y165078D01*
X458150D01*
X456458Y163386D01*
Y156614D01*
X458150Y154922D01*
X461536D01*
X463229Y156614D01*
X473386Y165078D02*
X466614D01*
Y160000D01*
X470000Y161693D01*
X471693D01*
X473386Y160000D01*
Y156614D01*
X471693Y154922D01*
X468307D01*
X466614Y156614D01*
X483542Y165078D02*
X480157Y163386D01*
X476771Y160000D01*
Y156614D01*
X478464Y154922D01*
X481850D01*
X483542Y156614D01*
Y158307D01*
X481850Y160000D01*
X476771D01*
X1369529Y208336D02*
X1367836Y210028D01*
X1364451D01*
X1362758Y208336D01*
Y201564D01*
X1364451Y199872D01*
X1367836D01*
X1369529Y201564D01*
X1379686Y210028D02*
X1372914D01*
Y204950D01*
X1376300Y206643D01*
X1377993D01*
X1379686Y204950D01*
Y201564D01*
X1377993Y199872D01*
X1374607D01*
X1372914Y201564D01*
X1389842Y210028D02*
X1383071D01*
Y204950D01*
X1386457Y206643D01*
X1388150D01*
X1389842Y204950D01*
Y201564D01*
X1388150Y199872D01*
X1384764D01*
X1383071Y201564D01*
X1051122Y208296D02*
X1049429Y209989D01*
X1046043D01*
X1044351Y208296D01*
Y201525D01*
X1046043Y199832D01*
X1049429D01*
X1051122Y201525D01*
X1061279Y209989D02*
X1054508D01*
Y204910D01*
X1057893Y206603D01*
X1059586D01*
X1061279Y204910D01*
Y201525D01*
X1059586Y199832D01*
X1056200D01*
X1054508Y201525D01*
X1069743Y199832D02*
Y209989D01*
X1064664Y204910D01*
X1071435D01*
X728179Y208336D02*
X726486Y210028D01*
X723101D01*
X721408Y208336D01*
Y201564D01*
X723101Y199872D01*
X726486D01*
X728179Y201564D01*
X738336Y210028D02*
X731564D01*
Y204950D01*
X734950Y206643D01*
X736643D01*
X738336Y204950D01*
Y201564D01*
X736643Y199872D01*
X733257D01*
X731564Y201564D01*
X741721Y208336D02*
X743414Y210028D01*
X746799D01*
X748492Y208336D01*
Y206643D01*
X746799Y204950D01*
X745107D01*
X746799D01*
X748492Y203257D01*
Y201564D01*
X746799Y199872D01*
X743414D01*
X741721Y201564D01*
X1551529Y208336D02*
X1549836Y210028D01*
X1546451D01*
X1544758Y208336D01*
Y201564D01*
X1546451Y199872D01*
X1549836D01*
X1551529Y201564D01*
X1561686Y210028D02*
X1554914D01*
Y204950D01*
X1558300Y206643D01*
X1559993D01*
X1561686Y204950D01*
Y201564D01*
X1559993Y199872D01*
X1556607D01*
X1554914Y201564D01*
X1571842Y199872D02*
X1565071D01*
X1571842Y206643D01*
Y208336D01*
X1570150Y210028D01*
X1566764D01*
X1565071Y208336D01*
X1553222Y224586D02*
X1551529Y226278D01*
X1548143D01*
X1546451Y224586D01*
Y217814D01*
X1548143Y216122D01*
X1551529D01*
X1553222Y217814D01*
X1563378Y226278D02*
X1556607D01*
Y221200D01*
X1559993Y222893D01*
X1561686D01*
X1563378Y221200D01*
Y217814D01*
X1561686Y216122D01*
X1558300D01*
X1556607Y217814D01*
X1566764Y216122D02*
X1570150D01*
X1568457D01*
Y226278D01*
X1566764Y224586D01*
X1281779Y218086D02*
X1280086Y219778D01*
X1276701D01*
X1275008Y218086D01*
Y211314D01*
X1276701Y209622D01*
X1280086D01*
X1281779Y211314D01*
X1291936Y219778D02*
X1285164D01*
Y214700D01*
X1288550Y216393D01*
X1290243D01*
X1291936Y214700D01*
Y211314D01*
X1290243Y209622D01*
X1286857D01*
X1285164Y211314D01*
X1295321Y218086D02*
X1297014Y219778D01*
X1300399D01*
X1302092Y218086D01*
Y211314D01*
X1300399Y209622D01*
X1297014D01*
X1295321Y211314D01*
Y218086D01*
X1281779Y269753D02*
X1280086Y271446D01*
X1276701D01*
X1275008Y269753D01*
Y262982D01*
X1276701Y261289D01*
X1280086D01*
X1281779Y262982D01*
X1290243Y261289D02*
Y271446D01*
X1285164Y266367D01*
X1291936D01*
X1295321Y262982D02*
X1297014Y261289D01*
X1300399D01*
X1302092Y262982D01*
Y269753D01*
X1300399Y271446D01*
X1297014D01*
X1295321Y269753D01*
Y268060D01*
X1297014Y266367D01*
X1302092D01*
X1194122Y208296D02*
X1192429Y209989D01*
X1189044D01*
X1187351Y208296D01*
Y201525D01*
X1189044Y199832D01*
X1192429D01*
X1194122Y201525D01*
X1202586Y199832D02*
Y209989D01*
X1197507Y204910D01*
X1204279D01*
X1207664Y208296D02*
X1209357Y209989D01*
X1212743D01*
X1214435Y208296D01*
Y206603D01*
X1212743Y204910D01*
X1214435Y203218D01*
Y201525D01*
X1212743Y199832D01*
X1209357D01*
X1207664Y201525D01*
Y203218D01*
X1209357Y204910D01*
X1207664Y206603D01*
Y208296D01*
X1209357Y204910D02*
X1212743D01*
X1239622Y208296D02*
X1237929Y209989D01*
X1234544D01*
X1232851Y208296D01*
Y201525D01*
X1234544Y199832D01*
X1237929D01*
X1239622Y201525D01*
X1248086Y199832D02*
Y209989D01*
X1243008Y204910D01*
X1249779D01*
X1259935Y209989D02*
X1256550Y208296D01*
X1253164Y204910D01*
Y201525D01*
X1254857Y199832D01*
X1258242D01*
X1259935Y201525D01*
Y203218D01*
X1258242Y204910D01*
X1253164D01*
X963372Y218046D02*
X961679Y219739D01*
X958294D01*
X956601Y218046D01*
Y211275D01*
X958294Y209582D01*
X961679D01*
X963372Y211275D01*
X971836Y209582D02*
Y219739D01*
X966758Y214660D01*
X973529D01*
X983685Y219739D02*
X976914D01*
Y214660D01*
X980300Y216353D01*
X981992D01*
X983685Y214660D01*
Y211275D01*
X981992Y209582D01*
X978607D01*
X976914Y211275D01*
X963372Y270046D02*
X961679Y271739D01*
X958294D01*
X956601Y270046D01*
Y263275D01*
X958294Y261582D01*
X961679D01*
X963372Y263275D01*
X971836Y261582D02*
Y271739D01*
X966758Y266660D01*
X973529D01*
X981992Y261582D02*
Y271739D01*
X976914Y266660D01*
X983685D01*
X883264Y447879D02*
X881572Y446186D01*
Y442800D01*
X883264Y441108D01*
X890036D01*
X891728Y442800D01*
Y446186D01*
X890036Y447879D01*
X891728Y456343D02*
X881572D01*
X886650Y451264D01*
Y458036D01*
X883264Y461421D02*
X881572Y463114D01*
Y466499D01*
X883264Y468192D01*
X884957D01*
X886650Y466499D01*
Y464807D01*
Y466499D01*
X888343Y468192D01*
X890036D01*
X891728Y466499D01*
Y463114D01*
X890036Y461421D01*
X1207349Y567692D02*
X1205656Y569385D01*
X1202271D01*
X1200578Y567692D01*
Y560921D01*
X1202271Y559228D01*
X1205656D01*
X1207349Y560921D01*
X1215813Y559228D02*
Y569385D01*
X1210734Y564307D01*
X1217506D01*
X1227662Y559228D02*
X1220891D01*
X1227662Y565999D01*
Y567692D01*
X1225969Y569385D01*
X1222584D01*
X1220891Y567692D01*
X918372Y208336D02*
X916679Y210028D01*
X913293D01*
X911600Y208336D01*
Y201564D01*
X913293Y199872D01*
X916679D01*
X918372Y201564D01*
X926836Y199872D02*
Y210028D01*
X921757Y204950D01*
X928528D01*
X931914Y199872D02*
X935300D01*
X933607D01*
Y210028D01*
X931914Y208336D01*
X1008229Y385606D02*
X1006536Y387298D01*
X1003150D01*
X1001458Y385606D01*
Y378834D01*
X1003150Y377142D01*
X1006536D01*
X1008229Y378834D01*
X1016693Y377142D02*
Y387298D01*
X1011614Y382220D01*
X1018386D01*
X1021771Y385606D02*
X1023464Y387298D01*
X1026850D01*
X1028542Y385606D01*
Y378834D01*
X1026850Y377142D01*
X1023464D01*
X1021771Y378834D01*
Y385606D01*
X963580Y427660D02*
X961888Y425967D01*
Y422582D01*
X963580Y420889D01*
X970351D01*
X972044Y422582D01*
Y425967D01*
X970351Y427660D01*
X963580Y431046D02*
X961888Y432739D01*
Y436124D01*
X963580Y437817D01*
X965273D01*
X966966Y436124D01*
Y434431D01*
Y436124D01*
X968659Y437817D01*
X970351D01*
X972044Y436124D01*
Y432739D01*
X970351Y431046D01*
Y441203D02*
X972044Y442895D01*
Y446281D01*
X970351Y447974D01*
X963580D01*
X961888Y446281D01*
Y442895D01*
X963580Y441203D01*
X965273D01*
X966966Y442895D01*
Y447974D01*
X916679Y224586D02*
X914986Y226278D01*
X911600D01*
X909908Y224586D01*
Y217814D01*
X911600Y216122D01*
X914986D01*
X916679Y217814D01*
X920064Y224586D02*
X921757Y226278D01*
X925143D01*
X926836Y224586D01*
Y222893D01*
X925143Y221200D01*
X923450D01*
X925143D01*
X926836Y219507D01*
Y217814D01*
X925143Y216122D01*
X921757D01*
X920064Y217814D01*
X930221Y224586D02*
X931914Y226278D01*
X935300D01*
X936992Y224586D01*
Y222893D01*
X935300Y221200D01*
X936992Y219507D01*
Y217814D01*
X935300Y216122D01*
X931914D01*
X930221Y217814D01*
Y219507D01*
X931914Y221200D01*
X930221Y222893D01*
Y224586D01*
X931914Y221200D02*
X935300D01*
X640929Y217286D02*
X639236Y218978D01*
X635850D01*
X634158Y217286D01*
Y210514D01*
X635850Y208822D01*
X639236D01*
X640929Y210514D01*
X644314Y217286D02*
X646007Y218978D01*
X649393D01*
X651086Y217286D01*
Y215593D01*
X649393Y213900D01*
X647700D01*
X649393D01*
X651086Y212207D01*
Y210514D01*
X649393Y208822D01*
X646007D01*
X644314Y210514D01*
X654471Y218978D02*
X661242D01*
Y217286D01*
X654471Y210514D01*
Y208822D01*
X1116614Y381849D02*
X1114922Y380156D01*
Y376771D01*
X1116614Y375078D01*
X1123386D01*
X1125078Y376771D01*
Y380156D01*
X1123386Y381849D01*
X1116614Y385234D02*
X1114922Y386927D01*
Y390313D01*
X1116614Y392006D01*
X1118307D01*
X1120000Y390313D01*
Y388620D01*
Y390313D01*
X1121693Y392006D01*
X1123386D01*
X1125078Y390313D01*
Y386927D01*
X1123386Y385234D01*
X1114922Y402162D02*
X1116614Y398777D01*
X1120000Y395391D01*
X1123386D01*
X1125078Y397084D01*
Y400470D01*
X1123386Y402162D01*
X1121693D01*
X1120000Y400470D01*
Y395391D01*
X1091614Y398229D02*
X1089921Y396536D01*
Y393150D01*
X1091614Y391458D01*
X1098385D01*
X1100078Y393150D01*
Y396536D01*
X1098385Y398229D01*
X1091614Y401614D02*
X1089921Y403307D01*
Y406693D01*
X1091614Y408386D01*
X1093307D01*
X1095000Y406693D01*
Y405000D01*
Y406693D01*
X1096693Y408386D01*
X1098385D01*
X1100078Y406693D01*
Y403307D01*
X1098385Y401614D01*
X1089921Y418542D02*
Y411771D01*
X1095000D01*
X1093307Y415157D01*
Y416850D01*
X1095000Y418542D01*
X1098385D01*
X1100078Y416850D01*
Y413464D01*
X1098385Y411771D01*
X1155213Y441671D02*
X1153520Y439979D01*
Y436593D01*
X1155213Y434900D01*
X1161984D01*
X1163677Y436593D01*
Y439979D01*
X1161984Y441671D01*
X1155213Y445057D02*
X1153520Y446750D01*
Y450135D01*
X1155213Y451828D01*
X1156906D01*
X1158599Y450135D01*
Y448443D01*
Y450135D01*
X1160291Y451828D01*
X1161984D01*
X1163677Y450135D01*
Y446750D01*
X1161984Y445057D01*
X1163677Y460292D02*
X1153520D01*
X1158599Y455214D01*
Y461985D01*
X1010325Y643210D02*
X1008632Y644903D01*
X1005247D01*
X1003554Y643210D01*
Y636439D01*
X1005247Y634746D01*
X1008632D01*
X1010325Y636439D01*
X1013711Y643210D02*
X1015404Y644903D01*
X1018789D01*
X1020482Y643210D01*
Y641517D01*
X1018789Y639824D01*
X1017096D01*
X1018789D01*
X1020482Y638132D01*
Y636439D01*
X1018789Y634746D01*
X1015404D01*
X1013711Y636439D01*
X1023867Y643210D02*
X1025560Y644903D01*
X1028946D01*
X1030639Y643210D01*
Y641517D01*
X1028946Y639824D01*
X1027253D01*
X1028946D01*
X1030639Y638132D01*
Y636439D01*
X1028946Y634746D01*
X1025560D01*
X1023867Y636439D01*
X1207349Y592711D02*
X1205656Y594404D01*
X1202271D01*
X1200578Y592711D01*
Y585940D01*
X1202271Y584247D01*
X1205656D01*
X1207349Y585940D01*
X1210734Y592711D02*
X1212427Y594404D01*
X1215813D01*
X1217506Y592711D01*
Y591018D01*
X1215813Y589325D01*
X1214120D01*
X1215813D01*
X1217506Y587632D01*
Y585940D01*
X1215813Y584247D01*
X1212427D01*
X1210734Y585940D01*
X1227662Y584247D02*
X1220891D01*
X1227662Y591018D01*
Y592711D01*
X1225969Y594404D01*
X1222584D01*
X1220891Y592711D01*
X980442Y521546D02*
X978749Y523238D01*
X975363D01*
X973671Y521546D01*
Y514774D01*
X975363Y513082D01*
X978749D01*
X980442Y514774D01*
X983827Y521546D02*
X985520Y523238D01*
X988906D01*
X990598Y521546D01*
Y519853D01*
X988906Y518160D01*
X987213D01*
X988906D01*
X990598Y516467D01*
Y514774D01*
X988906Y513082D01*
X985520D01*
X983827Y514774D01*
X993984Y513082D02*
X997370D01*
X995677D01*
Y523238D01*
X993984Y521546D01*
X935569Y488526D02*
X933876Y490218D01*
X930490D01*
X928798Y488526D01*
Y481754D01*
X930490Y480062D01*
X933876D01*
X935569Y481754D01*
X938954Y488526D02*
X940647Y490218D01*
X944033D01*
X945726Y488526D01*
Y486833D01*
X944033Y485140D01*
X942340D01*
X944033D01*
X945726Y483447D01*
Y481754D01*
X944033Y480062D01*
X940647D01*
X938954Y481754D01*
X949111Y488526D02*
X950804Y490218D01*
X954190D01*
X955882Y488526D01*
Y481754D01*
X954190Y480062D01*
X950804D01*
X949111Y481754D01*
Y488526D01*
X640429Y270086D02*
X638736Y271778D01*
X635350D01*
X633658Y270086D01*
Y263314D01*
X635350Y261622D01*
X638736D01*
X640429Y263314D01*
X650586Y261622D02*
X643814D01*
X650586Y268393D01*
Y270086D01*
X648893Y271778D01*
X645507D01*
X643814Y270086D01*
X653971Y263314D02*
X655664Y261622D01*
X659050D01*
X660742Y263314D01*
Y270086D01*
X659050Y271778D01*
X655664D01*
X653971Y270086D01*
Y268393D01*
X655664Y266700D01*
X660742D01*
X1390229Y1120986D02*
X1388536Y1122678D01*
X1385150D01*
X1383458Y1120986D01*
Y1114214D01*
X1385150Y1112522D01*
X1388536D01*
X1390229Y1114214D01*
X1400386Y1112522D02*
X1393614D01*
X1400386Y1119293D01*
Y1120986D01*
X1398693Y1122678D01*
X1395307D01*
X1393614Y1120986D01*
X1403771D02*
X1405464Y1122678D01*
X1408849D01*
X1410542Y1120986D01*
Y1119293D01*
X1408849Y1117600D01*
X1410542Y1115907D01*
Y1114214D01*
X1408849Y1112522D01*
X1405464D01*
X1403771Y1114214D01*
Y1115907D01*
X1405464Y1117600D01*
X1403771Y1119293D01*
Y1120986D01*
X1405464Y1117600D02*
X1408849D01*
X1580729Y1120986D02*
X1579036Y1122678D01*
X1575650D01*
X1573958Y1120986D01*
Y1114214D01*
X1575650Y1112522D01*
X1579036D01*
X1580729Y1114214D01*
X1590886Y1112522D02*
X1584114D01*
X1590886Y1119293D01*
Y1120986D01*
X1589193Y1122678D01*
X1585807D01*
X1584114Y1120986D01*
X1594271Y1122678D02*
X1601042D01*
Y1120986D01*
X1594271Y1114214D01*
Y1112522D01*
X1256879Y835236D02*
X1255186Y836928D01*
X1251801D01*
X1250108Y835236D01*
Y828464D01*
X1251801Y826772D01*
X1255186D01*
X1256879Y828464D01*
X1267036Y826772D02*
X1260264D01*
X1267036Y833543D01*
Y835236D01*
X1265343Y836928D01*
X1261957D01*
X1260264Y835236D01*
X1277192Y836928D02*
X1273807Y835236D01*
X1270421Y831850D01*
Y828464D01*
X1272114Y826772D01*
X1275499D01*
X1277192Y828464D01*
Y830157D01*
X1275499Y831850D01*
X1270421D01*
X1358479Y1120986D02*
X1356786Y1122678D01*
X1353401D01*
X1351708Y1120986D01*
Y1114214D01*
X1353401Y1112522D01*
X1356786D01*
X1358479Y1114214D01*
X1368636Y1112522D02*
X1361864D01*
X1368636Y1119293D01*
Y1120986D01*
X1366943Y1122678D01*
X1363557D01*
X1361864Y1120986D01*
X1378792Y1112522D02*
X1372021D01*
X1378792Y1119293D01*
Y1120986D01*
X1377099Y1122678D01*
X1373714D01*
X1372021Y1120986D01*
X1493522Y835236D02*
X1491829Y836928D01*
X1488443D01*
X1486750Y835236D01*
Y828464D01*
X1488443Y826772D01*
X1491829D01*
X1493522Y828464D01*
X1503678Y826772D02*
X1496907D01*
X1503678Y833543D01*
Y835236D01*
X1501986Y836928D01*
X1498600D01*
X1496907Y835236D01*
X1507064Y826772D02*
X1510450D01*
X1508757D01*
Y836928D01*
X1507064Y835236D01*
X1210721Y402715D02*
X1209028Y401022D01*
Y397637D01*
X1210721Y395944D01*
X1217492D01*
X1219185Y397637D01*
Y401022D01*
X1217492Y402715D01*
X1219185Y406101D02*
Y409486D01*
Y407794D01*
X1209028D01*
X1210721Y406101D01*
Y414565D02*
X1209028Y416258D01*
Y419643D01*
X1210721Y421336D01*
X1212414D01*
X1214107Y419643D01*
X1215799Y421336D01*
X1217492D01*
X1219185Y419643D01*
Y416258D01*
X1217492Y414565D01*
X1215799D01*
X1214107Y416258D01*
X1212414Y414565D01*
X1210721D01*
X1214107Y416258D02*
Y419643D01*
X1185334Y409062D02*
X1183641Y407369D01*
Y403984D01*
X1185334Y402291D01*
X1192105D01*
X1193798Y403984D01*
Y407369D01*
X1192105Y409062D01*
X1193798Y412448D02*
Y415833D01*
Y414140D01*
X1183641D01*
X1185334Y412448D01*
X1183641Y420911D02*
Y427683D01*
X1185334D01*
X1192105Y420911D01*
X1193798D01*
X672215Y516053D02*
X670523Y517746D01*
X667137D01*
X665444Y516053D01*
Y509282D01*
X667137Y507589D01*
X670523D01*
X672215Y509282D01*
X675601Y507589D02*
X678986D01*
X677294D01*
Y517746D01*
X675601Y516053D01*
X690836Y517746D02*
X687450Y516053D01*
X684065Y512668D01*
Y509282D01*
X685758Y507589D01*
X689143D01*
X690836Y509282D01*
Y510975D01*
X689143Y512668D01*
X684065D01*
X672215Y543136D02*
X670523Y544828D01*
X667137D01*
X665444Y543136D01*
Y536364D01*
X667137Y534672D01*
X670523D01*
X672215Y536364D01*
X675601Y534672D02*
X678986D01*
X677294D01*
Y544828D01*
X675601Y543136D01*
X690836Y544828D02*
X684065D01*
Y539750D01*
X687450Y541443D01*
X689143D01*
X690836Y539750D01*
Y536364D01*
X689143Y534672D01*
X685758D01*
X684065Y536364D01*
X672215Y570218D02*
X670523Y571911D01*
X667137D01*
X665444Y570218D01*
Y563447D01*
X667137Y561754D01*
X670523D01*
X672215Y563447D01*
X675601Y561754D02*
X678986D01*
X677294D01*
Y571911D01*
X675601Y570218D01*
X689143Y561754D02*
Y571911D01*
X684065Y566833D01*
X690836D01*
X677215Y613136D02*
X675523Y614828D01*
X672137D01*
X670444Y613136D01*
Y606364D01*
X672137Y604672D01*
X675523D01*
X677215Y606364D01*
X680601Y604672D02*
X683986D01*
X682294D01*
Y614828D01*
X680601Y613136D01*
X689065D02*
X690758Y614828D01*
X694143D01*
X695836Y613136D01*
Y611443D01*
X694143Y609750D01*
X692450D01*
X694143D01*
X695836Y608057D01*
Y606364D01*
X694143Y604672D01*
X690758D01*
X689065Y606364D01*
X695114Y176955D02*
X693422Y175263D01*
Y171877D01*
X695114Y170184D01*
X701886D01*
X703578Y171877D01*
Y175263D01*
X701886Y176955D01*
X703578Y180341D02*
Y183726D01*
Y182034D01*
X693422D01*
X695114Y180341D01*
X703578Y195576D02*
Y188805D01*
X696807Y195576D01*
X695114D01*
X693422Y193883D01*
Y190498D01*
X695114Y188805D01*
X663364Y183728D02*
X661672Y182035D01*
Y178650D01*
X663364Y176957D01*
X670136D01*
X671828Y178650D01*
Y182035D01*
X670136Y183728D01*
X671828Y187114D02*
Y190499D01*
Y188806D01*
X661672D01*
X663364Y187114D01*
X671828Y195578D02*
Y198963D01*
Y197270D01*
X661672D01*
X663364Y195578D01*
X674715Y367018D02*
X673023Y368711D01*
X669637D01*
X667944Y367018D01*
Y360247D01*
X669637Y358554D01*
X673023D01*
X674715Y360247D01*
X678101Y358554D02*
X681486D01*
X679794D01*
Y368711D01*
X678101Y367018D01*
X686565D02*
X688258Y368711D01*
X691643D01*
X693336Y367018D01*
Y360247D01*
X691643Y358554D01*
X688258D01*
X686565Y360247D01*
Y367018D01*
X671447Y397086D02*
X669754Y398778D01*
X666369D01*
X664676Y397086D01*
Y390314D01*
X666369Y388622D01*
X669754D01*
X671447Y390314D01*
X674833D02*
X676526Y388622D01*
X679911D01*
X681604Y390314D01*
Y397086D01*
X679911Y398778D01*
X676526D01*
X674833Y397086D01*
Y395393D01*
X676526Y393700D01*
X681604D01*
X671447Y422486D02*
X669754Y424178D01*
X666369D01*
X664676Y422486D01*
Y415714D01*
X666369Y414022D01*
X669754D01*
X671447Y415714D01*
X674833Y422486D02*
X676526Y424178D01*
X679911D01*
X681604Y422486D01*
Y420793D01*
X679911Y419100D01*
X681604Y417407D01*
Y415714D01*
X679911Y414022D01*
X676526D01*
X674833Y415714D01*
Y417407D01*
X676526Y419100D01*
X674833Y420793D01*
Y422486D01*
X676526Y419100D02*
X679911D01*
X673947Y466936D02*
X672254Y468628D01*
X668869D01*
X667176Y466936D01*
Y460164D01*
X668869Y458472D01*
X672254D01*
X673947Y460164D01*
X684104Y468628D02*
X677333D01*
Y463550D01*
X680718Y465243D01*
X682411D01*
X684104Y463550D01*
Y460164D01*
X682411Y458472D01*
X679026D01*
X677333Y460164D01*
X497247Y899786D02*
X495555Y901479D01*
X492169D01*
X490476Y899786D01*
Y893015D01*
X492169Y891322D01*
X495555D01*
X497247Y893015D01*
X505711Y891322D02*
Y901479D01*
X500633Y896400D01*
X507404D01*
X174414Y890457D02*
X172722Y888764D01*
Y885379D01*
X174414Y883686D01*
X181186D01*
X182878Y885379D01*
Y888764D01*
X181186Y890457D01*
X174414Y893842D02*
X172722Y895535D01*
Y898921D01*
X174414Y900614D01*
X176107D01*
X177800Y898921D01*
Y897228D01*
Y898921D01*
X179493Y900614D01*
X181186D01*
X182878Y898921D01*
Y895535D01*
X181186Y893842D01*
X343154Y821618D02*
X341462Y819925D01*
Y816539D01*
X343154Y814846D01*
X349926D01*
X351618Y816539D01*
Y819925D01*
X349926Y821618D01*
X351618Y831774D02*
Y825003D01*
X344847Y831774D01*
X343154D01*
X341462Y830082D01*
Y826696D01*
X343154Y825003D01*
X40079Y891784D02*
X38386Y890091D01*
Y886705D01*
X40079Y885013D01*
X46850D01*
X48543Y886705D01*
Y890091D01*
X46850Y891784D01*
X48543Y895169D02*
Y898555D01*
Y896862D01*
X38386D01*
X40079Y895169D01*
D19*
X1563000Y783000D02*
D03*
Y807000D02*
D03*
X599150Y1116901D02*
D03*
Y1092901D02*
D03*
X675350Y1116900D02*
D03*
Y1092900D02*
D03*
X522950Y1116899D02*
D03*
Y1092899D02*
D03*
X446750Y1116899D02*
D03*
Y1092899D02*
D03*
D20*
X556801Y562602D02*
D03*
Y516882D02*
D03*
X555531Y416571D02*
D03*
X555531Y370851D02*
D03*
D21*
X557141Y539742D02*
D03*
X555870Y393711D02*
D03*
X717550Y998030D02*
D03*
X946150D02*
D03*
X641350D02*
D03*
X869950D02*
D03*
X793750D02*
D03*
X565150D02*
D03*
X488950D02*
D03*
X412750D02*
D03*
D22*
X332043Y746546D02*
D03*
Y721146D02*
D03*
Y695746D02*
D03*
X332442Y581449D02*
D03*
Y606849D02*
D03*
Y632249D02*
D03*
D23*
X480502Y676580D02*
D03*
X422502D02*
D03*
X536151Y677825D02*
D03*
X594151D02*
D03*
D24*
X1525600Y924355D02*
D03*
Y866356D02*
D03*
X1290651Y866341D02*
D03*
X1290649Y924339D02*
D03*
D25*
X740410Y998370D02*
D03*
X694690D02*
D03*
X969010D02*
D03*
X923290D02*
D03*
X892810D02*
D03*
X847090D02*
D03*
X770890D02*
D03*
X816610D02*
D03*
D26*
X618490Y998370D02*
D03*
X664210D02*
D03*
X588010D02*
D03*
X542290D02*
D03*
X511810D02*
D03*
X466090D02*
D03*
X435610D02*
D03*
X389890D02*
D03*
M02*
