M48
;Layer_Color=9474304
;FILE_FORMAT=4:4
METRIC,TZ
;TYPE=PLATED
T01F00S00C0.4000
T03F00S00C0.9000
T04F00S00C1.0000
T05F00S00C1.2000
T07F00S00C1.2700
T08F00S00C1.5000
;TYPE=NON_PLATED
T09F00S00C0.7000
T10F00S00C3.2000
%
T01
X138750Y142943
X136964Y233943
X176850
X185049Y227404
X232000Y227443
Y240443
Y266443
X232383Y201061
X280834Y233943
X293376Y308070
X259074Y333470
X137001Y324943
X94300Y263050
Y205900
X240000Y110000
X316009Y110650
X341950
X328500Y167050
X430850Y186850
X457200Y196850
Y222250
X427604Y239660
X430700Y314000
X460700Y292100
X488950Y300700
X527050
X575000Y262500
X600000Y250000
X608300Y274350
Y331500
Y377825
X581200Y358100
X571200
X654050Y361950
Y393700
X692150Y319750
X666700Y292700
Y266700
Y240700
Y214700
X666750Y170180
X698500Y109220
X762000
X755650Y228600
Y260350
X712288Y266677
X774700Y304800
X476250Y336550
X440534Y123350
X806450Y146050
Y177800
X869950Y158750
X908050
X946150
X984250
X1022350
X1079500Y184150
Y254000
X1036368Y266366
X989643Y266660
Y240660
Y214660
X949450Y240700
Y266700
X949277Y292700
X989643Y292660
X1032500Y387500
X1067500Y352500
X1160000Y370000
X1186500Y384800
X1178123Y266680
X1130300Y271700
X853450Y266700
X876300Y317500
X1230000Y320000
X1269143Y292660
Y266660
Y240660
X1308050Y240700
Y266660
Y292700
X1353550Y266700
X1397000Y260350
X1450000Y280000
X1491331Y266700
X1582309Y266240
Y240240
X1581050Y292700
X1570000Y390000
X1450000Y340000
X1360000Y380000
X1270000Y389600
X1211500Y384800
X1244600Y161000
X1250000Y80000
X1296500Y104800
X1376500Y124800
X1397000Y184150
X1440000Y150000
X1537250Y169800
X1582556Y169500
X1308050Y214700
X1211500Y424800
X1210000Y500000
X1237500Y515000
X1260000Y510000
X1281520Y550000
X1310000Y560000
X1333500Y599150
X1280000Y600000
X1270000Y619875
Y627375
X1260000Y610000
X1240000Y600000
X1230000Y580000
X1237500Y550000
X1192500Y565000
X1191214Y589326
X1197423Y610000
X1196340Y619760
Y627260
X1220000Y660000
X1240000Y640000
X1280000Y650000
X1352550Y649950
X1440000Y650000
X1454150Y605500
X1400000Y600000
X1350000Y520000
X1440000Y500000
X1420000Y420000
X1400000Y790000
X1340000
X1270000Y720000
X1247140Y711200
X1200000Y690000
X1552042Y691407
Y753500
X1510000Y790000
X1166500Y774800
X1160043Y781050
X1153693Y787400
X1155700Y757900
X1160000Y720000
X1130000Y700000
X1121000Y685800
X1130000Y660000
Y640000
Y620000
X1137500Y585000
X1146473Y571500
X1100000Y562500
X1104900Y529300
X1077500Y538000
X1060450Y529300
X1060000Y520000
Y560000
X1027500Y588000
X1042055Y608138
X1010000Y605501
X984250Y637250
X997500Y660000
X980000Y680000
X1020000
X1073150Y685800
X1066800Y711200
Y757900
X1079500Y787400
X1085850Y781050
X1092200Y774700
X1050000Y650000
X1180000Y640000
X1165000Y610000
X1146801Y504185
X1145000Y490000
X1125000
X1095000Y497500
X1080000Y500000
X1096000Y465000
X1104900Y457200
X1095000Y417500
X1116465Y407290
X1040000Y400000
Y420000
X1036500Y452000
X1022743Y474757
X1005000Y475000
X1016000Y491200
X1006333Y504377
X962500Y500582
X961573Y475286
X927100Y514350
X907500Y435000
X980000Y410000
X990000Y400000
X806450Y427700
X807500Y560000
X850000Y550000
X854838Y714307
X831850Y713450
X806450
X882667Y716964
X1180000Y500000
X1170000Y470000
X1157500Y467500
X1167500Y457500
X1186500Y424800
X654050Y419100
Y450850
X653140Y512668
Y539750
Y566833
X654050Y596900
X673100Y552450
Y499730
X582470Y504050
X572470
X558789Y485150
X577850Y539750
Y577850
X609570Y566833
X620000Y640000
X590000
X565651Y652780
X565785Y662215
X565651Y673100
X540000Y640000
X510000
X480000
X451485Y650580
Y661580
Y671830
X496263Y739232
X507780Y737746
X508000Y746850
Y754112
X520700Y755650
X525798Y746476
X520000Y740000
X490000Y746850
X495300Y755650
X647700Y732500
X704850Y714850
X730250Y714750
X755650Y714350
X781050Y713950
X554990Y609750
X576000Y416700
X374650Y770600
X342900
X355600Y834100
X330200Y891250
X304800Y910300
X310536Y955925
X310658Y974841
X285750Y990600
X273050
X260350
X234950Y965200
X203200Y990600
X190500
X171450
X127000
X114300
X101600
X133350Y971550
X158750Y910300
Y853150
X107950Y834100
X63500Y903950
X215900
X241300Y834100
X292100Y853150
X336550Y990600
X349250
X361950
X374650Y965200
X421890Y977075
X435750Y977900
X449390Y977075
X511950Y990600
X527050
X508000Y958850
X574290Y977075
X588150Y977900
X601790Y977075
X650490
X664350Y977900
X677990Y977075
X728980Y962660
X751840
Y993140
X728980
X706500Y904800
X711200Y850900
X685800Y846800
X647700Y834100
X628650Y903950
X552450Y853150
X501500Y834800
X474599Y902721
X406400Y853150
X774700Y863600
X765800Y1109097
X749300Y1112520
X687750Y1107150
Y1164300
X611550
Y1107150
X825500Y1112520
X842000Y1109097
X901700Y1112520
X918200Y1109097
X977900Y1112520
X994400Y1108998
X1022350Y1098550
X1060450Y1062700
X1092200
X1090000Y1030000
X1060000
X1130300Y1009650
X1136650Y990600
X1168400Y1003300
X1183385Y1009557
X1181179Y975439
X1155700Y931742
X1131300
X1105900Y931201
X1079500Y929350
X1054100Y929640
X1028700
X1003300
X980440Y962660
X957580
Y993140
X980440
X904240
X881380
Y962660
X904240
X828040
X805180
Y993140
X828040
X850900Y910300
X800100
X812800Y845820
X876300Y814891
X901700Y815350
X927100Y815808
X952500
X939800Y845820
X902067Y863233
X952500Y910300
X1080000Y840000
X1066800Y812800
X1073150Y793750
X1147343
X1170000Y830000
X1140000Y870000
X1170000Y910000
X1168400Y1079500
X1181100Y1085480
X1147700Y1106170
X1135380Y1104900
X1125220
X1206500Y1073150
X1209000Y1035000
X1219000
X1228000
X1242060Y1023620
Y1008380
Y993140
Y977900
X1257300
Y967740
Y954750
X1270000
X1272540Y967740
Y977900
X1287780
Y993140
X1272540
X1257300
Y1008380
X1272540
X1287780
Y1023620
X1272540
X1257300
Y1049020
X1242060
Y1064260
X1257300
X1272540
Y1049020
X1287780
X1301750Y1050000
X1305000Y1035000
X1313168Y1035259
X1321250Y1035050
X1301750Y1018250
X1287780Y1064260
Y1082040
X1272540
X1257300
X1242060
X1349110Y1084950
X1366182Y1079500
X1397000
X1412240Y1084580
X1416050Y1073150
X1409700Y1050000
X1415400Y1009650
X1409700Y999200
X1397000Y1003300
Y975360
X1416050Y973800
X1434500Y952500
X1467900
X1474610Y977900
Y993140
Y1008380
Y1023620
X1489850
X1505090
X1520330
Y1008380
X1505090
X1489850
Y993140
X1505090
X1520330
Y977900
X1505090
Y967740
X1489850
Y977900
X1489710Y1052697
X1474470
Y1067937
X1489710
X1504950
Y1052697
X1520190
Y1067937
Y1083177
Y1098417
X1504950
X1489710
X1474470
Y1083177
X1489710
X1504950
Y1115060
X1489710
X1479550Y1132550
X1409700
X1416050Y1113500
X1381412Y1109980
X1366183Y1003300
Y975697
X1339850Y973800
Y948400
X1320800Y929350
X1308100
Y942050
X1295400Y954750
Y896620
X1313180
X1327150Y878550
X1350000Y870000
X1371600Y857250
Y812730
X1440000Y850000
X1543050Y846800
Y859500
X1555750
X1560000Y870000
X1551940Y896620
X1531620
X1543050Y929350
Y942050
X1555750Y929350
X1560000Y920000
X1562100Y967450
X1574800
X1543050Y1018250
X1544038Y1035050
X1551375
X1536700
X1454150
X1443000Y1035000
X1380950Y957150
X1352550Y903950
X1330000Y920000
X1301750Y872200
X1308100Y859500
X1301750Y853150
X1582420Y1089660
X1600200Y1079500
X1587500Y1050000
X1600200Y1003300
Y975360
T03
X1536700Y571021
Y596020
X1568700
Y571021
T04
X186500Y98443
X211500Y148443
X161500
X278500Y148443
X328500
X303500Y98443
X280083Y315026
X330083
X305082Y365026
X206882Y360026
X156883
X181883Y310025
X919400Y692500
X944800
X970200
X995600
T05
X457200Y84800
X495300
X533400
X571500
X609600
X647700
X685800
X723900
X762000
X800100
X869950
X908050
X946150
X984250
X1022350
X1060450
X1098550
X1136650
X1174750
X1212850
T07
X164322Y556050
Y613200
Y714800
Y771950
T08
X101600Y508000
Y558800
Y609600
Y660400
Y711200
Y762000
X150100Y1157500
X200900
X251700
X302500
X353300
X404100
X454900
X505700
X768500
X819300
X870100
X920900
X971700
X1022500
X1073300
X1124100
X1174900
X1225700
X1346300
X1397100
X1447900
X1498700
T09
X1571200Y692600
Y752400
T10
X70000Y70000
X1590000
X70000Y1190000
X1590000
M30
