G04*
G04 #@! TF.GenerationSoftware,Altium Limited,Altium Designer,25.0.2 (28)*
G04*
G04 Layer_Physical_Order=2*
G04 Layer_Color=16711680*
%FSLAX44Y44*%
%MOMM*%
G71*
G04*
G04 #@! TF.SameCoordinates,AC037715-0773-48B7-9E6E-B3265F142276*
G04*
G04*
G04 #@! TF.FilePolarity,Positive*
G04*
G01*
G75*
%ADD13C,0.6000*%
%ADD14C,0.5000*%
%ADD15C,0.2540*%
%ADD16C,0.3000*%
%ADD92R,1.8500X1.8500*%
%ADD93C,1.8500*%
%ADD126C,0.8000*%
%ADD128C,1.0000*%
%ADD131C,0.4000*%
%ADD135C,2.0000*%
%ADD136C,4.0000*%
%ADD138C,3.0000*%
%ADD139O,2.1590X2.0320*%
%ADD140C,0.7000*%
%ADD141O,2.0000X1.0000*%
%ADD142O,2.4000X1.0000*%
%ADD143O,4.0000X2.4000*%
%ADD144O,2.4000X3.6000*%
%ADD145O,2.0000X1.6000*%
%ADD146R,2.0000X1.6000*%
%ADD147C,2.0000*%
G04:AMPARAMS|DCode=148|XSize=2mm|YSize=2mm|CornerRadius=0mm|HoleSize=0mm|Usage=FLASHONLY|Rotation=90.000|XOffset=0mm|YOffset=0mm|HoleType=Round|Shape=Octagon|*
%AMOCTAGOND148*
4,1,8,0.5000,1.0000,-0.5000,1.0000,-1.0000,0.5000,-1.0000,-0.5000,-0.5000,-1.0000,0.5000,-1.0000,1.0000,-0.5000,1.0000,0.5000,0.5000,1.0000,0.0*
%
%ADD148OCTAGOND148*%

%ADD149O,1.6000X2.0000*%
%ADD150C,0.6000*%
%ADD151R,11.0744X9.2964*%
%ADD152R,1.6002X4.2926*%
%ADD153R,4.1000X1.0500*%
%ADD154R,9.6000X10.4500*%
%ADD155C,1.5000*%
%ADD156C,5.0000*%
G36*
X1559452Y1218730D02*
X1556679Y1215568D01*
X1553627Y1211000D01*
X1551197Y1206073D01*
X1549431Y1200870D01*
X1548359Y1195482D01*
X1548000Y1190000D01*
X1548359Y1184518D01*
X1549431Y1179130D01*
X1551197Y1173927D01*
X1553627Y1169000D01*
X1556679Y1164432D01*
X1560302Y1160302D01*
X1564432Y1156679D01*
X1569000Y1153627D01*
X1573927Y1151197D01*
X1579130Y1149431D01*
X1584518Y1148359D01*
X1590000Y1148000D01*
X1595482Y1148359D01*
X1600870Y1149431D01*
X1606073Y1151197D01*
X1611000Y1153627D01*
X1615568Y1156679D01*
X1618730Y1159452D01*
X1620000Y1158877D01*
Y598157D01*
X1618730Y597726D01*
X1617764Y598985D01*
X1614992Y601112D01*
X1611764Y602449D01*
X1608300Y602905D01*
X1604836Y602449D01*
X1601608Y601112D01*
X1598836Y598985D01*
X1596709Y596213D01*
X1595372Y592985D01*
X1594916Y589520D01*
Y577520D01*
X1595372Y574056D01*
X1596709Y570828D01*
X1598836Y568056D01*
X1601608Y565929D01*
X1604836Y564592D01*
X1608300Y564136D01*
X1611764Y564592D01*
X1614992Y565929D01*
X1617764Y568056D01*
X1618730Y569315D01*
X1620000Y568884D01*
Y101123D01*
X1618730Y100548D01*
X1615568Y103321D01*
X1611000Y106373D01*
X1606073Y108803D01*
X1600870Y110569D01*
X1595482Y111641D01*
X1590000Y112000D01*
X1584518Y111641D01*
X1579130Y110569D01*
X1573927Y108803D01*
X1569000Y106373D01*
X1564432Y103321D01*
X1560302Y99698D01*
X1556679Y95568D01*
X1553627Y91000D01*
X1551197Y86073D01*
X1549431Y80870D01*
X1548359Y75482D01*
X1548000Y70000D01*
X1548359Y64518D01*
X1549431Y59130D01*
X1551197Y53927D01*
X1553627Y49000D01*
X1556679Y44432D01*
X1559452Y41270D01*
X1558877Y40000D01*
X101123D01*
X100548Y41270D01*
X103321Y44432D01*
X106373Y49000D01*
X108803Y53927D01*
X110569Y59130D01*
X111641Y64518D01*
X112000Y70000D01*
X111641Y75482D01*
X110569Y80870D01*
X108803Y86073D01*
X106373Y91000D01*
X103321Y95568D01*
X99698Y99698D01*
X95568Y103321D01*
X91000Y106373D01*
X86073Y108803D01*
X80870Y110569D01*
X75482Y111641D01*
X70000Y112000D01*
X64518Y111641D01*
X59130Y110569D01*
X53927Y108803D01*
X49000Y106373D01*
X44432Y103321D01*
X41270Y100548D01*
X40000Y101123D01*
Y1158877D01*
X41270Y1159452D01*
X44432Y1156679D01*
X49000Y1153627D01*
X53927Y1151197D01*
X59130Y1149431D01*
X64518Y1148359D01*
X70000Y1148000D01*
X75482Y1148359D01*
X80870Y1149431D01*
X86073Y1151197D01*
X91000Y1153627D01*
X95568Y1156679D01*
X99698Y1160302D01*
X103321Y1164432D01*
X106373Y1169000D01*
X108803Y1173927D01*
X110569Y1179130D01*
X111641Y1184518D01*
X112000Y1190000D01*
X111641Y1195482D01*
X110569Y1200870D01*
X108803Y1206073D01*
X106373Y1211000D01*
X103321Y1215568D01*
X100548Y1218730D01*
X101123Y1220000D01*
X1558877D01*
X1559452Y1218730D01*
D02*
G37*
%LPC*%
G36*
X304766Y1180500D02*
X300235D01*
X295791Y1179616D01*
X291606Y1177882D01*
X287839Y1175365D01*
X284635Y1172161D01*
X282118Y1168394D01*
X280384Y1164209D01*
X279500Y1159765D01*
Y1155235D01*
X279945Y1153001D01*
X278825Y1152402D01*
X274700Y1156526D01*
Y1159765D01*
X273816Y1164209D01*
X272083Y1168394D01*
X269566Y1172161D01*
X266362Y1175365D01*
X262595Y1177882D01*
X258409Y1179616D01*
X253966Y1180500D01*
X249435D01*
X244991Y1179616D01*
X240806Y1177882D01*
X237039Y1175365D01*
X233835Y1172161D01*
X231318Y1168394D01*
X229584Y1164209D01*
X228700Y1159765D01*
Y1155235D01*
X229584Y1150791D01*
X231318Y1146605D01*
X233835Y1142838D01*
X237039Y1139635D01*
X240806Y1137117D01*
X244991Y1135384D01*
X249435Y1134500D01*
X252674D01*
X275100Y1112074D01*
X277460Y1110137D01*
X277993Y1109852D01*
X277675Y1108582D01*
X218987D01*
Y1143170D01*
X221283Y1146605D01*
X223016Y1150791D01*
X223900Y1155235D01*
Y1159765D01*
X223016Y1164209D01*
X221283Y1168394D01*
X218766Y1172161D01*
X215562Y1175365D01*
X211795Y1177882D01*
X207609Y1179616D01*
X203166Y1180500D01*
X198635D01*
X194191Y1179616D01*
X190006Y1177882D01*
X186239Y1175365D01*
X183035Y1172161D01*
X180518Y1168394D01*
X178784Y1164209D01*
X177900Y1159765D01*
Y1155235D01*
X178784Y1150791D01*
X180518Y1146605D01*
X182813Y1143170D01*
Y1108582D01*
X172592D01*
X171578Y1108582D01*
X170308Y1108582D01*
X168187D01*
Y1143170D01*
X170483Y1146605D01*
X172216Y1150791D01*
X173100Y1155235D01*
Y1159765D01*
X172216Y1164209D01*
X170483Y1168394D01*
X167966Y1172161D01*
X164762Y1175365D01*
X160995Y1177882D01*
X156809Y1179616D01*
X152366Y1180500D01*
X147835D01*
X143391Y1179616D01*
X139206Y1177882D01*
X135439Y1175365D01*
X132235Y1172161D01*
X129718Y1168394D01*
X127984Y1164209D01*
X127100Y1159765D01*
Y1155235D01*
X127984Y1150791D01*
X129718Y1146605D01*
X132013Y1143170D01*
Y1108582D01*
X44578D01*
Y999618D01*
X170308D01*
X171322Y999618D01*
X172592Y999618D01*
X298322D01*
X298322Y999618D01*
X298578D01*
Y999618D01*
X299592Y999618D01*
X425322D01*
X425322Y999618D01*
X425578D01*
Y999618D01*
X426592Y999618D01*
X552322D01*
Y1108582D01*
X456653D01*
Y1108813D01*
X456354Y1111852D01*
X455467Y1114773D01*
X454028Y1117466D01*
X452091Y1119826D01*
X443304Y1128613D01*
X440944Y1130550D01*
X438251Y1131989D01*
X435330Y1132876D01*
X432291Y1133175D01*
X348852D01*
X325500Y1156526D01*
Y1159765D01*
X324616Y1164209D01*
X322883Y1168394D01*
X320366Y1172161D01*
X317162Y1175365D01*
X313395Y1177882D01*
X309209Y1179616D01*
X304766Y1180500D01*
D02*
G37*
G36*
X1500302Y1173770D02*
X1497098D01*
X1493954Y1173145D01*
X1490993Y1171918D01*
X1488329Y1170138D01*
X1486062Y1167871D01*
X1484282Y1165207D01*
X1483055Y1162246D01*
X1482430Y1159102D01*
Y1155897D01*
X1483055Y1152754D01*
X1484282Y1149793D01*
X1486062Y1147128D01*
X1488329Y1144862D01*
X1490993Y1143082D01*
X1493954Y1141855D01*
X1497098Y1141230D01*
X1500302D01*
X1503446Y1141855D01*
X1506407Y1143082D01*
X1509072Y1144862D01*
X1511338Y1147128D01*
X1513118Y1149793D01*
X1514345Y1152754D01*
X1514970Y1155897D01*
Y1159102D01*
X1514345Y1162246D01*
X1513118Y1165207D01*
X1511338Y1167871D01*
X1509072Y1170138D01*
X1506407Y1171918D01*
X1503446Y1173145D01*
X1500302Y1173770D01*
D02*
G37*
G36*
X1449503D02*
X1446298D01*
X1443154Y1173145D01*
X1440193Y1171918D01*
X1437529Y1170138D01*
X1435262Y1167871D01*
X1433482Y1165207D01*
X1432255Y1162246D01*
X1431630Y1159102D01*
Y1155897D01*
X1432255Y1152754D01*
X1433482Y1149793D01*
X1435262Y1147128D01*
X1437529Y1144862D01*
X1440193Y1143082D01*
X1443154Y1141855D01*
X1446298Y1141230D01*
X1449503D01*
X1452646Y1141855D01*
X1455607Y1143082D01*
X1458272Y1144862D01*
X1460538Y1147128D01*
X1462318Y1149793D01*
X1463545Y1152754D01*
X1464170Y1155897D01*
Y1159102D01*
X1463545Y1162246D01*
X1462318Y1165207D01*
X1460538Y1167871D01*
X1458272Y1170138D01*
X1455607Y1171918D01*
X1452646Y1173145D01*
X1449503Y1173770D01*
D02*
G37*
G36*
X1398703D02*
X1395498D01*
X1392354Y1173145D01*
X1389393Y1171918D01*
X1386729Y1170138D01*
X1384462Y1167871D01*
X1382682Y1165207D01*
X1381455Y1162246D01*
X1380830Y1159102D01*
Y1155897D01*
X1381455Y1152754D01*
X1382682Y1149793D01*
X1384462Y1147128D01*
X1386729Y1144862D01*
X1389393Y1143082D01*
X1392354Y1141855D01*
X1395498Y1141230D01*
X1398703D01*
X1401846Y1141855D01*
X1404807Y1143082D01*
X1407472Y1144862D01*
X1409738Y1147128D01*
X1411518Y1149793D01*
X1412745Y1152754D01*
X1413370Y1155897D01*
Y1159102D01*
X1412745Y1162246D01*
X1411518Y1165207D01*
X1409738Y1167871D01*
X1407472Y1170138D01*
X1404807Y1171918D01*
X1401846Y1173145D01*
X1398703Y1173770D01*
D02*
G37*
G36*
X1347903D02*
X1344698D01*
X1341554Y1173145D01*
X1338593Y1171918D01*
X1335929Y1170138D01*
X1333662Y1167871D01*
X1331882Y1165207D01*
X1330655Y1162246D01*
X1330030Y1159102D01*
Y1155897D01*
X1330655Y1152754D01*
X1331882Y1149793D01*
X1333662Y1147128D01*
X1335929Y1144862D01*
X1338593Y1143082D01*
X1341554Y1141855D01*
X1344698Y1141230D01*
X1347903D01*
X1351046Y1141855D01*
X1354007Y1143082D01*
X1356672Y1144862D01*
X1358938Y1147128D01*
X1360718Y1149793D01*
X1361945Y1152754D01*
X1362570Y1155897D01*
Y1159102D01*
X1361945Y1162246D01*
X1360718Y1165207D01*
X1358938Y1167871D01*
X1356672Y1170138D01*
X1354007Y1171918D01*
X1351046Y1173145D01*
X1347903Y1173770D01*
D02*
G37*
G36*
X1227302D02*
X1224097D01*
X1220954Y1173145D01*
X1217993Y1171918D01*
X1215328Y1170138D01*
X1213062Y1167871D01*
X1211282Y1165207D01*
X1210055Y1162246D01*
X1209430Y1159102D01*
Y1155897D01*
X1210055Y1152754D01*
X1211282Y1149793D01*
X1213062Y1147128D01*
X1215328Y1144862D01*
X1217993Y1143082D01*
X1220954Y1141855D01*
X1224097Y1141230D01*
X1227302D01*
X1230446Y1141855D01*
X1233407Y1143082D01*
X1236071Y1144862D01*
X1238338Y1147128D01*
X1240118Y1149793D01*
X1241345Y1152754D01*
X1241970Y1155897D01*
Y1159102D01*
X1241345Y1162246D01*
X1240118Y1165207D01*
X1238338Y1167871D01*
X1236071Y1170138D01*
X1233407Y1171918D01*
X1230446Y1173145D01*
X1227302Y1173770D01*
D02*
G37*
G36*
X1176502D02*
X1173297D01*
X1170154Y1173145D01*
X1167193Y1171918D01*
X1164528Y1170138D01*
X1162262Y1167871D01*
X1160482Y1165207D01*
X1159255Y1162246D01*
X1158630Y1159102D01*
Y1155897D01*
X1159255Y1152754D01*
X1160482Y1149793D01*
X1162262Y1147128D01*
X1164528Y1144862D01*
X1167193Y1143082D01*
X1170154Y1141855D01*
X1173297Y1141230D01*
X1176502D01*
X1179646Y1141855D01*
X1182607Y1143082D01*
X1185271Y1144862D01*
X1187538Y1147128D01*
X1189318Y1149793D01*
X1190545Y1152754D01*
X1191170Y1155897D01*
Y1159102D01*
X1190545Y1162246D01*
X1189318Y1165207D01*
X1187538Y1167871D01*
X1185271Y1170138D01*
X1182607Y1171918D01*
X1179646Y1173145D01*
X1176502Y1173770D01*
D02*
G37*
G36*
X1125702D02*
X1122497D01*
X1119354Y1173145D01*
X1116393Y1171918D01*
X1113728Y1170138D01*
X1111462Y1167871D01*
X1109682Y1165207D01*
X1108455Y1162246D01*
X1107830Y1159102D01*
Y1155897D01*
X1108455Y1152754D01*
X1109682Y1149793D01*
X1111462Y1147128D01*
X1113728Y1144862D01*
X1116393Y1143082D01*
X1119354Y1141855D01*
X1122497Y1141230D01*
X1125702D01*
X1128846Y1141855D01*
X1131807Y1143082D01*
X1134471Y1144862D01*
X1136738Y1147128D01*
X1138518Y1149793D01*
X1139745Y1152754D01*
X1140370Y1155897D01*
Y1159102D01*
X1139745Y1162246D01*
X1138518Y1165207D01*
X1136738Y1167871D01*
X1134471Y1170138D01*
X1131807Y1171918D01*
X1128846Y1173145D01*
X1125702Y1173770D01*
D02*
G37*
G36*
X1074902D02*
X1071697D01*
X1068554Y1173145D01*
X1065593Y1171918D01*
X1062928Y1170138D01*
X1060662Y1167871D01*
X1058882Y1165207D01*
X1057655Y1162246D01*
X1057030Y1159102D01*
Y1155897D01*
X1057655Y1152754D01*
X1058882Y1149793D01*
X1060662Y1147128D01*
X1062928Y1144862D01*
X1065593Y1143082D01*
X1068554Y1141855D01*
X1071697Y1141230D01*
X1074902D01*
X1078046Y1141855D01*
X1081007Y1143082D01*
X1083671Y1144862D01*
X1085938Y1147128D01*
X1087718Y1149793D01*
X1088945Y1152754D01*
X1089570Y1155897D01*
Y1159102D01*
X1088945Y1162246D01*
X1087718Y1165207D01*
X1085938Y1167871D01*
X1083671Y1170138D01*
X1081007Y1171918D01*
X1078046Y1173145D01*
X1074902Y1173770D01*
D02*
G37*
G36*
X1024102D02*
X1020897D01*
X1017754Y1173145D01*
X1014793Y1171918D01*
X1012128Y1170138D01*
X1009862Y1167871D01*
X1008082Y1165207D01*
X1006855Y1162246D01*
X1006230Y1159102D01*
Y1155897D01*
X1006855Y1152754D01*
X1008082Y1149793D01*
X1009862Y1147128D01*
X1012128Y1144862D01*
X1014793Y1143082D01*
X1017754Y1141855D01*
X1020897Y1141230D01*
X1024102D01*
X1027246Y1141855D01*
X1030207Y1143082D01*
X1032871Y1144862D01*
X1035138Y1147128D01*
X1036918Y1149793D01*
X1038145Y1152754D01*
X1038770Y1155897D01*
Y1159102D01*
X1038145Y1162246D01*
X1036918Y1165207D01*
X1035138Y1167871D01*
X1032871Y1170138D01*
X1030207Y1171918D01*
X1027246Y1173145D01*
X1024102Y1173770D01*
D02*
G37*
G36*
X973302D02*
X970097D01*
X966954Y1173145D01*
X963993Y1171918D01*
X961328Y1170138D01*
X959062Y1167871D01*
X957282Y1165207D01*
X956055Y1162246D01*
X955430Y1159102D01*
Y1155897D01*
X956055Y1152754D01*
X957282Y1149793D01*
X959062Y1147128D01*
X961328Y1144862D01*
X963993Y1143082D01*
X966954Y1141855D01*
X970097Y1141230D01*
X973302D01*
X976446Y1141855D01*
X979407Y1143082D01*
X982071Y1144862D01*
X984338Y1147128D01*
X986118Y1149793D01*
X987345Y1152754D01*
X987970Y1155897D01*
Y1159102D01*
X987345Y1162246D01*
X986118Y1165207D01*
X984338Y1167871D01*
X982071Y1170138D01*
X979407Y1171918D01*
X976446Y1173145D01*
X973302Y1173770D01*
D02*
G37*
G36*
X922502D02*
X919297D01*
X916154Y1173145D01*
X913193Y1171918D01*
X910528Y1170138D01*
X908262Y1167871D01*
X906482Y1165207D01*
X905255Y1162246D01*
X904630Y1159102D01*
Y1155897D01*
X905255Y1152754D01*
X906482Y1149793D01*
X908262Y1147128D01*
X910528Y1144862D01*
X913193Y1143082D01*
X916154Y1141855D01*
X919297Y1141230D01*
X922502D01*
X925646Y1141855D01*
X928607Y1143082D01*
X931271Y1144862D01*
X933538Y1147128D01*
X935318Y1149793D01*
X936545Y1152754D01*
X937170Y1155897D01*
Y1159102D01*
X936545Y1162246D01*
X935318Y1165207D01*
X933538Y1167871D01*
X931271Y1170138D01*
X928607Y1171918D01*
X925646Y1173145D01*
X922502Y1173770D01*
D02*
G37*
G36*
X871702D02*
X868497D01*
X865354Y1173145D01*
X862393Y1171918D01*
X859728Y1170138D01*
X857462Y1167871D01*
X855682Y1165207D01*
X854455Y1162246D01*
X853830Y1159102D01*
Y1155897D01*
X854455Y1152754D01*
X855682Y1149793D01*
X857462Y1147128D01*
X859728Y1144862D01*
X862393Y1143082D01*
X865354Y1141855D01*
X868497Y1141230D01*
X871702D01*
X874846Y1141855D01*
X877807Y1143082D01*
X880471Y1144862D01*
X882738Y1147128D01*
X884518Y1149793D01*
X885745Y1152754D01*
X886370Y1155897D01*
Y1159102D01*
X885745Y1162246D01*
X884518Y1165207D01*
X882738Y1167871D01*
X880471Y1170138D01*
X877807Y1171918D01*
X874846Y1173145D01*
X871702Y1173770D01*
D02*
G37*
G36*
X820902D02*
X817697D01*
X814554Y1173145D01*
X811593Y1171918D01*
X808928Y1170138D01*
X806662Y1167871D01*
X804882Y1165207D01*
X803655Y1162246D01*
X803030Y1159102D01*
Y1155897D01*
X803655Y1152754D01*
X804882Y1149793D01*
X806662Y1147128D01*
X808928Y1144862D01*
X811593Y1143082D01*
X814554Y1141855D01*
X817697Y1141230D01*
X820902D01*
X824046Y1141855D01*
X827007Y1143082D01*
X829671Y1144862D01*
X831938Y1147128D01*
X833718Y1149793D01*
X834945Y1152754D01*
X835570Y1155897D01*
Y1159102D01*
X834945Y1162246D01*
X833718Y1165207D01*
X831938Y1167871D01*
X829671Y1170138D01*
X827007Y1171918D01*
X824046Y1173145D01*
X820902Y1173770D01*
D02*
G37*
G36*
X770102D02*
X766897D01*
X763754Y1173145D01*
X760793Y1171918D01*
X758128Y1170138D01*
X755862Y1167871D01*
X754082Y1165207D01*
X752855Y1162246D01*
X752230Y1159102D01*
Y1155897D01*
X752855Y1152754D01*
X754082Y1149793D01*
X755862Y1147128D01*
X758128Y1144862D01*
X760793Y1143082D01*
X763754Y1141855D01*
X766897Y1141230D01*
X770102D01*
X773246Y1141855D01*
X776207Y1143082D01*
X778871Y1144862D01*
X781138Y1147128D01*
X782918Y1149793D01*
X784145Y1152754D01*
X784770Y1155897D01*
Y1159102D01*
X784145Y1162246D01*
X782918Y1165207D01*
X781138Y1167871D01*
X778871Y1170138D01*
X776207Y1171918D01*
X773246Y1173145D01*
X770102Y1173770D01*
D02*
G37*
G36*
X507303D02*
X504098D01*
X500955Y1173145D01*
X497994Y1171918D01*
X495329Y1170138D01*
X493063Y1167871D01*
X491282Y1165207D01*
X490056Y1162246D01*
X489430Y1159102D01*
Y1155897D01*
X490056Y1152754D01*
X491282Y1149793D01*
X493063Y1147128D01*
X495329Y1144862D01*
X497994Y1143082D01*
X500955Y1141855D01*
X504098Y1141230D01*
X507303D01*
X510446Y1141855D01*
X513407Y1143082D01*
X516072Y1144862D01*
X518338Y1147128D01*
X520119Y1149793D01*
X521345Y1152754D01*
X521970Y1155897D01*
Y1159102D01*
X521345Y1162246D01*
X520119Y1165207D01*
X518338Y1167871D01*
X516072Y1170138D01*
X513407Y1171918D01*
X510446Y1173145D01*
X507303Y1173770D01*
D02*
G37*
G36*
X456503D02*
X453298D01*
X450154Y1173145D01*
X447193Y1171918D01*
X444529Y1170138D01*
X442263Y1167871D01*
X440482Y1165207D01*
X439255Y1162246D01*
X438630Y1159102D01*
Y1155897D01*
X439255Y1152754D01*
X440482Y1149793D01*
X442263Y1147128D01*
X444529Y1144862D01*
X447193Y1143082D01*
X450154Y1141855D01*
X453298Y1141230D01*
X456503D01*
X459646Y1141855D01*
X462607Y1143082D01*
X465272Y1144862D01*
X467538Y1147128D01*
X469319Y1149793D01*
X470545Y1152754D01*
X471170Y1155897D01*
Y1159102D01*
X470545Y1162246D01*
X469319Y1165207D01*
X467538Y1167871D01*
X465272Y1170138D01*
X462607Y1171918D01*
X459646Y1173145D01*
X456503Y1173770D01*
D02*
G37*
G36*
X405703D02*
X402498D01*
X399355Y1173145D01*
X396394Y1171918D01*
X393729Y1170138D01*
X391463Y1167871D01*
X389682Y1165207D01*
X388456Y1162246D01*
X387830Y1159102D01*
Y1155897D01*
X388456Y1152754D01*
X389682Y1149793D01*
X391463Y1147128D01*
X393729Y1144862D01*
X396394Y1143082D01*
X399355Y1141855D01*
X402498Y1141230D01*
X405703D01*
X408846Y1141855D01*
X411807Y1143082D01*
X414472Y1144862D01*
X416738Y1147128D01*
X418519Y1149793D01*
X419745Y1152754D01*
X420370Y1155897D01*
Y1159102D01*
X419745Y1162246D01*
X418519Y1165207D01*
X416738Y1167871D01*
X414472Y1170138D01*
X411807Y1171918D01*
X408846Y1173145D01*
X405703Y1173770D01*
D02*
G37*
G36*
X354903D02*
X351698D01*
X348554Y1173145D01*
X345593Y1171918D01*
X342929Y1170138D01*
X340663Y1167871D01*
X338882Y1165207D01*
X337655Y1162246D01*
X337030Y1159102D01*
Y1155897D01*
X337655Y1152754D01*
X338882Y1149793D01*
X340663Y1147128D01*
X342929Y1144862D01*
X345593Y1143082D01*
X348554Y1141855D01*
X351698Y1141230D01*
X354903D01*
X358046Y1141855D01*
X361007Y1143082D01*
X363672Y1144862D01*
X365938Y1147128D01*
X367719Y1149793D01*
X368945Y1152754D01*
X369570Y1155897D01*
Y1159102D01*
X368945Y1162246D01*
X367719Y1165207D01*
X365938Y1167871D01*
X363672Y1170138D01*
X361007Y1171918D01*
X358046Y1173145D01*
X354903Y1173770D01*
D02*
G37*
G36*
X687750Y1173146D02*
X685461Y1172844D01*
X683327Y1171961D01*
X681495Y1170555D01*
X680089Y1168723D01*
X679206Y1166589D01*
X678904Y1164300D01*
Y1131353D01*
X620396D01*
Y1164300D01*
X620094Y1166589D01*
X619211Y1168723D01*
X617805Y1170555D01*
X615973Y1171961D01*
X613839Y1172844D01*
X611550Y1173146D01*
X609261Y1172844D01*
X607127Y1171961D01*
X605295Y1170555D01*
X603889Y1168723D01*
X603006Y1166589D01*
X602704Y1164300D01*
Y1129370D01*
X599676Y1127751D01*
X596437Y1125093D01*
X593779Y1121854D01*
X591804Y1118159D01*
X590588Y1114150D01*
X590177Y1109980D01*
X590588Y1105810D01*
X591804Y1101801D01*
X593779Y1098106D01*
X596437Y1094867D01*
X599676Y1092209D01*
X603371Y1090234D01*
X607380Y1089018D01*
X611550Y1088607D01*
X681387D01*
Y948813D01*
X512599Y780025D01*
X512122Y780139D01*
X508000Y780463D01*
X503878Y780139D01*
X499857Y779174D01*
X496037Y777591D01*
X492511Y775431D01*
X489367Y772745D01*
X486681Y769601D01*
X484521Y766075D01*
X482938Y762255D01*
X481973Y758234D01*
X481649Y754112D01*
Y746850D01*
X481973Y742728D01*
X482938Y738707D01*
X484521Y734887D01*
X486681Y731361D01*
X489367Y728217D01*
X492511Y725531D01*
X496037Y723371D01*
X499857Y721788D01*
X503878Y720823D01*
X508000Y720499D01*
X512122Y720823D01*
X516143Y721788D01*
X519963Y723371D01*
X523489Y725531D01*
X526633Y728217D01*
X529319Y731361D01*
X531479Y734887D01*
X533061Y738707D01*
X533606Y740976D01*
X535813Y742787D01*
X717873Y924847D01*
X720531Y928086D01*
X722506Y931781D01*
X723722Y935790D01*
X724133Y939960D01*
Y1088607D01*
X1137920D01*
X1142090Y1089018D01*
X1142810Y1089236D01*
X1143530Y1089018D01*
X1147700Y1088607D01*
X1381412D01*
X1385582Y1089018D01*
X1389591Y1090234D01*
X1393286Y1092209D01*
X1396525Y1094867D01*
X1399183Y1098106D01*
X1401158Y1101801D01*
X1402374Y1105810D01*
X1402785Y1109980D01*
X1402374Y1114150D01*
X1401158Y1118159D01*
X1399183Y1121854D01*
X1396525Y1125093D01*
X1393286Y1127751D01*
X1389591Y1129726D01*
X1385582Y1130942D01*
X1381412Y1131353D01*
X1147700D01*
X1143530Y1130942D01*
X1142810Y1130724D01*
X1142090Y1130942D01*
X1137920Y1131353D01*
X696596D01*
Y1164300D01*
X696294Y1166589D01*
X695411Y1168723D01*
X694005Y1170555D01*
X692173Y1171961D01*
X690039Y1172844D01*
X687750Y1173146D01*
D02*
G37*
G36*
X1416945Y1077650D02*
X1415155D01*
X1413501Y1076965D01*
X1412510Y1075974D01*
X1210040D01*
X1209049Y1076965D01*
X1207395Y1077650D01*
X1205605D01*
X1203951Y1076965D01*
X1202685Y1075699D01*
X1202000Y1074045D01*
Y1072255D01*
X1202685Y1070601D01*
X1203951Y1069335D01*
X1205605Y1068650D01*
X1207395D01*
X1209049Y1069335D01*
X1210040Y1070326D01*
X1378822D01*
Y961140D01*
X1378401Y960965D01*
X1377135Y959699D01*
X1376450Y958045D01*
Y956255D01*
X1377135Y954601D01*
X1378401Y953335D01*
X1380055Y952650D01*
X1381845D01*
X1383499Y953335D01*
X1384765Y954601D01*
X1385450Y956255D01*
Y958045D01*
X1384765Y959699D01*
X1384002Y960462D01*
Y1070326D01*
X1412510D01*
X1413501Y1069335D01*
X1415155Y1068650D01*
X1416945D01*
X1418599Y1069335D01*
X1419865Y1070601D01*
X1420550Y1072255D01*
Y1074045D01*
X1419865Y1075699D01*
X1418599Y1076965D01*
X1416945Y1077650D01*
D02*
G37*
G36*
X1320390Y1041652D02*
X1305260D01*
X1303955Y1041393D01*
X1209000D01*
X1206554Y1040906D01*
X1204480Y1039520D01*
X1203094Y1037446D01*
X1202607Y1035000D01*
X1203094Y1032554D01*
X1204480Y1030480D01*
X1206554Y1029094D01*
X1209000Y1028607D01*
X1305000D01*
X1306305Y1028867D01*
X1319547D01*
X1320600Y1028657D01*
X1323046Y1029144D01*
X1325120Y1030530D01*
X1326506Y1032604D01*
X1326993Y1035050D01*
X1326506Y1037496D01*
X1325120Y1039570D01*
X1324911Y1039780D01*
X1322837Y1041166D01*
X1320390Y1041652D01*
D02*
G37*
G36*
X1551375Y1041443D02*
X1443050D01*
X1440604Y1040956D01*
X1438530Y1039570D01*
X1438480Y1039520D01*
X1437094Y1037446D01*
X1436607Y1035000D01*
X1437094Y1032554D01*
X1438480Y1030480D01*
X1440554Y1029094D01*
X1443000Y1028607D01*
X1443251Y1028657D01*
X1551375D01*
X1553822Y1029144D01*
X1555896Y1030530D01*
X1557281Y1032604D01*
X1557768Y1035050D01*
X1557281Y1037496D01*
X1555896Y1039570D01*
X1553822Y1040956D01*
X1551375Y1041443D01*
D02*
G37*
G36*
X474091Y980186D02*
X465455D01*
Y977341D01*
X461645D01*
Y980186D01*
X453009D01*
Y958088D01*
X455854D01*
Y954278D01*
X453009D01*
Y932180D01*
X461645D01*
Y935025D01*
X465455D01*
Y932180D01*
X474091D01*
Y954278D01*
X471246D01*
Y958088D01*
X474091D01*
Y980186D01*
D02*
G37*
G36*
X347091D02*
X338455D01*
Y977341D01*
X334645D01*
Y980186D01*
X326009D01*
Y958088D01*
X328854D01*
Y954278D01*
X326009D01*
Y932180D01*
X334645D01*
Y935025D01*
X338455D01*
Y932180D01*
X347091D01*
Y954278D01*
X344246D01*
Y958088D01*
X347091D01*
Y980186D01*
D02*
G37*
G36*
X220091D02*
X211455D01*
Y977341D01*
X207645D01*
Y980186D01*
X199009D01*
Y958088D01*
X201854D01*
Y954278D01*
X199009D01*
Y932180D01*
X207645D01*
Y935025D01*
X211455D01*
Y932180D01*
X220091D01*
Y954278D01*
X217246D01*
Y958088D01*
X220091D01*
Y980186D01*
D02*
G37*
G36*
X93091D02*
X84455D01*
Y977341D01*
X80645D01*
Y980186D01*
X72009D01*
Y958088D01*
X74854D01*
Y954278D01*
X72009D01*
Y932180D01*
X80645D01*
Y935025D01*
X84455D01*
Y932180D01*
X93091D01*
Y954278D01*
X90246D01*
Y958088D01*
X93091D01*
Y980186D01*
D02*
G37*
G36*
X396621Y978916D02*
X378079D01*
Y970213D01*
X378032Y970150D01*
X376809Y969469D01*
X375599Y969970D01*
X373701D01*
X371948Y969244D01*
X370606Y967902D01*
X369880Y966149D01*
Y964251D01*
X370606Y962498D01*
X371948Y961156D01*
X373701Y960430D01*
X375599D01*
X376809Y960931D01*
X378032Y960250D01*
X378079Y960187D01*
Y933450D01*
X396621D01*
Y978916D01*
D02*
G37*
G36*
X269621D02*
X251079D01*
Y969044D01*
X237429D01*
X235845Y969700D01*
X234055D01*
X232401Y969015D01*
X231135Y967749D01*
X230450Y966095D01*
Y964305D01*
X231135Y962651D01*
X232401Y961385D01*
X234055Y960700D01*
X235845D01*
X237429Y961356D01*
X251079D01*
Y933450D01*
X269621D01*
Y978916D01*
D02*
G37*
G36*
X1468795Y957000D02*
X1467005D01*
X1465351Y956315D01*
X1464360Y955324D01*
X1438040D01*
X1437049Y956315D01*
X1435395Y957000D01*
X1433605D01*
X1431951Y956315D01*
X1430685Y955049D01*
X1430000Y953395D01*
Y951605D01*
X1430685Y949951D01*
X1431951Y948685D01*
X1433605Y948000D01*
X1435395D01*
X1437049Y948685D01*
X1438040Y949676D01*
X1464360D01*
X1465351Y948685D01*
X1467005Y948000D01*
X1468795D01*
X1470449Y948685D01*
X1471715Y949951D01*
X1472400Y951605D01*
Y953395D01*
X1471715Y955049D01*
X1470449Y956315D01*
X1468795Y957000D01*
D02*
G37*
G36*
X311553Y979341D02*
X309763D01*
X308109Y978656D01*
X306843Y977390D01*
X306158Y975736D01*
Y973946D01*
X306753Y972509D01*
Y958506D01*
X306721Y958474D01*
X306036Y956820D01*
Y955030D01*
X306721Y953376D01*
X307987Y952110D01*
X309641Y951425D01*
X311431D01*
X313085Y952110D01*
X314351Y953376D01*
X315036Y955030D01*
Y956820D01*
X314441Y958257D01*
Y972260D01*
X314473Y972292D01*
X315158Y973946D01*
Y975736D01*
X314473Y977390D01*
X313207Y978656D01*
X311553Y979341D01*
D02*
G37*
G36*
X523621Y978916D02*
X505079D01*
Y962675D01*
X503956Y961552D01*
X503230Y959799D01*
Y957901D01*
X503956Y956148D01*
X505079Y955025D01*
Y933450D01*
X523621D01*
Y978916D01*
D02*
G37*
G36*
X142621D02*
X124079D01*
Y933450D01*
X142621D01*
Y978916D01*
D02*
G37*
G36*
X1372495Y861750D02*
X1370705D01*
X1369051Y861065D01*
X1367785Y859799D01*
X1367100Y858145D01*
Y856355D01*
X1367785Y854701D01*
X1369010Y853476D01*
Y816504D01*
X1367785Y815279D01*
X1367100Y813625D01*
Y811835D01*
X1367785Y810181D01*
X1369051Y808915D01*
X1370705Y808230D01*
X1372495D01*
X1374149Y808915D01*
X1375415Y810181D01*
X1376100Y811835D01*
Y813625D01*
X1375415Y815279D01*
X1374190Y816504D01*
Y853476D01*
X1375415Y854701D01*
X1376100Y856355D01*
Y858145D01*
X1375415Y859799D01*
X1374149Y861065D01*
X1372495Y861750D01*
D02*
G37*
G36*
X1148239Y798250D02*
X1146448D01*
X1144794Y797565D01*
X1143804Y796574D01*
X1076690D01*
X1075699Y797565D01*
X1074045Y798250D01*
X1072255D01*
X1070601Y797565D01*
X1069335Y796299D01*
X1068650Y794645D01*
Y792855D01*
X1069335Y791201D01*
X1070601Y789935D01*
X1072255Y789250D01*
X1074045D01*
X1074142Y789290D01*
X1075040Y788392D01*
X1075000Y788295D01*
Y786505D01*
X1075685Y784851D01*
X1076951Y783585D01*
X1078605Y782900D01*
X1080395D01*
X1080492Y782940D01*
X1081390Y782042D01*
X1081350Y781945D01*
Y780155D01*
X1082035Y778501D01*
X1083301Y777235D01*
X1084955Y776550D01*
X1086745D01*
X1086842Y776590D01*
X1087740Y775692D01*
X1087700Y775595D01*
Y773805D01*
X1088385Y772151D01*
X1089651Y770885D01*
X1091305Y770200D01*
X1093095D01*
X1094749Y770885D01*
X1095790Y771926D01*
X1163010D01*
X1163951Y770985D01*
X1165605Y770300D01*
X1167395D01*
X1169049Y770985D01*
X1170315Y772251D01*
X1171000Y773905D01*
Y775695D01*
X1170315Y777349D01*
X1169049Y778615D01*
X1167395Y779300D01*
X1165605D01*
X1165555Y779279D01*
X1164543Y780155D01*
Y781945D01*
X1163858Y783599D01*
X1162592Y784865D01*
X1160938Y785550D01*
X1159148D01*
X1159051Y785510D01*
X1158153Y786408D01*
X1158193Y786505D01*
Y788295D01*
X1157508Y789949D01*
X1156242Y791215D01*
X1154588Y791900D01*
X1152798D01*
X1152701Y791860D01*
X1151803Y792758D01*
X1151843Y792855D01*
Y794645D01*
X1151158Y796299D01*
X1149892Y797565D01*
X1148239Y798250D01*
D02*
G37*
G36*
X1610000Y773105D02*
X1604905D01*
Y770195D01*
X1601095D01*
Y773105D01*
X1596000D01*
X1594032Y772846D01*
X1592198Y772086D01*
X1592147Y772047D01*
X1594294Y769901D01*
X1591599Y767207D01*
X1589453Y769353D01*
X1589414Y769303D01*
X1588654Y767468D01*
X1588395Y765500D01*
X1588654Y763532D01*
X1589414Y761698D01*
X1589453Y761647D01*
X1591599Y763794D01*
X1594294Y761099D01*
X1592147Y758953D01*
X1592198Y758914D01*
X1594032Y758154D01*
X1596000Y757895D01*
X1601095D01*
Y760805D01*
X1604905D01*
Y757895D01*
X1610000D01*
X1611969Y758154D01*
X1613803Y758914D01*
X1613853Y758953D01*
X1611707Y761099D01*
X1614401Y763794D01*
X1616547Y761647D01*
X1616586Y761698D01*
X1617346Y763532D01*
X1617605Y765500D01*
X1617346Y767468D01*
X1616586Y769303D01*
X1616547Y769353D01*
X1614401Y767207D01*
X1611707Y769901D01*
X1613853Y772047D01*
X1613803Y772086D01*
X1611969Y772846D01*
X1610000Y773105D01*
D02*
G37*
G36*
X1569000D02*
X1565905D01*
Y770195D01*
X1562095D01*
Y773105D01*
X1559000D01*
X1557032Y772846D01*
X1555197Y772086D01*
X1555147Y772047D01*
X1557293Y769901D01*
X1554599Y767207D01*
X1552453Y769353D01*
X1552414Y769303D01*
X1551654Y767468D01*
X1551395Y765500D01*
X1551654Y763532D01*
X1552414Y761698D01*
X1552453Y761647D01*
X1554599Y763794D01*
X1557293Y761099D01*
X1555147Y758953D01*
X1555197Y758914D01*
X1557032Y758154D01*
X1559000Y757895D01*
X1562095D01*
Y760805D01*
X1565905D01*
Y757895D01*
X1566414D01*
X1566940Y756625D01*
X1566113Y755798D01*
X1565200Y753593D01*
Y751206D01*
X1566113Y749001D01*
X1567801Y747313D01*
X1570006Y746400D01*
X1572393D01*
X1574599Y747313D01*
X1576286Y749001D01*
X1577200Y751206D01*
Y753593D01*
X1576286Y755798D01*
X1574599Y757486D01*
X1573579Y757909D01*
X1573530Y758276D01*
X1570706Y761099D01*
X1573401Y763794D01*
X1575547Y761647D01*
X1575586Y761698D01*
X1576346Y763532D01*
X1576605Y765500D01*
X1576346Y767468D01*
X1575586Y769303D01*
X1575547Y769353D01*
X1573401Y767207D01*
X1570706Y769901D01*
X1572853Y772047D01*
X1572802Y772086D01*
X1570968Y772846D01*
X1569000Y773105D01*
D02*
G37*
G36*
X1156595Y762400D02*
X1154805D01*
X1154452Y762254D01*
X1068048D01*
X1067695Y762400D01*
X1065905D01*
X1064251Y761715D01*
X1062985Y760449D01*
X1062300Y758795D01*
Y757005D01*
X1062985Y755351D01*
X1064251Y754085D01*
X1065905Y753400D01*
X1067695D01*
X1068048Y753546D01*
X1154452D01*
X1154805Y753400D01*
X1156595D01*
X1158249Y754085D01*
X1159515Y755351D01*
X1160200Y757005D01*
Y758795D01*
X1159515Y760449D01*
X1158249Y761715D01*
X1156595Y762400D01*
D02*
G37*
G36*
X164957Y783479D02*
X163687D01*
X160703Y783086D01*
X157923Y781934D01*
X155535Y780102D01*
X153703Y777714D01*
X152551Y774934D01*
X152159Y771950D01*
X152551Y768966D01*
X153703Y766186D01*
X155535Y763798D01*
X157923Y761966D01*
X160703Y760814D01*
X163687Y760422D01*
X164957D01*
X167941Y760814D01*
X170722Y761966D01*
X173109Y763798D01*
X174941Y766186D01*
X176093Y768966D01*
X176486Y771950D01*
X176093Y774934D01*
X174941Y777714D01*
X173109Y780102D01*
X170722Y781934D01*
X167941Y783086D01*
X164957Y783479D01*
D02*
G37*
G36*
X103202Y778270D02*
X99998D01*
X96854Y777645D01*
X93893Y776418D01*
X91229Y774638D01*
X88962Y772372D01*
X87182Y769707D01*
X85955Y766746D01*
X85330Y763603D01*
Y760397D01*
X85955Y757254D01*
X87182Y754293D01*
X88962Y751628D01*
X91229Y749362D01*
X93893Y747582D01*
X96854Y746355D01*
X99998Y745730D01*
X103202D01*
X106346Y746355D01*
X109307Y747582D01*
X111972Y749362D01*
X114238Y751628D01*
X116018Y754293D01*
X117245Y757254D01*
X117870Y760397D01*
Y763603D01*
X117245Y766746D01*
X116018Y769707D01*
X114238Y772372D01*
X111972Y774638D01*
X109307Y776418D01*
X106346Y777645D01*
X103202Y778270D01*
D02*
G37*
G36*
X647700Y839473D02*
X645644Y839064D01*
X643901Y837899D01*
X642736Y836156D01*
X642327Y834100D01*
Y732500D01*
X642736Y730444D01*
X643901Y728700D01*
X645644Y727536D01*
X647700Y727127D01*
X649756Y727536D01*
X651499Y728700D01*
X652664Y730444D01*
X653073Y732500D01*
Y834100D01*
X652664Y836156D01*
X651499Y837899D01*
X649756Y839064D01*
X647700Y839473D01*
D02*
G37*
G36*
X164957Y726329D02*
X163687D01*
X160703Y725936D01*
X157923Y724784D01*
X155535Y722952D01*
X153703Y720564D01*
X152551Y717784D01*
X152159Y714800D01*
X152551Y711816D01*
X153703Y709036D01*
X155535Y706648D01*
X157923Y704816D01*
X160703Y703664D01*
X163687Y703272D01*
X164957D01*
X167941Y703664D01*
X170722Y704816D01*
X173109Y706648D01*
X174941Y709036D01*
X176093Y711816D01*
X176486Y714800D01*
X176093Y717784D01*
X174941Y720564D01*
X173109Y722952D01*
X170722Y724784D01*
X167941Y725936D01*
X164957Y726329D01*
D02*
G37*
G36*
X971851Y705040D02*
X968549D01*
X965360Y704185D01*
X962728Y702666D01*
X964821Y700573D01*
X962127Y697879D01*
X960034Y699972D01*
X958515Y697340D01*
X957660Y694151D01*
Y690849D01*
X958515Y687660D01*
X960034Y685028D01*
X962127Y687121D01*
X964821Y684427D01*
X962728Y682334D01*
X965360Y680815D01*
X968549Y679960D01*
X971851D01*
X975040Y680815D01*
X977672Y682334D01*
X975579Y684427D01*
X978273Y687121D01*
X980366Y685028D01*
X981885Y687660D01*
X982740Y690849D01*
Y694151D01*
X981885Y697340D01*
X980366Y699972D01*
X978273Y697879D01*
X975579Y700573D01*
X977672Y702666D01*
X975040Y704185D01*
X971851Y705040D01*
D02*
G37*
G36*
X103202Y727470D02*
X99998D01*
X96854Y726845D01*
X93893Y725618D01*
X91229Y723838D01*
X88962Y721572D01*
X87182Y718907D01*
X85955Y715946D01*
X85330Y712803D01*
Y709597D01*
X85955Y706454D01*
X87182Y703493D01*
X88962Y700828D01*
X91229Y698562D01*
X93893Y696782D01*
X96854Y695555D01*
X99998Y694930D01*
X103202D01*
X106346Y695555D01*
X109307Y696782D01*
X111972Y698562D01*
X114238Y700828D01*
X116018Y703493D01*
X117245Y706454D01*
X117870Y709597D01*
Y712803D01*
X117245Y715946D01*
X116018Y718907D01*
X114238Y721572D01*
X111972Y723838D01*
X109307Y725618D01*
X106346Y726845D01*
X103202Y727470D01*
D02*
G37*
G36*
X1121895Y690300D02*
X1120105D01*
X1118451Y689615D01*
X1117460Y688624D01*
X1076690D01*
X1075699Y689615D01*
X1074045Y690300D01*
X1072255D01*
X1070601Y689615D01*
X1069335Y688349D01*
X1068650Y686695D01*
Y684905D01*
X1069335Y683251D01*
X1070601Y681985D01*
X1072255Y681300D01*
X1074045D01*
X1075699Y681985D01*
X1076690Y682976D01*
X1117460D01*
X1118451Y681985D01*
X1120105Y681300D01*
X1121895D01*
X1123549Y681985D01*
X1124815Y683251D01*
X1125500Y684905D01*
Y686695D01*
X1124815Y688349D01*
X1123549Y689615D01*
X1121895Y690300D01*
D02*
G37*
G36*
X1610000Y687105D02*
X1604905D01*
Y684195D01*
X1601095D01*
Y687105D01*
X1596000D01*
X1594032Y686846D01*
X1592198Y686086D01*
X1592147Y686047D01*
X1594294Y683900D01*
X1591599Y681206D01*
X1589453Y683353D01*
X1589414Y683302D01*
X1588654Y681468D01*
X1588395Y679500D01*
X1588654Y677531D01*
X1589414Y675697D01*
X1589453Y675647D01*
X1591599Y677793D01*
X1594294Y675099D01*
X1592147Y672952D01*
X1592198Y672914D01*
X1594032Y672154D01*
X1596000Y671895D01*
X1601095D01*
Y674805D01*
X1604905D01*
Y671895D01*
X1610000D01*
X1611969Y672154D01*
X1613803Y672914D01*
X1613853Y672952D01*
X1611707Y675099D01*
X1614401Y677793D01*
X1616547Y675647D01*
X1616586Y675697D01*
X1617346Y677531D01*
X1617605Y679500D01*
X1617346Y681468D01*
X1616586Y683302D01*
X1616547Y683353D01*
X1614401Y681206D01*
X1611707Y683900D01*
X1613853Y686047D01*
X1613803Y686086D01*
X1611969Y686846D01*
X1610000Y687105D01*
D02*
G37*
G36*
X1572393Y698600D02*
X1570006D01*
X1567801Y697687D01*
X1566113Y695999D01*
X1565200Y693794D01*
Y691407D01*
X1566113Y689201D01*
X1566940Y688375D01*
X1566414Y687105D01*
X1565905D01*
Y684195D01*
X1562095D01*
Y687105D01*
X1559000D01*
X1557032Y686846D01*
X1555197Y686086D01*
X1555147Y686047D01*
X1557293Y683900D01*
X1554599Y681206D01*
X1552453Y683353D01*
X1552414Y683302D01*
X1551654Y681468D01*
X1551395Y679500D01*
X1551654Y677531D01*
X1552414Y675697D01*
X1552453Y675647D01*
X1554599Y677793D01*
X1557293Y675099D01*
X1555147Y672952D01*
X1555197Y672914D01*
X1557032Y672154D01*
X1559000Y671895D01*
X1562095D01*
Y674805D01*
X1565905D01*
Y671895D01*
X1569000D01*
X1570968Y672154D01*
X1572802Y672914D01*
X1572853Y672952D01*
X1570706Y675099D01*
X1573401Y677793D01*
X1575547Y675647D01*
X1575586Y675697D01*
X1576346Y677531D01*
X1576605Y679500D01*
X1576346Y681468D01*
X1575586Y683302D01*
X1575547Y683353D01*
X1573401Y681206D01*
X1570706Y683900D01*
X1573530Y686724D01*
X1573579Y687091D01*
X1574599Y687514D01*
X1576286Y689201D01*
X1577200Y691407D01*
Y693794D01*
X1576286Y695999D01*
X1574599Y697687D01*
X1572393Y698600D01*
D02*
G37*
G36*
X997084Y703770D02*
X994116D01*
X991250Y703002D01*
X988680Y701518D01*
X986582Y699420D01*
X985098Y696850D01*
X984330Y693984D01*
Y691016D01*
X985098Y688150D01*
X986582Y685580D01*
X988680Y683482D01*
X991250Y681998D01*
X994116Y681230D01*
X997084D01*
X999950Y681998D01*
X1002520Y683482D01*
X1004618Y685580D01*
X1006102Y688150D01*
X1006870Y691016D01*
Y693984D01*
X1006102Y696850D01*
X1004618Y699420D01*
X1002520Y701518D01*
X999950Y703002D01*
X997084Y703770D01*
D02*
G37*
G36*
X946284D02*
X943316D01*
X940450Y703002D01*
X937880Y701518D01*
X935782Y699420D01*
X934298Y696850D01*
X933530Y693984D01*
Y691016D01*
X934298Y688150D01*
X935782Y685580D01*
X937880Y683482D01*
X940450Y681998D01*
X943316Y681230D01*
X946284D01*
X949150Y681998D01*
X951720Y683482D01*
X953818Y685580D01*
X955302Y688150D01*
X956070Y691016D01*
Y693984D01*
X955302Y696850D01*
X953818Y699420D01*
X951720Y701518D01*
X949150Y703002D01*
X946284Y703770D01*
D02*
G37*
G36*
X103328Y677940D02*
X99873D01*
X96484Y677266D01*
X93292Y675944D01*
X90569Y674125D01*
X92642Y672052D01*
X89948Y669358D01*
X87875Y671431D01*
X86056Y668708D01*
X84734Y665516D01*
X84060Y662128D01*
Y658672D01*
X84734Y655284D01*
X86056Y652092D01*
X87875Y649369D01*
X89948Y651442D01*
X92642Y648748D01*
X90569Y646675D01*
X93292Y644856D01*
X96484Y643534D01*
X99873Y642860D01*
X103328D01*
X106716Y643534D01*
X109908Y644856D01*
X112631Y646675D01*
X110558Y648748D01*
X113252Y651442D01*
X115325Y649369D01*
X117144Y652092D01*
X118466Y655284D01*
X119140Y658672D01*
Y662128D01*
X118466Y665516D01*
X117144Y668708D01*
X115325Y671431D01*
X113252Y669358D01*
X110558Y672052D01*
X112631Y674125D01*
X109908Y675944D01*
X106716Y677266D01*
X103328Y677940D01*
D02*
G37*
G36*
X925035Y703770D02*
X913765D01*
X908130Y698135D01*
Y686865D01*
X913765Y681230D01*
X925035D01*
X925855Y682050D01*
X949903Y658003D01*
X950819Y657391D01*
X951900Y657176D01*
X951900Y657176D01*
X993960D01*
X994951Y656185D01*
X996605Y655500D01*
X998395D01*
X1000049Y656185D01*
X1001315Y657451D01*
X1002000Y659105D01*
Y660895D01*
X1001315Y662549D01*
X1000049Y663815D01*
X998395Y664500D01*
X996605D01*
X994951Y663815D01*
X993960Y662824D01*
X953070D01*
X929850Y686045D01*
X930670Y686865D01*
Y698135D01*
X925035Y703770D01*
D02*
G37*
G36*
X1572200Y657105D02*
X1556200D01*
X1552736Y656649D01*
X1549508Y655312D01*
X1546736Y653185D01*
X1544609Y650413D01*
X1543272Y647185D01*
X1542816Y643720D01*
X1543272Y640256D01*
X1544609Y637028D01*
X1546736Y634256D01*
X1549508Y632129D01*
X1552736Y630792D01*
X1556200Y630336D01*
X1572200D01*
X1575664Y630792D01*
X1578892Y632129D01*
X1581664Y634256D01*
X1583791Y637028D01*
X1585128Y640256D01*
X1585585Y643720D01*
X1585128Y647185D01*
X1583791Y650413D01*
X1581664Y653185D01*
X1578892Y655312D01*
X1575664Y656649D01*
X1572200Y657105D01*
D02*
G37*
G36*
X1270895Y631875D02*
X1269105D01*
X1267451Y631190D01*
X1266185Y629924D01*
X1265975Y629416D01*
X1265946Y629410D01*
X1265029Y628798D01*
X1264816Y628584D01*
X1233594D01*
X1233594Y628584D01*
X1233016Y628469D01*
X1201524D01*
X1201311Y628683D01*
X1200394Y629295D01*
X1200365Y629301D01*
X1200155Y629809D01*
X1198889Y631075D01*
X1197235Y631760D01*
X1195445D01*
X1193791Y631075D01*
X1192525Y629809D01*
X1191840Y628155D01*
Y626365D01*
X1192525Y624711D01*
X1193726Y623510D01*
X1192525Y622309D01*
X1191840Y620655D01*
Y618865D01*
X1192525Y617211D01*
X1193791Y615945D01*
X1195244Y615343D01*
X1195407Y614627D01*
X1195371Y614021D01*
X1194874Y613815D01*
X1193608Y612549D01*
X1192923Y610895D01*
Y609105D01*
X1193608Y607451D01*
X1194874Y606185D01*
X1196528Y605500D01*
X1198318D01*
X1199972Y606185D01*
X1201197Y607410D01*
X1256226D01*
X1257451Y606185D01*
X1259105Y605500D01*
X1260895D01*
X1262549Y606185D01*
X1263815Y607451D01*
X1264500Y609105D01*
Y610895D01*
X1263815Y612549D01*
X1262549Y613815D01*
X1260895Y614500D01*
X1259105D01*
X1257451Y613815D01*
X1256226Y612590D01*
X1201197D01*
X1199972Y613815D01*
X1198518Y614417D01*
X1198356Y615133D01*
X1198392Y615739D01*
X1198889Y615945D01*
X1200155Y617211D01*
X1200365Y617719D01*
X1200394Y617725D01*
X1201311Y618337D01*
X1201524Y618551D01*
X1235247D01*
X1235247Y618551D01*
X1235826Y618666D01*
X1264816D01*
X1265029Y618452D01*
X1265029Y618452D01*
X1265946Y617840D01*
X1265975Y617834D01*
X1266185Y617326D01*
X1267451Y616060D01*
X1269105Y615375D01*
X1270895D01*
X1272549Y616060D01*
X1273815Y617326D01*
X1274500Y618980D01*
Y620770D01*
X1273815Y622424D01*
X1272614Y623625D01*
X1273815Y624826D01*
X1274500Y626480D01*
Y628270D01*
X1273815Y629924D01*
X1272549Y631190D01*
X1270895Y631875D01*
D02*
G37*
G36*
X103328Y627140D02*
X99873D01*
X96484Y626466D01*
X93292Y625144D01*
X90569Y623325D01*
X92642Y621252D01*
X89948Y618558D01*
X87875Y620631D01*
X86056Y617908D01*
X84734Y614716D01*
X84060Y611328D01*
Y607873D01*
X84734Y604484D01*
X86056Y601292D01*
X87875Y598569D01*
X89948Y600642D01*
X92642Y597948D01*
X90569Y595875D01*
X93292Y594056D01*
X96484Y592734D01*
X99873Y592060D01*
X103328D01*
X106716Y592734D01*
X109908Y594056D01*
X112631Y595875D01*
X110558Y597948D01*
X113252Y600642D01*
X115325Y598569D01*
X117144Y601292D01*
X118466Y604484D01*
X119140Y607873D01*
Y611328D01*
X118466Y614716D01*
X117144Y617908D01*
X115325Y620631D01*
X113252Y618558D01*
X110558Y621252D01*
X112631Y623325D01*
X109908Y625144D01*
X106716Y626466D01*
X103328Y627140D01*
D02*
G37*
G36*
X164957Y624729D02*
X163687D01*
X160703Y624336D01*
X157923Y623184D01*
X155535Y621352D01*
X153703Y618965D01*
X152551Y616184D01*
X152159Y613200D01*
X152551Y610216D01*
X153703Y607436D01*
X155535Y605048D01*
X157923Y603216D01*
X160703Y602064D01*
X163687Y601672D01*
X164957D01*
X167941Y602064D01*
X170722Y603216D01*
X173109Y605048D01*
X174941Y607436D01*
X176093Y610216D01*
X176486Y613200D01*
X176093Y616184D01*
X174941Y618965D01*
X173109Y621352D01*
X170722Y623184D01*
X167941Y624336D01*
X164957Y624729D01*
D02*
G37*
G36*
X1547970Y605290D02*
X1525430D01*
Y586750D01*
X1547970D01*
Y605290D01*
D02*
G37*
G36*
X1570700Y605370D02*
X1566700D01*
X1564280Y605052D01*
X1562025Y604118D01*
X1560089Y602632D01*
X1558603Y600695D01*
X1557668Y598440D01*
X1557350Y596020D01*
X1557668Y593600D01*
X1558603Y591345D01*
X1560089Y589409D01*
X1562025Y587923D01*
X1564280Y586989D01*
X1566700Y586670D01*
X1570700D01*
X1573120Y586989D01*
X1575375Y587923D01*
X1577311Y589409D01*
X1578797Y591345D01*
X1579731Y593600D01*
X1580050Y596020D01*
X1579731Y598440D01*
X1578797Y600695D01*
X1577311Y602632D01*
X1575375Y604118D01*
X1573120Y605052D01*
X1570700Y605370D01*
D02*
G37*
G36*
X103328Y576340D02*
X99873D01*
X96484Y575666D01*
X93292Y574344D01*
X90569Y572525D01*
X92642Y570452D01*
X89948Y567758D01*
X87875Y569831D01*
X86056Y567108D01*
X84734Y563916D01*
X84060Y560527D01*
Y557072D01*
X84734Y553684D01*
X86056Y550492D01*
X87875Y547769D01*
X89948Y549842D01*
X92642Y547148D01*
X90569Y545075D01*
X93292Y543256D01*
X96484Y541934D01*
X99873Y541260D01*
X103328D01*
X106716Y541934D01*
X109908Y543256D01*
X112631Y545075D01*
X110558Y547148D01*
X113252Y549842D01*
X115325Y547769D01*
X117144Y550492D01*
X118466Y553684D01*
X119140Y557072D01*
Y560527D01*
X118466Y563916D01*
X117144Y567108D01*
X115325Y569831D01*
X113252Y567758D01*
X110558Y570452D01*
X112631Y572525D01*
X109908Y574344D01*
X106716Y575666D01*
X103328Y576340D01*
D02*
G37*
G36*
X1496400Y602905D02*
X1492936Y602449D01*
X1489708Y601112D01*
X1486936Y598985D01*
X1484809Y596213D01*
X1483471Y592985D01*
X1483015Y589520D01*
Y577520D01*
X1483471Y574056D01*
X1484809Y570828D01*
X1486936Y568056D01*
X1489708Y565929D01*
X1492936Y564592D01*
X1496400Y564136D01*
X1499864Y564592D01*
X1503092Y565929D01*
X1505864Y568056D01*
X1507991Y570828D01*
X1509328Y574056D01*
X1509784Y577520D01*
Y589520D01*
X1509328Y592985D01*
X1507991Y596213D01*
X1505864Y598985D01*
X1503092Y601112D01*
X1499864Y602449D01*
X1496400Y602905D01*
D02*
G37*
G36*
X610465Y571333D02*
X608675D01*
X607021Y570647D01*
X605755Y569381D01*
X605070Y567728D01*
Y565937D01*
X605755Y564283D01*
X607021Y563018D01*
X608675Y562332D01*
X610465D01*
X612119Y563018D01*
X613385Y564283D01*
X614070Y565937D01*
Y567728D01*
X613385Y569381D01*
X612119Y570647D01*
X610465Y571333D01*
D02*
G37*
G36*
X1570700Y580370D02*
X1566700D01*
X1564280Y580052D01*
X1562025Y579118D01*
X1560089Y577632D01*
X1558603Y575695D01*
X1557668Y573441D01*
X1557350Y571021D01*
X1557668Y568601D01*
X1558603Y566345D01*
X1560089Y564409D01*
X1562025Y562923D01*
X1564280Y561989D01*
X1566700Y561670D01*
X1570700D01*
X1573120Y561989D01*
X1575375Y562923D01*
X1577311Y564409D01*
X1578797Y566345D01*
X1579731Y568601D01*
X1580050Y571021D01*
X1579731Y573441D01*
X1578797Y575695D01*
X1577311Y577632D01*
X1575375Y579118D01*
X1573120Y580052D01*
X1570700Y580370D01*
D02*
G37*
G36*
X1538700D02*
X1534700D01*
X1532280Y580052D01*
X1530025Y579118D01*
X1528089Y577632D01*
X1526603Y575695D01*
X1525669Y573441D01*
X1525350Y571021D01*
X1525669Y568601D01*
X1526603Y566345D01*
X1528089Y564409D01*
X1530025Y562923D01*
X1532280Y561989D01*
X1534700Y561670D01*
X1538700D01*
X1541120Y561989D01*
X1543375Y562923D01*
X1545311Y564409D01*
X1546797Y566345D01*
X1547731Y568601D01*
X1548050Y571021D01*
X1547731Y573441D01*
X1546797Y575695D01*
X1545311Y577632D01*
X1543375Y579118D01*
X1541120Y580052D01*
X1538700Y580370D01*
D02*
G37*
G36*
X164957Y567579D02*
X163687D01*
X160703Y567186D01*
X157923Y566034D01*
X155535Y564202D01*
X153703Y561814D01*
X152551Y559034D01*
X152159Y556050D01*
X152551Y553066D01*
X153703Y550286D01*
X155535Y547898D01*
X157923Y546066D01*
X160703Y544914D01*
X163687Y544522D01*
X164957D01*
X167941Y544914D01*
X170722Y546066D01*
X173109Y547898D01*
X174941Y550286D01*
X176093Y553066D01*
X176486Y556050D01*
X176093Y559034D01*
X174941Y561814D01*
X173109Y564202D01*
X170722Y566034D01*
X167941Y567186D01*
X164957Y567579D01*
D02*
G37*
G36*
X578745Y544250D02*
X576955D01*
X575301Y543565D01*
X574035Y542299D01*
X573350Y540645D01*
Y538855D01*
X574035Y537201D01*
X575301Y535935D01*
X576955Y535250D01*
X578745D01*
X580399Y535935D01*
X581665Y537201D01*
X582350Y538855D01*
Y540645D01*
X581665Y542299D01*
X580399Y543565D01*
X578745Y544250D01*
D02*
G37*
G36*
X808395Y564500D02*
X806605D01*
X804951Y563815D01*
X803685Y562549D01*
X803000Y560895D01*
Y559105D01*
X803685Y557451D01*
X804951Y556185D01*
X805304Y556039D01*
X826421Y534922D01*
X827833Y533978D01*
X829500Y533647D01*
X1076252D01*
X1076605Y533501D01*
X1078395D01*
X1080049Y534185D01*
X1081315Y535451D01*
X1082000Y537105D01*
Y538895D01*
X1081315Y540550D01*
X1080049Y541815D01*
X1078395Y542500D01*
X1076605D01*
X1076252Y542354D01*
X831303D01*
X811461Y562196D01*
X811315Y562549D01*
X810049Y563815D01*
X808395Y564500D01*
D02*
G37*
G36*
X103328Y525540D02*
X99873D01*
X96484Y524866D01*
X93292Y523544D01*
X90569Y521725D01*
X92642Y519652D01*
X89948Y516958D01*
X87875Y519031D01*
X86056Y516308D01*
X84734Y513116D01*
X84060Y509728D01*
Y506273D01*
X84734Y502884D01*
X86056Y499692D01*
X87875Y496969D01*
X89948Y499042D01*
X92642Y496348D01*
X90569Y494275D01*
X93292Y492456D01*
X96484Y491134D01*
X99873Y490460D01*
X103328D01*
X106716Y491134D01*
X109908Y492456D01*
X112631Y494275D01*
X110558Y496348D01*
X113252Y499042D01*
X115325Y496969D01*
X117144Y499692D01*
X118466Y502884D01*
X119140Y506273D01*
Y509728D01*
X118466Y513116D01*
X117144Y516308D01*
X115325Y519031D01*
X113252Y516958D01*
X110558Y519652D01*
X112631Y521725D01*
X109908Y523544D01*
X106716Y524866D01*
X103328Y525540D01*
D02*
G37*
G36*
X1060895Y524500D02*
X1059105D01*
X1058752Y524354D01*
X932750D01*
X931084Y524022D01*
X929671Y523078D01*
X924904Y518311D01*
X924551Y518165D01*
X923285Y516899D01*
X922600Y515245D01*
Y513455D01*
X923285Y511801D01*
X924551Y510535D01*
X926205Y509850D01*
X927995D01*
X929649Y510535D01*
X930915Y511801D01*
X931061Y512154D01*
X934553Y515646D01*
X1058752D01*
X1059105Y515500D01*
X1060895D01*
X1062549Y516185D01*
X1063815Y517451D01*
X1064500Y519105D01*
Y520895D01*
X1063815Y522549D01*
X1062549Y523815D01*
X1060895Y524500D01*
D02*
G37*
G36*
X1238395Y554500D02*
X1236605D01*
X1234951Y553815D01*
X1233685Y552549D01*
X1233000Y550895D01*
Y549105D01*
X1233685Y547451D01*
X1234676Y546460D01*
Y518540D01*
X1233685Y517549D01*
X1233000Y515895D01*
Y514105D01*
X1233685Y512451D01*
X1234951Y511185D01*
X1236605Y510500D01*
X1238395D01*
X1240049Y511185D01*
X1241315Y512451D01*
X1242000Y514105D01*
Y515895D01*
X1241315Y517549D01*
X1240324Y518540D01*
Y546460D01*
X1241315Y547451D01*
X1242000Y549105D01*
Y550895D01*
X1241315Y552549D01*
X1240049Y553815D01*
X1238395Y554500D01*
D02*
G37*
G36*
X1572200Y536705D02*
X1556200D01*
X1552736Y536249D01*
X1549508Y534912D01*
X1546736Y532785D01*
X1544609Y530013D01*
X1543272Y526785D01*
X1542816Y523320D01*
X1543272Y519856D01*
X1544609Y516628D01*
X1546736Y513856D01*
X1549508Y511729D01*
X1552736Y510392D01*
X1556200Y509936D01*
X1572200D01*
X1575664Y510392D01*
X1578892Y511729D01*
X1581664Y513856D01*
X1583791Y516628D01*
X1585128Y519856D01*
X1585585Y523320D01*
X1585128Y526785D01*
X1583791Y530013D01*
X1581664Y532785D01*
X1578892Y534912D01*
X1575664Y536249D01*
X1572200Y536705D01*
D02*
G37*
G36*
X673100Y557823D02*
X671044Y557414D01*
X669301Y556250D01*
X668136Y554506D01*
X667727Y552450D01*
Y499730D01*
X668136Y497674D01*
X669301Y495930D01*
X671044Y494766D01*
X673100Y494357D01*
X675156Y494766D01*
X676899Y495930D01*
X678064Y497674D01*
X678473Y499730D01*
Y552450D01*
X678064Y554506D01*
X676899Y556250D01*
X675156Y557414D01*
X673100Y557823D01*
D02*
G37*
G36*
X1145895Y494500D02*
X1144105D01*
X1143752Y494354D01*
X1126248D01*
X1125895Y494500D01*
X1124105D01*
X1122451Y493815D01*
X1121185Y492549D01*
X1120500Y490895D01*
Y489105D01*
X1121185Y487451D01*
X1122451Y486185D01*
X1124105Y485500D01*
X1125895D01*
X1126248Y485646D01*
X1143752D01*
X1144105Y485500D01*
X1145895D01*
X1147549Y486185D01*
X1148815Y487451D01*
X1149500Y489105D01*
Y490895D01*
X1148815Y492549D01*
X1147549Y493815D01*
X1145895Y494500D01*
D02*
G37*
G36*
X475905Y591581D02*
X475423Y591383D01*
X474935Y591184D01*
X474934Y591182D01*
X474932Y591181D01*
X474031Y590286D01*
X474030Y590284D01*
X474028Y590283D01*
X473827Y589798D01*
X473625Y589315D01*
X473626Y589313D01*
X473625Y589311D01*
Y490000D01*
X474028Y489028D01*
X475000Y488625D01*
X540000D01*
X540972Y489028D01*
X541375Y490000D01*
X541375Y589818D01*
X541175Y590301D01*
X540978Y590784D01*
X540974Y590786D01*
X540972Y590790D01*
X540490Y590990D01*
X540008Y591193D01*
X475909Y591581D01*
X475907Y591580D01*
X475905Y591581D01*
D02*
G37*
G36*
X554990Y615123D02*
X552934Y614714D01*
X551190Y613549D01*
X550026Y611806D01*
X549617Y609750D01*
Y488950D01*
X550026Y486894D01*
X551190Y485150D01*
X554990Y481351D01*
X556733Y480186D01*
X558789Y479777D01*
X560846Y480186D01*
X562589Y481351D01*
X563754Y483094D01*
X564163Y485150D01*
X563754Y487207D01*
X562589Y488950D01*
X560363Y491176D01*
Y609750D01*
X559954Y611806D01*
X558789Y613549D01*
X557046Y614714D01*
X554990Y615123D01*
D02*
G37*
G36*
X1005895Y479500D02*
X1004105D01*
X1002451Y478815D01*
X1001185Y477549D01*
X1000500Y475895D01*
Y474105D01*
X1001185Y472451D01*
X1002451Y471185D01*
X1004105Y470500D01*
X1005895D01*
X1007549Y471185D01*
X1008418Y472054D01*
X1019082D01*
X1020194Y470942D01*
X1021848Y470257D01*
X1023638D01*
X1025292Y470942D01*
X1026558Y472208D01*
X1027243Y473862D01*
Y475652D01*
X1026558Y477306D01*
X1025292Y478572D01*
X1023638Y479257D01*
X1021848D01*
X1020194Y478572D01*
X1019324Y477703D01*
X1008661D01*
X1007549Y478815D01*
X1005895Y479500D01*
D02*
G37*
G36*
X1168395Y462000D02*
X1166605D01*
X1164951Y461315D01*
X1164830Y461194D01*
X1107017D01*
X1105795Y461700D01*
X1104005D01*
X1102351Y461015D01*
X1101085Y459749D01*
X1100400Y458095D01*
Y456305D01*
X1101085Y454651D01*
X1102351Y453385D01*
X1104005Y452700D01*
X1105795D01*
X1107449Y453385D01*
X1107570Y453506D01*
X1165383D01*
X1166605Y453000D01*
X1168395D01*
X1170049Y453685D01*
X1171315Y454951D01*
X1172000Y456605D01*
Y458395D01*
X1171315Y460049D01*
X1170049Y461315D01*
X1168395Y462000D01*
D02*
G37*
G36*
X521000Y450395D02*
X472365D01*
Y447550D01*
X468555D01*
Y450395D01*
X419920D01*
Y397510D01*
X422765D01*
Y393700D01*
X419920D01*
Y340815D01*
X468555D01*
Y343660D01*
X472365D01*
Y340791D01*
X472881Y339545D01*
X472435Y339099D01*
X471750Y337445D01*
Y335655D01*
X472435Y334001D01*
X472916Y333520D01*
Y309031D01*
X460485Y296600D01*
X459805D01*
X458151Y295915D01*
X456885Y294649D01*
X456200Y292995D01*
Y291205D01*
X456885Y289551D01*
X458151Y288285D01*
X459805Y287600D01*
X461595D01*
X463249Y288285D01*
X464515Y289551D01*
X465200Y291205D01*
Y291885D01*
X478608Y305292D01*
X479330Y306374D01*
X479584Y307650D01*
Y333520D01*
X480065Y334001D01*
X480750Y335655D01*
Y337445D01*
X480065Y339099D01*
X479619Y339545D01*
X480145Y340815D01*
X521000D01*
Y393700D01*
X518155D01*
Y397510D01*
X521000D01*
Y450395D01*
D02*
G37*
G36*
X591730Y427525D02*
X548190D01*
Y414485D01*
X571142D01*
X572200Y412901D01*
X573944Y411736D01*
X576000Y411327D01*
X578056Y411736D01*
X579799Y412901D01*
X580858Y414485D01*
X591730D01*
Y427525D01*
D02*
G37*
G36*
X608300Y383198D02*
X606244Y382789D01*
X604501Y381624D01*
X598454Y375578D01*
X591730D01*
Y376725D01*
X548190D01*
Y363685D01*
X591730D01*
Y364832D01*
X600680D01*
X602736Y365241D01*
X604479Y366405D01*
X612099Y374025D01*
X613264Y375769D01*
X613673Y377825D01*
X613264Y379881D01*
X612099Y381624D01*
X610356Y382789D01*
X608300Y383198D01*
D02*
G37*
G36*
X307083Y374376D02*
X303082D01*
X300662Y374057D01*
X298407Y373123D01*
X296471Y371637D01*
X294985Y369701D01*
X294051Y367446D01*
X293732Y365026D01*
X294051Y362606D01*
X294985Y360351D01*
X296471Y358414D01*
X298407Y356929D01*
X300662Y355995D01*
X303082Y355676D01*
X307083D01*
X309502Y355995D01*
X311758Y356929D01*
X313694Y358414D01*
X315180Y360351D01*
X316114Y362606D01*
X316432Y365026D01*
X316114Y367446D01*
X315180Y369701D01*
X313694Y371637D01*
X311758Y373123D01*
X309502Y374057D01*
X307083Y374376D01*
D02*
G37*
G36*
X206882Y371376D02*
X204463Y371057D01*
X202208Y370123D01*
X200271Y368637D01*
X198785Y366701D01*
X197851Y364446D01*
X197533Y362026D01*
Y358026D01*
X197851Y355606D01*
X198785Y353351D01*
X200271Y351414D01*
X202208Y349928D01*
X204463Y348994D01*
X206882Y348676D01*
X209303Y348994D01*
X211558Y349928D01*
X213494Y351414D01*
X214980Y353351D01*
X215914Y355606D01*
X216232Y358026D01*
Y362026D01*
X215914Y364446D01*
X214980Y366701D01*
X213494Y368637D01*
X211558Y370123D01*
X209303Y371057D01*
X206882Y371376D01*
D02*
G37*
G36*
X156883D02*
X154463Y371057D01*
X152208Y370123D01*
X150271Y368637D01*
X148785Y366701D01*
X147851Y364446D01*
X147533Y362026D01*
Y358026D01*
X147851Y355606D01*
X148785Y353351D01*
X150271Y351414D01*
X152208Y349928D01*
X154463Y348994D01*
X156883Y348676D01*
X159303Y348994D01*
X161558Y349928D01*
X163494Y351414D01*
X164980Y353351D01*
X165914Y355606D01*
X166233Y358026D01*
Y362026D01*
X165914Y364446D01*
X164980Y366701D01*
X163494Y368637D01*
X161558Y370123D01*
X159303Y371057D01*
X156883Y371376D01*
D02*
G37*
G36*
X1033395Y392000D02*
X1031605D01*
X1029951Y391315D01*
X1028685Y390049D01*
X1028000Y388395D01*
Y386605D01*
X1028685Y384951D01*
X1029951Y383685D01*
X1031605Y383000D01*
X1033006D01*
X1063000Y353006D01*
Y351605D01*
X1063685Y349951D01*
X1064951Y348685D01*
X1066605Y348000D01*
X1068395D01*
X1070049Y348685D01*
X1071315Y349951D01*
X1072000Y351605D01*
Y353395D01*
X1071315Y355049D01*
X1070049Y356315D01*
X1068395Y357000D01*
X1066994D01*
X1037000Y386994D01*
Y388395D01*
X1036315Y390049D01*
X1035049Y391315D01*
X1033395Y392000D01*
D02*
G37*
G36*
X280083Y327657D02*
X277331Y327295D01*
X274767Y326233D01*
X274090Y325713D01*
X276151Y323652D01*
X273457Y320958D01*
X271396Y323019D01*
X270876Y322341D01*
X269814Y319778D01*
X269452Y317026D01*
Y316931D01*
X272388D01*
Y313121D01*
X269452D01*
Y313026D01*
X269814Y310275D01*
X270876Y307710D01*
X271396Y307033D01*
X273457Y309094D01*
X276151Y306400D01*
X274090Y304339D01*
X274767Y303819D01*
X277331Y302757D01*
X280083Y302395D01*
X282834Y302757D01*
X285398Y303819D01*
X286076Y304339D01*
X284014Y306400D01*
X286709Y309094D01*
X288770Y307033D01*
X289289Y307710D01*
X290352Y310275D01*
X290714Y313026D01*
Y313121D01*
X287778D01*
Y316931D01*
X290714D01*
Y317026D01*
X290352Y319778D01*
X289289Y322341D01*
X288770Y323019D01*
X286709Y320958D01*
X284014Y323652D01*
X286076Y325713D01*
X285398Y326233D01*
X282834Y327295D01*
X280083Y327657D01*
D02*
G37*
G36*
X330083Y326376D02*
X327663Y326057D01*
X325408Y325123D01*
X323471Y323638D01*
X321985Y321701D01*
X321051Y319446D01*
X320733Y317026D01*
Y313026D01*
X321051Y310606D01*
X321985Y308351D01*
X323471Y306415D01*
X325408Y304929D01*
X327663Y303995D01*
X330083Y303676D01*
X332503Y303995D01*
X334758Y304929D01*
X336694Y306415D01*
X338180Y308351D01*
X339114Y310606D01*
X339433Y313026D01*
Y317026D01*
X339114Y319446D01*
X338180Y321701D01*
X336694Y323638D01*
X334758Y325123D01*
X332503Y326057D01*
X330083Y326376D01*
D02*
G37*
G36*
X183883Y319375D02*
X179883D01*
X177463Y319057D01*
X175208Y318123D01*
X173271Y316637D01*
X171786Y314700D01*
X170851Y312445D01*
X170533Y310025D01*
X170851Y307605D01*
X171786Y305350D01*
X173271Y303414D01*
X175208Y301928D01*
X177463Y300994D01*
X179883Y300675D01*
X183883D01*
X186303Y300994D01*
X188558Y301928D01*
X190494Y303414D01*
X191980Y305350D01*
X192914Y307605D01*
X193233Y310025D01*
X192914Y312445D01*
X191980Y314700D01*
X190494Y316637D01*
X188558Y318123D01*
X186303Y319057D01*
X183883Y319375D01*
D02*
G37*
G36*
X608300Y336873D02*
X606244Y336464D01*
X604501Y335299D01*
X603336Y333556D01*
X602927Y331500D01*
Y274350D01*
X603336Y272294D01*
X604501Y270550D01*
X606244Y269386D01*
X608300Y268977D01*
X610356Y269386D01*
X612099Y270550D01*
X613264Y272294D01*
X613673Y274350D01*
Y331500D01*
X613264Y333556D01*
X612099Y335299D01*
X610356Y336464D01*
X608300Y336873D01*
D02*
G37*
G36*
X232895Y270943D02*
X231105D01*
X229451Y270258D01*
X228185Y268992D01*
X227500Y267338D01*
Y265548D01*
X228185Y263894D01*
X228666Y263413D01*
Y243473D01*
X228185Y242992D01*
X227500Y241338D01*
Y239548D01*
X228185Y237894D01*
X229451Y236628D01*
X231105Y235943D01*
X232895D01*
X234549Y236628D01*
X235815Y237894D01*
X236500Y239548D01*
Y241338D01*
X235815Y242992D01*
X235334Y243473D01*
Y263413D01*
X235815Y263894D01*
X236500Y265548D01*
Y267338D01*
X235815Y268992D01*
X234549Y270258D01*
X232895Y270943D01*
D02*
G37*
G36*
X755650Y265723D02*
X753594Y265314D01*
X751851Y264149D01*
X750686Y262406D01*
X750277Y260350D01*
Y228600D01*
X750686Y226544D01*
X751851Y224800D01*
X753594Y223636D01*
X755650Y223227D01*
X757706Y223636D01*
X759449Y224800D01*
X760614Y226544D01*
X761023Y228600D01*
Y260350D01*
X760614Y262406D01*
X759449Y264149D01*
X757706Y265314D01*
X755650Y265723D01*
D02*
G37*
G36*
X137859Y238443D02*
X136069D01*
X134415Y237758D01*
X133149Y236492D01*
X132464Y234838D01*
Y233048D01*
X133149Y231394D01*
X134415Y230128D01*
X136069Y229443D01*
X137859D01*
X139513Y230128D01*
X139994Y230609D01*
X154106D01*
X159669Y225046D01*
X160750Y224323D01*
X162026Y224070D01*
X182019D01*
X182500Y223589D01*
X184154Y222904D01*
X185944D01*
X187598Y223589D01*
X188864Y224855D01*
X189549Y226509D01*
Y228299D01*
X188864Y229953D01*
X187598Y231219D01*
X185944Y231904D01*
X184154D01*
X182500Y231219D01*
X182019Y230738D01*
X163407D01*
X157844Y236301D01*
X156763Y237023D01*
X155487Y237277D01*
X139994D01*
X139513Y237758D01*
X137859Y238443D01*
D02*
G37*
G36*
X232895Y231943D02*
X231105D01*
X229451Y231258D01*
X228185Y229992D01*
X227500Y228338D01*
Y226548D01*
X228185Y224894D01*
X228666Y224413D01*
Y203708D01*
X228568Y203610D01*
X227883Y201956D01*
Y200166D01*
X228568Y198512D01*
X229834Y197246D01*
X231488Y196561D01*
X233278D01*
X234932Y197246D01*
X236197Y198512D01*
X236883Y200166D01*
Y201956D01*
X236197Y203610D01*
X235334Y204473D01*
Y224413D01*
X235815Y224894D01*
X236500Y226548D01*
Y228338D01*
X235815Y229992D01*
X234549Y231258D01*
X232895Y231943D01*
D02*
G37*
G36*
X458095Y226750D02*
X456305D01*
X454651Y226065D01*
X453385Y224799D01*
X452700Y223145D01*
Y221355D01*
X453385Y219701D01*
X453866Y219220D01*
Y199880D01*
X453385Y199399D01*
X452700Y197745D01*
Y195955D01*
X453385Y194301D01*
X454651Y193035D01*
X456305Y192350D01*
X458095D01*
X459749Y193035D01*
X461015Y194301D01*
X461700Y195955D01*
Y197745D01*
X461015Y199399D01*
X460534Y199880D01*
Y219220D01*
X461015Y219701D01*
X461700Y221355D01*
Y223145D01*
X461015Y224799D01*
X459749Y226065D01*
X458095Y226750D01*
D02*
G37*
G36*
X1080395Y258500D02*
X1078605D01*
X1076951Y257815D01*
X1075685Y256549D01*
X1075000Y254895D01*
Y253105D01*
X1075146Y252752D01*
Y185398D01*
X1075000Y185045D01*
Y183255D01*
X1075685Y181601D01*
X1076951Y180335D01*
X1078605Y179650D01*
X1080395D01*
X1082049Y180335D01*
X1083315Y181601D01*
X1084000Y183255D01*
Y185045D01*
X1083854Y185398D01*
Y252752D01*
X1084000Y253105D01*
Y254895D01*
X1083315Y256549D01*
X1082049Y257815D01*
X1080395Y258500D01*
D02*
G37*
G36*
X1397000Y265723D02*
X1394944Y265314D01*
X1393201Y264149D01*
X1392036Y262406D01*
X1391627Y260350D01*
Y184150D01*
X1392036Y182094D01*
X1393201Y180350D01*
X1394944Y179186D01*
X1397000Y178777D01*
X1399056Y179186D01*
X1400800Y180350D01*
X1401964Y182094D01*
X1402373Y184150D01*
Y260350D01*
X1401964Y262406D01*
X1400800Y264149D01*
X1399056Y265314D01*
X1397000Y265723D01*
D02*
G37*
G36*
X328500Y161074D02*
X325749Y160711D01*
X323185Y159649D01*
X322507Y159130D01*
X324568Y157069D01*
X321874Y154374D01*
X319813Y156435D01*
X319294Y155758D01*
X318232Y153194D01*
X317869Y150443D01*
Y150348D01*
X320805D01*
Y146538D01*
X317869D01*
Y146443D01*
X318232Y143691D01*
X319294Y141127D01*
X319813Y140450D01*
X321874Y142511D01*
X324568Y139817D01*
X322507Y137756D01*
X323185Y137236D01*
X325749Y136174D01*
X328500Y135812D01*
X331252Y136174D01*
X333816Y137236D01*
X334493Y137756D01*
X332432Y139817D01*
X335126Y142511D01*
X337187Y140450D01*
X337707Y141127D01*
X338769Y143691D01*
X339131Y146443D01*
Y146538D01*
X336195D01*
Y150348D01*
X339131D01*
Y150443D01*
X338769Y153194D01*
X337707Y155758D01*
X337187Y156435D01*
X335126Y154374D01*
X332432Y157069D01*
X334493Y159130D01*
X333816Y159649D01*
X331252Y160711D01*
X328500Y161074D01*
D02*
G37*
G36*
X807345Y182300D02*
X805555D01*
X803901Y181615D01*
X802635Y180349D01*
X801950Y178695D01*
Y176905D01*
X802635Y175251D01*
X803626Y174260D01*
Y149590D01*
X802635Y148599D01*
X801950Y146945D01*
Y145155D01*
X802635Y143501D01*
X803901Y142235D01*
X805555Y141550D01*
X807345D01*
X808999Y142235D01*
X810265Y143501D01*
X810950Y145155D01*
Y146945D01*
X810265Y148599D01*
X809274Y149590D01*
Y174260D01*
X810265Y175251D01*
X810950Y176905D01*
Y178695D01*
X810265Y180349D01*
X808999Y181615D01*
X807345Y182300D01*
D02*
G37*
G36*
X211500Y159793D02*
X209080Y159475D01*
X206825Y158540D01*
X204889Y157055D01*
X203403Y155118D01*
X202469Y152863D01*
X202150Y150443D01*
Y146443D01*
X202469Y144023D01*
X203403Y141768D01*
X204889Y139832D01*
X206825Y138346D01*
X209080Y137412D01*
X211500Y137093D01*
X213920Y137412D01*
X216175Y138346D01*
X218112Y139832D01*
X219597Y141768D01*
X220532Y144023D01*
X220850Y146443D01*
Y150443D01*
X220532Y152863D01*
X219597Y155118D01*
X218112Y157055D01*
X216175Y158540D01*
X213920Y159475D01*
X211500Y159793D01*
D02*
G37*
G36*
X161500D02*
X159080Y159475D01*
X156825Y158540D01*
X154889Y157055D01*
X153403Y155118D01*
X152469Y152863D01*
X152150Y150443D01*
Y146443D01*
X152469Y144023D01*
X153403Y141768D01*
X154889Y139832D01*
X156825Y138346D01*
X159080Y137412D01*
X161500Y137093D01*
X163920Y137412D01*
X166175Y138346D01*
X168112Y139832D01*
X169598Y141768D01*
X170532Y144023D01*
X170850Y146443D01*
Y150443D01*
X170532Y152863D01*
X169598Y155118D01*
X168112Y157055D01*
X166175Y158540D01*
X163920Y159475D01*
X161500Y159793D01*
D02*
G37*
G36*
X278500Y159793D02*
X276080Y159474D01*
X273825Y158540D01*
X271889Y157054D01*
X270403Y155118D01*
X269469Y152863D01*
X269150Y150443D01*
Y146443D01*
X269469Y144023D01*
X270403Y141768D01*
X271889Y139831D01*
X273825Y138345D01*
X276080Y137411D01*
X278500Y137093D01*
X280920Y137411D01*
X283175Y138345D01*
X285112Y139831D01*
X286598Y141768D01*
X287532Y144023D01*
X287850Y146443D01*
Y150443D01*
X287532Y152863D01*
X286598Y155118D01*
X285112Y157054D01*
X283175Y158540D01*
X280920Y159474D01*
X278500Y159793D01*
D02*
G37*
G36*
X342845Y115150D02*
X341055D01*
X339401Y114465D01*
X338920Y113984D01*
X319039D01*
X318558Y114465D01*
X316904Y115150D01*
X315114D01*
X313460Y114465D01*
X312194Y113199D01*
X311509Y111545D01*
Y109755D01*
X312194Y108101D01*
X313460Y106835D01*
X315114Y106150D01*
X316904D01*
X318558Y106835D01*
X319039Y107316D01*
X338920D01*
X339401Y106835D01*
X341055Y106150D01*
X342845D01*
X344499Y106835D01*
X345765Y108101D01*
X346450Y109755D01*
Y111545D01*
X345765Y113199D01*
X344499Y114465D01*
X342845Y115150D01*
D02*
G37*
G36*
X305500Y107793D02*
X301500D01*
X299080Y107474D01*
X296825Y106540D01*
X294889Y105054D01*
X293403Y103118D01*
X292469Y100863D01*
X292150Y98443D01*
X292469Y96023D01*
X293403Y93768D01*
X294889Y91831D01*
X296825Y90345D01*
X299080Y89411D01*
X301500Y89093D01*
X305500D01*
X307920Y89411D01*
X310175Y90345D01*
X312111Y91831D01*
X313597Y93768D01*
X314531Y96023D01*
X314850Y98443D01*
X314531Y100863D01*
X313597Y103118D01*
X312111Y105054D01*
X310175Y106540D01*
X307920Y107474D01*
X305500Y107793D01*
D02*
G37*
G36*
X188500D02*
X184501D01*
X182080Y107474D01*
X179825Y106540D01*
X177889Y105054D01*
X176403Y103118D01*
X175469Y100863D01*
X175151Y98443D01*
X175469Y96023D01*
X176403Y93768D01*
X177889Y91831D01*
X179825Y90345D01*
X182080Y89411D01*
X184501Y89093D01*
X188500D01*
X190921Y89411D01*
X193176Y90345D01*
X195112Y91831D01*
X196598Y93768D01*
X197532Y96023D01*
X197850Y98443D01*
X197532Y100863D01*
X196598Y103118D01*
X195112Y105054D01*
X193176Y106540D01*
X190921Y107474D01*
X188500Y107793D01*
D02*
G37*
G36*
X1214235Y95320D02*
X1211465D01*
X1208789Y94603D01*
X1206391Y93218D01*
X1204432Y91259D01*
X1203047Y88861D01*
X1202330Y86185D01*
Y83415D01*
X1203047Y80739D01*
X1204432Y78341D01*
X1206391Y76382D01*
X1208789Y74997D01*
X1211465Y74280D01*
X1214235D01*
X1216911Y74997D01*
X1219309Y76382D01*
X1221268Y78341D01*
X1222653Y80739D01*
X1223370Y83415D01*
Y86185D01*
X1222653Y88861D01*
X1221268Y91259D01*
X1219309Y93218D01*
X1216911Y94603D01*
X1214235Y95320D01*
D02*
G37*
G36*
X1176135D02*
X1173365D01*
X1170689Y94603D01*
X1168291Y93218D01*
X1166332Y91259D01*
X1164947Y88861D01*
X1164230Y86185D01*
Y83415D01*
X1164947Y80739D01*
X1166332Y78341D01*
X1168291Y76382D01*
X1170689Y74997D01*
X1173365Y74280D01*
X1176135D01*
X1178811Y74997D01*
X1181209Y76382D01*
X1183168Y78341D01*
X1184553Y80739D01*
X1185270Y83415D01*
Y86185D01*
X1184553Y88861D01*
X1183168Y91259D01*
X1181209Y93218D01*
X1178811Y94603D01*
X1176135Y95320D01*
D02*
G37*
G36*
X1138035D02*
X1135265D01*
X1132589Y94603D01*
X1130191Y93218D01*
X1128232Y91259D01*
X1126847Y88861D01*
X1126130Y86185D01*
Y83415D01*
X1126847Y80739D01*
X1128232Y78341D01*
X1130191Y76382D01*
X1132589Y74997D01*
X1135265Y74280D01*
X1138035D01*
X1140711Y74997D01*
X1143109Y76382D01*
X1145068Y78341D01*
X1146453Y80739D01*
X1147170Y83415D01*
Y86185D01*
X1146453Y88861D01*
X1145068Y91259D01*
X1143109Y93218D01*
X1140711Y94603D01*
X1138035Y95320D01*
D02*
G37*
G36*
X1099935D02*
X1097165D01*
X1094489Y94603D01*
X1092091Y93218D01*
X1090132Y91259D01*
X1088747Y88861D01*
X1088030Y86185D01*
Y83415D01*
X1088747Y80739D01*
X1090132Y78341D01*
X1092091Y76382D01*
X1094489Y74997D01*
X1097165Y74280D01*
X1099935D01*
X1102611Y74997D01*
X1105009Y76382D01*
X1106968Y78341D01*
X1108353Y80739D01*
X1109070Y83415D01*
Y86185D01*
X1108353Y88861D01*
X1106968Y91259D01*
X1105009Y93218D01*
X1102611Y94603D01*
X1099935Y95320D01*
D02*
G37*
G36*
X1061835D02*
X1059065D01*
X1056389Y94603D01*
X1053991Y93218D01*
X1052032Y91259D01*
X1050647Y88861D01*
X1049930Y86185D01*
Y83415D01*
X1050647Y80739D01*
X1052032Y78341D01*
X1053991Y76382D01*
X1056389Y74997D01*
X1059065Y74280D01*
X1061835D01*
X1064511Y74997D01*
X1066909Y76382D01*
X1068868Y78341D01*
X1070253Y80739D01*
X1070970Y83415D01*
Y86185D01*
X1070253Y88861D01*
X1068868Y91259D01*
X1066909Y93218D01*
X1064511Y94603D01*
X1061835Y95320D01*
D02*
G37*
G36*
X1023735D02*
X1020965D01*
X1018289Y94603D01*
X1015891Y93218D01*
X1013932Y91259D01*
X1012547Y88861D01*
X1011830Y86185D01*
Y83415D01*
X1012547Y80739D01*
X1013932Y78341D01*
X1015891Y76382D01*
X1018289Y74997D01*
X1020965Y74280D01*
X1023735D01*
X1026411Y74997D01*
X1028809Y76382D01*
X1030768Y78341D01*
X1032153Y80739D01*
X1032870Y83415D01*
Y86185D01*
X1032153Y88861D01*
X1030768Y91259D01*
X1028809Y93218D01*
X1026411Y94603D01*
X1023735Y95320D01*
D02*
G37*
G36*
X985635D02*
X982865D01*
X980189Y94603D01*
X977791Y93218D01*
X975832Y91259D01*
X974447Y88861D01*
X973730Y86185D01*
Y83415D01*
X974447Y80739D01*
X975832Y78341D01*
X977791Y76382D01*
X980189Y74997D01*
X982865Y74280D01*
X985635D01*
X988311Y74997D01*
X990709Y76382D01*
X992668Y78341D01*
X994053Y80739D01*
X994770Y83415D01*
Y86185D01*
X994053Y88861D01*
X992668Y91259D01*
X990709Y93218D01*
X988311Y94603D01*
X985635Y95320D01*
D02*
G37*
G36*
X947535D02*
X944765D01*
X942089Y94603D01*
X939691Y93218D01*
X937732Y91259D01*
X936347Y88861D01*
X935630Y86185D01*
Y83415D01*
X936347Y80739D01*
X937732Y78341D01*
X939691Y76382D01*
X942089Y74997D01*
X944765Y74280D01*
X947535D01*
X950211Y74997D01*
X952609Y76382D01*
X954568Y78341D01*
X955953Y80739D01*
X956670Y83415D01*
Y86185D01*
X955953Y88861D01*
X954568Y91259D01*
X952609Y93218D01*
X950211Y94603D01*
X947535Y95320D01*
D02*
G37*
G36*
X909435D02*
X906665D01*
X903989Y94603D01*
X901591Y93218D01*
X899632Y91259D01*
X898247Y88861D01*
X897530Y86185D01*
Y83415D01*
X898247Y80739D01*
X899632Y78341D01*
X901591Y76382D01*
X903989Y74997D01*
X906665Y74280D01*
X909435D01*
X912111Y74997D01*
X914509Y76382D01*
X916468Y78341D01*
X917853Y80739D01*
X918570Y83415D01*
Y86185D01*
X917853Y88861D01*
X916468Y91259D01*
X914509Y93218D01*
X912111Y94603D01*
X909435Y95320D01*
D02*
G37*
G36*
X880470D02*
X859430D01*
Y74280D01*
X880470D01*
Y95320D01*
D02*
G37*
G36*
X687185D02*
X684415D01*
X681739Y94603D01*
X679341Y93218D01*
X677382Y91259D01*
X675997Y88861D01*
X675280Y86185D01*
Y83415D01*
X675997Y80739D01*
X677382Y78341D01*
X679341Y76382D01*
X681739Y74997D01*
X684415Y74280D01*
X687185D01*
X689861Y74997D01*
X692259Y76382D01*
X694218Y78341D01*
X695603Y80739D01*
X696320Y83415D01*
Y86185D01*
X695603Y88861D01*
X694218Y91259D01*
X692259Y93218D01*
X689861Y94603D01*
X687185Y95320D01*
D02*
G37*
G36*
X649085D02*
X646315D01*
X643639Y94603D01*
X641241Y93218D01*
X639282Y91259D01*
X637897Y88861D01*
X637180Y86185D01*
Y83415D01*
X637897Y80739D01*
X639282Y78341D01*
X641241Y76382D01*
X643639Y74997D01*
X646315Y74280D01*
X649085D01*
X651761Y74997D01*
X654159Y76382D01*
X656118Y78341D01*
X657503Y80739D01*
X658220Y83415D01*
Y86185D01*
X657503Y88861D01*
X656118Y91259D01*
X654159Y93218D01*
X651761Y94603D01*
X649085Y95320D01*
D02*
G37*
G36*
X610985D02*
X608215D01*
X605539Y94603D01*
X603141Y93218D01*
X601182Y91259D01*
X599797Y88861D01*
X599080Y86185D01*
Y83415D01*
X599797Y80739D01*
X601182Y78341D01*
X603141Y76382D01*
X605539Y74997D01*
X608215Y74280D01*
X610985D01*
X613661Y74997D01*
X616059Y76382D01*
X618018Y78341D01*
X619403Y80739D01*
X620120Y83415D01*
Y86185D01*
X619403Y88861D01*
X618018Y91259D01*
X616059Y93218D01*
X613661Y94603D01*
X610985Y95320D01*
D02*
G37*
G36*
X572885D02*
X570115D01*
X567439Y94603D01*
X565041Y93218D01*
X563082Y91259D01*
X561697Y88861D01*
X560980Y86185D01*
Y83415D01*
X561697Y80739D01*
X563082Y78341D01*
X565041Y76382D01*
X567439Y74997D01*
X570115Y74280D01*
X572885D01*
X575561Y74997D01*
X577959Y76382D01*
X579918Y78341D01*
X581303Y80739D01*
X582020Y83415D01*
Y86185D01*
X581303Y88861D01*
X579918Y91259D01*
X577959Y93218D01*
X575561Y94603D01*
X572885Y95320D01*
D02*
G37*
G36*
X496685D02*
X493915D01*
X491239Y94603D01*
X488841Y93218D01*
X486882Y91259D01*
X485497Y88861D01*
X484780Y86185D01*
Y83415D01*
X485497Y80739D01*
X486882Y78341D01*
X488841Y76382D01*
X491239Y74997D01*
X493915Y74280D01*
X496685D01*
X499361Y74997D01*
X501759Y76382D01*
X503718Y78341D01*
X505103Y80739D01*
X505820Y83415D01*
Y86185D01*
X505103Y88861D01*
X503718Y91259D01*
X501759Y93218D01*
X499361Y94603D01*
X496685Y95320D01*
D02*
G37*
G36*
X467720D02*
X446680D01*
Y74280D01*
X467720D01*
Y95320D01*
D02*
G37*
%LPD*%
G36*
X540000Y589818D02*
X540000Y490000D01*
X475000D01*
Y589311D01*
X475901Y590206D01*
X540000Y589818D01*
D02*
G37*
D13*
X1066800Y757900D02*
X1155700D01*
X927100Y514350D02*
X932750Y520000D01*
X1060000D01*
X1125000Y490000D02*
X1145000D01*
X807500Y560000D02*
X829500Y538000D01*
X1077500D01*
X1079500Y184150D02*
Y254000D01*
D14*
X374650Y965200D02*
X381849D01*
X310536Y955925D02*
X310597Y955986D01*
Y974780D01*
X310658Y974841D01*
X387350Y956183D02*
Y959699D01*
X381849Y965200D02*
X387350Y959699D01*
X234950Y965200D02*
X254840D01*
X1104900Y457200D02*
X1105050Y457350D01*
X1167350D01*
X1167500Y457500D01*
D15*
X1381412Y957612D02*
Y1073150D01*
X1380950Y957150D02*
X1381412Y957612D01*
X1371600Y812730D02*
Y857250D01*
X1197423Y610000D02*
X1260000D01*
D16*
X1092250Y774750D02*
X1166450D01*
X1092200Y774700D02*
X1092250Y774750D01*
X1166450D02*
X1166500Y774800D01*
X1079500Y787400D02*
X1153693D01*
X1073150Y793750D02*
X1147343D01*
X1085850Y781050D02*
X1160043D01*
X1005000Y475000D02*
X1005121Y474879D01*
X1022621D01*
X1022743Y474757D01*
X1265985Y625760D02*
X1267027Y626801D01*
X1233479Y625645D02*
X1233594Y625760D01*
X1267027Y626801D02*
X1269426D01*
X1196340Y619760D02*
X1196914Y620334D01*
X1199314D01*
X1233594Y625760D02*
X1265985D01*
X1199314Y626686D02*
X1200355Y625645D01*
X1267027Y620449D02*
X1269426D01*
X1235362Y621490D02*
X1265985D01*
X1267027Y620449D01*
X1235247Y621375D02*
X1235362Y621490D01*
X1200355Y625645D02*
X1233479D01*
X1196340Y627260D02*
X1196914Y626686D01*
X1200355Y621375D02*
X1235247D01*
X1196914Y626686D02*
X1199314D01*
Y620334D02*
X1200355Y621375D01*
X1269426Y620449D02*
X1270000Y619875D01*
X1269426Y626801D02*
X1270000Y627375D01*
X1073150Y685800D02*
X1121000D01*
X806450Y146050D02*
Y177800D01*
X1206500Y1073150D02*
X1381412D01*
X1416050D01*
X1434500Y952500D02*
X1467900D01*
X919400Y692500D02*
X951900Y660000D01*
X997500D01*
X1237500Y515000D02*
Y550000D01*
X1032500Y387500D02*
X1067500Y352500D01*
D92*
X457200Y84800D02*
D03*
X869950D02*
D03*
D93*
X495300D02*
D03*
X533400D02*
D03*
X571500D02*
D03*
X609600D02*
D03*
X647700D02*
D03*
X685800D02*
D03*
X723900D02*
D03*
X762000D02*
D03*
X800100D02*
D03*
X908050D02*
D03*
X946150D02*
D03*
X984250D02*
D03*
X1022350D02*
D03*
X1060450D02*
D03*
X1098550D02*
D03*
X1136650D02*
D03*
X1174750D02*
D03*
X1212850D02*
D03*
D126*
X647700Y732500D02*
Y834100D01*
X569960Y421005D02*
X574750D01*
X576000Y419755D01*
Y416700D02*
Y419755D01*
X600680Y370205D02*
X608300Y377825D01*
X569960Y370205D02*
X600680D01*
X673100Y499730D02*
Y552450D01*
X554990Y488950D02*
Y609750D01*
Y488950D02*
X558789Y485150D01*
X1397000Y184150D02*
Y260350D01*
X755650Y228600D02*
Y260350D01*
X608300Y274350D02*
Y331500D01*
D128*
X1443050Y1035050D02*
X1536700D01*
X1443000Y1035000D02*
X1443050Y1035050D01*
X1209000Y1035000D02*
X1305000D01*
X1313168Y1035259D02*
X1320390D01*
X1305260D02*
X1313168D01*
X1305000Y1035000D02*
X1305260Y1035259D01*
X1320390D02*
X1320600Y1035050D01*
X1544038D02*
X1551375D01*
X1536700D02*
X1544038D01*
D131*
X476250Y307650D02*
Y336550D01*
X460700Y292100D02*
X476250Y307650D01*
X457200Y196850D02*
Y222250D01*
X136964Y233943D02*
X155487D01*
X162026Y227404D02*
X185049D01*
X155487Y233943D02*
X162026Y227404D01*
X316009Y110650D02*
X341950D01*
X232000Y201443D02*
X232383Y201061D01*
X232000Y201443D02*
Y227443D01*
Y240443D02*
Y266443D01*
D135*
X200900Y1088150D02*
X234950Y1054100D01*
X200900Y1088150D02*
Y1157500D01*
X107950Y1054100D02*
X113618D01*
X150100Y1090582D01*
Y1157500D01*
D136*
X520700Y757900D02*
X702760Y939960D01*
Y1101540D01*
X711200Y1109980D02*
X765800D01*
X825500D01*
X687750D02*
X711200D01*
X825500D02*
X901700D01*
X977900D01*
X1022350D01*
X1137920D01*
X611550D02*
X687750D01*
X1147700D02*
X1381412D01*
D138*
X1498700Y1157500D02*
D03*
X1447900D02*
D03*
X1397100D02*
D03*
X1346300D02*
D03*
X1124100D02*
D03*
X1022500D02*
D03*
X971700D02*
D03*
X920900D02*
D03*
X870100D02*
D03*
X819300D02*
D03*
X768500D02*
D03*
X1073300D02*
D03*
X1225700D02*
D03*
X1174900D02*
D03*
X454900D02*
D03*
X150100D02*
D03*
X200900D02*
D03*
X251700D02*
D03*
X302500D02*
D03*
X353300D02*
D03*
X404100D02*
D03*
X505700D02*
D03*
X101600Y762000D02*
D03*
Y711200D02*
D03*
Y660400D02*
D03*
Y609600D02*
D03*
Y558800D02*
D03*
Y508000D02*
D03*
D139*
X164322Y556050D02*
D03*
Y613200D02*
D03*
Y714800D02*
D03*
Y771950D02*
D03*
D140*
X1571200Y692600D02*
D03*
Y752400D02*
D03*
X273050Y990600D02*
D03*
X336550D02*
D03*
X449390Y977075D02*
D03*
X349250Y990600D02*
D03*
X361950D02*
D03*
X374650Y965200D02*
D03*
X511950Y990600D02*
D03*
X190500D02*
D03*
X114300D02*
D03*
X508000Y958850D02*
D03*
X133350Y971550D02*
D03*
X101600Y990600D02*
D03*
X127000D02*
D03*
X501500Y834800D02*
D03*
X611550Y1107150D02*
D03*
X687750D02*
D03*
X728980Y962660D02*
D03*
Y993140D02*
D03*
X552450Y853150D02*
D03*
X751840Y962660D02*
D03*
Y993140D02*
D03*
X611550Y1164300D02*
D03*
X687750D02*
D03*
X215900Y903950D02*
D03*
X63500D02*
D03*
X330200Y891250D02*
D03*
X304800Y910300D02*
D03*
X158750D02*
D03*
X406400Y853150D02*
D03*
X292100D02*
D03*
X158750D02*
D03*
X355600Y834100D02*
D03*
X241300D02*
D03*
X107950D02*
D03*
X957580Y993140D02*
D03*
X980440D02*
D03*
X957580Y962660D02*
D03*
X980440D02*
D03*
X881380Y993140D02*
D03*
X904240D02*
D03*
X881380Y962660D02*
D03*
X904240D02*
D03*
X805180Y993140D02*
D03*
X828040D02*
D03*
X805180Y962660D02*
D03*
X828040D02*
D03*
X650490Y977075D02*
D03*
X677990D02*
D03*
X664350Y977900D02*
D03*
X574290Y977075D02*
D03*
X601790D02*
D03*
X588150Y977900D02*
D03*
X527050Y990600D02*
D03*
X421890Y977075D02*
D03*
X435750Y977900D02*
D03*
X260350Y990600D02*
D03*
X285750D02*
D03*
X203200D02*
D03*
X171450D02*
D03*
D141*
X1564000Y765500D02*
D03*
Y679500D02*
D03*
D142*
X1603000Y765500D02*
D03*
Y679500D02*
D03*
D143*
X1564200Y643720D02*
D03*
Y523320D02*
D03*
D144*
X1496400Y583520D02*
D03*
X1608300D02*
D03*
D145*
X1568700Y571021D02*
D03*
Y596020D02*
D03*
X1536700Y571021D02*
D03*
X186500Y98443D02*
D03*
X181883Y310025D02*
D03*
X305082Y365026D02*
D03*
X303500Y98443D02*
D03*
D146*
X1536700Y596020D02*
D03*
D147*
X970200Y692500D02*
D03*
X944800D02*
D03*
X995600D02*
D03*
D148*
X919400D02*
D03*
D149*
X211500Y148443D02*
D03*
X161500D02*
D03*
X156883Y360026D02*
D03*
X206882D02*
D03*
X330083Y315026D02*
D03*
X280083D02*
D03*
X278500Y148443D02*
D03*
X328500D02*
D03*
D150*
X310658Y974841D02*
D03*
X310536Y955925D02*
D03*
X234950Y965200D02*
D03*
X1166500Y774800D02*
D03*
X647700Y732500D02*
D03*
Y834100D02*
D03*
X685800Y846800D02*
D03*
X977900Y1112520D02*
D03*
X901700D02*
D03*
X825500D02*
D03*
X749300D02*
D03*
X765800Y1109097D02*
D03*
X706500Y904800D02*
D03*
X628650Y903950D02*
D03*
X800100Y910300D02*
D03*
X474599Y902721D02*
D03*
X711200Y850900D02*
D03*
X850900Y910300D02*
D03*
X1155700Y757900D02*
D03*
X1066800D02*
D03*
X1160043Y781050D02*
D03*
X1147343Y793750D02*
D03*
X1153693Y787400D02*
D03*
X1066800Y812800D02*
D03*
X1073150Y793750D02*
D03*
X1079500Y787400D02*
D03*
X1085850Y781050D02*
D03*
X854838Y714307D02*
D03*
X882667Y716964D02*
D03*
X806450Y427700D02*
D03*
X572470Y504050D02*
D03*
X1079500Y929350D02*
D03*
X374650Y770600D02*
D03*
X342900D02*
D03*
X692150Y319750D02*
D03*
X527050Y300700D02*
D03*
X488950D02*
D03*
X1416050Y1113500D02*
D03*
X1339850Y973800D02*
D03*
X1416050D02*
D03*
X1352550Y903950D02*
D03*
X1339850Y948400D02*
D03*
X1320800Y929350D02*
D03*
X1295400Y954750D02*
D03*
X1308100Y942050D02*
D03*
Y929350D02*
D03*
X1327150Y878550D02*
D03*
X1301750Y872200D02*
D03*
X1308100Y859500D02*
D03*
X1301750Y853150D02*
D03*
X1543050Y846800D02*
D03*
Y942050D02*
D03*
X1555750Y859500D02*
D03*
Y929350D02*
D03*
X1543050Y859500D02*
D03*
Y929350D02*
D03*
X1574800Y967450D02*
D03*
X1562100D02*
D03*
X1587500Y1050000D02*
D03*
X1409700Y1132550D02*
D03*
X1479550D02*
D03*
X1543050Y1018250D02*
D03*
X1409700Y999200D02*
D03*
Y1050000D02*
D03*
X1301750D02*
D03*
Y1018250D02*
D03*
X1270000Y954750D02*
D03*
X1257300D02*
D03*
X1092200Y1062700D02*
D03*
X1060450D02*
D03*
X1270000Y389600D02*
D03*
X1186500Y384800D02*
D03*
X1016000Y491200D02*
D03*
X1060450Y529300D02*
D03*
X1104900D02*
D03*
X984250Y637250D02*
D03*
X1454150Y605500D02*
D03*
X1333500Y599150D02*
D03*
X1352550Y649950D02*
D03*
X1244600Y161000D02*
D03*
X1116465Y407290D02*
D03*
X1157500Y467500D02*
D03*
X1100000Y562500D02*
D03*
X1060000Y560000D02*
D03*
X1165000Y610000D02*
D03*
X1137500Y585000D02*
D03*
X608300Y377825D02*
D03*
X1146473Y571500D02*
D03*
X1022743Y474757D02*
D03*
X1005000Y475000D02*
D03*
X961573Y475286D02*
D03*
X1095000Y417500D02*
D03*
X1042055Y608138D02*
D03*
X1146801Y504185D02*
D03*
X1096000Y465000D02*
D03*
X1006333Y504377D02*
D03*
X876300Y317500D02*
D03*
X774700Y304800D02*
D03*
X1066800Y711200D02*
D03*
X1552042Y753500D02*
D03*
Y691407D02*
D03*
X1027500Y588000D02*
D03*
X1080000Y500000D02*
D03*
X1095000Y497500D02*
D03*
X240000Y110000D02*
D03*
X1211500Y424800D02*
D03*
X1376500Y124800D02*
D03*
X1440000Y150000D02*
D03*
X620000Y640000D02*
D03*
X510000D02*
D03*
X540000D02*
D03*
X480000D02*
D03*
X590000D02*
D03*
X850000Y550000D02*
D03*
X907500Y435000D02*
D03*
X1260000Y510000D02*
D03*
X1570000Y390000D02*
D03*
X1440000Y500000D02*
D03*
X1400000Y600000D02*
D03*
X1310000Y560000D02*
D03*
X1280000Y600000D02*
D03*
X1510000Y790000D02*
D03*
X1440000Y650000D02*
D03*
X1400000Y790000D02*
D03*
X1340000D02*
D03*
X1270000Y720000D02*
D03*
X1280000Y650000D02*
D03*
X1060000Y1030000D02*
D03*
X1090000D02*
D03*
X952500Y910300D02*
D03*
X1080000Y840000D02*
D03*
X1170000Y830000D02*
D03*
X1560000Y870000D02*
D03*
Y920000D02*
D03*
X1330000D02*
D03*
X1440000Y850000D02*
D03*
X1350000Y870000D02*
D03*
X1020000Y680000D02*
D03*
X1050000Y650000D02*
D03*
X1170000Y910000D02*
D03*
X1140000Y870000D02*
D03*
X1160000Y720000D02*
D03*
X1200000Y690000D02*
D03*
X1220000Y660000D02*
D03*
X1240000Y640000D02*
D03*
Y600000D02*
D03*
X1230000Y580000D02*
D03*
X1420000Y420000D02*
D03*
X1450000Y340000D02*
D03*
X1350000Y520000D02*
D03*
X1450000Y280000D02*
D03*
X1230000Y320000D02*
D03*
X1211500Y384800D02*
D03*
X1160000Y370000D02*
D03*
X1130300Y271700D02*
D03*
X1296500Y104800D02*
D03*
X1250000Y80000D02*
D03*
X1130000Y640000D02*
D03*
Y660000D02*
D03*
Y700000D02*
D03*
X1180000Y640000D02*
D03*
X1130000Y620000D02*
D03*
X1210000Y500000D02*
D03*
X1180000D02*
D03*
X1170000Y470000D02*
D03*
X962500Y500582D02*
D03*
X980000Y410000D02*
D03*
X990000Y400000D02*
D03*
X1040000D02*
D03*
Y420000D02*
D03*
X575000Y262500D02*
D03*
X600000Y250000D02*
D03*
X259074Y333470D02*
D03*
X293376Y308070D02*
D03*
X427604Y239660D02*
D03*
X1489710Y1098417D02*
D03*
Y1052697D02*
D03*
X1474470D02*
D03*
X1504950Y1067937D02*
D03*
Y1052697D02*
D03*
X1520190Y1098417D02*
D03*
Y1083177D02*
D03*
X1489710Y1067937D02*
D03*
X1520190D02*
D03*
X1474470Y1098417D02*
D03*
X1504950Y1083177D02*
D03*
X1520190Y1052697D02*
D03*
X1489710Y1083177D02*
D03*
X1474470Y1067937D02*
D03*
X1504950Y1098417D02*
D03*
X1474470Y1083177D02*
D03*
X1504950Y1115060D02*
D03*
X1489710D02*
D03*
X1505090Y1023620D02*
D03*
X1489850D02*
D03*
X1520330D02*
D03*
X1474610D02*
D03*
X1505090Y1008380D02*
D03*
X1489850D02*
D03*
X1520330D02*
D03*
X1474610D02*
D03*
X1505090Y993140D02*
D03*
X1489850D02*
D03*
X1520330D02*
D03*
X1474610D02*
D03*
X1505090Y977900D02*
D03*
X1489850D02*
D03*
X1520330D02*
D03*
X1474610D02*
D03*
X1489850Y967740D02*
D03*
X1505090D02*
D03*
X1257300Y1049020D02*
D03*
X1242060D02*
D03*
X1287780D02*
D03*
X1272540D02*
D03*
Y967740D02*
D03*
X1257300D02*
D03*
X1242060Y977900D02*
D03*
X1287780D02*
D03*
X1257300D02*
D03*
X1272540D02*
D03*
X1242060Y993140D02*
D03*
X1287780D02*
D03*
X1257300D02*
D03*
X1272540D02*
D03*
X1242060Y1008380D02*
D03*
X1287780D02*
D03*
X1257300D02*
D03*
X1272540D02*
D03*
X1242060Y1023620D02*
D03*
X1287780D02*
D03*
X1257300D02*
D03*
X1272540D02*
D03*
X1242060Y1064260D02*
D03*
X1287780D02*
D03*
X1257300D02*
D03*
X1272540D02*
D03*
Y1082040D02*
D03*
X1257300D02*
D03*
X1287780D02*
D03*
X1242060D02*
D03*
X673100Y499730D02*
D03*
X927100Y514350D02*
D03*
X653140Y512668D02*
D03*
X1060000Y520000D02*
D03*
X1125000Y490000D02*
D03*
X1145000D02*
D03*
X1077500Y538000D02*
D03*
X609570Y566833D02*
D03*
X577850Y577850D02*
D03*
Y539750D02*
D03*
X654050Y450850D02*
D03*
Y361950D02*
D03*
X576000Y416700D02*
D03*
X654050Y596900D02*
D03*
X558789Y485150D02*
D03*
X994400Y1108998D02*
D03*
X918200Y1109097D02*
D03*
X842000D02*
D03*
X1270000Y627375D02*
D03*
Y619875D02*
D03*
X1196340Y627260D02*
D03*
Y619760D02*
D03*
X565651Y673100D02*
D03*
X451485Y671830D02*
D03*
Y661580D02*
D03*
Y650580D02*
D03*
X565651Y652780D02*
D03*
X565785Y662215D02*
D03*
X520700Y755650D02*
D03*
X495300D02*
D03*
X1181100Y1085480D02*
D03*
X1349110Y1084950D02*
D03*
X1104900Y457200D02*
D03*
X1121000Y685800D02*
D03*
X806450Y146050D02*
D03*
Y177800D02*
D03*
X1443000Y1035000D02*
D03*
X1228000D02*
D03*
X1219000D02*
D03*
X1209000D02*
D03*
X1313168Y1035259D02*
D03*
X1305000Y1035000D02*
D03*
X316009Y110650D02*
D03*
X232383Y201061D02*
D03*
X1186500Y424800D02*
D03*
X1360000Y380000D02*
D03*
X507780Y737746D02*
D03*
X496263Y739232D02*
D03*
X520000Y740000D02*
D03*
X525798Y746476D02*
D03*
X490000Y746850D02*
D03*
X508000Y754112D02*
D03*
X1491331Y266700D02*
D03*
X1308050Y266660D02*
D03*
X1178123Y266680D02*
D03*
X853450Y266700D02*
D03*
X666750Y170180D02*
D03*
X762000Y109220D02*
D03*
X698500D02*
D03*
X1036500Y452000D02*
D03*
X876300Y814891D02*
D03*
X901700Y815350D02*
D03*
X927100Y815808D02*
D03*
X952500D02*
D03*
X1155700Y931742D02*
D03*
X1131300D02*
D03*
X1105900Y931201D02*
D03*
X1054100Y929640D02*
D03*
X1028700D02*
D03*
X1003300D02*
D03*
X1415400Y1009650D02*
D03*
X1551375Y1035050D02*
D03*
X1544038D02*
D03*
X1321250D02*
D03*
X1191214Y589326D02*
D03*
X1281520Y550000D02*
D03*
X980000Y680000D02*
D03*
X1010000Y605501D02*
D03*
X1247140Y711200D02*
D03*
X1313180Y896620D02*
D03*
X1295400D02*
D03*
X1531620D02*
D03*
X1551940D02*
D03*
X1600200Y975360D02*
D03*
Y1003300D02*
D03*
X1582420Y1089660D02*
D03*
X1600200Y1079500D02*
D03*
X1412240Y1084580D02*
D03*
X1397000Y1079500D02*
D03*
X1366182D02*
D03*
X1397000Y975360D02*
D03*
Y1003300D02*
D03*
X1366183Y975697D02*
D03*
Y1003300D02*
D03*
X1181179Y975439D02*
D03*
X1183385Y1009557D02*
D03*
X1168400Y1003300D02*
D03*
Y1079500D02*
D03*
X1135380Y1104900D02*
D03*
X1125220D02*
D03*
X939800Y845820D02*
D03*
X902067Y863233D02*
D03*
X812800Y845820D02*
D03*
X774700Y863600D02*
D03*
X508000Y746850D02*
D03*
X1381412Y1109980D02*
D03*
X1147700Y1106170D02*
D03*
X1206500Y1073150D02*
D03*
X1380950Y957150D02*
D03*
X1371600Y812730D02*
D03*
Y857250D02*
D03*
X1434500Y952500D02*
D03*
X1467900D02*
D03*
X1260000Y610000D02*
D03*
X1197423D02*
D03*
X1022350Y1098550D02*
D03*
X1136650Y990600D02*
D03*
X1416050Y1073150D02*
D03*
X1092200Y774700D02*
D03*
X1073150Y685800D02*
D03*
X997500Y660000D02*
D03*
X1237500Y515000D02*
D03*
X1167500Y457500D02*
D03*
X1237500Y550000D02*
D03*
X831850Y713450D02*
D03*
X806450D02*
D03*
X781050Y713950D02*
D03*
X755650Y714350D02*
D03*
X730250Y714750D02*
D03*
X704850Y714850D02*
D03*
X653140Y566833D02*
D03*
Y539750D02*
D03*
X673100Y552450D02*
D03*
X654050Y393700D02*
D03*
Y419100D02*
D03*
X582470Y504050D02*
D03*
X1397000Y184150D02*
D03*
X1079500Y254000D02*
D03*
Y184150D02*
D03*
X755650Y260350D02*
D03*
Y228600D02*
D03*
X1397000Y260350D02*
D03*
X869950Y158750D02*
D03*
X908050D02*
D03*
X608300Y274350D02*
D03*
Y331500D02*
D03*
X476250Y336550D02*
D03*
X460700Y292100D02*
D03*
X430850Y186850D02*
D03*
X457200Y196850D02*
D03*
Y222250D02*
D03*
X1192500Y565000D02*
D03*
X807500Y560000D02*
D03*
X1032500Y387500D02*
D03*
X1067500Y352500D02*
D03*
X136964Y233943D02*
D03*
X185049Y227404D02*
D03*
X341950Y110650D02*
D03*
X1130300Y1009650D02*
D03*
X440534Y123350D02*
D03*
X328500Y167050D02*
D03*
X430700Y314000D02*
D03*
X280834Y233943D02*
D03*
X137001Y324943D02*
D03*
X176850Y233943D02*
D03*
X138750Y142943D02*
D03*
X94300Y205900D02*
D03*
Y263050D02*
D03*
X1537250Y169800D02*
D03*
X1582556Y169500D02*
D03*
X1582309Y240240D02*
D03*
Y266240D02*
D03*
X1581050Y292700D02*
D03*
X1269143Y292660D02*
D03*
Y266660D02*
D03*
Y240660D02*
D03*
X1353550Y266700D02*
D03*
X1308050Y292700D02*
D03*
Y214700D02*
D03*
Y240700D02*
D03*
X712288Y266677D02*
D03*
X666700Y292700D02*
D03*
Y266700D02*
D03*
Y240700D02*
D03*
Y214700D02*
D03*
X581200Y358100D02*
D03*
X571200D02*
D03*
X949277Y292700D02*
D03*
X949450Y266700D02*
D03*
Y240700D02*
D03*
X989643Y240660D02*
D03*
Y214660D02*
D03*
Y292660D02*
D03*
Y266660D02*
D03*
X1036368Y266366D02*
D03*
X946150Y158750D02*
D03*
X1022350D02*
D03*
X984250D02*
D03*
X554990Y609750D02*
D03*
X232000Y227443D02*
D03*
Y240443D02*
D03*
Y266443D02*
D03*
X1536700Y1035050D02*
D03*
X1454150D02*
D03*
D151*
X361950Y1054100D02*
D03*
X488950D02*
D03*
X234950D02*
D03*
X107950D02*
D03*
D152*
X336550Y956183D02*
D03*
X387350D02*
D03*
X463550D02*
D03*
X514350D02*
D03*
X209550D02*
D03*
X260350D02*
D03*
X82550D02*
D03*
X133350D02*
D03*
D153*
X569960Y421005D02*
D03*
Y370205D02*
D03*
D154*
X470460Y395605D02*
D03*
D155*
X286113Y1123087D02*
X299313D01*
X314078Y1108322D01*
X251700Y1157500D02*
X286113Y1123087D01*
X314078Y1093082D02*
Y1108322D01*
Y1093082D02*
X353060Y1054100D01*
X361950D01*
X302500Y1157500D02*
X342400Y1117600D01*
X432291D01*
X441078Y1093082D02*
Y1108813D01*
X432291Y1117600D02*
X441078Y1108813D01*
Y1093082D02*
X480060Y1054100D01*
X488950D01*
X611550Y1109980D02*
Y1164300D01*
X687750Y1109980D02*
Y1164300D01*
D156*
X508000Y746850D02*
Y754112D01*
M02*
