G04*
G04 #@! TF.GenerationSoftware,Altium Limited,Altium Designer,25.0.2 (28)*
G04*
G04 Layer_Color=32896*
%FSLAX44Y44*%
%MOMM*%
G71*
G04*
G04 #@! TF.SameCoordinates,AC037715-0773-48B7-9E6E-B3265F142276*
G04*
G04*
G04 #@! TF.FilePolarity,Positive*
G04*
G01*
G75*
%ADD11C,0.2000*%
G36*
X354877Y1019291D02*
X354137Y1019189D01*
X354073Y1019291D01*
X353989Y1019374D01*
X353916Y1019457D01*
X353842Y1019522D01*
X353768Y1019568D01*
X353712Y1019615D01*
X353675Y1019633D01*
X353666Y1019642D01*
X353546Y1019698D01*
X353426Y1019744D01*
X353315Y1019772D01*
X353204Y1019800D01*
X353111Y1019809D01*
X353037Y1019818D01*
X352862D01*
X352751Y1019800D01*
X352556Y1019753D01*
X352390Y1019689D01*
X352242Y1019624D01*
X352131Y1019550D01*
X352048Y1019485D01*
X352002Y1019439D01*
X351983Y1019430D01*
Y1019421D01*
X351854Y1019263D01*
X351761Y1019097D01*
X351697Y1018921D01*
X351650Y1018746D01*
X351623Y1018598D01*
X351613Y1018533D01*
Y1018477D01*
X351604Y1018431D01*
Y1018394D01*
Y1018376D01*
Y1018367D01*
Y1018237D01*
X351623Y1018117D01*
X351669Y1017886D01*
X351734Y1017692D01*
X351798Y1017534D01*
X351872Y1017405D01*
X351937Y1017303D01*
X351965Y1017276D01*
X351983Y1017248D01*
X351992Y1017239D01*
X352002Y1017229D01*
X352076Y1017155D01*
X352150Y1017091D01*
X352316Y1016980D01*
X352473Y1016906D01*
X352630Y1016860D01*
X352760Y1016823D01*
X352871Y1016813D01*
X352908Y1016804D01*
X352963D01*
X353139Y1016813D01*
X353296Y1016850D01*
X353435Y1016897D01*
X353546Y1016952D01*
X353647Y1017008D01*
X353721Y1017054D01*
X353758Y1017091D01*
X353777Y1017100D01*
X353888Y1017229D01*
X353980Y1017368D01*
X354054Y1017525D01*
X354110Y1017664D01*
X354147Y1017803D01*
X354174Y1017904D01*
X354184Y1017951D01*
X354193Y1017978D01*
Y1017997D01*
Y1018006D01*
X355016Y1017941D01*
X354997Y1017793D01*
X354970Y1017655D01*
X354886Y1017396D01*
X354785Y1017174D01*
X354729Y1017072D01*
X354674Y1016989D01*
X354627Y1016906D01*
X354572Y1016832D01*
X354526Y1016776D01*
X354480Y1016730D01*
X354443Y1016693D01*
X354424Y1016656D01*
X354406Y1016647D01*
X354396Y1016638D01*
X354285Y1016554D01*
X354174Y1016480D01*
X354054Y1016416D01*
X353934Y1016360D01*
X353703Y1016277D01*
X353472Y1016222D01*
X353370Y1016194D01*
X353268Y1016185D01*
X353185Y1016175D01*
X353111Y1016166D01*
X353046Y1016157D01*
X352963D01*
X352769Y1016166D01*
X352584Y1016194D01*
X352408Y1016231D01*
X352251Y1016277D01*
X352103Y1016342D01*
X351965Y1016406D01*
X351835Y1016471D01*
X351724Y1016545D01*
X351623Y1016619D01*
X351530Y1016684D01*
X351456Y1016758D01*
X351391Y1016813D01*
X351345Y1016860D01*
X351308Y1016897D01*
X351290Y1016924D01*
X351281Y1016934D01*
X351188Y1017054D01*
X351114Y1017183D01*
X351040Y1017303D01*
X350985Y1017433D01*
X350892Y1017682D01*
X350837Y1017923D01*
X350818Y1018025D01*
X350800Y1018126D01*
X350791Y1018209D01*
X350781Y1018283D01*
X350772Y1018348D01*
Y1018394D01*
Y1018422D01*
Y1018431D01*
X350781Y1018598D01*
X350800Y1018755D01*
X350827Y1018912D01*
X350864Y1019051D01*
X350911Y1019180D01*
X350957Y1019310D01*
X351012Y1019421D01*
X351059Y1019522D01*
X351114Y1019615D01*
X351170Y1019698D01*
X351216Y1019763D01*
X351262Y1019827D01*
X351299Y1019874D01*
X351327Y1019901D01*
X351345Y1019920D01*
X351354Y1019929D01*
X351465Y1020031D01*
X351576Y1020123D01*
X351697Y1020197D01*
X351817Y1020262D01*
X351937Y1020327D01*
X352057Y1020373D01*
X352279Y1020438D01*
X352381Y1020465D01*
X352473Y1020484D01*
X352556Y1020493D01*
X352630Y1020502D01*
X352686Y1020511D01*
X352889D01*
X353000Y1020493D01*
X353222Y1020447D01*
X353426Y1020382D01*
X353610Y1020308D01*
X353758Y1020234D01*
X353823Y1020197D01*
X353879Y1020170D01*
X353925Y1020142D01*
X353953Y1020123D01*
X353971Y1020114D01*
X353980Y1020105D01*
X353638Y1021834D01*
X351077D01*
Y1022583D01*
X354258D01*
X354877Y1019291D01*
D02*
G37*
G36*
X359213Y1022758D02*
X359509Y1022712D01*
X359777Y1022647D01*
X359897Y1022610D01*
X360018Y1022573D01*
X360119Y1022536D01*
X360212Y1022499D01*
X360286Y1022462D01*
X360350Y1022435D01*
X360406Y1022407D01*
X360443Y1022388D01*
X360471Y1022379D01*
X360480Y1022370D01*
X360730Y1022204D01*
X360942Y1022009D01*
X361136Y1021815D01*
X361284Y1021630D01*
X361414Y1021455D01*
X361460Y1021381D01*
X361497Y1021316D01*
X361534Y1021260D01*
X361552Y1021224D01*
X361562Y1021196D01*
X361571Y1021187D01*
X361700Y1020891D01*
X361793Y1020585D01*
X361857Y1020299D01*
X361904Y1020031D01*
X361922Y1019911D01*
X361931Y1019800D01*
X361941Y1019698D01*
Y1019615D01*
X361950Y1019550D01*
Y1019504D01*
Y1019467D01*
Y1019457D01*
X361931Y1019116D01*
X361894Y1018792D01*
X361857Y1018635D01*
X361830Y1018496D01*
X361793Y1018367D01*
X361756Y1018246D01*
X361728Y1018135D01*
X361691Y1018034D01*
X361654Y1017951D01*
X361626Y1017877D01*
X361608Y1017821D01*
X361589Y1017784D01*
X361571Y1017756D01*
Y1017747D01*
X361414Y1017479D01*
X361238Y1017248D01*
X361062Y1017044D01*
X360887Y1016878D01*
X360730Y1016749D01*
X360665Y1016693D01*
X360600Y1016647D01*
X360554Y1016619D01*
X360517Y1016591D01*
X360498Y1016582D01*
X360489Y1016573D01*
X360350Y1016499D01*
X360221Y1016434D01*
X359944Y1016332D01*
X359676Y1016259D01*
X359435Y1016212D01*
X359324Y1016194D01*
X359222Y1016175D01*
X359130Y1016166D01*
X359056D01*
X358991Y1016157D01*
X358908D01*
X358751Y1016166D01*
X358594Y1016175D01*
X358298Y1016222D01*
X358030Y1016286D01*
X357910Y1016323D01*
X357799Y1016360D01*
X357697Y1016397D01*
X357605Y1016425D01*
X357531Y1016462D01*
X357457Y1016490D01*
X357410Y1016517D01*
X357364Y1016536D01*
X357346Y1016554D01*
X357336D01*
X357078Y1016369D01*
X356828Y1016203D01*
X356597Y1016074D01*
X356393Y1015963D01*
X356301Y1015917D01*
X356218Y1015880D01*
X356144Y1015843D01*
X356079Y1015815D01*
X356024Y1015796D01*
X355987Y1015778D01*
X355968Y1015769D01*
X355959D01*
X355709Y1016351D01*
X355894Y1016434D01*
X356088Y1016517D01*
X356273Y1016619D01*
X356440Y1016721D01*
X356578Y1016804D01*
X356643Y1016841D01*
X356689Y1016878D01*
X356735Y1016906D01*
X356763Y1016924D01*
X356782Y1016943D01*
X356791D01*
X356624Y1017128D01*
X356477Y1017313D01*
X356347Y1017497D01*
X356245Y1017673D01*
X356171Y1017821D01*
X356144Y1017886D01*
X356116Y1017941D01*
X356097Y1017978D01*
X356079Y1018015D01*
X356070Y1018034D01*
Y1018043D01*
X355987Y1018283D01*
X355931Y1018533D01*
X355885Y1018773D01*
X355857Y1018995D01*
X355848Y1019088D01*
X355839Y1019180D01*
Y1019263D01*
X355829Y1019337D01*
Y1019393D01*
Y1019430D01*
Y1019457D01*
Y1019467D01*
X355848Y1019809D01*
X355885Y1020133D01*
X355913Y1020280D01*
X355950Y1020419D01*
X355987Y1020548D01*
X356014Y1020669D01*
X356051Y1020780D01*
X356088Y1020881D01*
X356116Y1020965D01*
X356153Y1021039D01*
X356171Y1021094D01*
X356190Y1021131D01*
X356208Y1021159D01*
Y1021168D01*
X356356Y1021436D01*
X356532Y1021676D01*
X356717Y1021880D01*
X356883Y1022046D01*
X357041Y1022176D01*
X357115Y1022231D01*
X357170Y1022278D01*
X357225Y1022305D01*
X357262Y1022333D01*
X357281Y1022342D01*
X357290Y1022351D01*
X357429Y1022425D01*
X357568Y1022490D01*
X357836Y1022601D01*
X358113Y1022675D01*
X358354Y1022721D01*
X358464Y1022740D01*
X358575Y1022758D01*
X358659Y1022767D01*
X358742D01*
X358806Y1022777D01*
X359056D01*
X359213Y1022758D01*
D02*
G37*
G36*
X481960Y1021824D02*
X478826D01*
X479048Y1021556D01*
X479261Y1021270D01*
X479445Y1020992D01*
X479621Y1020724D01*
X479695Y1020604D01*
X479760Y1020493D01*
X479825Y1020391D01*
X479871Y1020308D01*
X479908Y1020234D01*
X479935Y1020188D01*
X479954Y1020151D01*
X479963Y1020142D01*
X480148Y1019772D01*
X480315Y1019402D01*
X480453Y1019051D01*
X480509Y1018894D01*
X480564Y1018736D01*
X480620Y1018598D01*
X480657Y1018468D01*
X480694Y1018357D01*
X480721Y1018265D01*
X480749Y1018182D01*
X480768Y1018126D01*
X480777Y1018089D01*
Y1018080D01*
X480869Y1017701D01*
X480906Y1017516D01*
X480934Y1017350D01*
X480962Y1017192D01*
X480989Y1017035D01*
X481008Y1016906D01*
X481026Y1016776D01*
X481036Y1016665D01*
X481045Y1016564D01*
X481054Y1016471D01*
Y1016397D01*
X481063Y1016342D01*
Y1016305D01*
Y1016277D01*
Y1016268D01*
X480259D01*
X480231Y1016619D01*
X480185Y1016943D01*
X480139Y1017239D01*
X480111Y1017377D01*
X480084Y1017507D01*
X480065Y1017618D01*
X480037Y1017719D01*
X480019Y1017812D01*
X480000Y1017886D01*
X479982Y1017941D01*
X479972Y1017988D01*
X479963Y1018015D01*
Y1018025D01*
X479825Y1018450D01*
X479677Y1018847D01*
X479603Y1019042D01*
X479529Y1019226D01*
X479445Y1019393D01*
X479372Y1019559D01*
X479307Y1019707D01*
X479242Y1019837D01*
X479187Y1019948D01*
X479140Y1020049D01*
X479094Y1020133D01*
X479067Y1020188D01*
X479048Y1020225D01*
X479039Y1020234D01*
X478928Y1020428D01*
X478817Y1020622D01*
X478706Y1020798D01*
X478595Y1020965D01*
X478493Y1021113D01*
X478391Y1021260D01*
X478290Y1021390D01*
X478207Y1021501D01*
X478123Y1021612D01*
X478049Y1021704D01*
X477976Y1021778D01*
X477920Y1021843D01*
X477883Y1021898D01*
X477846Y1021935D01*
X477827Y1021954D01*
X477818Y1021963D01*
Y1022583D01*
X481960D01*
Y1021824D01*
D02*
G37*
G36*
X486213Y1022758D02*
X486509Y1022712D01*
X486777Y1022647D01*
X486898Y1022610D01*
X487018Y1022573D01*
X487119Y1022536D01*
X487212Y1022499D01*
X487286Y1022462D01*
X487351Y1022435D01*
X487406Y1022407D01*
X487443Y1022388D01*
X487471Y1022379D01*
X487480Y1022370D01*
X487730Y1022204D01*
X487942Y1022009D01*
X488136Y1021815D01*
X488284Y1021630D01*
X488414Y1021455D01*
X488460Y1021381D01*
X488497Y1021316D01*
X488534Y1021260D01*
X488552Y1021224D01*
X488562Y1021196D01*
X488571Y1021187D01*
X488700Y1020891D01*
X488793Y1020585D01*
X488857Y1020299D01*
X488904Y1020031D01*
X488922Y1019911D01*
X488932Y1019800D01*
X488941Y1019698D01*
Y1019615D01*
X488950Y1019550D01*
Y1019504D01*
Y1019467D01*
Y1019457D01*
X488932Y1019116D01*
X488895Y1018792D01*
X488857Y1018635D01*
X488830Y1018496D01*
X488793Y1018367D01*
X488756Y1018246D01*
X488728Y1018135D01*
X488691Y1018034D01*
X488654Y1017951D01*
X488626Y1017877D01*
X488608Y1017821D01*
X488589Y1017784D01*
X488571Y1017756D01*
Y1017747D01*
X488414Y1017479D01*
X488238Y1017248D01*
X488062Y1017044D01*
X487887Y1016878D01*
X487730Y1016749D01*
X487665Y1016693D01*
X487600Y1016647D01*
X487554Y1016619D01*
X487517Y1016591D01*
X487498Y1016582D01*
X487489Y1016573D01*
X487351Y1016499D01*
X487221Y1016434D01*
X486944Y1016332D01*
X486676Y1016259D01*
X486435Y1016212D01*
X486324Y1016194D01*
X486222Y1016175D01*
X486130Y1016166D01*
X486056D01*
X485991Y1016157D01*
X485908D01*
X485751Y1016166D01*
X485594Y1016175D01*
X485298Y1016222D01*
X485030Y1016286D01*
X484910Y1016323D01*
X484799Y1016360D01*
X484697Y1016397D01*
X484605Y1016425D01*
X484531Y1016462D01*
X484457Y1016490D01*
X484410Y1016517D01*
X484364Y1016536D01*
X484346Y1016554D01*
X484336D01*
X484078Y1016369D01*
X483828Y1016203D01*
X483597Y1016074D01*
X483393Y1015963D01*
X483301Y1015917D01*
X483218Y1015880D01*
X483144Y1015843D01*
X483079Y1015815D01*
X483024Y1015796D01*
X482987Y1015778D01*
X482968Y1015769D01*
X482959D01*
X482709Y1016351D01*
X482894Y1016434D01*
X483088Y1016517D01*
X483273Y1016619D01*
X483440Y1016721D01*
X483578Y1016804D01*
X483643Y1016841D01*
X483689Y1016878D01*
X483736Y1016906D01*
X483763Y1016924D01*
X483782Y1016943D01*
X483791D01*
X483624Y1017128D01*
X483477Y1017313D01*
X483347Y1017497D01*
X483246Y1017673D01*
X483172Y1017821D01*
X483144Y1017886D01*
X483116Y1017941D01*
X483097Y1017978D01*
X483079Y1018015D01*
X483070Y1018034D01*
Y1018043D01*
X482987Y1018283D01*
X482931Y1018533D01*
X482885Y1018773D01*
X482857Y1018995D01*
X482848Y1019088D01*
X482839Y1019180D01*
Y1019263D01*
X482829Y1019337D01*
Y1019393D01*
Y1019430D01*
Y1019457D01*
Y1019467D01*
X482848Y1019809D01*
X482885Y1020133D01*
X482913Y1020280D01*
X482950Y1020419D01*
X482987Y1020548D01*
X483014Y1020669D01*
X483051Y1020780D01*
X483088Y1020881D01*
X483116Y1020965D01*
X483153Y1021039D01*
X483172Y1021094D01*
X483190Y1021131D01*
X483209Y1021159D01*
Y1021168D01*
X483356Y1021436D01*
X483532Y1021676D01*
X483717Y1021880D01*
X483883Y1022046D01*
X484041Y1022176D01*
X484115Y1022231D01*
X484170Y1022278D01*
X484226Y1022305D01*
X484263Y1022333D01*
X484281Y1022342D01*
X484290Y1022351D01*
X484429Y1022425D01*
X484568Y1022490D01*
X484836Y1022601D01*
X485113Y1022675D01*
X485354Y1022721D01*
X485464Y1022740D01*
X485575Y1022758D01*
X485659Y1022767D01*
X485742D01*
X485807Y1022777D01*
X486056D01*
X486213Y1022758D01*
D02*
G37*
G36*
X226278Y1022675D02*
X226527Y1022629D01*
X226740Y1022555D01*
X226925Y1022481D01*
X227008Y1022435D01*
X227073Y1022398D01*
X227138Y1022361D01*
X227184Y1022324D01*
X227221Y1022296D01*
X227248Y1022278D01*
X227267Y1022268D01*
X227276Y1022259D01*
X227452Y1022083D01*
X227591Y1021889D01*
X227701Y1021686D01*
X227794Y1021482D01*
X227849Y1021307D01*
X227877Y1021233D01*
X227896Y1021168D01*
X227905Y1021113D01*
X227914Y1021076D01*
X227923Y1021048D01*
Y1021039D01*
X227138Y1020900D01*
X227101Y1021103D01*
X227045Y1021279D01*
X226980Y1021427D01*
X226916Y1021547D01*
X226851Y1021639D01*
X226795Y1021704D01*
X226758Y1021750D01*
X226749Y1021760D01*
X226629Y1021852D01*
X226500Y1021926D01*
X226379Y1021972D01*
X226259Y1022009D01*
X226148Y1022028D01*
X226065Y1022046D01*
X225991D01*
X225825Y1022037D01*
X225677Y1022000D01*
X225547Y1021954D01*
X225436Y1021908D01*
X225353Y1021852D01*
X225288Y1021806D01*
X225242Y1021769D01*
X225233Y1021760D01*
X225131Y1021649D01*
X225057Y1021529D01*
X225011Y1021408D01*
X224974Y1021297D01*
X224956Y1021196D01*
X224937Y1021122D01*
Y1021066D01*
Y1021057D01*
Y1021048D01*
Y1020946D01*
X224956Y1020854D01*
X225002Y1020696D01*
X225067Y1020558D01*
X225140Y1020438D01*
X225214Y1020354D01*
X225279Y1020290D01*
X225325Y1020253D01*
X225335Y1020243D01*
X225344D01*
X225501Y1020160D01*
X225649Y1020096D01*
X225806Y1020049D01*
X225945Y1020022D01*
X226065Y1020003D01*
X226167Y1019985D01*
X226287D01*
X226324Y1019994D01*
X226370D01*
X226462Y1019300D01*
X226342Y1019328D01*
X226231Y1019347D01*
X226139Y1019365D01*
X226056Y1019374D01*
X225991Y1019384D01*
X225908D01*
X225714Y1019365D01*
X225538Y1019328D01*
X225381Y1019273D01*
X225251Y1019208D01*
X225150Y1019143D01*
X225076Y1019088D01*
X225030Y1019051D01*
X225011Y1019032D01*
X224891Y1018894D01*
X224798Y1018746D01*
X224734Y1018598D01*
X224697Y1018450D01*
X224669Y1018330D01*
X224660Y1018228D01*
X224650Y1018191D01*
Y1018163D01*
Y1018145D01*
Y1018135D01*
X224669Y1017932D01*
X224715Y1017747D01*
X224771Y1017590D01*
X224845Y1017451D01*
X224918Y1017340D01*
X224974Y1017257D01*
X225020Y1017202D01*
X225039Y1017183D01*
X225187Y1017054D01*
X225344Y1016961D01*
X225501Y1016897D01*
X225649Y1016850D01*
X225778Y1016823D01*
X225880Y1016813D01*
X225917Y1016804D01*
X225972D01*
X226139Y1016813D01*
X226296Y1016850D01*
X226435Y1016897D01*
X226546Y1016952D01*
X226638Y1016998D01*
X226712Y1017044D01*
X226749Y1017081D01*
X226768Y1017091D01*
X226879Y1017220D01*
X226971Y1017368D01*
X227054Y1017525D01*
X227119Y1017692D01*
X227165Y1017830D01*
X227184Y1017895D01*
X227193Y1017951D01*
X227202Y1017997D01*
X227211Y1018034D01*
X227221Y1018052D01*
Y1018062D01*
X228007Y1017960D01*
X227988Y1017812D01*
X227960Y1017673D01*
X227877Y1017414D01*
X227775Y1017192D01*
X227720Y1017100D01*
X227665Y1017008D01*
X227609Y1016924D01*
X227554Y1016860D01*
X227507Y1016795D01*
X227461Y1016749D01*
X227433Y1016712D01*
X227406Y1016684D01*
X227387Y1016665D01*
X227378Y1016656D01*
X227267Y1016573D01*
X227156Y1016490D01*
X227045Y1016425D01*
X226925Y1016369D01*
X226694Y1016277D01*
X226472Y1016222D01*
X226370Y1016203D01*
X226278Y1016185D01*
X226194Y1016175D01*
X226120Y1016166D01*
X226065Y1016157D01*
X225982D01*
X225806Y1016166D01*
X225649Y1016185D01*
X225492Y1016212D01*
X225344Y1016249D01*
X225205Y1016296D01*
X225085Y1016342D01*
X224965Y1016397D01*
X224863Y1016453D01*
X224761Y1016499D01*
X224678Y1016554D01*
X224604Y1016601D01*
X224549Y1016647D01*
X224503Y1016684D01*
X224466Y1016712D01*
X224447Y1016730D01*
X224438Y1016739D01*
X224327Y1016850D01*
X224234Y1016971D01*
X224151Y1017091D01*
X224077Y1017211D01*
X224022Y1017322D01*
X223966Y1017442D01*
X223892Y1017664D01*
X223874Y1017766D01*
X223855Y1017858D01*
X223837Y1017941D01*
X223827Y1018015D01*
X223818Y1018071D01*
Y1018117D01*
Y1018145D01*
Y1018154D01*
X223827Y1018376D01*
X223864Y1018579D01*
X223920Y1018755D01*
X223976Y1018903D01*
X224031Y1019023D01*
X224086Y1019116D01*
X224123Y1019171D01*
X224133Y1019189D01*
X224262Y1019328D01*
X224401Y1019448D01*
X224549Y1019541D01*
X224697Y1019615D01*
X224826Y1019670D01*
X224928Y1019707D01*
X224965Y1019716D01*
X224993Y1019726D01*
X225011Y1019735D01*
X225020D01*
X224863Y1019818D01*
X224734Y1019901D01*
X224623Y1019994D01*
X224530Y1020077D01*
X224456Y1020151D01*
X224401Y1020216D01*
X224373Y1020253D01*
X224364Y1020271D01*
X224290Y1020401D01*
X224234Y1020530D01*
X224188Y1020659D01*
X224160Y1020780D01*
X224142Y1020881D01*
X224133Y1020955D01*
Y1021011D01*
Y1021029D01*
X224142Y1021187D01*
X224170Y1021344D01*
X224207Y1021482D01*
X224253Y1021602D01*
X224299Y1021704D01*
X224336Y1021787D01*
X224364Y1021834D01*
X224373Y1021852D01*
X224466Y1021991D01*
X224576Y1022111D01*
X224687Y1022213D01*
X224798Y1022305D01*
X224891Y1022370D01*
X224974Y1022425D01*
X225030Y1022453D01*
X225039Y1022462D01*
X225048D01*
X225214Y1022536D01*
X225381Y1022592D01*
X225547Y1022638D01*
X225695Y1022666D01*
X225815Y1022684D01*
X225917Y1022693D01*
X226148D01*
X226278Y1022675D01*
D02*
G37*
G36*
X232213Y1022758D02*
X232509Y1022712D01*
X232777Y1022647D01*
X232897Y1022610D01*
X233018Y1022573D01*
X233119Y1022536D01*
X233212Y1022499D01*
X233286Y1022462D01*
X233351Y1022435D01*
X233406Y1022407D01*
X233443Y1022388D01*
X233471Y1022379D01*
X233480Y1022370D01*
X233730Y1022204D01*
X233942Y1022009D01*
X234136Y1021815D01*
X234284Y1021630D01*
X234414Y1021455D01*
X234460Y1021381D01*
X234497Y1021316D01*
X234534Y1021260D01*
X234552Y1021224D01*
X234562Y1021196D01*
X234571Y1021187D01*
X234700Y1020891D01*
X234793Y1020585D01*
X234858Y1020299D01*
X234904Y1020031D01*
X234922Y1019911D01*
X234932Y1019800D01*
X234941Y1019698D01*
Y1019615D01*
X234950Y1019550D01*
Y1019504D01*
Y1019467D01*
Y1019457D01*
X234932Y1019116D01*
X234895Y1018792D01*
X234858Y1018635D01*
X234830Y1018496D01*
X234793Y1018367D01*
X234756Y1018246D01*
X234728Y1018135D01*
X234691Y1018034D01*
X234654Y1017951D01*
X234626Y1017877D01*
X234608Y1017821D01*
X234589Y1017784D01*
X234571Y1017756D01*
Y1017747D01*
X234414Y1017479D01*
X234238Y1017248D01*
X234062Y1017044D01*
X233887Y1016878D01*
X233730Y1016749D01*
X233665Y1016693D01*
X233600Y1016647D01*
X233554Y1016619D01*
X233517Y1016591D01*
X233498Y1016582D01*
X233489Y1016573D01*
X233351Y1016499D01*
X233221Y1016434D01*
X232944Y1016332D01*
X232676Y1016259D01*
X232435Y1016212D01*
X232324Y1016194D01*
X232222Y1016175D01*
X232130Y1016166D01*
X232056D01*
X231991Y1016157D01*
X231908D01*
X231751Y1016166D01*
X231594Y1016175D01*
X231298Y1016222D01*
X231030Y1016286D01*
X230910Y1016323D01*
X230799Y1016360D01*
X230697Y1016397D01*
X230605Y1016425D01*
X230531Y1016462D01*
X230457Y1016490D01*
X230410Y1016517D01*
X230364Y1016536D01*
X230346Y1016554D01*
X230336D01*
X230078Y1016369D01*
X229828Y1016203D01*
X229597Y1016074D01*
X229393Y1015963D01*
X229301Y1015917D01*
X229218Y1015880D01*
X229144Y1015843D01*
X229079Y1015815D01*
X229024Y1015796D01*
X228987Y1015778D01*
X228968Y1015769D01*
X228959D01*
X228709Y1016351D01*
X228894Y1016434D01*
X229088Y1016517D01*
X229273Y1016619D01*
X229440Y1016721D01*
X229578Y1016804D01*
X229643Y1016841D01*
X229689Y1016878D01*
X229736Y1016906D01*
X229763Y1016924D01*
X229782Y1016943D01*
X229791D01*
X229625Y1017128D01*
X229477Y1017313D01*
X229347Y1017497D01*
X229245Y1017673D01*
X229172Y1017821D01*
X229144Y1017886D01*
X229116Y1017941D01*
X229097Y1017978D01*
X229079Y1018015D01*
X229070Y1018034D01*
Y1018043D01*
X228987Y1018283D01*
X228931Y1018533D01*
X228885Y1018773D01*
X228857Y1018995D01*
X228848Y1019088D01*
X228839Y1019180D01*
Y1019263D01*
X228829Y1019337D01*
Y1019393D01*
Y1019430D01*
Y1019457D01*
Y1019467D01*
X228848Y1019809D01*
X228885Y1020133D01*
X228913Y1020280D01*
X228950Y1020419D01*
X228987Y1020548D01*
X229014Y1020669D01*
X229051Y1020780D01*
X229088Y1020881D01*
X229116Y1020965D01*
X229153Y1021039D01*
X229172Y1021094D01*
X229190Y1021131D01*
X229209Y1021159D01*
Y1021168D01*
X229356Y1021436D01*
X229532Y1021676D01*
X229717Y1021880D01*
X229883Y1022046D01*
X230041Y1022176D01*
X230115Y1022231D01*
X230170Y1022278D01*
X230226Y1022305D01*
X230263Y1022333D01*
X230281Y1022342D01*
X230290Y1022351D01*
X230429Y1022425D01*
X230568Y1022490D01*
X230836Y1022601D01*
X231113Y1022675D01*
X231353Y1022721D01*
X231464Y1022740D01*
X231575Y1022758D01*
X231659Y1022767D01*
X231742D01*
X231807Y1022777D01*
X232056D01*
X232213Y1022758D01*
D02*
G37*
G36*
X98658Y1022536D02*
X98760Y1022388D01*
X98880Y1022241D01*
X98991Y1022111D01*
X99102Y1022000D01*
X99185Y1021908D01*
X99222Y1021880D01*
X99250Y1021852D01*
X99259Y1021843D01*
X99268Y1021834D01*
X99462Y1021676D01*
X99657Y1021529D01*
X99842Y1021399D01*
X100027Y1021297D01*
X100184Y1021205D01*
X100248Y1021168D01*
X100304Y1021140D01*
X100350Y1021113D01*
X100387Y1021103D01*
X100406Y1021085D01*
X100415D01*
Y1020327D01*
X100276Y1020382D01*
X100138Y1020447D01*
X99999Y1020511D01*
X99869Y1020576D01*
X99758Y1020632D01*
X99666Y1020678D01*
X99611Y1020715D01*
X99601Y1020724D01*
X99592D01*
X99426Y1020826D01*
X99278Y1020928D01*
X99148Y1021020D01*
X99046Y1021103D01*
X98954Y1021168D01*
X98899Y1021224D01*
X98852Y1021260D01*
X98843Y1021270D01*
Y1016268D01*
X98057D01*
Y1022693D01*
X98566D01*
X98658Y1022536D01*
D02*
G37*
G36*
X105213Y1022758D02*
X105509Y1022712D01*
X105777Y1022647D01*
X105898Y1022610D01*
X106018Y1022573D01*
X106119Y1022536D01*
X106212Y1022499D01*
X106286Y1022462D01*
X106350Y1022435D01*
X106406Y1022407D01*
X106443Y1022388D01*
X106471Y1022379D01*
X106480Y1022370D01*
X106730Y1022204D01*
X106942Y1022009D01*
X107136Y1021815D01*
X107284Y1021630D01*
X107414Y1021455D01*
X107460Y1021381D01*
X107497Y1021316D01*
X107534Y1021260D01*
X107552Y1021224D01*
X107562Y1021196D01*
X107571Y1021187D01*
X107700Y1020891D01*
X107793Y1020585D01*
X107858Y1020299D01*
X107904Y1020031D01*
X107922Y1019911D01*
X107931Y1019800D01*
X107941Y1019698D01*
Y1019615D01*
X107950Y1019550D01*
Y1019504D01*
Y1019467D01*
Y1019457D01*
X107931Y1019116D01*
X107894Y1018792D01*
X107858Y1018635D01*
X107830Y1018496D01*
X107793Y1018367D01*
X107756Y1018246D01*
X107728Y1018135D01*
X107691Y1018034D01*
X107654Y1017951D01*
X107626Y1017877D01*
X107608Y1017821D01*
X107589Y1017784D01*
X107571Y1017756D01*
Y1017747D01*
X107414Y1017479D01*
X107238Y1017248D01*
X107062Y1017044D01*
X106887Y1016878D01*
X106730Y1016749D01*
X106665Y1016693D01*
X106600Y1016647D01*
X106554Y1016619D01*
X106517Y1016591D01*
X106498Y1016582D01*
X106489Y1016573D01*
X106350Y1016499D01*
X106221Y1016434D01*
X105944Y1016332D01*
X105676Y1016259D01*
X105435Y1016212D01*
X105324Y1016194D01*
X105223Y1016175D01*
X105130Y1016166D01*
X105056D01*
X104991Y1016157D01*
X104908D01*
X104751Y1016166D01*
X104594Y1016175D01*
X104298Y1016222D01*
X104030Y1016286D01*
X103910Y1016323D01*
X103799Y1016360D01*
X103697Y1016397D01*
X103605Y1016425D01*
X103531Y1016462D01*
X103457Y1016490D01*
X103410Y1016517D01*
X103364Y1016536D01*
X103346Y1016554D01*
X103336D01*
X103078Y1016369D01*
X102828Y1016203D01*
X102597Y1016074D01*
X102393Y1015963D01*
X102301Y1015917D01*
X102218Y1015880D01*
X102144Y1015843D01*
X102079Y1015815D01*
X102024Y1015796D01*
X101987Y1015778D01*
X101968Y1015769D01*
X101959D01*
X101709Y1016351D01*
X101894Y1016434D01*
X102088Y1016517D01*
X102273Y1016619D01*
X102440Y1016721D01*
X102578Y1016804D01*
X102643Y1016841D01*
X102689Y1016878D01*
X102736Y1016906D01*
X102763Y1016924D01*
X102782Y1016943D01*
X102791D01*
X102625Y1017128D01*
X102477Y1017313D01*
X102347Y1017497D01*
X102246Y1017673D01*
X102171Y1017821D01*
X102144Y1017886D01*
X102116Y1017941D01*
X102098Y1017978D01*
X102079Y1018015D01*
X102070Y1018034D01*
Y1018043D01*
X101987Y1018283D01*
X101931Y1018533D01*
X101885Y1018773D01*
X101857Y1018995D01*
X101848Y1019088D01*
X101839Y1019180D01*
Y1019263D01*
X101829Y1019337D01*
Y1019393D01*
Y1019430D01*
Y1019457D01*
Y1019467D01*
X101848Y1019809D01*
X101885Y1020133D01*
X101913Y1020280D01*
X101950Y1020419D01*
X101987Y1020548D01*
X102014Y1020669D01*
X102051Y1020780D01*
X102088Y1020881D01*
X102116Y1020965D01*
X102153Y1021039D01*
X102171Y1021094D01*
X102190Y1021131D01*
X102208Y1021159D01*
Y1021168D01*
X102356Y1021436D01*
X102532Y1021676D01*
X102717Y1021880D01*
X102883Y1022046D01*
X103041Y1022176D01*
X103115Y1022231D01*
X103170Y1022278D01*
X103225Y1022305D01*
X103263Y1022333D01*
X103281Y1022342D01*
X103290Y1022351D01*
X103429Y1022425D01*
X103568Y1022490D01*
X103836Y1022601D01*
X104113Y1022675D01*
X104354Y1022721D01*
X104464Y1022740D01*
X104575Y1022758D01*
X104659Y1022767D01*
X104742D01*
X104806Y1022777D01*
X105056D01*
X105213Y1022758D01*
D02*
G37*
%LPC*%
G36*
X358982Y1022046D02*
X358890D01*
X358659Y1022037D01*
X358437Y1022000D01*
X358242Y1021945D01*
X358076Y1021889D01*
X357937Y1021824D01*
X357882Y1021797D01*
X357836Y1021778D01*
X357789Y1021750D01*
X357762Y1021741D01*
X357752Y1021723D01*
X357743D01*
X357568Y1021593D01*
X357410Y1021445D01*
X357272Y1021297D01*
X357161Y1021150D01*
X357078Y1021020D01*
X357013Y1020909D01*
X356994Y1020872D01*
X356976Y1020844D01*
X356967Y1020826D01*
Y1020817D01*
X356874Y1020595D01*
X356809Y1020364D01*
X356763Y1020133D01*
X356735Y1019920D01*
X356717Y1019827D01*
X356708Y1019735D01*
Y1019661D01*
X356698Y1019587D01*
Y1019531D01*
Y1019494D01*
Y1019467D01*
Y1019457D01*
X356708Y1019208D01*
X356726Y1018977D01*
X356763Y1018764D01*
X356819Y1018561D01*
X356874Y1018385D01*
X356939Y1018219D01*
X357004Y1018062D01*
X357068Y1017923D01*
X357142Y1017803D01*
X357207Y1017701D01*
X357272Y1017618D01*
X357327Y1017544D01*
X357373Y1017488D01*
X357410Y1017442D01*
X357438Y1017423D01*
X357447Y1017414D01*
X357642Y1017562D01*
X357836Y1017682D01*
X358039Y1017784D01*
X358233Y1017877D01*
X358400Y1017941D01*
X358474Y1017969D01*
X358538Y1017988D01*
X358585Y1018006D01*
X358622Y1018015D01*
X358649Y1018025D01*
X358659D01*
X358871Y1017414D01*
X358705Y1017368D01*
X358548Y1017313D01*
X358409Y1017248D01*
X358279Y1017192D01*
X358178Y1017137D01*
X358095Y1017091D01*
X358048Y1017054D01*
X358030Y1017044D01*
X358178Y1016989D01*
X358335Y1016952D01*
X358474Y1016915D01*
X358612Y1016897D01*
X358723Y1016887D01*
X358806Y1016878D01*
X358890D01*
X359065Y1016887D01*
X359232Y1016906D01*
X359389Y1016943D01*
X359546Y1016980D01*
X359685Y1017035D01*
X359814Y1017091D01*
X359935Y1017146D01*
X360036Y1017211D01*
X360138Y1017276D01*
X360221Y1017331D01*
X360295Y1017386D01*
X360360Y1017442D01*
X360406Y1017479D01*
X360443Y1017516D01*
X360462Y1017534D01*
X360471Y1017544D01*
X360582Y1017673D01*
X360674Y1017821D01*
X360757Y1017969D01*
X360822Y1018126D01*
X360887Y1018283D01*
X360933Y1018440D01*
X361007Y1018755D01*
X361025Y1018894D01*
X361044Y1019032D01*
X361062Y1019152D01*
X361072Y1019254D01*
X361081Y1019337D01*
Y1019402D01*
Y1019439D01*
Y1019457D01*
X361072Y1019689D01*
X361053Y1019911D01*
X361025Y1020114D01*
X360979Y1020299D01*
X360933Y1020475D01*
X360887Y1020632D01*
X360831Y1020780D01*
X360767Y1020909D01*
X360711Y1021020D01*
X360656Y1021122D01*
X360609Y1021205D01*
X360554Y1021270D01*
X360517Y1021325D01*
X360489Y1021362D01*
X360471Y1021381D01*
X360462Y1021390D01*
X360341Y1021510D01*
X360212Y1021602D01*
X360082Y1021695D01*
X359953Y1021769D01*
X359814Y1021834D01*
X359685Y1021889D01*
X359565Y1021926D01*
X359435Y1021963D01*
X359324Y1021991D01*
X359222Y1022009D01*
X359130Y1022028D01*
X359047Y1022037D01*
X358982Y1022046D01*
D02*
G37*
G36*
X485982D02*
X485890D01*
X485659Y1022037D01*
X485437Y1022000D01*
X485243Y1021945D01*
X485076Y1021889D01*
X484937Y1021824D01*
X484882Y1021797D01*
X484836Y1021778D01*
X484790Y1021750D01*
X484762Y1021741D01*
X484753Y1021723D01*
X484743D01*
X484568Y1021593D01*
X484410Y1021445D01*
X484272Y1021297D01*
X484161Y1021150D01*
X484078Y1021020D01*
X484013Y1020909D01*
X483994Y1020872D01*
X483976Y1020844D01*
X483967Y1020826D01*
Y1020817D01*
X483874Y1020595D01*
X483809Y1020364D01*
X483763Y1020133D01*
X483736Y1019920D01*
X483717Y1019827D01*
X483708Y1019735D01*
Y1019661D01*
X483699Y1019587D01*
Y1019531D01*
Y1019494D01*
Y1019467D01*
Y1019457D01*
X483708Y1019208D01*
X483726Y1018977D01*
X483763Y1018764D01*
X483819Y1018561D01*
X483874Y1018385D01*
X483939Y1018219D01*
X484004Y1018062D01*
X484068Y1017923D01*
X484142Y1017803D01*
X484207Y1017701D01*
X484272Y1017618D01*
X484327Y1017544D01*
X484373Y1017488D01*
X484410Y1017442D01*
X484438Y1017423D01*
X484447Y1017414D01*
X484642Y1017562D01*
X484836Y1017682D01*
X485039Y1017784D01*
X485233Y1017877D01*
X485400Y1017941D01*
X485474Y1017969D01*
X485538Y1017988D01*
X485585Y1018006D01*
X485622Y1018015D01*
X485649Y1018025D01*
X485659D01*
X485871Y1017414D01*
X485705Y1017368D01*
X485548Y1017313D01*
X485409Y1017248D01*
X485280Y1017192D01*
X485178Y1017137D01*
X485095Y1017091D01*
X485048Y1017054D01*
X485030Y1017044D01*
X485178Y1016989D01*
X485335Y1016952D01*
X485474Y1016915D01*
X485612Y1016897D01*
X485723Y1016887D01*
X485807Y1016878D01*
X485890D01*
X486065Y1016887D01*
X486232Y1016906D01*
X486389Y1016943D01*
X486546Y1016980D01*
X486685Y1017035D01*
X486814Y1017091D01*
X486935Y1017146D01*
X487036Y1017211D01*
X487138Y1017276D01*
X487221Y1017331D01*
X487295Y1017386D01*
X487360Y1017442D01*
X487406Y1017479D01*
X487443Y1017516D01*
X487462Y1017534D01*
X487471Y1017544D01*
X487582Y1017673D01*
X487674Y1017821D01*
X487757Y1017969D01*
X487822Y1018126D01*
X487887Y1018283D01*
X487933Y1018440D01*
X488007Y1018755D01*
X488025Y1018894D01*
X488044Y1019032D01*
X488062Y1019152D01*
X488072Y1019254D01*
X488081Y1019337D01*
Y1019402D01*
Y1019439D01*
Y1019457D01*
X488072Y1019689D01*
X488053Y1019911D01*
X488025Y1020114D01*
X487979Y1020299D01*
X487933Y1020475D01*
X487887Y1020632D01*
X487831Y1020780D01*
X487767Y1020909D01*
X487711Y1021020D01*
X487656Y1021122D01*
X487609Y1021205D01*
X487554Y1021270D01*
X487517Y1021325D01*
X487489Y1021362D01*
X487471Y1021381D01*
X487462Y1021390D01*
X487341Y1021510D01*
X487212Y1021602D01*
X487082Y1021695D01*
X486953Y1021769D01*
X486814Y1021834D01*
X486685Y1021889D01*
X486565Y1021926D01*
X486435Y1021963D01*
X486324Y1021991D01*
X486222Y1022009D01*
X486130Y1022028D01*
X486047Y1022037D01*
X485982Y1022046D01*
D02*
G37*
G36*
X231982D02*
X231890D01*
X231659Y1022037D01*
X231437Y1022000D01*
X231243Y1021945D01*
X231076Y1021889D01*
X230937Y1021824D01*
X230882Y1021797D01*
X230836Y1021778D01*
X230790Y1021750D01*
X230762Y1021741D01*
X230753Y1021723D01*
X230743D01*
X230568Y1021593D01*
X230410Y1021445D01*
X230272Y1021297D01*
X230161Y1021150D01*
X230078Y1021020D01*
X230013Y1020909D01*
X229994Y1020872D01*
X229976Y1020844D01*
X229967Y1020826D01*
Y1020817D01*
X229874Y1020595D01*
X229809Y1020364D01*
X229763Y1020133D01*
X229736Y1019920D01*
X229717Y1019827D01*
X229708Y1019735D01*
Y1019661D01*
X229699Y1019587D01*
Y1019531D01*
Y1019494D01*
Y1019467D01*
Y1019457D01*
X229708Y1019208D01*
X229726Y1018977D01*
X229763Y1018764D01*
X229819Y1018561D01*
X229874Y1018385D01*
X229939Y1018219D01*
X230004Y1018062D01*
X230068Y1017923D01*
X230142Y1017803D01*
X230207Y1017701D01*
X230272Y1017618D01*
X230327Y1017544D01*
X230373Y1017488D01*
X230410Y1017442D01*
X230438Y1017423D01*
X230447Y1017414D01*
X230642Y1017562D01*
X230836Y1017682D01*
X231039Y1017784D01*
X231233Y1017877D01*
X231400Y1017941D01*
X231474Y1017969D01*
X231538Y1017988D01*
X231585Y1018006D01*
X231622Y1018015D01*
X231649Y1018025D01*
X231659D01*
X231871Y1017414D01*
X231705Y1017368D01*
X231548Y1017313D01*
X231409Y1017248D01*
X231280Y1017192D01*
X231178Y1017137D01*
X231095Y1017091D01*
X231048Y1017054D01*
X231030Y1017044D01*
X231178Y1016989D01*
X231335Y1016952D01*
X231474Y1016915D01*
X231612Y1016897D01*
X231723Y1016887D01*
X231807Y1016878D01*
X231890D01*
X232065Y1016887D01*
X232232Y1016906D01*
X232389Y1016943D01*
X232546Y1016980D01*
X232685Y1017035D01*
X232814Y1017091D01*
X232934Y1017146D01*
X233036Y1017211D01*
X233138Y1017276D01*
X233221Y1017331D01*
X233295Y1017386D01*
X233360Y1017442D01*
X233406Y1017479D01*
X233443Y1017516D01*
X233461Y1017534D01*
X233471Y1017544D01*
X233582Y1017673D01*
X233674Y1017821D01*
X233757Y1017969D01*
X233822Y1018126D01*
X233887Y1018283D01*
X233933Y1018440D01*
X234007Y1018755D01*
X234025Y1018894D01*
X234044Y1019032D01*
X234062Y1019152D01*
X234072Y1019254D01*
X234081Y1019337D01*
Y1019402D01*
Y1019439D01*
Y1019457D01*
X234072Y1019689D01*
X234053Y1019911D01*
X234025Y1020114D01*
X233979Y1020299D01*
X233933Y1020475D01*
X233887Y1020632D01*
X233831Y1020780D01*
X233767Y1020909D01*
X233711Y1021020D01*
X233656Y1021122D01*
X233609Y1021205D01*
X233554Y1021270D01*
X233517Y1021325D01*
X233489Y1021362D01*
X233471Y1021381D01*
X233461Y1021390D01*
X233341Y1021510D01*
X233212Y1021602D01*
X233082Y1021695D01*
X232953Y1021769D01*
X232814Y1021834D01*
X232685Y1021889D01*
X232565Y1021926D01*
X232435Y1021963D01*
X232324Y1021991D01*
X232222Y1022009D01*
X232130Y1022028D01*
X232047Y1022037D01*
X231982Y1022046D01*
D02*
G37*
G36*
X104982D02*
X104890D01*
X104659Y1022037D01*
X104437Y1022000D01*
X104242Y1021945D01*
X104076Y1021889D01*
X103937Y1021824D01*
X103882Y1021797D01*
X103836Y1021778D01*
X103790Y1021750D01*
X103762Y1021741D01*
X103752Y1021723D01*
X103743D01*
X103568Y1021593D01*
X103410Y1021445D01*
X103272Y1021297D01*
X103161Y1021150D01*
X103078Y1021020D01*
X103013Y1020909D01*
X102994Y1020872D01*
X102976Y1020844D01*
X102967Y1020826D01*
Y1020817D01*
X102874Y1020595D01*
X102809Y1020364D01*
X102763Y1020133D01*
X102736Y1019920D01*
X102717Y1019827D01*
X102708Y1019735D01*
Y1019661D01*
X102698Y1019587D01*
Y1019531D01*
Y1019494D01*
Y1019467D01*
Y1019457D01*
X102708Y1019208D01*
X102726Y1018977D01*
X102763Y1018764D01*
X102819Y1018561D01*
X102874Y1018385D01*
X102939Y1018219D01*
X103004Y1018062D01*
X103068Y1017923D01*
X103142Y1017803D01*
X103207Y1017701D01*
X103272Y1017618D01*
X103327Y1017544D01*
X103373Y1017488D01*
X103410Y1017442D01*
X103438Y1017423D01*
X103447Y1017414D01*
X103642Y1017562D01*
X103836Y1017682D01*
X104039Y1017784D01*
X104233Y1017877D01*
X104400Y1017941D01*
X104474Y1017969D01*
X104538Y1017988D01*
X104585Y1018006D01*
X104622Y1018015D01*
X104649Y1018025D01*
X104659D01*
X104871Y1017414D01*
X104705Y1017368D01*
X104548Y1017313D01*
X104409Y1017248D01*
X104279Y1017192D01*
X104178Y1017137D01*
X104095Y1017091D01*
X104048Y1017054D01*
X104030Y1017044D01*
X104178Y1016989D01*
X104335Y1016952D01*
X104474Y1016915D01*
X104612Y1016897D01*
X104723Y1016887D01*
X104806Y1016878D01*
X104890D01*
X105065Y1016887D01*
X105232Y1016906D01*
X105389Y1016943D01*
X105546Y1016980D01*
X105685Y1017035D01*
X105814Y1017091D01*
X105934Y1017146D01*
X106036Y1017211D01*
X106138Y1017276D01*
X106221Y1017331D01*
X106295Y1017386D01*
X106360Y1017442D01*
X106406Y1017479D01*
X106443Y1017516D01*
X106461Y1017534D01*
X106471Y1017544D01*
X106582Y1017673D01*
X106674Y1017821D01*
X106757Y1017969D01*
X106822Y1018126D01*
X106887Y1018283D01*
X106933Y1018440D01*
X107007Y1018755D01*
X107025Y1018894D01*
X107044Y1019032D01*
X107062Y1019152D01*
X107072Y1019254D01*
X107081Y1019337D01*
Y1019402D01*
Y1019439D01*
Y1019457D01*
X107072Y1019689D01*
X107053Y1019911D01*
X107025Y1020114D01*
X106979Y1020299D01*
X106933Y1020475D01*
X106887Y1020632D01*
X106831Y1020780D01*
X106767Y1020909D01*
X106711Y1021020D01*
X106656Y1021122D01*
X106609Y1021205D01*
X106554Y1021270D01*
X106517Y1021325D01*
X106489Y1021362D01*
X106471Y1021381D01*
X106461Y1021390D01*
X106341Y1021510D01*
X106212Y1021602D01*
X106082Y1021695D01*
X105953Y1021769D01*
X105814Y1021834D01*
X105685Y1021889D01*
X105565Y1021926D01*
X105435Y1021963D01*
X105324Y1021991D01*
X105223Y1022009D01*
X105130Y1022028D01*
X105047Y1022037D01*
X104982Y1022046D01*
D02*
G37*
%LPD*%
D11*
X418322Y933720D02*
Y1101582D01*
X305578Y933720D02*
X418322D01*
X305578D02*
Y1101582D01*
X418322D01*
X545322Y933720D02*
Y1101582D01*
X432578Y933720D02*
X545322D01*
X432578D02*
Y1101582D01*
X545322D01*
X291322Y933720D02*
Y1101582D01*
X178578Y933720D02*
X291322D01*
X178578D02*
Y1101582D01*
X291322D01*
X164322Y933720D02*
Y1101582D01*
X51578Y933720D02*
X164322D01*
X51578D02*
Y1101582D01*
X164322D01*
M02*
