G04*
G04 #@! TF.GenerationSoftware,Altium Limited,Altium Designer,25.0.2 (28)*
G04*
G04 Layer_Color=128*
%FSLAX44Y44*%
%MOMM*%
G71*
G04*
G04 #@! TF.SameCoordinates,AC037715-0773-48B7-9E6E-B3265F142276*
G04*
G04*
G04 #@! TF.FilePolarity,Positive*
G04*
G01*
G75*
%ADD12C,0.1270*%
D12*
X451200Y84800D02*
X463200D01*
X457200Y78800D02*
Y90800D01*
X489300Y84800D02*
X501300D01*
X495300Y78800D02*
Y90800D01*
X527400Y84800D02*
X539400D01*
X533400Y78800D02*
Y90800D01*
X565500Y84800D02*
X577500D01*
X571500Y78800D02*
Y90800D01*
X603600Y84800D02*
X615600D01*
X609600Y78800D02*
Y90800D01*
X641700Y84800D02*
X653700D01*
X647700Y78800D02*
Y90800D01*
X679800Y84800D02*
X691800D01*
X685800Y78800D02*
Y90800D01*
X717900Y84800D02*
X729900D01*
X723900Y78800D02*
Y90800D01*
X756000Y84800D02*
X768000D01*
X762000Y78800D02*
Y90800D01*
X794100Y84800D02*
X806100D01*
X800100Y78800D02*
Y90800D01*
X1491200Y1157500D02*
X1506200D01*
X1498700Y1150000D02*
Y1165000D01*
X1440400Y1157500D02*
X1455400D01*
X1447900Y1150000D02*
Y1165000D01*
X1389600Y1157500D02*
X1404600D01*
X1397100Y1150000D02*
Y1165000D01*
X1338800Y1157500D02*
X1353800D01*
X1346300Y1150000D02*
Y1165000D01*
X1116600Y1157500D02*
X1131600D01*
X1124100Y1150000D02*
Y1165000D01*
X1015000Y1157500D02*
X1030000D01*
X1022500Y1150000D02*
Y1165000D01*
X964200Y1157500D02*
X979200D01*
X971700Y1150000D02*
Y1165000D01*
X913400Y1157500D02*
X928400D01*
X920900Y1150000D02*
Y1165000D01*
X862600Y1157500D02*
X877600D01*
X870100Y1150000D02*
Y1165000D01*
X811800Y1157500D02*
X826800D01*
X819300Y1150000D02*
Y1165000D01*
X761000Y1157500D02*
X776000D01*
X768500Y1150000D02*
Y1165000D01*
X1065800Y1157500D02*
X1080800D01*
X1073300Y1150000D02*
Y1165000D01*
X1218200Y1157500D02*
X1233200D01*
X1225700Y1150000D02*
Y1165000D01*
X1167400Y1157500D02*
X1182400D01*
X1174900Y1150000D02*
Y1165000D01*
X447400Y1157500D02*
X462400D01*
X454900Y1150000D02*
Y1165000D01*
X142600Y1157500D02*
X157600D01*
X150100Y1150000D02*
Y1165000D01*
X193400Y1157500D02*
X208400D01*
X200900Y1150000D02*
Y1165000D01*
X244200Y1157500D02*
X259200D01*
X251700Y1150000D02*
Y1165000D01*
X295000Y1157500D02*
X310000D01*
X302500Y1150000D02*
Y1165000D01*
X345800Y1157500D02*
X360800D01*
X353300Y1150000D02*
Y1165000D01*
X396600Y1157500D02*
X411600D01*
X404100Y1150000D02*
Y1165000D01*
X498200Y1157500D02*
X513200D01*
X505700Y1150000D02*
Y1165000D01*
X94100Y762000D02*
X109100D01*
X101600Y754500D02*
Y769500D01*
X94100Y711200D02*
X109100D01*
X101600Y703700D02*
Y718700D01*
X94100Y660400D02*
X109100D01*
X101600Y652900D02*
Y667900D01*
X94100Y609600D02*
X109100D01*
X101600Y602100D02*
Y617100D01*
X94100Y558800D02*
X109100D01*
X101600Y551300D02*
Y566300D01*
X94100Y508000D02*
X109100D01*
X101600Y500500D02*
Y515500D01*
X157972Y556050D02*
X170672D01*
X164322Y549700D02*
Y562400D01*
X157972Y613200D02*
X170672D01*
X164322Y606850D02*
Y619550D01*
X157972Y714800D02*
X170672D01*
X164322Y708450D02*
Y721150D01*
X157972Y771950D02*
X170672D01*
X164322Y765600D02*
Y778300D01*
X1567700Y692600D02*
X1574700D01*
X1571200Y689100D02*
Y696100D01*
X1567700Y752400D02*
X1574700D01*
X1571200Y748900D02*
Y755900D01*
X1561000Y765500D02*
X1567000D01*
X1564000Y762500D02*
Y768500D01*
X1561000Y679500D02*
X1567000D01*
X1564000Y676500D02*
Y682500D01*
X1600000Y765500D02*
X1606000D01*
X1603000Y762500D02*
Y768500D01*
X1600000Y679500D02*
X1606000D01*
X1603000Y676500D02*
Y682500D01*
X1558200Y643720D02*
X1570200D01*
X1564200Y637720D02*
Y649720D01*
X1558200Y523320D02*
X1570200D01*
X1564200Y517320D02*
Y529320D01*
X1490400Y583520D02*
X1502400D01*
X1496400Y577520D02*
Y589520D01*
X1602300Y583520D02*
X1614300D01*
X1608300Y577520D02*
Y589520D01*
X1564200Y571021D02*
X1573200D01*
X1568700Y566521D02*
Y575521D01*
X1564200Y596020D02*
X1573200D01*
X1568700Y591520D02*
Y600520D01*
X1532200Y571021D02*
X1541200D01*
X1536700Y566521D02*
Y575521D01*
X1532200Y596020D02*
X1541200D01*
X1536700Y591520D02*
Y600520D01*
X965200Y692500D02*
X975200D01*
X970200Y687500D02*
Y697500D01*
X914400Y692500D02*
X924400D01*
X919400Y687500D02*
Y697500D01*
X939800Y692500D02*
X949800D01*
X944800Y687500D02*
Y697500D01*
X990600Y692500D02*
X1000600D01*
X995600Y687500D02*
Y697500D01*
X206500Y148443D02*
X216500D01*
X211500Y143443D02*
Y153443D01*
X156500Y148443D02*
X166500D01*
X161500Y143443D02*
Y153443D01*
X181500Y98443D02*
X191500D01*
X186500Y93443D02*
Y103443D01*
X176883Y310025D02*
X186883D01*
X181883Y305025D02*
Y315025D01*
X151883Y360026D02*
X161883D01*
X156883Y355026D02*
Y365026D01*
X201882Y360026D02*
X211882D01*
X206882Y355026D02*
Y365026D01*
X300082Y365026D02*
X310082D01*
X305082Y360026D02*
Y370026D01*
X325083Y315026D02*
X335083D01*
X330083Y310026D02*
Y320026D01*
X275083Y315026D02*
X285083D01*
X280083Y310026D02*
Y320026D01*
X298500Y98443D02*
X308500D01*
X303500Y93443D02*
Y103443D01*
X273500Y148443D02*
X283500D01*
X278500Y143443D02*
Y153443D01*
X323500Y148443D02*
X333500D01*
X328500Y143443D02*
Y153443D01*
X54000Y70000D02*
X86000D01*
X70000Y54000D02*
Y86000D01*
X863950Y84800D02*
X875950D01*
X869950Y78800D02*
Y90800D01*
X902050Y84800D02*
X914050D01*
X908050Y78800D02*
Y90800D01*
X940150Y84800D02*
X952150D01*
X946150Y78800D02*
Y90800D01*
X978250Y84800D02*
X990250D01*
X984250Y78800D02*
Y90800D01*
X1016350Y84800D02*
X1028350D01*
X1022350Y78800D02*
Y90800D01*
X1054450Y84800D02*
X1066450D01*
X1060450Y78800D02*
Y90800D01*
X1092550Y84800D02*
X1104550D01*
X1098550Y78800D02*
Y90800D01*
X1130650Y84800D02*
X1142650D01*
X1136650Y78800D02*
Y90800D01*
X1168750Y84800D02*
X1180750D01*
X1174750Y78800D02*
Y90800D01*
X1206850Y84800D02*
X1218850D01*
X1212850Y78800D02*
Y90800D01*
X1574000Y70000D02*
X1606000D01*
X1590000Y54000D02*
Y86000D01*
X54000Y1190000D02*
X86000D01*
X70000Y1174000D02*
Y1206000D01*
X1574000Y1190000D02*
X1606000D01*
X1590000Y1174000D02*
Y1206000D01*
X271050Y990600D02*
X275050D01*
X273050Y988600D02*
Y992600D01*
X334550Y990600D02*
X338550D01*
X336550Y988600D02*
Y992600D01*
X447390Y977075D02*
X451390D01*
X449390Y975075D02*
Y979075D01*
X347250Y990600D02*
X351250D01*
X349250Y988600D02*
Y992600D01*
X359950Y990600D02*
X363950D01*
X361950Y988600D02*
Y992600D01*
X372650Y965200D02*
X376650D01*
X374650Y963200D02*
Y967200D01*
X308658Y974841D02*
X312658D01*
X310658Y972841D02*
Y976841D01*
X308536Y955925D02*
X312536D01*
X310536Y953925D02*
Y957925D01*
X232950Y965200D02*
X236950D01*
X234950Y963200D02*
Y967200D01*
X509950Y990600D02*
X513950D01*
X511950Y988600D02*
Y992600D01*
X188500Y990600D02*
X192500D01*
X190500Y988600D02*
Y992600D01*
X112300Y990600D02*
X116300D01*
X114300Y988600D02*
Y992600D01*
X506000Y958850D02*
X510000D01*
X508000Y956850D02*
Y960850D01*
X131350Y971550D02*
X135350D01*
X133350Y969550D02*
Y973550D01*
X99600Y990600D02*
X103600D01*
X101600Y988600D02*
Y992600D01*
X125000Y990600D02*
X129000D01*
X127000Y988600D02*
Y992600D01*
X499500Y834800D02*
X503500D01*
X501500Y832800D02*
Y836800D01*
X1164500Y774800D02*
X1168500D01*
X1166500Y772800D02*
Y776800D01*
X645700Y732500D02*
X649700D01*
X647700Y730500D02*
Y734500D01*
X645700Y834100D02*
X649700D01*
X647700Y832100D02*
Y836100D01*
X683800Y846800D02*
X687800D01*
X685800Y844800D02*
Y848800D01*
X975900Y1112520D02*
X979900D01*
X977900Y1110520D02*
Y1114520D01*
X899700Y1112520D02*
X903700D01*
X901700Y1110520D02*
Y1114520D01*
X823500Y1112520D02*
X827500D01*
X825500Y1110520D02*
Y1114520D01*
X747300Y1112520D02*
X751300D01*
X749300Y1110520D02*
Y1114520D01*
X763800Y1109097D02*
X767800D01*
X765800Y1107097D02*
Y1111097D01*
X609550Y1107150D02*
X613550D01*
X611550Y1105150D02*
Y1109150D01*
X685750Y1107150D02*
X689750D01*
X687750Y1105150D02*
Y1109150D01*
X704500Y904800D02*
X708500D01*
X706500Y902800D02*
Y906800D01*
X726980Y962660D02*
X730980D01*
X728980Y960660D02*
Y964660D01*
X726980Y993140D02*
X730980D01*
X728980Y991140D02*
Y995140D01*
X626650Y903950D02*
X630650D01*
X628650Y901950D02*
Y905950D01*
X550450Y853150D02*
X554450D01*
X552450Y851150D02*
Y855150D01*
X749840Y962660D02*
X753840D01*
X751840Y960660D02*
Y964660D01*
X749840Y993140D02*
X753840D01*
X751840Y991140D02*
Y995140D01*
X798100Y910300D02*
X802100D01*
X800100Y908300D02*
Y912300D01*
X472599Y902721D02*
X476599D01*
X474599Y900721D02*
Y904721D01*
X709200Y850900D02*
X713200D01*
X711200Y848900D02*
Y852900D01*
X848900Y910300D02*
X852900D01*
X850900Y908300D02*
Y912300D01*
X609550Y1164300D02*
X613550D01*
X611550Y1162300D02*
Y1166300D01*
X685750Y1164300D02*
X689750D01*
X687750Y1162300D02*
Y1166300D01*
X1153700Y757900D02*
X1157700D01*
X1155700Y755900D02*
Y759900D01*
X1064800Y757900D02*
X1068800D01*
X1066800Y755900D02*
Y759900D01*
X1158043Y781050D02*
X1162043D01*
X1160043Y779050D02*
Y783050D01*
X1145343Y793750D02*
X1149343D01*
X1147343Y791750D02*
Y795750D01*
X1151693Y787400D02*
X1155693D01*
X1153693Y785400D02*
Y789400D01*
X1064800Y812800D02*
X1068800D01*
X1066800Y810800D02*
Y814800D01*
X1071150Y793750D02*
X1075150D01*
X1073150Y791750D02*
Y795750D01*
X1077500Y787400D02*
X1081500D01*
X1079500Y785400D02*
Y789400D01*
X1083850Y781050D02*
X1087850D01*
X1085850Y779050D02*
Y783050D01*
X213900Y903950D02*
X217900D01*
X215900Y901950D02*
Y905950D01*
X61500Y903950D02*
X65500D01*
X63500Y901950D02*
Y905950D01*
X328200Y891250D02*
X332200D01*
X330200Y889250D02*
Y893250D01*
X302800Y910300D02*
X306800D01*
X304800Y908300D02*
Y912300D01*
X156750Y910300D02*
X160750D01*
X158750Y908300D02*
Y912300D01*
X404400Y853150D02*
X408400D01*
X406400Y851150D02*
Y855150D01*
X290100Y853150D02*
X294100D01*
X292100Y851150D02*
Y855150D01*
X156750Y853150D02*
X160750D01*
X158750Y851150D02*
Y855150D01*
X353600Y834100D02*
X357600D01*
X355600Y832100D02*
Y836100D01*
X239300Y834100D02*
X243300D01*
X241300Y832100D02*
Y836100D01*
X105950Y834100D02*
X109950D01*
X107950Y832100D02*
Y836100D01*
X955580Y993140D02*
X959580D01*
X957580Y991140D02*
Y995140D01*
X978440Y993140D02*
X982440D01*
X980440Y991140D02*
Y995140D01*
X955580Y962660D02*
X959580D01*
X957580Y960660D02*
Y964660D01*
X978440Y962660D02*
X982440D01*
X980440Y960660D02*
Y964660D01*
X879380Y993140D02*
X883380D01*
X881380Y991140D02*
Y995140D01*
X902240Y993140D02*
X906240D01*
X904240Y991140D02*
Y995140D01*
X879380Y962660D02*
X883380D01*
X881380Y960660D02*
Y964660D01*
X902240Y962660D02*
X906240D01*
X904240Y960660D02*
Y964660D01*
X803180Y993140D02*
X807180D01*
X805180Y991140D02*
Y995140D01*
X826040Y993140D02*
X830040D01*
X828040Y991140D02*
Y995140D01*
X803180Y962660D02*
X807180D01*
X805180Y960660D02*
Y964660D01*
X826040Y962660D02*
X830040D01*
X828040Y960660D02*
Y964660D01*
X648490Y977075D02*
X652490D01*
X650490Y975075D02*
Y979075D01*
X675990Y977075D02*
X679990D01*
X677990Y975075D02*
Y979075D01*
X662350Y977900D02*
X666350D01*
X664350Y975900D02*
Y979900D01*
X572290Y977075D02*
X576290D01*
X574290Y975075D02*
Y979075D01*
X599790Y977075D02*
X603790D01*
X601790Y975075D02*
Y979075D01*
X586150Y977900D02*
X590150D01*
X588150Y975900D02*
Y979900D01*
X525050Y990600D02*
X529050D01*
X527050Y988600D02*
Y992600D01*
X419890Y977075D02*
X423890D01*
X421890Y975075D02*
Y979075D01*
X433750Y977900D02*
X437750D01*
X435750Y975900D02*
Y979900D01*
X258350Y990600D02*
X262350D01*
X260350Y988600D02*
Y992600D01*
X283750Y990600D02*
X287750D01*
X285750Y988600D02*
Y992600D01*
X201200Y990600D02*
X205200D01*
X203200Y988600D02*
Y992600D01*
X169450Y990600D02*
X173450D01*
X171450Y988600D02*
Y992600D01*
X852838Y714307D02*
X856838D01*
X854838Y712307D02*
Y716307D01*
X880667Y716964D02*
X884667D01*
X882667Y714964D02*
Y718964D01*
X804450Y427700D02*
X808450D01*
X806450Y425700D02*
Y429700D01*
X570470Y504050D02*
X574470D01*
X572470Y502050D02*
Y506050D01*
X1077500Y929350D02*
X1081500D01*
X1079500Y927350D02*
Y931350D01*
X372650Y770600D02*
X376650D01*
X374650Y768600D02*
Y772600D01*
X340900Y770600D02*
X344900D01*
X342900Y768600D02*
Y772600D01*
X690150Y319750D02*
X694150D01*
X692150Y317750D02*
Y321750D01*
X525050Y300700D02*
X529050D01*
X527050Y298700D02*
Y302700D01*
X486950Y300700D02*
X490950D01*
X488950Y298700D02*
Y302700D01*
X1414050Y1113500D02*
X1418050D01*
X1416050Y1111500D02*
Y1115500D01*
X1337850Y973800D02*
X1341850D01*
X1339850Y971800D02*
Y975800D01*
X1414050Y973800D02*
X1418050D01*
X1416050Y971800D02*
Y975800D01*
X1350550Y903950D02*
X1354550D01*
X1352550Y901950D02*
Y905950D01*
X1337850Y948400D02*
X1341850D01*
X1339850Y946400D02*
Y950400D01*
X1318800Y929350D02*
X1322800D01*
X1320800Y927350D02*
Y931350D01*
X1293400Y954750D02*
X1297400D01*
X1295400Y952750D02*
Y956750D01*
X1306100Y942050D02*
X1310100D01*
X1308100Y940050D02*
Y944050D01*
X1306100Y929350D02*
X1310100D01*
X1308100Y927350D02*
Y931350D01*
X1325150Y878550D02*
X1329150D01*
X1327150Y876550D02*
Y880550D01*
X1299750Y872200D02*
X1303750D01*
X1301750Y870200D02*
Y874200D01*
X1306100Y859500D02*
X1310100D01*
X1308100Y857500D02*
Y861500D01*
X1299750Y853150D02*
X1303750D01*
X1301750Y851150D02*
Y855150D01*
X1541050Y846800D02*
X1545050D01*
X1543050Y844800D02*
Y848800D01*
X1541050Y942050D02*
X1545050D01*
X1543050Y940050D02*
Y944050D01*
X1553750Y859500D02*
X1557750D01*
X1555750Y857500D02*
Y861500D01*
X1553750Y929350D02*
X1557750D01*
X1555750Y927350D02*
Y931350D01*
X1541050Y859500D02*
X1545050D01*
X1543050Y857500D02*
Y861500D01*
X1541050Y929350D02*
X1545050D01*
X1543050Y927350D02*
Y931350D01*
X1572800Y967450D02*
X1576800D01*
X1574800Y965450D02*
Y969450D01*
X1560100Y967450D02*
X1564100D01*
X1562100Y965450D02*
Y969450D01*
X1585500Y1050000D02*
X1589500D01*
X1587500Y1048000D02*
Y1052000D01*
X1407700Y1132550D02*
X1411700D01*
X1409700Y1130550D02*
Y1134550D01*
X1477550Y1132550D02*
X1481550D01*
X1479550Y1130550D02*
Y1134550D01*
X1541050Y1018250D02*
X1545050D01*
X1543050Y1016250D02*
Y1020250D01*
X1407700Y999200D02*
X1411700D01*
X1409700Y997200D02*
Y1001200D01*
X1407700Y1050000D02*
X1411700D01*
X1409700Y1048000D02*
Y1052000D01*
X1299750Y1050000D02*
X1303750D01*
X1301750Y1048000D02*
Y1052000D01*
X1299750Y1018250D02*
X1303750D01*
X1301750Y1016250D02*
Y1020250D01*
X1268000Y954750D02*
X1272000D01*
X1270000Y952750D02*
Y956750D01*
X1255300Y954750D02*
X1259300D01*
X1257300Y952750D02*
Y956750D01*
X1090200Y1062700D02*
X1094200D01*
X1092200Y1060700D02*
Y1064700D01*
X1058450Y1062700D02*
X1062450D01*
X1060450Y1060700D02*
Y1064700D01*
X1268000Y389600D02*
X1272000D01*
X1270000Y387600D02*
Y391600D01*
X1184500Y384800D02*
X1188500D01*
X1186500Y382800D02*
Y386800D01*
X1014000Y491200D02*
X1018000D01*
X1016000Y489200D02*
Y493200D01*
X1058450Y529300D02*
X1062450D01*
X1060450Y527300D02*
Y531300D01*
X1102900Y529300D02*
X1106900D01*
X1104900Y527300D02*
Y531300D01*
X982250Y637250D02*
X986250D01*
X984250Y635250D02*
Y639250D01*
X1452150Y605500D02*
X1456150D01*
X1454150Y603500D02*
Y607500D01*
X1331500Y599150D02*
X1335500D01*
X1333500Y597150D02*
Y601150D01*
X1350550Y649950D02*
X1354550D01*
X1352550Y647950D02*
Y651950D01*
X1242600Y161000D02*
X1246600D01*
X1244600Y159000D02*
Y163000D01*
X1114465Y407290D02*
X1118465D01*
X1116465Y405290D02*
Y409290D01*
X1155500Y467500D02*
X1159500D01*
X1157500Y465500D02*
Y469500D01*
X1098000Y562500D02*
X1102000D01*
X1100000Y560500D02*
Y564500D01*
X1058000Y560000D02*
X1062000D01*
X1060000Y558000D02*
Y562000D01*
X1163000Y610000D02*
X1167000D01*
X1165000Y608000D02*
Y612000D01*
X1135500Y585000D02*
X1139500D01*
X1137500Y583000D02*
Y587000D01*
X606300Y377825D02*
X610300D01*
X608300Y375825D02*
Y379825D01*
X1144473Y571500D02*
X1148473D01*
X1146473Y569500D02*
Y573500D01*
X1020743Y474757D02*
X1024743D01*
X1022743Y472757D02*
Y476757D01*
X1003000Y475000D02*
X1007000D01*
X1005000Y473000D02*
Y477000D01*
X959573Y475286D02*
X963573D01*
X961573Y473286D02*
Y477286D01*
X1093000Y417500D02*
X1097000D01*
X1095000Y415500D02*
Y419500D01*
X1040055Y608138D02*
X1044055D01*
X1042055Y606138D02*
Y610137D01*
X1144801Y504185D02*
X1148801D01*
X1146801Y502185D02*
Y506185D01*
X1094000Y465000D02*
X1098000D01*
X1096000Y463000D02*
Y467000D01*
X1004333Y504377D02*
X1008333D01*
X1006333Y502377D02*
Y506377D01*
X874300Y317500D02*
X878300D01*
X876300Y315500D02*
Y319500D01*
X772700Y304800D02*
X776700D01*
X774700Y302800D02*
Y306800D01*
X1064800Y711200D02*
X1068800D01*
X1066800Y709200D02*
Y713200D01*
X1550042Y753500D02*
X1554042D01*
X1552042Y751500D02*
Y755500D01*
X1550042Y691407D02*
X1554042D01*
X1552042Y689407D02*
Y693407D01*
X1025500Y588000D02*
X1029500D01*
X1027500Y586000D02*
Y590000D01*
X1078000Y500000D02*
X1082000D01*
X1080000Y498000D02*
Y502000D01*
X1093000Y497500D02*
X1097000D01*
X1095000Y495500D02*
Y499500D01*
X238000Y110000D02*
X242000D01*
X240000Y108000D02*
Y112000D01*
X1209500Y424800D02*
X1213500D01*
X1211500Y422800D02*
Y426800D01*
X1374500Y124800D02*
X1378500D01*
X1376500Y122800D02*
Y126800D01*
X1438000Y150000D02*
X1442000D01*
X1440000Y148000D02*
Y152000D01*
X618000Y640000D02*
X622000D01*
X620000Y638000D02*
Y642000D01*
X508000Y640000D02*
X512000D01*
X510000Y638000D02*
Y642000D01*
X538000Y640000D02*
X542000D01*
X540000Y638000D02*
Y642000D01*
X478000Y640000D02*
X482000D01*
X480000Y638000D02*
Y642000D01*
X588000Y640000D02*
X592000D01*
X590000Y638000D02*
Y642000D01*
X848000Y550000D02*
X852000D01*
X850000Y548000D02*
Y552000D01*
X905500Y435000D02*
X909500D01*
X907500Y433000D02*
Y437000D01*
X1258000Y510000D02*
X1262000D01*
X1260000Y508000D02*
Y512000D01*
X1568000Y390000D02*
X1572000D01*
X1570000Y388000D02*
Y392000D01*
X1438000Y500000D02*
X1442000D01*
X1440000Y498000D02*
Y502000D01*
X1398000Y600000D02*
X1402000D01*
X1400000Y598000D02*
Y602000D01*
X1308000Y560000D02*
X1312000D01*
X1310000Y558000D02*
Y562000D01*
X1278000Y600000D02*
X1282000D01*
X1280000Y598000D02*
Y602000D01*
X1508000Y790000D02*
X1512000D01*
X1510000Y788000D02*
Y792000D01*
X1438000Y650000D02*
X1442000D01*
X1440000Y648000D02*
Y652000D01*
X1398000Y790000D02*
X1402000D01*
X1400000Y788000D02*
Y792000D01*
X1338000Y790000D02*
X1342000D01*
X1340000Y788000D02*
Y792000D01*
X1268000Y720000D02*
X1272000D01*
X1270000Y718000D02*
Y722000D01*
X1278000Y650000D02*
X1282000D01*
X1280000Y648000D02*
Y652000D01*
X1058000Y1030000D02*
X1062000D01*
X1060000Y1028000D02*
Y1032000D01*
X1088000Y1030000D02*
X1092000D01*
X1090000Y1028000D02*
Y1032000D01*
X950500Y910300D02*
X954500D01*
X952500Y908300D02*
Y912300D01*
X1078000Y840000D02*
X1082000D01*
X1080000Y838000D02*
Y842000D01*
X1168000Y830000D02*
X1172000D01*
X1170000Y828000D02*
Y832000D01*
X1558000Y870000D02*
X1562000D01*
X1560000Y868000D02*
Y872000D01*
X1558000Y920000D02*
X1562000D01*
X1560000Y918000D02*
Y922000D01*
X1328000Y920000D02*
X1332000D01*
X1330000Y918000D02*
Y922000D01*
X1438000Y850000D02*
X1442000D01*
X1440000Y848000D02*
Y852000D01*
X1348000Y870000D02*
X1352000D01*
X1350000Y868000D02*
Y872000D01*
X1018000Y680000D02*
X1022000D01*
X1020000Y678000D02*
Y682000D01*
X1048000Y650000D02*
X1052000D01*
X1050000Y648000D02*
Y652000D01*
X1168000Y910000D02*
X1172000D01*
X1170000Y908000D02*
Y912000D01*
X1138000Y870000D02*
X1142000D01*
X1140000Y868000D02*
Y872000D01*
X1158000Y720000D02*
X1162000D01*
X1160000Y718000D02*
Y722000D01*
X1198000Y690000D02*
X1202000D01*
X1200000Y688000D02*
Y692000D01*
X1218000Y660000D02*
X1222000D01*
X1220000Y658000D02*
Y662000D01*
X1238000Y640000D02*
X1242000D01*
X1240000Y638000D02*
Y642000D01*
X1238000Y600000D02*
X1242000D01*
X1240000Y598000D02*
Y602000D01*
X1228000Y580000D02*
X1232000D01*
X1230000Y578000D02*
Y582000D01*
X1418000Y420000D02*
X1422000D01*
X1420000Y418000D02*
Y422000D01*
X1448000Y340000D02*
X1452000D01*
X1450000Y338000D02*
Y342000D01*
X1348000Y520000D02*
X1352000D01*
X1350000Y518000D02*
Y522000D01*
X1448000Y280000D02*
X1452000D01*
X1450000Y278000D02*
Y282000D01*
X1228000Y320000D02*
X1232000D01*
X1230000Y318000D02*
Y322000D01*
X1209500Y384800D02*
X1213500D01*
X1211500Y382800D02*
Y386800D01*
X1158000Y370000D02*
X1162000D01*
X1160000Y368000D02*
Y372000D01*
X1128300Y271700D02*
X1132300D01*
X1130300Y269700D02*
Y273700D01*
X1294500Y104800D02*
X1298500D01*
X1296500Y102800D02*
Y106800D01*
X1248000Y80000D02*
X1252000D01*
X1250000Y78000D02*
Y82000D01*
X1128000Y640000D02*
X1132000D01*
X1130000Y638000D02*
Y642000D01*
X1128000Y660000D02*
X1132000D01*
X1130000Y658000D02*
Y662000D01*
X1128000Y700000D02*
X1132000D01*
X1130000Y698000D02*
Y702000D01*
X1178000Y640000D02*
X1182000D01*
X1180000Y638000D02*
Y642000D01*
X1128000Y620000D02*
X1132000D01*
X1130000Y618000D02*
Y622000D01*
X1208000Y500000D02*
X1212000D01*
X1210000Y498000D02*
Y502000D01*
X1178000Y500000D02*
X1182000D01*
X1180000Y498000D02*
Y502000D01*
X1168000Y470000D02*
X1172000D01*
X1170000Y468000D02*
Y472000D01*
X960500Y500582D02*
X964500D01*
X962500Y498582D02*
Y502582D01*
X978000Y410000D02*
X982000D01*
X980000Y408000D02*
Y412000D01*
X988000Y400000D02*
X992000D01*
X990000Y398000D02*
Y402000D01*
X1038000Y400000D02*
X1042000D01*
X1040000Y398000D02*
Y402000D01*
X1038000Y420000D02*
X1042000D01*
X1040000Y418000D02*
Y422000D01*
X573000Y262500D02*
X577000D01*
X575000Y260500D02*
Y264500D01*
X598000Y250000D02*
X602000D01*
X600000Y248000D02*
Y252000D01*
X257074Y333470D02*
X261074D01*
X259074Y331470D02*
Y335470D01*
X291376Y308070D02*
X295376D01*
X293376Y306070D02*
Y310070D01*
X425604Y239660D02*
X429604D01*
X427604Y237660D02*
Y241660D01*
X1487710Y1098417D02*
X1491710D01*
X1489710Y1096417D02*
Y1100417D01*
X1487710Y1052697D02*
X1491710D01*
X1489710Y1050697D02*
Y1054697D01*
X1472470Y1052697D02*
X1476470D01*
X1474470Y1050697D02*
Y1054697D01*
X1502950Y1067937D02*
X1506950D01*
X1504950Y1065937D02*
Y1069937D01*
X1502950Y1052697D02*
X1506950D01*
X1504950Y1050697D02*
Y1054697D01*
X1518190Y1098417D02*
X1522190D01*
X1520190Y1096417D02*
Y1100417D01*
X1518190Y1083177D02*
X1522190D01*
X1520190Y1081177D02*
Y1085177D01*
X1487710Y1067937D02*
X1491710D01*
X1489710Y1065937D02*
Y1069937D01*
X1518190Y1067937D02*
X1522190D01*
X1520190Y1065937D02*
Y1069937D01*
X1472470Y1098417D02*
X1476470D01*
X1474470Y1096417D02*
Y1100417D01*
X1502950Y1083177D02*
X1506950D01*
X1504950Y1081177D02*
Y1085177D01*
X1518190Y1052697D02*
X1522190D01*
X1520190Y1050697D02*
Y1054697D01*
X1487710Y1083177D02*
X1491710D01*
X1489710Y1081177D02*
Y1085177D01*
X1472470Y1067937D02*
X1476470D01*
X1474470Y1065937D02*
Y1069937D01*
X1502950Y1098417D02*
X1506950D01*
X1504950Y1096417D02*
Y1100417D01*
X1472470Y1083177D02*
X1476470D01*
X1474470Y1081177D02*
Y1085177D01*
X1502950Y1115060D02*
X1506950D01*
X1504950Y1113060D02*
Y1117060D01*
X1487710Y1115060D02*
X1491710D01*
X1489710Y1113060D02*
Y1117060D01*
X1503090Y1023620D02*
X1507090D01*
X1505090Y1021620D02*
Y1025620D01*
X1487850Y1023620D02*
X1491850D01*
X1489850Y1021620D02*
Y1025620D01*
X1518330Y1023620D02*
X1522330D01*
X1520330Y1021620D02*
Y1025620D01*
X1472610Y1023620D02*
X1476610D01*
X1474610Y1021620D02*
Y1025620D01*
X1503090Y1008380D02*
X1507090D01*
X1505090Y1006380D02*
Y1010380D01*
X1487850Y1008380D02*
X1491850D01*
X1489850Y1006380D02*
Y1010380D01*
X1518330Y1008380D02*
X1522330D01*
X1520330Y1006380D02*
Y1010380D01*
X1472610Y1008380D02*
X1476610D01*
X1474610Y1006380D02*
Y1010380D01*
X1503090Y993140D02*
X1507090D01*
X1505090Y991140D02*
Y995140D01*
X1487850Y993140D02*
X1491850D01*
X1489850Y991140D02*
Y995140D01*
X1518330Y993140D02*
X1522330D01*
X1520330Y991140D02*
Y995140D01*
X1472610Y993140D02*
X1476610D01*
X1474610Y991140D02*
Y995140D01*
X1503090Y977900D02*
X1507090D01*
X1505090Y975900D02*
Y979900D01*
X1487850Y977900D02*
X1491850D01*
X1489850Y975900D02*
Y979900D01*
X1518330Y977900D02*
X1522330D01*
X1520330Y975900D02*
Y979900D01*
X1472610Y977900D02*
X1476610D01*
X1474610Y975900D02*
Y979900D01*
X1487850Y967740D02*
X1491850D01*
X1489850Y965740D02*
Y969740D01*
X1503090Y967740D02*
X1507090D01*
X1505090Y965740D02*
Y969740D01*
X1255300Y1049020D02*
X1259300D01*
X1257300Y1047020D02*
Y1051020D01*
X1240060Y1049020D02*
X1244060D01*
X1242060Y1047020D02*
Y1051020D01*
X1285780Y1049020D02*
X1289780D01*
X1287780Y1047020D02*
Y1051020D01*
X1270540Y1049020D02*
X1274540D01*
X1272540Y1047020D02*
Y1051020D01*
X1270540Y967740D02*
X1274540D01*
X1272540Y965740D02*
Y969740D01*
X1255300Y967740D02*
X1259300D01*
X1257300Y965740D02*
Y969740D01*
X1240060Y977900D02*
X1244060D01*
X1242060Y975900D02*
Y979900D01*
X1285780Y977900D02*
X1289780D01*
X1287780Y975900D02*
Y979900D01*
X1255300Y977900D02*
X1259300D01*
X1257300Y975900D02*
Y979900D01*
X1270540Y977900D02*
X1274540D01*
X1272540Y975900D02*
Y979900D01*
X1240060Y993140D02*
X1244060D01*
X1242060Y991140D02*
Y995140D01*
X1285780Y993140D02*
X1289780D01*
X1287780Y991140D02*
Y995140D01*
X1255300Y993140D02*
X1259300D01*
X1257300Y991140D02*
Y995140D01*
X1270540Y993140D02*
X1274540D01*
X1272540Y991140D02*
Y995140D01*
X1240060Y1008380D02*
X1244060D01*
X1242060Y1006380D02*
Y1010380D01*
X1285780Y1008380D02*
X1289780D01*
X1287780Y1006380D02*
Y1010380D01*
X1255300Y1008380D02*
X1259300D01*
X1257300Y1006380D02*
Y1010380D01*
X1270540Y1008380D02*
X1274540D01*
X1272540Y1006380D02*
Y1010380D01*
X1240060Y1023620D02*
X1244060D01*
X1242060Y1021620D02*
Y1025620D01*
X1285780Y1023620D02*
X1289780D01*
X1287780Y1021620D02*
Y1025620D01*
X1255300Y1023620D02*
X1259300D01*
X1257300Y1021620D02*
Y1025620D01*
X1270540Y1023620D02*
X1274540D01*
X1272540Y1021620D02*
Y1025620D01*
X1240060Y1064260D02*
X1244060D01*
X1242060Y1062260D02*
Y1066260D01*
X1285780Y1064260D02*
X1289780D01*
X1287780Y1062260D02*
Y1066260D01*
X1255300Y1064260D02*
X1259300D01*
X1257300Y1062260D02*
Y1066260D01*
X1270540Y1064260D02*
X1274540D01*
X1272540Y1062260D02*
Y1066260D01*
X1270540Y1082040D02*
X1274540D01*
X1272540Y1080040D02*
Y1084040D01*
X1255300Y1082040D02*
X1259300D01*
X1257300Y1080040D02*
Y1084040D01*
X1285780Y1082040D02*
X1289780D01*
X1287780Y1080040D02*
Y1084040D01*
X1240060Y1082040D02*
X1244060D01*
X1242060Y1080040D02*
Y1084040D01*
X671100Y499730D02*
X675100D01*
X673100Y497730D02*
Y501730D01*
X925100Y514350D02*
X929100D01*
X927100Y512350D02*
Y516350D01*
X651140Y512668D02*
X655140D01*
X653140Y510667D02*
Y514668D01*
X1058000Y520000D02*
X1062000D01*
X1060000Y518000D02*
Y522000D01*
X1123000Y490000D02*
X1127000D01*
X1125000Y488000D02*
Y492000D01*
X1143000Y490000D02*
X1147000D01*
X1145000Y488000D02*
Y492000D01*
X1075500Y538000D02*
X1079500D01*
X1077500Y536001D02*
Y540000D01*
X607570Y566833D02*
X611570D01*
X609570Y564832D02*
Y568833D01*
X575850Y577850D02*
X579850D01*
X577850Y575850D02*
Y579850D01*
X575850Y539750D02*
X579850D01*
X577850Y537750D02*
Y541750D01*
X652050Y450850D02*
X656050D01*
X654050Y448850D02*
Y452850D01*
X652050Y361950D02*
X656050D01*
X654050Y359950D02*
Y363950D01*
X574000Y416700D02*
X578000D01*
X576000Y414700D02*
Y418700D01*
X652050Y596900D02*
X656050D01*
X654050Y594900D02*
Y598900D01*
X556790Y485150D02*
X560789D01*
X558789Y483150D02*
Y487150D01*
X992400Y1108998D02*
X996400D01*
X994400Y1106999D02*
Y1110999D01*
X916200Y1109097D02*
X920200D01*
X918200Y1107097D02*
Y1111097D01*
X840000Y1109097D02*
X844000D01*
X842000Y1107097D02*
Y1111097D01*
X1268000Y627375D02*
X1272000D01*
X1270000Y625375D02*
Y629375D01*
X1268000Y619875D02*
X1272000D01*
X1270000Y617875D02*
Y621875D01*
X1194340Y627260D02*
X1198340D01*
X1196340Y625260D02*
Y629260D01*
X1194340Y619760D02*
X1198340D01*
X1196340Y617760D02*
Y621760D01*
X563652Y673100D02*
X567651D01*
X565651Y671100D02*
Y675100D01*
X449485Y671830D02*
X453485D01*
X451485Y669830D02*
Y673830D01*
X449485Y661580D02*
X453485D01*
X451485Y659580D02*
Y663580D01*
X449485Y650580D02*
X453485D01*
X451485Y648580D02*
Y652580D01*
X563652Y652780D02*
X567651D01*
X565651Y650780D02*
Y654780D01*
X563785Y662215D02*
X567785D01*
X565785Y660215D02*
Y664215D01*
X518700Y755650D02*
X522700D01*
X520700Y753650D02*
Y757650D01*
X493300Y755650D02*
X497300D01*
X495300Y753650D02*
Y757650D01*
X1179100Y1085480D02*
X1183100D01*
X1181100Y1083480D02*
Y1087480D01*
X1347110Y1084950D02*
X1351110D01*
X1349110Y1082950D02*
Y1086950D01*
X1102900Y457200D02*
X1106900D01*
X1104900Y455200D02*
Y459200D01*
X1119000Y685800D02*
X1123000D01*
X1121000Y683800D02*
Y687800D01*
X804450Y146050D02*
X808450D01*
X806450Y144050D02*
Y148050D01*
X804450Y177800D02*
X808450D01*
X806450Y175800D02*
Y179800D01*
X1441000Y1035000D02*
X1445000D01*
X1443000Y1033000D02*
Y1037000D01*
X1226000Y1035000D02*
X1230000D01*
X1228000Y1033000D02*
Y1037000D01*
X1217000Y1035000D02*
X1221000D01*
X1219000Y1033000D02*
Y1037000D01*
X1207000Y1035000D02*
X1211000D01*
X1209000Y1033000D02*
Y1037000D01*
X1311168Y1035259D02*
X1315168D01*
X1313168Y1033260D02*
Y1037260D01*
X1303000Y1035000D02*
X1307000D01*
X1305000Y1033000D02*
Y1037000D01*
X314009Y110650D02*
X318009D01*
X316009Y108650D02*
Y112650D01*
X230383Y201061D02*
X234383D01*
X232383Y199061D02*
Y203061D01*
X1184500Y424800D02*
X1188500D01*
X1186500Y422800D02*
Y426800D01*
X1358000Y380000D02*
X1362000D01*
X1360000Y378000D02*
Y382000D01*
X505780Y737746D02*
X509780D01*
X507780Y735746D02*
Y739746D01*
X494263Y739232D02*
X498263D01*
X496263Y737232D02*
Y741232D01*
X518000Y740000D02*
X522000D01*
X520000Y738000D02*
Y742000D01*
X523798Y746476D02*
X527798D01*
X525798Y744476D02*
Y748476D01*
X488000Y746850D02*
X492000D01*
X490000Y744850D02*
Y748850D01*
X506000Y754112D02*
X510000D01*
X508000Y752112D02*
Y756112D01*
X1489331Y266700D02*
X1493331D01*
X1491331Y264700D02*
Y268700D01*
X1306050Y266660D02*
X1310050D01*
X1308050Y264660D02*
Y268660D01*
X1176123Y266680D02*
X1180123D01*
X1178123Y264680D02*
Y268680D01*
X851450Y266700D02*
X855450D01*
X853450Y264700D02*
Y268700D01*
X664750Y170180D02*
X668750D01*
X666750Y168180D02*
Y172180D01*
X760000Y109220D02*
X764000D01*
X762000Y107220D02*
Y111220D01*
X696500Y109220D02*
X700500D01*
X698500Y107220D02*
Y111220D01*
X1034500Y452000D02*
X1038500D01*
X1036500Y450000D02*
Y454000D01*
X874300Y814891D02*
X878300D01*
X876300Y812891D02*
Y816891D01*
X899700Y815350D02*
X903700D01*
X901700Y813350D02*
Y817350D01*
X925100Y815808D02*
X929100D01*
X927100Y813808D02*
Y817808D01*
X950500Y815808D02*
X954500D01*
X952500Y813808D02*
Y817808D01*
X1153700Y931742D02*
X1157700D01*
X1155700Y929742D02*
Y933742D01*
X1129300Y931742D02*
X1133300D01*
X1131300Y929742D02*
Y933742D01*
X1103900Y931201D02*
X1107900D01*
X1105900Y929201D02*
Y933201D01*
X1052100Y929640D02*
X1056100D01*
X1054100Y927640D02*
Y931640D01*
X1026700Y929640D02*
X1030700D01*
X1028700Y927640D02*
Y931640D01*
X1001300Y929640D02*
X1005300D01*
X1003300Y927640D02*
Y931640D01*
X1413400Y1009650D02*
X1417400D01*
X1415400Y1007650D02*
Y1011650D01*
X1549375Y1035050D02*
X1553375D01*
X1551375Y1033050D02*
Y1037050D01*
X1542038Y1035050D02*
X1546037D01*
X1544038Y1033050D02*
Y1037050D01*
X1319250Y1035050D02*
X1323250D01*
X1321250Y1033050D02*
Y1037050D01*
X1189214Y589326D02*
X1193214D01*
X1191214Y587326D02*
Y591326D01*
X1279520Y550000D02*
X1283520D01*
X1281520Y548000D02*
Y552000D01*
X978000Y680000D02*
X982000D01*
X980000Y678000D02*
Y682000D01*
X1008000Y605501D02*
X1012000D01*
X1010000Y603501D02*
Y607501D01*
X1245140Y711200D02*
X1249140D01*
X1247140Y709200D02*
Y713200D01*
X1311180Y896620D02*
X1315180D01*
X1313180Y894620D02*
Y898620D01*
X1293400Y896620D02*
X1297400D01*
X1295400Y894620D02*
Y898620D01*
X1529620Y896620D02*
X1533620D01*
X1531620Y894620D02*
Y898620D01*
X1549940Y896620D02*
X1553940D01*
X1551940Y894620D02*
Y898620D01*
X1598200Y975360D02*
X1602200D01*
X1600200Y973360D02*
Y977360D01*
X1598200Y1003300D02*
X1602200D01*
X1600200Y1001300D02*
Y1005300D01*
X1580420Y1089660D02*
X1584420D01*
X1582420Y1087660D02*
Y1091660D01*
X1598200Y1079500D02*
X1602200D01*
X1600200Y1077500D02*
Y1081500D01*
X1410240Y1084580D02*
X1414240D01*
X1412240Y1082580D02*
Y1086580D01*
X1395000Y1079500D02*
X1399000D01*
X1397000Y1077500D02*
Y1081500D01*
X1364182Y1079500D02*
X1368182D01*
X1366182Y1077500D02*
Y1081500D01*
X1395000Y975360D02*
X1399000D01*
X1397000Y973360D02*
Y977360D01*
X1395000Y1003300D02*
X1399000D01*
X1397000Y1001300D02*
Y1005300D01*
X1364183Y975697D02*
X1368183D01*
X1366183Y973697D02*
Y977697D01*
X1364183Y1003300D02*
X1368183D01*
X1366183Y1001300D02*
Y1005300D01*
X1179179Y975439D02*
X1183179D01*
X1181179Y973439D02*
Y977439D01*
X1181385Y1009557D02*
X1185385D01*
X1183385Y1007557D02*
Y1011557D01*
X1166400Y1003300D02*
X1170400D01*
X1168400Y1001300D02*
Y1005300D01*
X1166400Y1079500D02*
X1170400D01*
X1168400Y1077500D02*
Y1081500D01*
X1133380Y1104900D02*
X1137380D01*
X1135380Y1102900D02*
Y1106900D01*
X1123220Y1104900D02*
X1127220D01*
X1125220Y1102900D02*
Y1106900D01*
X937800Y845820D02*
X941800D01*
X939800Y843820D02*
Y847820D01*
X900067Y863233D02*
X904067D01*
X902067Y861233D02*
Y865233D01*
X810800Y845820D02*
X814800D01*
X812800Y843820D02*
Y847820D01*
X772700Y863600D02*
X776700D01*
X774700Y861600D02*
Y865600D01*
X506000Y746850D02*
X510000D01*
X508000Y744850D02*
Y748850D01*
X1379412Y1109980D02*
X1383412D01*
X1381412Y1107980D02*
Y1111980D01*
X1145700Y1106170D02*
X1149700D01*
X1147700Y1104170D02*
Y1108170D01*
X1204500Y1073150D02*
X1208500D01*
X1206500Y1071150D02*
Y1075150D01*
X1378950Y957150D02*
X1382950D01*
X1380950Y955150D02*
Y959150D01*
X1369600Y812730D02*
X1373600D01*
X1371600Y810730D02*
Y814730D01*
X1369600Y857250D02*
X1373600D01*
X1371600Y855250D02*
Y859250D01*
X1432500Y952500D02*
X1436500D01*
X1434500Y950500D02*
Y954500D01*
X1465900Y952500D02*
X1469900D01*
X1467900Y950500D02*
Y954500D01*
X1258000Y610000D02*
X1262000D01*
X1260000Y608000D02*
Y612000D01*
X1195423Y610000D02*
X1199423D01*
X1197423Y608000D02*
Y612000D01*
X1020350Y1098550D02*
X1024350D01*
X1022350Y1096550D02*
Y1100550D01*
X1134650Y990600D02*
X1138650D01*
X1136650Y988600D02*
Y992600D01*
X1414050Y1073150D02*
X1418050D01*
X1416050Y1071150D02*
Y1075150D01*
X1090200Y774700D02*
X1094200D01*
X1092200Y772700D02*
Y776700D01*
X1071150Y685800D02*
X1075150D01*
X1073150Y683800D02*
Y687800D01*
X995500Y660000D02*
X999500D01*
X997500Y658000D02*
Y662000D01*
X1235500Y515000D02*
X1239500D01*
X1237500Y513000D02*
Y517000D01*
X1165500Y457500D02*
X1169500D01*
X1167500Y455500D02*
Y459500D01*
X1235500Y550000D02*
X1239500D01*
X1237500Y548000D02*
Y552000D01*
X829850Y713450D02*
X833850D01*
X831850Y711450D02*
Y715450D01*
X804450Y713450D02*
X808450D01*
X806450Y711450D02*
Y715450D01*
X779050Y713950D02*
X783050D01*
X781050Y711950D02*
Y715950D01*
X753650Y714350D02*
X757650D01*
X755650Y712350D02*
Y716350D01*
X728250Y714750D02*
X732250D01*
X730250Y712750D02*
Y716750D01*
X702850Y714850D02*
X706850D01*
X704850Y712850D02*
Y716850D01*
X651140Y566833D02*
X655140D01*
X653140Y564832D02*
Y568833D01*
X651140Y539750D02*
X655140D01*
X653140Y537750D02*
Y541750D01*
X671100Y552450D02*
X675100D01*
X673100Y550450D02*
Y554450D01*
X652050Y393700D02*
X656050D01*
X654050Y391700D02*
Y395700D01*
X652050Y419100D02*
X656050D01*
X654050Y417100D02*
Y421100D01*
X580470Y504050D02*
X584470D01*
X582470Y502050D02*
Y506050D01*
X1395000Y184150D02*
X1399000D01*
X1397000Y182150D02*
Y186150D01*
X1077500Y254000D02*
X1081500D01*
X1079500Y252000D02*
Y256000D01*
X1077500Y184150D02*
X1081500D01*
X1079500Y182150D02*
Y186150D01*
X753650Y260350D02*
X757650D01*
X755650Y258350D02*
Y262350D01*
X753650Y228600D02*
X757650D01*
X755650Y226600D02*
Y230600D01*
X1395000Y260350D02*
X1399000D01*
X1397000Y258350D02*
Y262350D01*
X867950Y158750D02*
X871950D01*
X869950Y156750D02*
Y160750D01*
X906050Y158750D02*
X910050D01*
X908050Y156750D02*
Y160750D01*
X606300Y274350D02*
X610300D01*
X608300Y272350D02*
Y276350D01*
X606300Y331500D02*
X610300D01*
X608300Y329500D02*
Y333500D01*
X474250Y336550D02*
X478250D01*
X476250Y334550D02*
Y338550D01*
X458700Y292100D02*
X462700D01*
X460700Y290100D02*
Y294100D01*
X428850Y186850D02*
X432850D01*
X430850Y184850D02*
Y188850D01*
X455200Y196850D02*
X459200D01*
X457200Y194850D02*
Y198850D01*
X455200Y222250D02*
X459200D01*
X457200Y220250D02*
Y224250D01*
X1190500Y565000D02*
X1194500D01*
X1192500Y563000D02*
Y567000D01*
X805500Y560000D02*
X809500D01*
X807500Y558000D02*
Y562000D01*
X1030500Y387500D02*
X1034500D01*
X1032500Y385500D02*
Y389500D01*
X1065500Y352500D02*
X1069500D01*
X1067500Y350500D02*
Y354500D01*
X134964Y233943D02*
X138964D01*
X136964Y231943D02*
Y235943D01*
X183049Y227404D02*
X187049D01*
X185049Y225404D02*
Y229404D01*
X339950Y110650D02*
X343950D01*
X341950Y108650D02*
Y112650D01*
X1128300Y1009650D02*
X1132300D01*
X1130300Y1007650D02*
Y1011650D01*
X438534Y123350D02*
X442534D01*
X440534Y121350D02*
Y125350D01*
X326500Y167050D02*
X330500D01*
X328500Y165050D02*
Y169050D01*
X428700Y314000D02*
X432700D01*
X430700Y312000D02*
Y316000D01*
X278834Y233943D02*
X282834D01*
X280834Y231943D02*
Y235943D01*
X135000Y324943D02*
X139001D01*
X137001Y322943D02*
Y326943D01*
X174850Y233943D02*
X178850D01*
X176850Y231943D02*
Y235943D01*
X136750Y142943D02*
X140750D01*
X138750Y140943D02*
Y144943D01*
X92300Y205900D02*
X96300D01*
X94300Y203900D02*
Y207900D01*
X92300Y263050D02*
X96300D01*
X94300Y261050D02*
Y265050D01*
X1535250Y169800D02*
X1539250D01*
X1537250Y167801D02*
Y171800D01*
X1580556Y169500D02*
X1584556D01*
X1582556Y167500D02*
Y171500D01*
X1580309Y240240D02*
X1584309D01*
X1582309Y238240D02*
Y242240D01*
X1580309Y266240D02*
X1584309D01*
X1582309Y264240D02*
Y268240D01*
X1579050Y292700D02*
X1583050D01*
X1581050Y290700D02*
Y294700D01*
X1267143Y292660D02*
X1271143D01*
X1269143Y290660D02*
Y294660D01*
X1267143Y266660D02*
X1271143D01*
X1269143Y264660D02*
Y268660D01*
X1267143Y240660D02*
X1271143D01*
X1269143Y238660D02*
Y242660D01*
X1351550Y266700D02*
X1355550D01*
X1353550Y264700D02*
Y268700D01*
X1306050Y292700D02*
X1310050D01*
X1308050Y290700D02*
Y294700D01*
X1306050Y214700D02*
X1310050D01*
X1308050Y212700D02*
Y216700D01*
X1306050Y240700D02*
X1310050D01*
X1308050Y238700D02*
Y242700D01*
X710288Y266677D02*
X714288D01*
X712288Y264677D02*
Y268677D01*
X664700Y292700D02*
X668700D01*
X666700Y290700D02*
Y294700D01*
X664700Y266700D02*
X668700D01*
X666700Y264700D02*
Y268700D01*
X664700Y240700D02*
X668700D01*
X666700Y238700D02*
Y242700D01*
X664700Y214700D02*
X668700D01*
X666700Y212700D02*
Y216700D01*
X579200Y358100D02*
X583200D01*
X581200Y356100D02*
Y360100D01*
X569200Y358100D02*
X573200D01*
X571200Y356100D02*
Y360100D01*
X947277Y292700D02*
X951277D01*
X949277Y290700D02*
Y294700D01*
X947450Y266700D02*
X951450D01*
X949450Y264700D02*
Y268700D01*
X947450Y240700D02*
X951450D01*
X949450Y238700D02*
Y242700D01*
X987643Y240660D02*
X991643D01*
X989643Y238660D02*
Y242660D01*
X987643Y214660D02*
X991643D01*
X989643Y212661D02*
Y216660D01*
X987643Y292660D02*
X991643D01*
X989643Y290660D02*
Y294660D01*
X987643Y266660D02*
X991643D01*
X989643Y264660D02*
Y268660D01*
X1034368Y266366D02*
X1038368D01*
X1036368Y264366D02*
Y268366D01*
X944150Y158750D02*
X948150D01*
X946150Y156750D02*
Y160750D01*
X1020350Y158750D02*
X1024350D01*
X1022350Y156750D02*
Y160750D01*
X982250Y158750D02*
X986250D01*
X984250Y156750D02*
Y160750D01*
X552990Y609750D02*
X556990D01*
X554990Y607750D02*
Y611750D01*
X230000Y227443D02*
X234000D01*
X232000Y225443D02*
Y229443D01*
X230000Y240443D02*
X234000D01*
X232000Y238443D02*
Y242443D01*
X230000Y266443D02*
X234000D01*
X232000Y264443D02*
Y268443D01*
X1534700Y1035050D02*
X1538700D01*
X1536700Y1033050D02*
Y1037050D01*
X1452150Y1035050D02*
X1456150D01*
X1454150Y1033050D02*
Y1037050D01*
M02*
